<?xml version="1.0" encoding="utf-8" standalone="no"?>
<!DOCTYPE svg PUBLIC "-//W3C//DTD SVG 1.1//EN"
  "http://www.w3.org/Graphics/SVG/1.1/DTD/svg11.dtd">
<!-- Created with matplotlib (https://matplotlib.org/) -->
<svg height="344.761838pt" version="1.1" viewBox="0 0 529.666744 344.761838" width="529.666744pt" xmlns="http://www.w3.org/2000/svg" xmlns:xlink="http://www.w3.org/1999/xlink">
 <defs>
  <style type="text/css">
*{stroke-linecap:butt;stroke-linejoin:round;}
  </style>
 </defs>
 <g id="figure_1">
  <g id="patch_1">
   <path d="M 0 344.761838 
L 529.666744 344.761838 
L 529.666744 0 
L 0 0 
z
" style="fill:#ffffff;"/>
  </g>
  <g id="axes_1">
   <g id="patch_2">
    <path d="M 76.066744 296.955168 
L 522.466744 296.955168 
L 522.466744 25.155168 
L 76.066744 25.155168 
z
" style="fill:#ffffff;"/>
   </g>
   <g id="matplotlib.axis_1">
    <g id="xtick_1">
     <g id="line2d_1">
      <path clip-path="url(#p49b7bd96b0)" d="M 139.838172 296.955168 
L 139.838172 25.155168 
" style="fill:none;stroke:#cccccc;stroke-linecap:round;stroke-width:0.8;"/>
     </g>
     <g id="line2d_2"/>
     <g id="text_1">
      <!-- $-10$ -->
      <defs>
       <path d="M 65.90625 23 
C 67.59375 23 69.40625 23 69.40625 25 
C 69.40625 27 67.59375 27 65.90625 27 
L 11.796875 27 
C 10.09375 27 8.296875 27 8.296875 25 
C 8.296875 23 10.09375 23 11.796875 23 
z
" id="CMSY10-0"/>
       <path d="M 26.59375 63.40625 
C 26.59375 65.5 26.5 65.5 25.09375 65.5 
C 21.203125 61.1875 15.296875 59.796875 9.703125 59.796875 
C 9.40625 59.796875 8.90625 59.796875 8.796875 59.5 
C 8.703125 59.296875 8.703125 59.09375 8.703125 57 
C 11.796875 57 17 57.59375 21 59.984375 
L 21 7.203125 
C 21 3.6875 20.796875 2.5 12.203125 2.5 
L 9.203125 2.5 
L 9.203125 0 
C 14 0 19 0 23.796875 0 
C 28.59375 0 33.59375 0 38.40625 0 
L 38.40625 2.5 
L 35.40625 2.5 
C 26.796875 2.5 26.59375 3.59375 26.59375 7.15625 
z
" id="CMR17-49"/>
       <path d="M 42 31.640625 
C 42 37.75 41.90625 48.125 37.703125 56.109375 
C 34 63.109375 28.09375 65.59375 22.90625 65.59375 
C 18.09375 65.59375 12 63.40625 8.203125 56.203125 
C 4.203125 48.71875 3.796875 39.4375 3.796875 31.640625 
C 3.796875 25.953125 3.90625 17.28125 7 9.671875 
C 11.296875 -0.609375 19 -2 22.90625 -2 
C 27.5 -2 34.5 -0.109375 38.59375 9.375 
C 41.59375 16.28125 42 24.359375 42 31.640625 
z
M 22.90625 -0.40625 
C 16.5 -0.40625 12.703125 5.078125 11.296875 12.6875 
C 10.203125 18.5625 10.203125 27.15625 10.203125 32.75 
C 10.203125 40.4375 10.203125 46.828125 11.5 52.921875 
C 13.40625 61.390625 19 64 22.90625 64 
C 27 64 32.296875 61.296875 34.203125 53.125 
C 35.5 47.4375 35.59375 40.734375 35.59375 32.75 
C 35.59375 26.25 35.59375 18.265625 34.40625 12.375 
C 32.296875 1.484375 26.40625 -0.40625 22.90625 -0.40625 
z
" id="CMR17-48"/>
      </defs>
      <g style="fill:#262626;" transform="translate(125.247958 312.410336)scale(0.1728 -0.1728)">
       <use transform="scale(0.996264)" xlink:href="#CMSY10-0"/>
       <use transform="translate(77.487468 0)scale(0.996264)" xlink:href="#CMR17-49"/>
       <use transform="translate(123.177945 0)scale(0.996264)" xlink:href="#CMR17-48"/>
      </g>
     </g>
    </g>
    <g id="xtick_2">
     <g id="line2d_3">
      <path clip-path="url(#p49b7bd96b0)" d="M 219.552458 296.955168 
L 219.552458 25.155168 
" style="fill:none;stroke:#cccccc;stroke-linecap:round;stroke-width:0.8;"/>
     </g>
     <g id="line2d_4"/>
     <g id="text_2">
      <!-- $-5$ -->
      <defs>
       <path d="M 11.40625 57.6875 
C 12.40625 57.28125 16.5 56 20.703125 56 
C 30 56 35.09375 61.109375 38 64.0625 
C 38 64.953125 38 65.5 37.40625 65.5 
C 37.296875 65.5 37.09375 65.5 36.296875 65.046875 
C 32.796875 63.40625 28.703125 62.078125 23.703125 62.078125 
C 20.703125 62.078125 16.203125 62.484375 11.296875 64.671875 
C 10.203125 65.171875 10 65.171875 9.90625 65.171875 
C 9.40625 65.171875 9.296875 65.0625 9.296875 63.078125 
L 9.296875 34.421875 
C 9.296875 32.640625 9.296875 32.140625 10.296875 32.140625 
C 10.796875 32.140625 11 32.34375 11.5 33.03125 
C 14.703125 37.515625 19.09375 39.40625 24.09375 39.40625 
C 27.59375 39.40625 35.09375 37.21875 35.09375 20.140625 
C 35.09375 16.953125 35.09375 11.171875 32.09375 6.578125 
C 29.59375 2.484375 25.703125 0.390625 21.40625 0.390625 
C 14.796875 0.390625 8.09375 5 6.296875 12.71875 
C 6.703125 12.609375 7.5 12.421875 7.90625 12.421875 
C 9.203125 12.421875 11.703125 13.125 11.703125 16.21875 
C 11.703125 18.90625 9.796875 20 7.90625 20 
C 5.59375 20 4.09375 18.59375 4.09375 15.796875 
C 4.09375 7.09375 11 -2 21.59375 -2 
C 31.90625 -2 41.703125 6.875 41.703125 19.75 
C 41.703125 31.71875 33.90625 41 24.203125 41 
C 19.09375 41 14.796875 39.109375 11.40625 35.53125 
z
" id="CMR17-53"/>
      </defs>
      <g style="fill:#262626;" transform="translate(208.909895 312.410336)scale(0.1728 -0.1728)">
       <use transform="scale(0.996264)" xlink:href="#CMSY10-0"/>
       <use transform="translate(77.487468 0)scale(0.996264)" xlink:href="#CMR17-53"/>
      </g>
     </g>
    </g>
    <g id="xtick_3">
     <g id="line2d_5">
      <path clip-path="url(#p49b7bd96b0)" d="M 299.266744 296.955168 
L 299.266744 25.155168 
" style="fill:none;stroke:#cccccc;stroke-linecap:round;stroke-width:0.8;"/>
     </g>
     <g id="line2d_6"/>
     <g id="text_3">
      <!-- $0$ -->
      <g style="fill:#262626;" transform="translate(295.319092 312.410336)scale(0.1728 -0.1728)">
       <use transform="scale(0.996264)" xlink:href="#CMR17-48"/>
      </g>
     </g>
    </g>
    <g id="xtick_4">
     <g id="line2d_7">
      <path clip-path="url(#p49b7bd96b0)" d="M 378.981029 296.955168 
L 378.981029 25.155168 
" style="fill:none;stroke:#cccccc;stroke-linecap:round;stroke-width:0.8;"/>
     </g>
     <g id="line2d_8"/>
     <g id="text_4">
      <!-- $5$ -->
      <g style="fill:#262626;" transform="translate(375.033377 312.410336)scale(0.1728 -0.1728)">
       <use transform="scale(0.996264)" xlink:href="#CMR17-53"/>
      </g>
     </g>
    </g>
    <g id="xtick_5">
     <g id="line2d_9">
      <path clip-path="url(#p49b7bd96b0)" d="M 458.695315 296.955168 
L 458.695315 25.155168 
" style="fill:none;stroke:#cccccc;stroke-linecap:round;stroke-width:0.8;"/>
     </g>
     <g id="line2d_10"/>
     <g id="text_5">
      <!-- $10$ -->
      <g style="fill:#262626;" transform="translate(450.800011 312.410336)scale(0.1728 -0.1728)">
       <use transform="scale(0.996264)" xlink:href="#CMR17-49"/>
       <use transform="translate(45.690477 0)scale(0.996264)" xlink:href="#CMR17-48"/>
      </g>
     </g>
    </g>
    <g id="text_6">
     <!-- offset from $t_{opt}$ (days) -->
     <defs>
      <path d="M 44.203125 21.1875 
C 44.203125 34 34.703125 44 23.5 44 
C 12 44 2.703125 33.703125 2.703125 21.1875 
C 2.703125 8.5 12.296875 -1 23.40625 -1 
C 34.796875 -1 44.203125 8.796875 44.203125 21.1875 
z
M 23.5 5.265625 
C 16.40625 5.265625 10.296875 11.078125 10.296875 22 
C 10.296875 33.609375 17.40625 37.921875 23.40625 37.921875 
C 29.90625 37.921875 36.59375 33.21875 36.59375 22 
C 36.59375 10.671875 30.09375 5.265625 23.5 5.265625 
z
" id="CMSS17-111"/>
      <path d="M 16.796875 37 
L 27.09375 37 
L 27.09375 42.765625 
L 16.59375 42.765625 
L 16.59375 55.609375 
C 16.59375 62.515625 21.796875 63.9375 25.203125 63.9375 
C 28.703125 63.9375 31.59375 63.03125 32.703125 62.640625 
L 32.703125 69.203125 
C 31.59375 69.40625 28.59375 70 25.296875 70 
C 16.09375 70 9.40625 62.484375 9.40625 52.484375 
L 9.40625 42.765625 
L 2.5 42.765625 
L 2.5 37 
L 9.40625 37 
L 9.40625 0 
L 16.796875 0 
z
M 42.796875 37 
L 53.09375 37 
L 53.09375 42.765625 
L 42.59375 42.765625 
L 42.59375 55.609375 
C 42.59375 62.515625 47.796875 63.9375 51.203125 63.9375 
C 54.703125 63.9375 57.59375 63.03125 58.703125 62.640625 
L 58.703125 69.203125 
C 57.59375 69.40625 54.59375 70 51.296875 70 
C 42.09375 70 35.40625 62.515625 35.40625 52.546875 
L 35.40625 0 
L 42.796875 0 
z
" id="CMSS17-11"/>
      <path d="M 32.203125 41.046875 
C 26.296875 43.859375 21.703125 43.859375 18.703125 43.859375 
C 11.59375 43.859375 3.09375 41.375 3.09375 31.296875 
C 3.09375 21.234375 14.09375 19.03125 17.09375 18.421875 
C 21.703125 17.53125 26.796875 16.53125 26.796875 11.5625 
C 26.796875 5.265625 19.59375 5.265625 18.296875 5.265625 
C 14.296875 5.265625 8.796875 6.359375 3.796875 9.96875 
L 2.59375 3.28125 
C 8.296875 0 13.796875 -1 18.40625 -1 
C 30.703125 -1 33.796875 6.5 33.796875 12.203125 
C 33.796875 17.09375 31 20.390625 29.09375 21.890625 
C 25.796875 24.5 24.59375 24.796875 16.40625 26.5 
C 15 26.703125 10.09375 27.796875 10.09375 32.28125 
C 10.09375 38 16.40625 38 17.796875 38 
C 24.296875 38 28.296875 35.984375 31 34.5 
z
" id="CMSS17-115"/>
      <path d="M 39.09375 21.515625 
C 39.09375 24.84375 38.90625 31.296875 35.703125 36.640625 
C 32.203125 42.390625 26.5 44 22.203125 44 
C 11.796875 44 3 34.1875 3 21.484375 
C 3 9.09375 12.09375 -1 23.59375 -1 
C 28.09375 -1 33.59375 0.296875 38.59375 3.875 
C 38.59375 4.28125 38.40625 6.46875 38.296875 6.5625 
C 38.296875 6.765625 38 9.84375 38 10.25 
C 33.203125 6.359375 27.703125 5.078125 23.703125 5.078125 
C 17.296875 5.078125 10.40625 10.421875 10.09375 21.515625 
z
M 10.90625 27 
C 12.203125 32.5625 16.59375 37.828125 22.203125 37.828125 
C 23.703125 37.828125 30.703125 37.828125 32.5 27 
z
" id="CMSS17-101"/>
      <path d="M 16.703125 37 
L 29.703125 37 
L 29.703125 42.765625 
L 16.703125 42.765625 
L 16.703125 55 
L 9.59375 55 
L 9.59375 42.765625 
L 1.703125 42.765625 
L 1.703125 37 
L 9.40625 37 
L 9.40625 11.703125 
C 9.40625 6 10.703125 -1 17.296875 -1 
C 22.296875 -1 26.90625 0.390625 31.296875 2.6875 
L 29.703125 8.5625 
C 27.296875 6.46875 24.40625 5.265625 21.296875 5.265625 
C 16.90625 5.265625 16.703125 10.875 16.703125 13.375 
z
" id="CMSS17-116"/>
      <path d="M 16.796875 37 
L 26.90625 37 
L 26.90625 42.765625 
L 16.59375 42.765625 
L 16.59375 55.609375 
C 16.59375 62.71875 22 63.9375 25.09375 63.9375 
C 26.09375 63.9375 28.90625 63.9375 32.5 62.640625 
L 32.5 69.203125 
C 30.203125 69.703125 27.40625 70 25.203125 70 
C 15.90625 70 9.40625 62.390625 9.40625 52.484375 
L 9.40625 42.765625 
L 2.5 42.765625 
L 2.5 37 
L 9.40625 37 
L 9.40625 0 
L 16.796875 0 
z
" id="CMSS17-102"/>
      <path d="M 14.90625 21.296875 
C 14.90625 30.703125 21.796875 37 30.59375 37 
L 30.59375 43.578125 
C 24.203125 43.578125 18.203125 40.390625 14.59375 35.203125 
L 14.59375 43.09375 
L 7.5 43.09375 
L 7.5 0 
L 14.90625 0 
z
" id="CMSS17-114"/>
      <path d="M 67 29.328125 
C 67 36.0625 65.296875 44 54.09375 44 
C 46.59375 44 42.09375 39.3125 40.09375 36.421875 
C 38.296875 41.71875 34.09375 44 28.09375 44 
C 21.296875 44 17 40.125 14.703125 37.328125 
L 14.703125 43.09375 
L 7.40625 43.09375 
L 7.40625 0 
L 15 0 
L 15 24.359375 
C 15 30.296875 17.203125 37.9375 24.296875 37.9375 
C 33.40625 37.9375 33.40625 31.5 33.40625 28.578125 
L 33.40625 0 
L 41 0 
L 41 24.359375 
C 41 30.296875 43.203125 37.9375 50.296875 37.9375 
C 59.40625 37.9375 59.40625 31.5 59.40625 28.578125 
L 59.40625 0 
L 67 0 
z
" id="CMSS17-109"/>
      <path d="M 20.09375 40.09375 
L 29.296875 40.09375 
C 31.203125 40.09375 32.203125 40.09375 32.203125 41.890625 
C 32.203125 43 31.59375 43 29.59375 43 
L 20.796875 43 
L 24.5 57.6875 
C 24.90625 59.078125 24.90625 59.28125 24.90625 60 
C 24.90625 61.609375 23.59375 62.5 22.296875 62.5 
C 21.5 62.5 19.203125 62.203125 18.40625 58.984375 
L 14.5 43 
L 5.09375 43 
C 3.09375 43 2.203125 43 2.203125 41.09375 
C 2.203125 40.09375 2.90625 40.09375 4.796875 40.09375 
L 13.703125 40.09375 
L 7.09375 13.765625 
C 6.296875 10.28125 6 9.28125 6 7.984375 
C 6 3.296875 9.296875 -1 14.90625 -1 
C 25 -1 30.40625 13.5625 30.40625 14.25 
C 30.40625 14.859375 30 15.15625 29.40625 15.15625 
C 29.203125 15.15625 28.796875 15.15625 28.59375 14.75 
C 28.5 14.65625 28.40625 14.546875 27.703125 12.953125 
C 25.59375 7.984375 21 1 15.203125 1 
C 12.203125 1 12 3.5 12 5.6875 
C 12 5.78125 12 7.6875 12.296875 8.875 
z
" id="CMMI12-116"/>
      <path d="M 45.59375 27.4375 
C 45.59375 36.921875 39.40625 44 30.296875 44 
C 17.09375 44 4.09375 29.640625 4.09375 15.5625 
C 4.09375 6.09375 10.296875 -1 19.40625 -1 
C 32.703125 -1 45.59375 13.375 45.59375 27.4375 
z
M 19.5 1 
C 14.5 1 10.796875 4.984375 10.796875 11.96875 
C 10.796875 16.5625 13.203125 26.75 16 31.734375 
C 20.5 39.421875 26.09375 42.015625 30.203125 42.015625 
C 35.09375 42.015625 38.90625 38.015625 38.90625 31.03125 
C 38.90625 27.046875 36.796875 16.359375 33 10.28125 
C 28.90625 3.59375 23.40625 1 19.5 1 
z
" id="CMMI12-111"/>
      <path d="M 4.296875 -12.328125 
C 3.59375 -15.3125 3.203125 -16.109375 -0.90625 -16.109375 
C -2.09375 -16.109375 -3.09375 -16.109375 -3.09375 -18 
C -3.09375 -18.203125 -3 -19 -1.90625 -19 
C -0.59375 -19 0.796875 -19 2.09375 -19 
L 6.40625 -19 
C 8.5 -19 13.59375 -19 15.703125 -19 
C 16.296875 -19 17.5 -19 17.5 -17.203125 
C 17.5 -16.109375 16.796875 -16.109375 15.09375 -16.109375 
C 10.5 -16.109375 10.203125 -15.421875 10.203125 -14.640625 
C 10.203125 -13.453125 14.703125 3.421875 15.296875 5.6875 
C 16.40625 2.890625 19.09375 -1 24.296875 -1 
C 35.59375 -1 47.796875 13.671875 47.796875 28.34375 
C 47.796875 37.515625 42.59375 44 35.09375 44 
C 28.703125 44 23.296875 37.8125 22.203125 36.421875 
C 21.40625 41.40625 17.5 44 13.5 44 
C 10.59375 44 8.296875 42.609375 6.40625 38.8125 
C 4.59375 35.21875 3.203125 29.140625 3.203125 28.734375 
C 3.203125 28.34375 3.59375 27.84375 4.296875 27.84375 
C 5.09375 27.84375 5.203125 27.9375 5.796875 30.234375 
C 7.296875 36.125 9.203125 42.015625 13.203125 42.015625 
C 15.5 42.015625 16.296875 40.421875 16.296875 37.453125 
C 16.296875 35.078125 16 34.078125 15.59375 32.296875 
z
M 21.59375 31.140625 
C 22.296875 33.921875 25.09375 36.828125 26.703125 38.21875 
C 27.796875 39.21875 31.09375 42.015625 34.90625 42.015625 
C 39.296875 42.015625 41.296875 37.625 41.296875 32.4375 
C 41.296875 27.640625 38.5 16.359375 36 11.171875 
C 33.5 5.78125 28.90625 1 24.296875 1 
C 17.5 1 16.40625 9.578125 16.40625 9.984375 
C 16.40625 10.28125 16.59375 11.078125 16.703125 11.578125 
z
" id="CMMI12-112"/>
      <path d="M 25.203125 74.5 
C 19.796875 69.015625 7.40625 56.265625 7.40625 24.8125 
C 7.40625 -6.765625 19.796875 -19.421875 25.203125 -25 
L 31.296875 -25 
C 19 -12.25 15 5.578125 15 24.703125 
C 15 43.71875 18.796875 61.65625 31.296875 74.5 
z
" id="CMSS17-40"/>
      <path d="M 40.796875 69 
L 33.40625 69 
L 33.40625 38.09375 
C 30.296875 40.671875 25.203125 43.0625 19.59375 43.0625 
C 10.5 43.0625 3.296875 33.296875 3.296875 21.046875 
C 3.296875 8.78125 10.40625 -1 19.296875 -1 
C 26.203125 -1 30.796875 2.6875 33.203125 4.78125 
L 33.203125 -0.203125 
L 40.796875 -0.203125 
z
M 33.203125 13.0625 
C 33.203125 11.671875 33.203125 10.203125 30.09375 7.53125 
C 28.09375 5.859375 25.703125 5.078125 23.40625 5.078125 
C 18 5.078125 10.90625 9 10.90625 20.9375 
C 10.90625 33.34375 18.90625 37 24.40625 37 
C 28.09375 37 31.09375 35.21875 33.203125 32.265625 
z
" id="CMSS17-100"/>
      <path d="M 37.59375 27.984375 
C 37.59375 37.375 30.90625 43.875 21.90625 43.875 
C 17.5 43.875 12.703125 43.078125 7.203125 39.890625 
L 7.796875 33.359375 
C 10.296875 35.125 14.59375 38 21.796875 38 
C 26.90625 38 30 34.0625 30 27.84375 
L 30 24 
C 14 24 4 19.34375 4 11.34375 
C 4 7.203125 6.5 -1 14.796875 -1 
C 16.296875 -1 24.40625 -1 30.203125 3.390625 
L 30.203125 -0.296875 
L 37.59375 -0.296875 
z
M 30 12.75 
C 30 10.953125 30 8.5625 27 6.78125 
C 24.40625 5.078125 21.09375 5.078125 19.703125 5.078125 
C 14.703125 5.078125 11.296875 7.984375 11.296875 11.625 
C 11.296875 18.921875 26.90625 18.921875 30 18.921875 
z
" id="CMSS17-97"/>
      <path d="M 41.796875 43 
L 34 43 
C 25.5 20.21875 22.59375 10.96875 22.40625 5.984375 
L 22.296875 5.984375 
C 22 10.875 17.59375 22.8125 14.09375 31.359375 
L 9.40625 43 
L 1.296875 43 
L 19 0.203125 
C 17.90625 -2.78125 16.296875 -7.265625 15.796875 -8.265625 
C 13.59375 -13.828125 12.09375 -13.828125 10.5 -13.828125 
C 10.09375 -13.828125 6.90625 -13.828125 3.296875 -12.640625 
L 3.90625 -19.203125 
C 6.40625 -19.703125 8.90625 -20 10.703125 -20 
C 13.203125 -20 18.203125 -20 22.796875 -7.765625 
z
" id="CMSS17-121"/>
      <path d="M 11.296875 -25 
C 16.703125 -19.515625 29.09375 -6.765625 29.09375 24.703125 
C 29.09375 56.265625 16.703125 68.921875 11.296875 74.5 
L 5.203125 74.5 
C 17.5 61.75 21.5 43.921875 21.5 24.8125 
C 21.5 5.78125 17.703125 -12.15625 5.203125 -25 
z
" id="CMSS17-41"/>
     </defs>
     <g style="fill:#262626;" transform="translate(224.99576 334.213296)scale(0.1728 -0.1728)">
      <use transform="translate(0 14.943915)scale(0.996264)" xlink:href="#CMSS17-111"/>
      <use transform="translate(46.843624 14.943915)scale(0.996264)" xlink:href="#CMSS17-11"/>
      <use transform="translate(101.494594 14.943915)scale(0.996264)" xlink:href="#CMSS17-115"/>
      <use transform="translate(137.408136 14.943915)scale(0.996264)" xlink:href="#CMSS17-101"/>
      <use transform="translate(179.046958 14.943915)scale(0.996264)" xlink:href="#CMSS17-116"/>
      <use transform="translate(244.107637 14.943915)scale(0.996264)" xlink:href="#CMSS17-102"/>
      <use transform="translate(272.734296 14.943915)scale(0.996264)" xlink:href="#CMSS17-114"/>
      <use transform="translate(304.644069 14.943915)scale(0.996264)" xlink:href="#CMSS17-111"/>
      <use transform="translate(351.487692 14.943915)scale(0.996264)" xlink:href="#CMSS17-109"/>
      <use transform="translate(456.946059 14.943915)scale(0.996264)" xlink:href="#CMMI12-116"/>
      <use transform="translate(492.172389 0)scale(0.697382)" xlink:href="#CMMI12-111"/>
      <use transform="translate(524.998951 0)scale(0.697382)" xlink:href="#CMMI12-112"/>
      <use transform="translate(559.270457 0)scale(0.697382)" xlink:href="#CMMI12-116"/>
      <use transform="translate(615.656012 14.943915)scale(0.996264)" xlink:href="#CMSS17-40"/>
      <use transform="translate(652.089926 14.943915)scale(0.996264)" xlink:href="#CMSS17-100"/>
      <use transform="translate(700.294869 14.943915)scale(0.996264)" xlink:href="#CMSS17-97"/>
      <use transform="translate(742.614336 14.943915)scale(0.996264)" xlink:href="#CMSS17-121"/>
      <use transform="translate(785.614477 14.943915)scale(0.996264)" xlink:href="#CMSS17-115"/>
      <use transform="translate(821.528019 14.943915)scale(0.996264)" xlink:href="#CMSS17-41"/>
     </g>
    </g>
   </g>
   <g id="matplotlib.axis_2">
    <g id="ytick_1">
     <g id="line2d_11">
      <path clip-path="url(#p49b7bd96b0)" d="M 76.066744 284.912018 
L 522.466744 284.912018 
" style="fill:none;stroke:#cccccc;stroke-linecap:round;stroke-width:0.8;"/>
     </g>
     <g id="line2d_12"/>
     <g id="text_7">
      <!-- $0.00$ -->
      <defs>
       <path d="M 18.40625 4.796875 
C 18.40625 7.6875 16 9.671875 13.59375 9.671875 
C 10.703125 9.671875 8.703125 7.28125 8.703125 4.890625 
C 8.703125 2 11.09375 0 13.5 0 
C 16.40625 0 18.40625 2.390625 18.40625 4.796875 
z
" id="CMMI12-58"/>
      </defs>
      <g style="fill:#262626;" transform="translate(44.198454 290.889602)scale(0.1728 -0.1728)">
       <use transform="scale(0.996264)" xlink:href="#CMR17-48"/>
       <use transform="translate(45.690477 0)scale(0.996264)" xlink:href="#CMMI12-58"/>
       <use transform="translate(72.787654 0)scale(0.996264)" xlink:href="#CMR17-48"/>
       <use transform="translate(118.478131 0)scale(0.996264)" xlink:href="#CMR17-48"/>
      </g>
     </g>
    </g>
    <g id="ytick_2">
     <g id="line2d_13">
      <path clip-path="url(#p49b7bd96b0)" d="M 76.066744 239.576724 
L 522.466744 239.576724 
" style="fill:none;stroke:#cccccc;stroke-linecap:round;stroke-width:0.8;"/>
     </g>
     <g id="line2d_14"/>
     <g id="text_8">
      <!-- $0.02$ -->
      <defs>
       <path d="M 41.703125 15.453125 
L 39.90625 15.453125 
C 38.90625 8.375 38.09375 7.171875 37.703125 6.5625 
C 37.203125 5.765625 30 5.765625 28.59375 5.765625 
L 9.40625 5.765625 
C 13 9.671875 20 16.75 28.5 24.953125 
C 34.59375 30.734375 41.703125 37.53125 41.703125 47.421875 
C 41.703125 59.21875 32.296875 66 21.796875 66 
C 10.796875 66 4.09375 56.3125 4.09375 47.34375 
C 4.09375 43.4375 7 42.9375 8.203125 42.9375 
C 9.203125 42.9375 12.203125 43.546875 12.203125 47.03125 
C 12.203125 50.109375 9.59375 51 8.203125 51 
C 7.59375 51 7 50.90625 6.59375 50.703125 
C 8.5 59.21875 14.296875 63.40625 20.40625 63.40625 
C 29.09375 63.40625 34.796875 56.515625 34.796875 47.421875 
C 34.796875 38.734375 29.703125 31.25 24 24.75 
L 4.09375 2.28125 
L 4.09375 0 
L 39.296875 0 
z
" id="CMR17-50"/>
      </defs>
      <g style="fill:#262626;" transform="translate(44.198454 245.554308)scale(0.1728 -0.1728)">
       <use transform="scale(0.996264)" xlink:href="#CMR17-48"/>
       <use transform="translate(45.690477 0)scale(0.996264)" xlink:href="#CMMI12-58"/>
       <use transform="translate(72.787654 0)scale(0.996264)" xlink:href="#CMR17-48"/>
       <use transform="translate(118.478131 0)scale(0.996264)" xlink:href="#CMR17-50"/>
      </g>
     </g>
    </g>
    <g id="ytick_3">
     <g id="line2d_15">
      <path clip-path="url(#p49b7bd96b0)" d="M 76.066744 194.24143 
L 522.466744 194.24143 
" style="fill:none;stroke:#cccccc;stroke-linecap:round;stroke-width:0.8;"/>
     </g>
     <g id="line2d_16"/>
     <g id="text_9">
      <!-- $0.04$ -->
      <defs>
       <path d="M 33.59375 64.40625 
C 33.59375 66.5 33.5 66.5 31.703125 66.5 
L 2 19.59375 
L 2 17 
L 27.796875 17 
L 27.796875 7.140625 
C 27.796875 3.5 27.59375 2.5 20.59375 2.5 
L 18.703125 2.5 
L 18.703125 0 
C 21.90625 0 27.296875 0 30.703125 0 
C 34.09375 0 39.5 0 42.703125 0 
L 42.703125 2.5 
L 40.796875 2.5 
C 33.796875 2.5 33.59375 3.5 33.59375 7.140625 
L 33.59375 17 
L 43.796875 17 
L 43.796875 19.59375 
L 33.59375 19.59375 
z
M 28.09375 57.859375 
L 28.09375 19.59375 
L 4 19.59375 
z
" id="CMR17-52"/>
      </defs>
      <g style="fill:#262626;" transform="translate(44.198454 200.219014)scale(0.1728 -0.1728)">
       <use transform="scale(0.996264)" xlink:href="#CMR17-48"/>
       <use transform="translate(45.690477 0)scale(0.996264)" xlink:href="#CMMI12-58"/>
       <use transform="translate(72.787654 0)scale(0.996264)" xlink:href="#CMR17-48"/>
       <use transform="translate(118.478131 0)scale(0.996264)" xlink:href="#CMR17-52"/>
      </g>
     </g>
    </g>
    <g id="ytick_4">
     <g id="line2d_17">
      <path clip-path="url(#p49b7bd96b0)" d="M 76.066744 148.906135 
L 522.466744 148.906135 
" style="fill:none;stroke:#cccccc;stroke-linecap:round;stroke-width:0.8;"/>
     </g>
     <g id="line2d_18"/>
     <g id="text_10">
      <!-- $0.06$ -->
      <defs>
       <path d="M 10.59375 34 
C 10.59375 57.65625 21.796875 63 28.296875 63 
C 30.40625 63 35.5 62.640625 37.5 59 
C 35.90625 59 32.90625 59 32.90625 55.515625 
C 32.90625 52.828125 35.09375 51.921875 36.5 51.921875 
C 37.40625 51.921875 40.09375 52.3125 40.09375 55.625 
C 40.09375 61.78125 35.09375 65.296875 28.203125 65.296875 
C 16.296875 65.296875 3.796875 52.96875 3.796875 31 
C 3.796875 3.953125 15.09375 -2 23.09375 -2 
C 32.796875 -2 42 6.671875 42 20.046875 
C 42 32.515625 33.90625 41.59375 23.703125 41.59375 
C 17.59375 41.59375 13.09375 37.609375 10.59375 30.625 
z
M 23.09375 0.390625 
C 10.796875 0.390625 10.796875 18.75 10.796875 22.4375 
C 10.796875 29.625 14.203125 40 23.5 40 
C 25.203125 40 30.09375 40 33.40625 33.125 
C 35.203125 29.21875 35.203125 25.140625 35.203125 20.140625 
C 35.203125 14.75 35.203125 10.78125 33.09375 6.78125 
C 30.90625 2.671875 27.703125 0.390625 23.09375 0.390625 
z
" id="CMR17-54"/>
      </defs>
      <g style="fill:#262626;" transform="translate(44.198454 154.883719)scale(0.1728 -0.1728)">
       <use transform="scale(0.996264)" xlink:href="#CMR17-48"/>
       <use transform="translate(45.690477 0)scale(0.996264)" xlink:href="#CMMI12-58"/>
       <use transform="translate(72.787654 0)scale(0.996264)" xlink:href="#CMR17-48"/>
       <use transform="translate(118.478131 0)scale(0.996264)" xlink:href="#CMR17-54"/>
      </g>
     </g>
    </g>
    <g id="ytick_5">
     <g id="line2d_19">
      <path clip-path="url(#p49b7bd96b0)" d="M 76.066744 103.570841 
L 522.466744 103.570841 
" style="fill:none;stroke:#cccccc;stroke-linecap:round;stroke-width:0.8;"/>
     </g>
     <g id="line2d_20"/>
     <g id="text_11">
      <!-- $0.08$ -->
      <defs>
       <path d="M 27.203125 35.375 
C 33.5 38.546875 39.90625 43.328125 39.90625 50.984375 
C 39.90625 60.015625 31.09375 65.296875 23 65.296875 
C 13.90625 65.296875 5.90625 58.734375 5.90625 49.6875 
C 5.90625 47.203125 6.5 42.921875 10.40625 39.140625 
C 11.40625 38.15625 15.59375 35.171875 18.296875 33.28125 
C 13.796875 30.984375 3.296875 25.53125 3.296875 14.59375 
C 3.296875 4.359375 13.09375 -2 22.796875 -2 
C 33.5 -2 42.5 5.65625 42.5 15.78125 
C 42.5 24.84375 36.40625 29.015625 32.40625 31.703125 
z
M 14.09375 44.09375 
C 13.296875 44.59375 9.296875 47.671875 9.296875 52.359375 
C 9.296875 58.421875 15.59375 63 22.796875 63 
C 30.703125 63 36.5 57.4375 36.5 50.96875 
C 36.5 41.703125 26.09375 36.421875 25.59375 36.421875 
C 25.5 36.421875 25.40625 36.421875 24.59375 37.03125 
z
M 32.5 23.734375 
C 34 22.640625 38.796875 19.375 38.796875 13.296875 
C 38.796875 5.953125 31.40625 0.390625 23 0.390625 
C 13.90625 0.390625 7 6.84375 7 14.6875 
C 7 22.546875 13.09375 29.09375 20 32.1875 
z
" id="CMR17-56"/>
      </defs>
      <g style="fill:#262626;" transform="translate(44.198454 109.548425)scale(0.1728 -0.1728)">
       <use transform="scale(0.996264)" xlink:href="#CMR17-48"/>
       <use transform="translate(45.690477 0)scale(0.996264)" xlink:href="#CMMI12-58"/>
       <use transform="translate(72.787654 0)scale(0.996264)" xlink:href="#CMR17-48"/>
       <use transform="translate(118.478131 0)scale(0.996264)" xlink:href="#CMR17-56"/>
      </g>
     </g>
    </g>
    <g id="ytick_6">
     <g id="line2d_21">
      <path clip-path="url(#p49b7bd96b0)" d="M 76.066744 58.235547 
L 522.466744 58.235547 
" style="fill:none;stroke:#cccccc;stroke-linecap:round;stroke-width:0.8;"/>
     </g>
     <g id="line2d_22"/>
     <g id="text_12">
      <!-- $0.10$ -->
      <g style="fill:#262626;" transform="translate(44.198454 64.213131)scale(0.1728 -0.1728)">
       <use transform="scale(0.996264)" xlink:href="#CMR17-48"/>
       <use transform="translate(45.690477 0)scale(0.996264)" xlink:href="#CMMI12-58"/>
       <use transform="translate(72.787654 0)scale(0.996264)" xlink:href="#CMR17-49"/>
       <use transform="translate(118.478131 0)scale(0.996264)" xlink:href="#CMR17-48"/>
      </g>
     </g>
    </g>
    <g id="text_13">
     <!-- $\Delta I_{max}$: without intensive -->
     <defs>
      <path d="M 40.59375 68.796875 
C 39.796875 70.5 39.40625 70.5 38.59375 70.5 
C 37.40625 70.5 37.296875 70.296875 36.59375 68.890625 
L 4.203125 1.703125 
C 4.09375 1.5 3.703125 0.59375 3.703125 0.5 
C 3.703125 0.09375 3.796875 0 5.59375 0 
L 71.5 0 
C 73.296875 0 73.40625 0.09375 73.40625 0.5 
C 73.40625 0.59375 73 1.5 72.90625 1.703125 
z
M 36.09375 63.09375 
L 63.796875 5.59375 
L 8.296875 5.59375 
z
" id="CMR17-1"/>
      <path d="M 36.796875 60.625 
C 37.703125 64.109375 37.90625 65.109375 45.203125 65.109375 
C 47.40625 65.109375 48.203125 65.109375 48.203125 67 
C 48.203125 68 47.09375 68 46.796875 68 
C 45 68 42.796875 68 41 68 
L 28.703125 68 
C 26.703125 68 24.40625 68 22.40625 68 
C 21.59375 68 20.5 68 20.5 66.109375 
C 20.5 65.109375 21.296875 65.109375 23.296875 65.109375 
C 29.5 65.109375 29.5 64.3125 29.5 63.21875 
C 29.5 62.53125 29.296875 61.921875 29.09375 61.03125 
L 15.59375 7.375 
C 14.703125 3.890625 14.5 2.890625 7.203125 2.890625 
C 5 2.890625 4.09375 2.890625 4.09375 1 
C 4.09375 0 5.09375 0 5.59375 0 
C 7.40625 0 9.59375 0 11.40625 0 
L 23.703125 0 
C 25.703125 0 27.90625 0 29.90625 0 
C 30.703125 0 31.90625 0 31.90625 1.796875 
C 31.90625 2.890625 31.296875 2.890625 29.09375 2.890625 
C 22.90625 2.890625 22.90625 3.6875 22.90625 4.875 
C 22.90625 5.078125 22.90625 5.578125 23.296875 7.171875 
z
" id="CMMI12-73"/>
      <path d="M 20.59375 29.234375 
C 20.796875 29.84375 23.296875 34.828125 27 38.015625 
C 29.59375 40.40625 33 42.015625 36.90625 42.015625 
C 40.90625 42.015625 42.296875 39.015625 42.296875 35.03125 
C 42.296875 34.421875 42.296875 32.4375 41.09375 27.734375 
L 38.59375 17.46875 
C 37.796875 14.46875 35.90625 7.078125 35.703125 5.984375 
C 35.296875 4.484375 34.703125 1.890625 34.703125 1.5 
C 34.703125 0.09375 35.796875 -1 37.296875 -1 
C 40.296875 -1 40.796875 1.296875 41.703125 4.890625 
L 47.703125 28.734375 
C 47.90625 29.53125 53.09375 42.015625 64.09375 42.015625 
C 68.09375 42.015625 69.5 39.015625 69.5 35.03125 
C 69.5 29.4375 65.59375 18.5625 63.40625 12.578125 
C 62.5 10.171875 62 8.875 62 7.078125 
C 62 2.59375 65.09375 -1 69.90625 -1 
C 79.203125 -1 82.703125 13.671875 82.703125 14.265625 
C 82.703125 14.765625 82.296875 15.171875 81.703125 15.171875 
C 80.796875 15.171875 80.703125 14.875 80.203125 13.171875 
C 77.90625 5.1875 74.203125 1 70.203125 1 
C 69.203125 1 67.59375 1 67.59375 4.203125 
C 67.59375 6.8125 68.796875 10 69.203125 11.09375 
C 71 15.90625 75.5 27.703125 75.5 33.515625 
C 75.5 39.5 72 44 64.40625 44 
C 57.703125 44 52.296875 40.21875 48.296875 34.328125 
C 48 39.71875 44.703125 44 37.203125 44 
C 28.296875 44 23.59375 37.734375 21.796875 35.234375 
C 21.5 40.90625 17.40625 44 13 44 
C 10.09375 44 7.796875 42.609375 5.90625 38.8125 
C 4.09375 35.21875 2.703125 29.140625 2.703125 28.734375 
C 2.703125 28.34375 3.09375 27.84375 3.796875 27.84375 
C 4.59375 27.84375 4.703125 27.9375 5.296875 30.234375 
C 6.796875 36.125 8.703125 42.015625 12.703125 42.015625 
C 15 42.015625 15.796875 40.40625 15.796875 37.421875 
C 15.796875 35.21875 14.796875 31.328125 14.09375 28.234375 
L 11.296875 17.46875 
C 10.90625 15.5625 9.796875 11.078125 9.296875 9.28125 
C 8.59375 6.6875 7.5 2 7.5 1.5 
C 7.5 0.09375 8.59375 -1 10.09375 -1 
C 11.296875 -1 12.703125 -0.40625 13.5 1.09375 
C 13.703125 1.59375 14.59375 5.09375 15.09375 7.078125 
L 17.296875 16.0625 
z
" id="CMMI12-109"/>
      <path d="M 30.09375 11.875 
C 29.59375 10.171875 29.59375 9.984375 28.203125 8.078125 
C 26 5.28125 21.59375 1 16.90625 1 
C 12.796875 1 10.5 4.6875 10.5 10.578125 
C 10.5 16.0625 13.59375 27.234375 15.5 31.4375 
C 18.90625 38.421875 23.59375 42.015625 27.5 42.015625 
C 34.09375 42.015625 35.40625 33.828125 35.40625 33.03125 
C 35.40625 32.9375 35.09375 31.625 35 31.4375 
z
M 36.5 37.421875 
C 35.40625 40.015625 32.703125 44 27.5 44 
C 16.203125 44 4 29.4375 4 14.671875 
C 4 4.796875 9.796875 -1 16.59375 -1 
C 22.09375 -1 26.796875 3.296875 29.59375 6.59375 
C 30.59375 0.703125 35.296875 -1 38.296875 -1 
C 41.296875 -1 43.703125 0.796875 45.5 4.390625 
C 47.09375 7.78125 48.5 13.875 48.5 14.265625 
C 48.5 14.765625 48.09375 15.171875 47.5 15.171875 
C 46.59375 15.171875 46.5 14.671875 46.09375 13.171875 
C 44.59375 7.28125 42.703125 1 38.59375 1 
C 35.703125 1 35.5 3.59375 35.5 5.59375 
C 35.5 7.890625 35.796875 8.984375 36.703125 12.875 
C 37.40625 15.375 37.90625 17.5625 38.703125 20.453125 
C 42.40625 35.421875 43.296875 39.015625 43.296875 39.609375 
C 43.296875 41.015625 42.203125 42.109375 40.703125 42.109375 
C 37.5 42.109375 36.703125 38.625 36.5 37.421875 
z
" id="CMMI12-97"/>
      <path d="M 47.40625 40.71875 
C 44.203125 40.109375 43 37.71875 43 35.828125 
C 43 33.421875 44.90625 32.625 46.296875 32.625 
C 49.296875 32.625 51.40625 35.21875 51.40625 37.921875 
C 51.40625 42.109375 46.59375 44 42.40625 44 
C 36.296875 44 32.90625 38.015625 32 36.125 
C 29.703125 44 23.5 44 21.703125 44 
C 11.5 44 6.09375 30.9375 6.09375 28.734375 
C 6.09375 28.34375 6.5 27.84375 7.203125 27.84375 
C 8 27.84375 8.203125 28.4375 8.40625 28.84375 
C 11.796875 39.921875 18.5 42.015625 21.40625 42.015625 
C 25.90625 42.015625 26.796875 37.8125 26.796875 35.421875 
C 26.796875 33.234375 26.203125 30.9375 25 26.140625 
L 21.59375 12.46875 
C 20.09375 6.484375 17.203125 1 11.90625 1 
C 11.40625 1 8.90625 1 6.796875 2.296875 
C 10.40625 3 11.203125 5.984375 11.203125 7.1875 
C 11.203125 9.1875 9.703125 10.375 7.796875 10.375 
C 5.40625 10.375 2.796875 8.28125 2.796875 5.09375 
C 2.796875 0.890625 7.5 -1 11.796875 -1 
C 16.59375 -1 20 2.796875 22.09375 6.890625 
C 23.703125 1 28.703125 -1 32.40625 -1 
C 42.59375 -1 48 12.078125 48 14.265625 
C 48 14.765625 47.59375 15.171875 47 15.171875 
C 46.09375 15.171875 46 14.671875 45.703125 13.875 
C 43 5.09375 37.203125 1 32.703125 1 
C 29.203125 1 27.296875 3.59375 27.296875 7.6875 
C 27.296875 9.875 27.703125 11.46875 29.296875 18.0625 
L 32.796875 31.625 
C 34.296875 37.625 37.703125 42.015625 42.296875 42.015625 
C 42.5 42.015625 45.296875 42.015625 47.40625 40.71875 
z
" id="CMMI12-120"/>
      <path d="M 17 42.953125 
L 9 42.953125 
L 9 35 
L 17 35 
z
M 9 7.96875 
L 9 0 
L 17 0 
L 17 7.96875 
z
" id="CMSS17-58"/>
      <path d="M 62.703125 43 
L 55.09375 43 
L 49.796875 25.015625 
C 48.703125 21.21875 45.59375 10.703125 45.203125 5.796875 
L 45.09375 5.796875 
C 44.90625 8.8125 43.203125 16 40.40625 25.515625 
L 35.296875 43 
L 28.40625 43 
L 23.40625 25.90625 
C 20.90625 17.203125 19 9.796875 18.796875 5.796875 
L 18.703125 5.796875 
C 18.296875 11.703125 14.203125 25.515625 13.59375 27.703125 
L 9.09375 43 
L 1.296875 43 
L 14.296875 0 
L 21.90625 0 
C 27.09375 17.125 31.09375 30.359375 31.40625 37.03125 
C 31.59375 33.75 33.296875 26.671875 34.296875 23.1875 
L 40.90625 0 
L 49.703125 0 
z
" id="CMSS17-119"/>
      <path d="M 15.296875 65.359375 
L 6.90625 65.359375 
L 6.90625 57 
L 15.296875 57 
z
M 14.796875 42.796875 
L 7.40625 42.796875 
L 7.40625 0 
L 14.796875 0 
z
" id="CMSS17-105"/>
      <path d="M 40.90625 29.546875 
C 40.90625 35.8125 39.40625 44.0625 28.09375 44.0625 
C 21.796875 44.0625 17.703125 40.984375 14.796875 37.609375 
L 14.796875 69.5 
L 7.40625 69.5 
L 7.40625 0.5 
L 15 0.5 
L 15 24.578125 
C 15 30.828125 17.40625 38 24.203125 38 
C 33 38 33.296875 32.125 33.296875 28.734375 
L 33.296875 0.5 
L 40.90625 0.5 
z
" id="CMSS17-104"/>
      <path d="M 40.90625 42.796875 
L 33.296875 42.796875 
L 33.296875 15.1875 
C 33.296875 7.78125 27.90625 4.78125 22.203125 4.78125 
C 15.59375 4.78125 15 6.984375 15 11.078125 
L 15 42.796875 
L 7.40625 42.796875 
L 7.40625 10.59375 
C 7.40625 2.796875 10.09375 -1 17 -1 
C 20.40625 -1 28.09375 -0.203125 33.5 4.78125 
L 33.5 0 
L 40.90625 0 
z
" id="CMSS17-117"/>
      <path d="M 40.90625 29.328125 
C 40.90625 35.671875 39.40625 44 28.09375 44 
C 21.703125 44 17.5 40.71875 14.703125 37.328125 
L 14.703125 43.09375 
L 7.40625 43.09375 
L 7.40625 0 
L 15 0 
L 15 24.359375 
C 15 30.6875 17.40625 37.9375 24.203125 37.9375 
C 33 37.9375 33.296875 32 33.296875 28.578125 
L 33.296875 0 
L 40.90625 0 
z
" id="CMSS17-110"/>
      <path d="M 41.796875 43 
L 34 43 
L 27.296875 24.3125 
C 25.203125 18.203125 22.203125 9.796875 21.703125 5.5 
L 21.59375 5.5 
C 21.40625 7.3125 20.59375 9.90625 20.09375 11.703125 
C 19.5 13.90625 18.703125 16.5 18.09375 18.3125 
L 9.296875 43 
L 1.296875 43 
L 17.09375 0 
L 26 0 
z
" id="CMSS17-118"/>
     </defs>
     <g style="fill:#262626;" transform="translate(19.155168 246.482375)rotate(-90)scale(0.1728 -0.1728)">
      <use transform="translate(0 14.943915)scale(0.996264)" xlink:href="#CMR17-1"/>
      <use transform="translate(76.91959 14.943915)scale(0.996264)" xlink:href="#CMMI12-73"/>
      <use transform="translate(119.943766 0)scale(0.697382)" xlink:href="#CMMI12-109"/>
      <use transform="translate(179.672557 0)scale(0.697382)" xlink:href="#CMMI12-97"/>
      <use transform="translate(215.517903 0)scale(0.697382)" xlink:href="#CMMI12-120"/>
      <use transform="translate(254.819695 14.943915)scale(0.996264)" xlink:href="#CMSS17-58"/>
      <use transform="translate(322.482706 14.943915)scale(0.996264)" xlink:href="#CMSS17-119"/>
      <use transform="translate(386.302252 14.943915)scale(0.996264)" xlink:href="#CMSS17-105"/>
      <use transform="translate(408.482975 14.943915)scale(0.996264)" xlink:href="#CMSS17-116"/>
      <use transform="translate(442.314541 14.943915)scale(0.996264)" xlink:href="#CMSS17-104"/>
      <use transform="translate(490.519484 14.943915)scale(0.996264)" xlink:href="#CMSS17-111"/>
      <use transform="translate(537.363108 14.943915)scale(0.996264)" xlink:href="#CMSS17-117"/>
      <use transform="translate(585.568051 14.943915)scale(0.996264)" xlink:href="#CMSS17-116"/>
      <use transform="translate(650.628731 14.943915)scale(0.996264)" xlink:href="#CMSS17-105"/>
      <use transform="translate(672.809454 14.943915)scale(0.996264)" xlink:href="#CMSS17-110"/>
      <use transform="translate(721.014397 14.943915)scale(0.996264)" xlink:href="#CMSS17-116"/>
      <use transform="translate(754.845963 14.943915)scale(0.996264)" xlink:href="#CMSS17-101"/>
      <use transform="translate(796.484785 14.943915)scale(0.996264)" xlink:href="#CMSS17-110"/>
      <use transform="translate(844.689729 14.943915)scale(0.996264)" xlink:href="#CMSS17-115"/>
      <use transform="translate(880.603271 14.943915)scale(0.996264)" xlink:href="#CMSS17-105"/>
      <use transform="translate(902.783994 14.943915)scale(0.996264)" xlink:href="#CMSS17-118"/>
      <use transform="translate(945.784135 14.943915)scale(0.996264)" xlink:href="#CMSS17-101"/>
     </g>
     <!-- intervention minus with -->
     <g style="fill:#262626;" transform="translate(36.849912 240.620765)rotate(-90)scale(0.1728 -0.1728)">
      <use transform="scale(0.996264)" xlink:href="#CMSS17-105"/>
      <use transform="translate(22.180723 0)scale(0.996264)" xlink:href="#CMSS17-110"/>
      <use transform="translate(70.385666 0)scale(0.996264)" xlink:href="#CMSS17-116"/>
      <use transform="translate(104.217233 0)scale(0.996264)" xlink:href="#CMSS17-101"/>
      <use transform="translate(145.856055 0)scale(0.996264)" xlink:href="#CMSS17-114"/>
      <use transform="translate(177.765827 0)scale(0.996264)" xlink:href="#CMSS17-118"/>
      <use transform="translate(220.765969 0)scale(0.996264)" xlink:href="#CMSS17-101"/>
      <use transform="translate(262.404791 0)scale(0.996264)" xlink:href="#CMSS17-110"/>
      <use transform="translate(310.609734 0)scale(0.996264)" xlink:href="#CMSS17-116"/>
      <use transform="translate(344.441301 0)scale(0.996264)" xlink:href="#CMSS17-105"/>
      <use transform="translate(366.622024 0)scale(0.996264)" xlink:href="#CMSS17-111"/>
      <use transform="translate(413.465648 0)scale(0.996264)" xlink:href="#CMSS17-110"/>
      <use transform="translate(492.899704 0)scale(0.996264)" xlink:href="#CMSS17-109"/>
      <use transform="translate(567.128958 0)scale(0.996264)" xlink:href="#CMSS17-105"/>
      <use transform="translate(589.309681 0)scale(0.996264)" xlink:href="#CMSS17-110"/>
      <use transform="translate(637.514624 0)scale(0.996264)" xlink:href="#CMSS17-117"/>
      <use transform="translate(685.719567 0)scale(0.996264)" xlink:href="#CMSS17-115"/>
      <use transform="translate(752.862222 0)scale(0.996264)" xlink:href="#CMSS17-119"/>
      <use transform="translate(816.681767 0)scale(0.996264)" xlink:href="#CMSS17-105"/>
      <use transform="translate(838.86249 0)scale(0.996264)" xlink:href="#CMSS17-116"/>
      <use transform="translate(872.694057 0)scale(0.996264)" xlink:href="#CMSS17-104"/>
     </g>
    </g>
   </g>
   <g id="line2d_23">
    <path clip-path="url(#p49b7bd96b0)" d="M 76.066744 211.220318 
L 76.51359 210.664043 
L 77.407284 210.664043 
L 77.854131 210.104209 
L 78.300978 210.104209 
L 78.747825 209.540807 
L 79.194672 209.540807 
L 79.641518 208.973825 
L 80.088365 208.973825 
L 80.535212 208.403255 
L 80.982059 208.403255 
L 81.428906 207.829088 
L 81.875753 207.829088 
L 82.322599 207.251314 
L 82.769446 207.251314 
L 83.216293 206.669925 
L 84.109987 206.669925 
L 84.556834 206.084912 
L 85.003681 206.084912 
L 85.450527 205.496267 
L 85.897374 205.496267 
L 86.344221 204.904117 
L 86.791068 204.904117 
L 87.237915 204.308603 
L 87.684762 204.308603 
L 88.131608 203.709425 
L 88.578455 203.709425 
L 89.025302 203.106551 
L 89.472149 203.106551 
L 89.918996 202.500017 
L 90.81269 202.500017 
L 91.259536 201.889789 
L 91.706383 201.889789 
L 92.15323 201.275876 
L 92.600077 201.275876 
L 93.046924 200.658263 
L 93.493771 200.658263 
L 93.940617 200.036943 
L 94.387464 200.036943 
L 94.834311 199.411911 
L 95.281158 199.411911 
L 95.728005 198.783161 
L 96.174852 198.783161 
L 96.621699 198.150689 
L 97.515392 198.150689 
L 97.962239 197.514489 
L 98.409086 197.514489 
L 98.855933 196.874557 
L 99.30278 196.874557 
L 99.749626 196.230735 
L 100.196473 196.230735 
L 100.64332 195.583323 
L 101.090167 195.583323 
L 101.537014 194.932166 
L 101.983861 194.932166 
L 102.430708 194.277262 
L 102.877554 194.277262 
L 103.324401 193.618606 
L 104.218095 193.618606 
L 104.664942 192.956152 
L 105.111789 192.956152 
L 105.558635 192.290177 
L 106.005482 192.290177 
L 106.452329 191.620257 
L 106.899176 191.620257 
L 107.346023 190.946577 
L 107.79287 190.946577 
L 108.239717 190.269136 
L 108.686563 190.269136 
L 109.13341 189.587933 
L 109.580257 189.587933 
L 110.027104 188.902967 
L 110.920798 188.902967 
L 111.367645 188.21424 
L 111.814491 188.21424 
L 112.261338 187.521751 
L 112.708185 187.521751 
L 113.155032 186.825498 
L 113.601879 186.825498 
L 114.048726 186.125573 
L 114.495572 186.125573 
L 114.942419 185.421928 
L 115.389266 185.421928 
L 115.836113 184.714513 
L 116.28296 184.714513 
L 116.729807 184.003292 
L 117.176654 184.003292 
L 117.6235 183.288346 
L 118.517194 183.288346 
L 118.964041 182.569573 
L 119.410888 182.569573 
L 119.857735 181.847097 
L 120.304581 181.847097 
L 120.751428 181.120865 
L 121.198275 181.120865 
L 121.645122 180.390849 
L 122.091969 180.390849 
L 122.538816 179.657114 
L 122.985663 179.657114 
L 123.432509 178.919638 
L 123.879356 178.919638 
L 124.326203 178.178426 
L 125.219897 178.178426 
L 125.666744 177.433485 
L 126.11359 177.433485 
L 126.560437 176.68482 
L 127.007284 176.68482 
L 127.454131 175.932441 
L 127.900978 175.932441 
L 128.347825 175.176353 
L 128.794672 175.176353 
L 129.241518 174.416484 
L 129.688365 174.416484 
L 130.135212 173.653001 
L 130.582059 173.653001 
L 131.028906 172.885835 
L 131.922599 172.885835 
L 132.369446 172.115191 
L 132.816293 172.115191 
L 133.26314 171.340716 
L 133.709987 171.340716 
L 134.156834 170.56268 
L 134.603681 170.56268 
L 135.050527 169.781067 
L 135.497374 169.781067 
L 135.944221 168.99584 
L 136.391068 168.99584 
L 136.837915 168.207013 
L 137.284762 168.207013 
L 137.731608 167.414598 
L 138.625302 167.414598 
L 139.072149 166.618607 
L 139.518996 166.618607 
L 139.965843 165.819057 
L 140.41269 165.819057 
L 140.859536 165.01596 
L 141.306383 165.01596 
L 141.75323 164.209332 
L 142.200077 164.209332 
L 142.646924 163.399188 
L 143.093771 163.399188 
L 143.540617 162.585546 
L 143.987464 162.585546 
L 144.434311 161.768421 
L 145.328005 161.768421 
L 145.774852 160.947833 
L 146.221699 160.947833 
L 146.668545 160.123799 
L 147.115392 160.123799 
L 147.562239 159.296333 
L 148.009086 159.296333 
L 148.455933 158.465455 
L 148.90278 158.465455 
L 149.349626 157.631188 
L 149.796473 157.631188 
L 150.24332 156.793551 
L 150.690167 156.793551 
L 151.137014 155.952567 
L 152.030708 155.952567 
L 152.477554 155.108256 
L 152.924401 155.108256 
L 153.371248 154.260654 
L 153.818095 154.260654 
L 154.264942 153.41034 
L 154.711789 153.41034 
L 155.158635 152.556791 
L 155.605482 152.556791 
L 156.052329 151.700029 
L 156.499176 151.700029 
L 156.946023 150.840081 
L 157.39287 150.840081 
L 157.839717 149.976969 
L 158.73341 149.976969 
L 159.180257 149.110726 
L 159.627104 149.110726 
L 160.073951 148.241374 
L 160.520798 148.241374 
L 160.967645 147.368985 
L 161.414491 147.368985 
L 161.861338 146.493497 
L 162.308185 146.493497 
L 162.755032 145.614985 
L 163.201879 145.614985 
L 163.648726 144.734022 
L 164.095572 144.734022 
L 164.542419 143.850399 
L 165.436113 143.850399 
L 165.88296 142.963864 
L 166.329807 142.963864 
L 166.776654 142.074449 
L 167.2235 142.074449 
L 167.670347 141.182186 
L 168.117194 141.182186 
L 168.564041 140.287109 
L 169.010888 140.287109 
L 169.457735 139.38925 
L 169.904581 139.38925 
L 170.351428 138.4887 
L 170.798275 138.4887 
L 171.245122 137.586425 
L 172.138816 137.586425 
L 172.585663 136.681495 
L 173.032509 136.681495 
L 173.479356 135.773944 
L 173.926203 135.773944 
L 174.37305 134.863817 
L 174.819897 134.863817 
L 175.266744 133.951154 
L 175.71359 133.951154 
L 176.160437 133.036002 
L 176.607284 133.036002 
L 177.054131 132.119466 
L 177.500978 132.119466 
L 177.947825 131.200661 
L 178.841518 131.200661 
L 179.288365 130.279499 
L 179.735212 130.279499 
L 180.182059 129.356022 
L 180.628906 129.356022 
L 181.075753 128.430273 
L 181.522599 128.430273 
L 181.969446 127.503182 
L 182.416293 127.503182 
L 182.86314 126.574409 
L 183.309987 126.574409 
L 183.756834 125.643518 
L 184.203681 125.643518 
L 184.650527 124.710555 
L 185.544221 124.710555 
L 185.991068 123.775659 
L 186.437915 123.775659 
L 186.884762 122.840221 
L 187.331608 122.840221 
L 187.778455 121.902854 
L 188.225302 121.902854 
L 188.672149 120.963656 
L 189.118996 120.963656 
L 189.565843 120.022648 
L 190.01269 120.022648 
L 190.459536 119.081419 
L 190.906383 119.081419 
L 191.35323 118.138629 
L 192.246924 118.138629 
L 192.693771 117.194204 
L 193.140617 117.194204 
L 193.587464 116.248524 
L 194.034311 116.248524 
L 194.481158 115.30279 
L 194.928005 115.30279 
L 195.374852 114.355683 
L 195.821699 114.355683 
L 196.268545 113.4071 
L 196.715392 113.4071 
L 197.162239 112.458606 
L 197.609086 112.458606 
L 198.055933 111.509336 
L 198.50278 111.509336 
L 198.949626 110.558893 
L 199.84332 110.558893 
L 200.290167 109.608368 
L 200.737014 109.608368 
L 201.183861 108.657711 
L 201.630708 108.657711 
L 202.077554 107.706048 
L 202.524401 107.706048 
L 202.971248 106.754697 
L 203.418095 106.754697 
L 203.864942 105.80337 
L 204.311789 105.80337 
L 204.758635 104.85124 
L 205.205482 104.85124 
L 205.652329 103.900159 
L 206.546023 103.900159 
L 206.99287 102.948938 
L 207.439717 102.948938 
L 207.886563 101.997465 
L 208.33341 101.997465 
L 208.780257 101.047246 
L 209.227104 101.047246 
L 209.673951 100.096804 
L 210.120798 100.096804 
L 210.567645 99.147632 
L 211.014491 99.147632 
L 211.461338 98.198996 
L 211.908185 98.198996 
L 212.355032 97.250896 
L 213.248726 97.250896 
L 213.695572 96.304472 
L 214.142419 96.304472 
L 214.589266 95.358033 
L 215.036113 95.358033 
L 215.48296 94.414242 
L 215.929807 94.414242 
L 216.376654 93.470555 
L 216.8235 93.470555 
L 217.270347 92.529439 
L 217.717194 92.529439 
L 218.164041 91.588955 
L 218.610888 91.588955 
L 219.057735 90.651074 
L 219.951428 90.651074 
L 220.398275 89.71422 
L 220.845122 89.71422 
L 221.291969 88.780226 
L 221.738816 88.780226 
L 222.185663 87.84751 
L 222.632509 87.84751 
L 223.079356 86.918086 
L 223.526203 86.918086 
L 223.97305 85.989872 
L 224.419897 85.989872 
L 224.866744 85.065544 
L 225.31359 85.065544 
L 225.760437 84.142932 
L 226.654131 84.142932 
L 227.100978 83.223795 
L 227.547825 83.223795 
L 227.994672 82.30745 
L 228.441518 82.30745 
L 228.888365 81.393945 
L 229.335212 81.393945 
L 229.782059 80.484559 
L 230.228906 80.484559 
L 230.675753 79.577829 
L 231.122599 79.577829 
L 231.569446 78.67534 
L 232.016293 78.67534 
L 232.46314 77.776629 
L 233.356834 77.776629 
L 233.803681 76.881247 
L 234.250527 76.881247 
L 234.697374 75.990855 
L 235.144221 75.990855 
L 235.591068 75.104596 
L 236.037915 75.104596 
L 236.484762 74.222314 
L 236.931608 74.222314 
L 237.378455 73.345364 
L 237.825302 73.345364 
L 238.272149 72.473291 
L 238.718996 72.473291 
L 239.165843 71.605897 
L 240.059536 71.605897 
L 240.506383 70.74347 
L 240.95323 70.74347 
L 241.400077 69.887342 
L 241.846924 69.887342 
L 242.293771 69.03651 
L 242.740617 69.03651 
L 243.187464 68.19122 
L 243.634311 68.19122 
L 244.081158 67.35172 
L 244.528005 67.35172 
L 244.974852 66.518946 
L 245.421699 66.518946 
L 245.868545 65.692705 
L 246.762239 65.692705 
L 247.209086 64.873024 
L 247.655933 64.873024 
L 248.10278 64.059936 
L 248.549626 64.059936 
L 248.996473 63.253796 
L 249.44332 63.253796 
L 249.890167 62.454851 
L 250.337014 62.454851 
L 250.783861 61.663438 
L 251.230708 61.663438 
L 251.677554 60.880127 
L 252.124401 60.880127 
L 252.571248 60.10468 
L 253.464942 60.10468 
L 253.911789 59.337345 
L 254.358635 59.337345 
L 254.805482 58.578369 
L 255.252329 58.578369 
L 255.699176 57.828002 
L 256.146023 57.828002 
L 256.59287 57.086489 
L 257.039717 57.086489 
L 257.486563 56.354081 
L 257.93341 56.354081 
L 258.380257 55.631026 
L 258.827104 55.631026 
L 259.273951 54.917573 
L 260.167645 54.917573 
L 260.614491 54.214005 
L 261.061338 54.214005 
L 261.508185 53.520502 
L 261.955032 53.520502 
L 262.401879 52.837335 
L 262.848726 52.837335 
L 263.295572 52.164774 
L 263.742419 52.164774 
L 264.189266 51.503059 
L 264.636113 51.503059 
L 265.08296 50.852794 
L 265.529807 50.852794 
L 265.976654 50.214149 
L 266.870347 50.214149 
L 267.317194 49.587171 
L 267.764041 49.587171 
L 268.210888 48.972103 
L 268.657735 48.972103 
L 269.104581 48.369209 
L 269.551428 48.369209 
L 269.998275 47.778729 
L 270.445122 47.778729 
L 270.891969 47.201393 
L 271.338816 47.201393 
L 271.785663 46.637581 
L 272.232509 46.637581 
L 272.679356 46.087006 
L 273.57305 46.087006 
L 274.019897 45.549919 
L 274.466744 45.549919 
L 274.91359 45.027126 
L 275.360437 45.027126 
L 275.807284 44.519165 
L 276.254131 44.519165 
L 276.700978 44.025517 
L 277.147825 44.025517 
L 277.594672 43.546711 
L 278.041518 43.546711 
L 278.488365 43.084077 
L 278.935212 43.084077 
L 279.382059 42.636585 
L 279.828906 42.636585 
L 280.275753 42.205212 
L 281.169446 42.205212 
L 281.616293 41.790626 
L 282.06314 41.790626 
L 282.509987 41.392013 
L 282.956834 41.392013 
L 283.403681 41.011521 
L 283.850527 41.011521 
L 284.297374 40.647715 
L 284.744221 40.647715 
L 285.191068 40.302252 
L 285.637915 40.302252 
L 286.084762 39.974579 
L 286.531608 39.974579 
L 286.978455 39.6658 
L 287.872149 39.6658 
L 288.318996 39.375593 
L 288.765843 39.375593 
L 289.21269 39.105159 
L 289.659536 39.105159 
L 290.106383 38.853757 
L 290.55323 38.853757 
L 291.000077 38.623333 
L 291.446924 38.623333 
L 291.893771 38.412608 
L 292.340617 38.412608 
L 292.787464 38.223343 
L 293.234311 38.223343 
L 293.681158 38.055224 
L 294.574852 38.055224 
L 295.021699 37.908229 
L 295.468545 37.908229 
L 295.915392 37.784403 
L 297.255933 37.682631 
L 298.596473 37.548379 
L 303.958635 37.638694 
L 305.299176 37.854663 
L 305.746023 37.854663 
L 306.19287 38.002917 
L 306.639717 38.002917 
L 307.086563 38.178892 
L 307.980257 38.178892 
L 308.427104 38.383282 
L 308.873951 38.383282 
L 309.320798 38.616303 
L 309.767645 38.616303 
L 310.214491 38.878422 
L 310.661338 38.878422 
L 311.108185 39.170188 
L 311.555032 39.170188 
L 312.001879 39.492206 
L 312.448726 39.492206 
L 312.895572 39.844888 
L 313.342419 39.844888 
L 313.789266 40.228858 
L 314.68296 40.228858 
L 315.129807 40.644676 
L 315.576654 40.644676 
L 316.0235 41.092904 
L 316.470347 41.092904 
L 316.917194 41.57411 
L 317.364041 41.57411 
L 317.810888 42.088867 
L 318.257735 42.088867 
L 318.704581 42.637755 
L 319.151428 42.637755 
L 319.598275 43.221359 
L 320.045122 43.221359 
L 320.491969 43.840276 
L 321.385663 43.840276 
L 321.832509 44.495106 
L 322.279356 44.495106 
L 322.726203 45.186454 
L 323.17305 45.186454 
L 323.619897 45.915261 
L 324.066744 45.915261 
L 324.51359 46.682121 
L 324.960437 46.682121 
L 325.407284 47.487424 
L 325.854131 47.487424 
L 326.300978 48.331809 
L 326.747825 48.331809 
L 327.194672 49.215927 
L 328.088365 49.215927 
L 328.535212 50.140432 
L 328.982059 50.140432 
L 329.428906 51.106168 
L 329.875753 51.106168 
L 330.322599 52.114427 
L 330.769446 52.114427 
L 331.216293 53.165164 
L 331.66314 53.165164 
L 332.109987 54.259072 
L 332.556834 54.259072 
L 333.003681 55.396855 
L 333.450527 55.396855 
L 333.897374 56.579937 
L 334.791068 56.579937 
L 335.237915 57.808897 
L 335.684762 57.808897 
L 336.131608 59.083989 
L 336.578455 59.083989 
L 337.025302 60.405971 
L 337.472149 60.405971 
L 337.918996 61.776564 
L 338.365843 61.776564 
L 338.81269 63.196101 
L 339.259536 63.196101 
L 339.706383 64.664944 
L 340.15323 64.664944 
L 340.600077 66.184166 
L 341.493771 66.184166 
L 341.940617 67.755645 
L 342.387464 67.755645 
L 342.834311 69.378974 
L 343.281158 69.378974 
L 343.728005 71.055016 
L 344.174852 71.055016 
L 344.621699 72.786189 
L 345.068545 72.786189 
L 345.515392 74.572072 
L 345.962239 74.572072 
L 346.409086 76.413424 
L 346.855933 76.413424 
L 347.30278 78.304338 
L 348.196473 78.304338 
L 348.64332 80.198351 
L 349.090167 80.198351 
L 349.537014 82.089249 
L 349.983861 82.089249 
L 350.430708 83.976923 
L 350.877554 83.976923 
L 351.324401 85.861261 
L 351.771248 85.861261 
L 352.218095 87.742154 
L 352.664942 87.742154 
L 353.111789 89.61949 
L 353.558635 89.61949 
L 354.005482 91.49316 
L 354.452329 91.49316 
L 354.899176 93.363053 
L 355.79287 93.363053 
L 356.239717 95.229059 
L 356.686563 95.229059 
L 357.13341 97.091067 
L 357.580257 97.091067 
L 358.027104 98.948966 
L 358.473951 98.948966 
L 358.920798 100.802648 
L 359.367645 100.802648 
L 359.814491 102.652001 
L 360.261338 102.652001 
L 360.708185 104.496917 
L 361.155032 104.496917 
L 361.601879 106.337285 
L 362.495572 106.337285 
L 362.942419 108.172995 
L 363.389266 108.172995 
L 363.836113 110.003939 
L 364.28296 110.003939 
L 364.729807 111.830006 
L 365.176654 111.830006 
L 365.6235 113.651088 
L 366.070347 113.651088 
L 366.517194 115.467076 
L 366.964041 115.467076 
L 367.410888 117.277862 
L 367.857735 117.277862 
L 368.304581 119.083337 
L 369.198275 119.083337 
L 369.645122 120.883394 
L 370.091969 120.883394 
L 370.538816 122.677925 
L 370.985663 122.677925 
L 371.432509 124.466823 
L 371.879356 124.466823 
L 372.326203 126.249981 
L 372.77305 126.249981 
L 373.219897 128.027293 
L 373.666744 128.027293 
L 374.11359 129.798652 
L 374.560437 129.798652 
L 375.007284 131.563954 
L 375.900978 131.563954 
L 376.347825 133.323093 
L 376.794672 133.323093 
L 377.241518 135.075963 
L 377.688365 135.075963 
L 378.135212 136.82246 
L 378.582059 136.82246 
L 379.028906 138.562478 
L 379.475753 138.562478 
L 379.922599 140.295916 
L 380.369446 140.295916 
L 380.816293 142.022668 
L 381.26314 142.022668 
L 381.709987 143.742634 
L 382.603681 143.742634 
L 383.050527 145.45571 
L 383.497374 145.45571 
L 383.944221 147.161795 
L 384.391068 147.161795 
L 384.837915 148.860789 
L 385.284762 148.860789 
L 385.731608 150.55259 
L 386.178455 150.55259 
L 386.625302 152.237099 
L 387.072149 152.237099 
L 387.518996 153.914217 
L 387.965843 153.914217 
L 388.41269 155.583846 
L 389.306383 155.583846 
L 389.75323 157.245887 
L 390.200077 157.245887 
L 390.646924 158.900243 
L 391.093771 158.900243 
L 391.540617 160.546818 
L 391.987464 160.546818 
L 392.434311 162.185514 
L 392.881158 162.185514 
L 393.328005 163.816237 
L 393.774852 163.816237 
L 394.221699 165.438891 
L 394.668545 165.438891 
L 395.115392 167.053383 
L 396.009086 167.053383 
L 396.455933 168.65962 
L 396.90278 168.65962 
L 397.349626 170.257509 
L 397.796473 170.257509 
L 398.24332 171.846959 
L 398.690167 171.846959 
L 399.137014 173.427878 
L 399.583861 173.427878 
L 400.030708 175.000177 
L 400.477554 175.000177 
L 400.924401 176.563767 
L 401.371248 176.563767 
L 401.818095 178.118558 
L 402.711789 178.118558 
L 403.158635 179.664464 
L 403.605482 179.664464 
L 404.052329 181.201398 
L 404.499176 181.201398 
L 404.946023 182.729273 
L 405.39287 182.729273 
L 405.839717 184.248004 
L 406.286563 184.248004 
L 406.73341 185.757507 
L 407.180257 185.757507 
L 407.627104 187.257698 
L 408.073951 187.257698 
L 408.520798 188.748496 
L 409.414491 188.748496 
L 409.861338 190.229818 
L 410.308185 190.229818 
L 410.755032 191.701583 
L 411.201879 191.701583 
L 411.648726 193.163713 
L 412.095572 193.163713 
L 412.542419 194.616128 
L 412.989266 194.616128 
L 413.436113 196.05875 
L 413.88296 196.05875 
L 414.329807 197.491503 
L 414.776654 197.491503 
L 415.2235 198.914312 
L 416.117194 198.914312 
L 416.564041 200.3271 
L 417.010888 200.3271 
L 417.457735 201.729795 
L 417.904581 201.729795 
L 418.351428 203.122323 
L 418.798275 203.122323 
L 419.245122 204.504612 
L 419.691969 204.504612 
L 420.138816 205.876592 
L 420.585663 205.876592 
L 421.032509 207.238192 
L 421.479356 207.238192 
L 421.926203 208.589343 
L 422.819897 208.589343 
L 423.266744 209.929978 
L 423.71359 209.929978 
L 424.160437 211.260031 
L 424.607284 211.260031 
L 425.054131 212.579435 
L 425.500978 212.579435 
L 425.947825 213.888125 
L 426.394672 213.888125 
L 426.841518 215.186039 
L 427.288365 215.186039 
L 427.735212 216.473114 
L 428.182059 216.473114 
L 428.628906 217.749288 
L 429.522599 217.749288 
L 429.969446 219.014502 
L 430.416293 219.014502 
L 430.86314 220.268695 
L 431.309987 220.268695 
L 431.756834 221.511811 
L 432.203681 221.511811 
L 432.650527 222.743792 
L 433.097374 222.743792 
L 433.544221 223.964582 
L 433.991068 223.964582 
L 434.437915 225.174126 
L 434.884762 225.174126 
L 435.331608 226.372371 
L 435.778455 226.372371 
L 436.225302 227.559264 
L 437.118996 227.559264 
L 437.565843 228.734753 
L 438.01269 228.734753 
L 438.459536 229.898789 
L 438.906383 229.898789 
L 439.35323 231.051322 
L 439.800077 231.051322 
L 440.246924 232.192304 
L 440.693771 232.192304 
L 441.140617 233.321689 
L 441.587464 233.321689 
L 442.034311 234.439431 
L 442.481158 234.439431 
L 442.928005 235.545485 
L 443.821699 235.545485 
L 444.268545 236.639808 
L 444.715392 236.639808 
L 445.162239 237.722357 
L 445.609086 237.722357 
L 446.055933 238.793093 
L 446.50278 238.793093 
L 446.949626 239.851974 
L 447.396473 239.851974 
L 447.84332 240.898961 
L 448.290167 240.898961 
L 448.737014 241.934018 
L 449.183861 241.934018 
L 449.630708 242.957107 
L 450.524401 242.957107 
L 450.971248 243.968194 
L 451.418095 243.968194 
L 451.864942 244.967244 
L 452.311789 244.967244 
L 452.758635 245.954224 
L 453.205482 245.954224 
L 453.652329 246.929102 
L 454.099176 246.929102 
L 454.546023 247.891848 
L 454.99287 247.891848 
L 455.439717 248.842432 
L 455.886563 248.842432 
L 456.33341 249.780826 
L 457.227104 249.780826 
L 457.673951 250.707002 
L 458.120798 250.707002 
L 458.567645 251.620935 
L 459.014491 251.620935 
L 459.461338 252.522599 
L 459.908185 252.522599 
L 460.355032 253.41197 
L 460.801879 253.41197 
L 461.248726 254.289027 
L 461.695572 254.289027 
L 462.142419 255.153748 
L 462.589266 255.153748 
L 463.036113 256.006111 
L 463.929807 256.006111 
L 464.376654 256.846099 
L 464.8235 256.846099 
L 465.270347 257.673692 
L 465.717194 257.673692 
L 466.164041 258.488874 
L 466.610888 258.488874 
L 467.057735 259.29163 
L 467.504581 259.29163 
L 467.951428 260.081943 
L 468.398275 260.081943 
L 468.845122 260.859802 
L 469.291969 260.859802 
L 469.738816 261.625193 
L 470.632509 261.625193 
L 471.079356 262.378105 
L 471.526203 262.378105 
L 471.97305 263.118527 
L 472.419897 263.118527 
L 472.866744 263.846451 
L 473.31359 263.846451 
L 473.760437 264.561868 
L 474.207284 264.561868 
L 474.654131 265.264772 
L 475.100978 265.264772 
L 475.547825 265.955157 
L 475.994672 265.955157 
L 476.441518 266.633018 
L 477.335212 266.633018 
L 477.782059 267.29835 
L 478.228906 267.29835 
L 478.675753 267.951153 
L 479.122599 267.951153 
L 479.569446 268.591423 
L 480.016293 268.591423 
L 480.46314 269.219161 
L 480.909987 269.219161 
L 481.356834 269.834367 
L 481.803681 269.834367 
L 482.250527 270.437042 
L 482.697374 270.437042 
L 483.144221 271.02719 
L 484.037915 271.02719 
L 484.484762 271.604813 
L 484.931608 271.604813 
L 485.378455 272.169917 
L 485.825302 272.169917 
L 486.272149 272.722506 
L 486.718996 272.722506 
L 487.165843 273.262588 
L 487.61269 273.262588 
L 488.059536 273.790171 
L 488.506383 273.790171 
L 488.95323 274.305263 
L 489.400077 274.305263 
L 489.846924 274.807875 
L 490.740617 274.807875 
L 491.187464 275.298016 
L 491.634311 275.298016 
L 492.081158 275.775698 
L 492.528005 275.775698 
L 492.974852 276.240935 
L 493.421699 276.240935 
L 493.868545 276.693739 
L 494.315392 276.693739 
L 494.762239 277.134125 
L 495.209086 277.134125 
L 495.655933 277.562109 
L 496.10278 277.562109 
L 496.549626 277.977706 
L 497.44332 277.977706 
L 497.890167 278.380935 
L 498.337014 278.380935 
L 498.783861 278.771813 
L 499.230708 278.771813 
L 499.677554 279.150359 
L 500.124401 279.150359 
L 500.571248 279.516593 
L 501.018095 279.516593 
L 501.464942 279.870537 
L 501.911789 279.870537 
L 502.358635 280.212211 
L 502.805482 280.212211 
L 503.252329 280.541638 
L 504.146023 280.541638 
L 504.59287 280.858841 
L 505.039717 280.858841 
L 505.486563 281.163846 
L 505.93341 281.163846 
L 506.380257 281.456677 
L 506.827104 281.456677 
L 507.273951 281.737361 
L 507.720798 281.737361 
L 508.167645 282.005926 
L 508.614491 282.005926 
L 509.061338 282.262397 
L 509.508185 282.262397 
L 509.955032 282.506805 
L 510.848726 282.506805 
L 511.295572 282.739178 
L 511.742419 282.739178 
L 512.189266 282.959547 
L 512.636113 282.959547 
L 513.08296 283.167941 
L 513.529807 283.167941 
L 513.976654 283.364393 
L 514.4235 283.364393 
L 514.870347 283.548935 
L 515.317194 283.548935 
L 515.764041 283.721601 
L 516.210888 283.721601 
L 516.657735 283.882423 
L 517.104581 283.882423 
L 517.551428 284.031436 
L 518.445122 284.031436 
L 518.891969 284.168675 
L 519.338816 284.168675 
L 519.785663 284.294177 
L 520.232509 284.294177 
L 521.126203 284.407977 
L 522.466744 284.600623 
L 522.466744 284.600623 
" style="fill:none;stroke:#c20a1f;stroke-linecap:round;stroke-opacity:0.8;stroke-width:5;"/>
   </g>
   <g id="line2d_24">
    <path clip-path="url(#p49b7bd96b0)" d="M 76.066744 208.583124 
L 76.51359 208.583124 
L 76.960437 208.285998 
L 77.407284 208.285998 
L 77.854131 207.988436 
L 78.300978 207.988436 
L 78.747825 207.690363 
L 79.194672 207.690363 
L 79.641518 207.391714 
L 80.088365 207.391714 
L 80.535212 207.092495 
L 80.982059 207.092495 
L 81.428906 206.79271 
L 81.875753 206.79271 
L 82.322599 206.492363 
L 83.216293 206.492363 
L 83.66314 206.19144 
L 84.109987 206.19144 
L 84.556834 205.890011 
L 85.003681 205.890011 
L 85.450527 205.588158 
L 85.897374 205.588158 
L 86.344221 205.28592 
L 86.791068 205.28592 
L 87.237915 204.983149 
L 87.684762 204.983149 
L 88.131608 204.679938 
L 88.578455 204.679938 
L 89.025302 204.37611 
L 89.918996 204.37611 
L 90.365843 204.071763 
L 90.81269 204.071763 
L 91.259536 203.766902 
L 91.706383 203.766902 
L 92.15323 203.461532 
L 92.600077 203.461532 
L 93.046924 203.155954 
L 93.493771 203.155954 
L 93.940617 202.84992 
L 94.387464 202.84992 
L 94.834311 202.543397 
L 95.281158 202.543397 
L 95.728005 202.236391 
L 96.621699 202.236391 
L 97.068545 201.928908 
L 97.515392 201.928908 
L 97.962239 201.620952 
L 98.409086 201.620952 
L 98.855933 201.31256 
L 99.30278 201.31256 
L 99.749626 201.004042 
L 100.196473 201.004042 
L 100.64332 200.695073 
L 101.090167 200.695073 
L 101.537014 200.385659 
L 101.983861 200.385659 
L 102.430708 200.075805 
L 103.324401 200.075805 
L 103.771248 199.765518 
L 104.218095 199.765518 
L 104.664942 199.454803 
L 105.111789 199.454803 
L 105.558635 199.14402 
L 106.005482 199.14402 
L 106.452329 198.832866 
L 106.899176 198.832866 
L 107.346023 198.521307 
L 107.79287 198.521307 
L 108.239717 198.20935 
L 108.686563 198.20935 
L 109.13341 197.896999 
L 110.027104 197.896999 
L 110.473951 197.584351 
L 110.920798 197.584351 
L 111.367645 197.271657 
L 111.814491 197.271657 
L 112.261338 196.958595 
L 112.708185 196.958595 
L 113.155032 196.645171 
L 113.601879 196.645171 
L 114.048726 196.331392 
L 114.495572 196.331392 
L 114.942419 196.017263 
L 115.389266 196.017263 
L 115.836113 195.703215 
L 116.729807 195.703215 
L 117.176654 195.388863 
L 117.6235 195.388863 
L 118.070347 195.074187 
L 118.517194 195.074187 
L 118.964041 194.759183 
L 119.410888 194.759183 
L 119.857735 194.443887 
L 120.304581 194.443887 
L 120.751428 194.128756 
L 121.198275 194.128756 
L 121.645122 193.813335 
L 122.091969 193.813335 
L 122.538816 193.497628 
L 123.432509 193.497628 
L 123.879356 193.181645 
L 124.326203 193.181645 
L 124.77305 192.865584 
L 125.219897 192.865584 
L 125.666744 192.549571 
L 126.11359 192.549571 
L 126.560437 192.233308 
L 127.007284 192.233308 
L 127.454131 191.916801 
L 127.900978 191.916801 
L 128.347825 191.600068 
L 128.794672 191.600068 
L 129.241518 191.283623 
L 130.135212 191.283623 
L 130.582059 190.966963 
L 131.028906 190.966963 
L 131.475753 190.650094 
L 131.922599 190.650094 
L 132.369446 190.333026 
L 132.816293 190.333026 
L 133.26314 190.016246 
L 133.709987 190.016246 
L 134.156834 189.699356 
L 134.603681 189.699356 
L 135.050527 189.382295 
L 135.497374 189.382295 
L 135.944221 189.065069 
L 136.391068 189.065069 
L 136.837915 188.748223 
L 137.731608 188.748223 
L 138.178455 188.43127 
L 138.625302 188.43127 
L 139.072149 188.114183 
L 139.518996 188.114183 
L 139.965843 187.797072 
L 140.41269 187.797072 
L 140.859536 187.480336 
L 141.306383 187.480336 
L 141.75323 187.163495 
L 142.200077 187.163495 
L 142.646924 186.846559 
L 143.093771 186.846559 
L 143.540617 186.529885 
L 144.434311 186.529885 
L 144.881158 186.213399 
L 145.328005 186.213399 
L 145.774852 185.896853 
L 146.221699 185.896853 
L 146.668545 185.580318 
L 147.115392 185.580318 
L 147.562239 185.2643 
L 148.009086 185.2643 
L 148.455933 184.948248 
L 148.90278 184.948248 
L 149.349626 184.63217 
L 149.796473 184.63217 
L 150.24332 184.316595 
L 151.137014 184.316595 
L 151.583861 184.001154 
L 152.030708 184.001154 
L 152.477554 183.685719 
L 152.924401 183.685719 
L 153.371248 183.370698 
L 153.818095 183.370698 
L 154.264942 183.055984 
L 154.711789 183.055984 
L 155.158635 182.74131 
L 155.605482 182.74131 
L 156.052329 182.427029 
L 156.499176 182.427029 
L 156.946023 182.113159 
L 157.839717 182.113159 
L 158.286563 181.799362 
L 158.73341 181.799362 
L 159.180257 181.48601 
L 159.627104 181.48601 
L 160.073951 181.173103 
L 160.520798 181.173103 
L 160.967645 180.860303 
L 161.414491 180.860303 
L 161.861338 180.548068 
L 162.308185 180.548068 
L 162.755032 180.236246 
L 163.201879 180.236246 
L 163.648726 179.924564 
L 164.542419 179.924564 
L 164.989266 179.613639 
L 165.436113 179.613639 
L 165.88296 179.303023 
L 166.329807 179.303023 
L 166.776654 178.992646 
L 167.2235 178.992646 
L 167.670347 178.683162 
L 168.117194 178.683162 
L 168.564041 178.373877 
L 169.010888 178.373877 
L 169.457735 178.065145 
L 169.904581 178.065145 
L 170.351428 177.756953 
L 171.245122 177.756953 
L 171.691969 177.449122 
L 172.138816 177.449122 
L 172.585663 177.142229 
L 173.032509 177.142229 
L 173.479356 176.83571 
L 173.926203 176.83571 
L 174.37305 176.52975 
L 174.819897 176.52975 
L 175.266744 176.22461 
L 175.71359 176.22461 
L 176.160437 175.919766 
L 176.607284 175.919766 
L 177.054131 175.61599 
L 177.947825 175.61599 
L 178.394672 175.312618 
L 178.841518 175.312618 
L 179.288365 175.010024 
L 179.735212 175.010024 
L 180.182059 174.708193 
L 180.628906 174.708193 
L 181.075753 174.406885 
L 181.522599 174.406885 
L 181.969446 174.106661 
L 182.416293 174.106661 
L 182.86314 173.806824 
L 183.309987 173.806824 
L 183.756834 173.508193 
L 184.650527 173.508193 
L 185.097374 173.210058 
L 185.544221 173.210058 
L 185.991068 172.912965 
L 186.437915 172.912965 
L 186.884762 172.616604 
L 187.331608 172.616604 
L 187.778455 172.321154 
L 188.225302 172.321154 
L 188.672149 172.026635 
L 189.118996 172.026635 
L 189.565843 171.732934 
L 190.01269 171.732934 
L 190.459536 171.440326 
L 191.35323 171.440326 
L 191.800077 171.148484 
L 192.246924 171.148484 
L 192.693771 170.857857 
L 193.140617 170.857857 
L 193.587464 170.567978 
L 194.034311 170.567978 
L 194.481158 170.279404 
L 194.928005 170.279404 
L 195.374852 169.991596 
L 195.821699 169.991596 
L 196.268545 169.705144 
L 196.715392 169.705144 
L 197.162239 169.419515 
L 198.055933 169.419515 
L 198.50278 169.135257 
L 198.949626 169.135257 
L 199.396473 168.851915 
L 199.84332 168.851915 
L 200.290167 168.569923 
L 200.737014 168.569923 
L 201.183861 168.288976 
L 201.630708 168.288976 
L 202.077554 168.009323 
L 202.524401 168.009323 
L 202.971248 167.730882 
L 203.418095 167.730882 
L 203.864942 167.45364 
L 204.758635 167.45364 
L 205.205482 167.177816 
L 205.652329 167.177816 
L 206.099176 166.903059 
L 206.546023 166.903059 
L 206.99287 166.62996 
L 207.439717 166.62996 
L 207.886563 166.357847 
L 208.33341 166.357847 
L 208.780257 166.087496 
L 209.227104 166.087496 
L 209.673951 165.818282 
L 210.120798 165.818282 
L 210.567645 165.550605 
L 211.014491 165.550605 
L 211.461338 165.284403 
L 212.355032 165.284403 
L 212.801879 165.019474 
L 213.248726 165.019474 
L 213.695572 164.756397 
L 214.142419 164.756397 
L 214.589266 164.494542 
L 215.036113 164.494542 
L 215.48296 164.23445 
L 215.929807 164.23445 
L 216.376654 163.975895 
L 216.8235 163.975895 
L 217.270347 163.718746 
L 217.717194 163.718746 
L 218.164041 163.463601 
L 219.057735 163.463601 
L 219.504581 163.209853 
L 219.951428 163.209853 
L 220.398275 162.957847 
L 220.845122 162.957847 
L 221.291969 162.707687 
L 221.738816 162.707687 
L 222.185663 162.459029 
L 222.632509 162.459029 
L 223.079356 162.212361 
L 223.526203 162.212361 
L 223.97305 161.96747 
L 224.419897 161.96747 
L 224.866744 161.724186 
L 225.760437 161.724186 
L 226.207284 161.483051 
L 226.654131 161.483051 
L 227.100978 161.243714 
L 227.547825 161.243714 
L 227.994672 161.00609 
L 228.441518 161.00609 
L 228.888365 160.770681 
L 229.335212 160.770681 
L 229.782059 160.537281 
L 230.228906 160.537281 
L 230.675753 160.305601 
L 231.122599 160.305601 
L 231.569446 160.076113 
L 232.46314 160.076113 
L 232.909987 159.848739 
L 233.356834 159.848739 
L 233.803681 159.623291 
L 234.250527 159.623291 
L 234.697374 159.399923 
L 235.144221 159.399923 
L 235.591068 159.178961 
L 236.037915 159.178961 
L 236.484762 158.960033 
L 236.931608 158.960033 
L 237.378455 158.743175 
L 237.825302 158.743175 
L 238.272149 158.52872 
L 239.165843 158.52872 
L 239.61269 158.316597 
L 240.059536 158.316597 
L 240.506383 158.106653 
L 240.95323 158.106653 
L 241.400077 157.898925 
L 241.846924 157.898925 
L 242.293771 157.693758 
L 242.740617 157.693758 
L 243.187464 157.491013 
L 243.634311 157.491013 
L 244.081158 157.290592 
L 244.528005 157.290592 
L 244.974852 157.092535 
L 245.868545 157.092535 
L 246.315392 156.897032 
L 246.762239 156.897032 
L 247.209086 156.704206 
L 247.655933 156.704206 
L 248.10278 156.51385 
L 248.549626 156.51385 
L 248.996473 156.326003 
L 249.44332 156.326003 
L 249.890167 156.140703 
L 250.337014 156.140703 
L 250.783861 155.958175 
L 251.230708 155.958175 
L 251.677554 155.778424 
L 252.571248 155.778424 
L 253.018095 155.601327 
L 253.464942 155.601327 
L 253.911789 155.426925 
L 254.358635 155.426925 
L 254.805482 155.255257 
L 255.252329 155.255257 
L 255.699176 155.086361 
L 256.146023 155.086361 
L 256.59287 154.920517 
L 257.039717 154.920517 
L 257.486563 154.757553 
L 257.93341 154.757553 
L 258.380257 154.597468 
L 259.273951 154.597468 
L 259.720798 154.440302 
L 260.167645 154.440302 
L 260.614491 154.286092 
L 261.061338 154.286092 
L 261.508185 154.134879 
L 261.955032 154.134879 
L 262.401879 153.9867 
L 262.848726 153.9867 
L 263.295572 153.841735 
L 263.742419 153.841735 
L 264.189266 153.699941 
L 264.636113 153.699941 
L 265.08296 153.561288 
L 265.976654 153.561288 
L 266.4235 153.425817 
L 266.870347 153.425817 
L 267.317194 153.293566 
L 267.764041 153.293566 
L 268.210888 153.164573 
L 268.657735 153.164573 
L 269.104581 153.038879 
L 269.551428 153.038879 
L 269.998275 152.916522 
L 270.445122 152.916522 
L 270.891969 152.797541 
L 271.338816 152.797541 
L 271.785663 152.681975 
L 272.679356 152.681975 
L 273.57305 152.569863 
L 274.91359 152.356225 
L 276.254131 152.254781 
L 277.594672 152.062731 
L 279.382059 151.972203 
L 280.722599 151.802336 
L 282.06314 151.723078 
L 283.403681 151.576102 
L 284.744221 151.508461 
L 285.637915 151.444771 
L 286.978455 151.385081 
L 288.318996 151.277804 
L 290.55323 151.18695 
L 292.787464 151.082305 
L 307.980257 151.163515 
L 310.214491 151.308298 
L 311.555032 151.366786 
L 312.895572 151.499082 
L 314.68296 151.572936 
L 316.0235 151.736256 
L 317.364041 151.826039 
L 318.704581 152.021747 
L 320.491969 152.127677 
L 321.832509 152.356052 
L 322.279356 152.356052 
L 322.726203 152.478787 
L 323.17305 152.478787 
L 323.619897 152.607073 
L 324.066744 152.607073 
L 324.51359 152.740964 
L 324.960437 152.740964 
L 325.407284 152.880502 
L 325.854131 152.880502 
L 326.300978 153.025985 
L 327.194672 153.025985 
L 327.641518 153.177328 
L 328.088365 153.177328 
L 328.535212 153.334447 
L 328.982059 153.334447 
L 329.428906 153.49738 
L 329.875753 153.49738 
L 330.322599 153.666275 
L 330.769446 153.666275 
L 331.216293 153.84138 
L 331.66314 153.84138 
L 332.109987 154.02243 
L 332.556834 154.02243 
L 333.003681 154.209464 
L 333.897374 154.209464 
L 334.344221 154.402576 
L 334.791068 154.402576 
L 335.237915 154.602149 
L 335.684762 154.602149 
L 336.131608 154.807837 
L 336.578455 154.807837 
L 337.025302 155.019681 
L 337.472149 155.019681 
L 337.918996 155.23781 
L 338.365843 155.23781 
L 338.81269 155.462561 
L 339.259536 155.462561 
L 339.706383 155.693599 
L 340.600077 155.693599 
L 341.046924 155.930966 
L 341.493771 155.930966 
L 341.940617 156.174913 
L 342.387464 156.174913 
L 342.834311 156.425556 
L 343.281158 156.425556 
L 343.728005 156.68266 
L 344.174852 156.68266 
L 344.621699 156.946271 
L 345.068545 156.946271 
L 345.515392 157.216833 
L 345.962239 157.216833 
L 346.409086 157.494087 
L 347.30278 157.494087 
L 347.749626 157.777976 
L 348.196473 157.777976 
L 348.64332 158.068696 
L 349.090167 158.068696 
L 349.537014 158.366513 
L 349.983861 158.366513 
L 350.430708 158.671098 
L 350.877554 158.671098 
L 351.324401 158.982496 
L 351.771248 158.982496 
L 352.218095 159.301219 
L 352.664942 159.301219 
L 353.111789 159.626918 
L 354.005482 159.626918 
L 354.452329 159.959564 
L 354.899176 159.959564 
L 355.346023 160.299485 
L 355.79287 160.299485 
L 356.239717 160.646714 
L 356.686563 160.646714 
L 357.13341 161.001024 
L 357.580257 161.001024 
L 358.027104 161.362585 
L 358.473951 161.362585 
L 358.920798 161.73176 
L 359.367645 161.73176 
L 359.814491 162.108153 
L 360.708185 162.108153 
L 361.155032 162.491809 
L 361.601879 162.491809 
L 362.048726 162.883335 
L 362.495572 162.883335 
L 362.942419 163.282234 
L 363.389266 163.282234 
L 363.836113 163.688533 
L 364.28296 163.688533 
L 364.729807 164.102723 
L 365.176654 164.102723 
L 365.6235 164.52455 
L 366.070347 164.52455 
L 366.517194 164.953914 
L 367.410888 164.953914 
L 367.857735 165.391198 
L 368.304581 165.391198 
L 368.751428 165.836375 
L 369.198275 165.836375 
L 369.645122 166.289229 
L 370.091969 166.289229 
L 370.538816 166.750043 
L 370.985663 166.750043 
L 371.432509 167.218996 
L 371.879356 167.218996 
L 372.326203 167.695766 
L 372.77305 167.695766 
L 373.219897 168.180532 
L 373.666744 168.180532 
L 374.11359 168.673685 
L 375.007284 168.673685 
L 375.454131 169.174797 
L 375.900978 169.174797 
L 376.347825 169.683939 
L 376.794672 169.683939 
L 377.241518 170.201722 
L 377.688365 170.201722 
L 378.135212 170.727604 
L 378.582059 170.727604 
L 379.028906 171.261632 
L 379.475753 171.261632 
L 379.922599 171.804378 
L 380.369446 171.804378 
L 380.816293 172.355457 
L 381.709987 172.355457 
L 382.156834 172.914824 
L 382.603681 172.914824 
L 383.050527 173.482922 
L 383.497374 173.482922 
L 383.944221 174.05963 
L 384.391068 174.05963 
L 384.837915 174.64477 
L 385.284762 174.64477 
L 385.731608 175.23863 
L 386.178455 175.23863 
L 386.625302 175.841393 
L 387.072149 175.841393 
L 387.518996 176.452731 
L 388.41269 176.452731 
L 388.859536 177.072746 
L 389.306383 177.072746 
L 389.75323 177.701991 
L 390.200077 177.701991 
L 390.646924 178.339955 
L 391.093771 178.339955 
L 391.540617 178.986687 
L 391.987464 178.986687 
L 392.434311 179.642681 
L 392.881158 179.642681 
L 393.328005 180.307701 
L 393.774852 180.307701 
L 394.221699 180.981635 
L 395.115392 180.981635 
L 395.562239 181.664708 
L 396.009086 181.664708 
L 396.455933 182.357214 
L 396.90278 182.357214 
L 397.349626 183.058777 
L 397.796473 183.058777 
L 398.24332 183.769446 
L 398.690167 183.769446 
L 399.137014 184.489723 
L 399.583861 184.489723 
L 400.030708 185.219341 
L 400.477554 185.219341 
L 400.924401 185.95821 
L 401.818095 185.95821 
L 402.264942 186.706431 
L 402.711789 186.706431 
L 403.158635 187.456157 
L 403.605482 187.456157 
L 404.052329 188.204241 
L 404.499176 188.204241 
L 404.946023 188.950661 
L 405.39287 188.950661 
L 405.839717 189.6954 
L 406.286563 189.6954 
L 406.73341 190.438436 
L 407.180257 190.438436 
L 407.627104 191.17975 
L 408.520798 191.17975 
L 408.967645 191.919321 
L 409.414491 191.919321 
L 409.861338 192.657131 
L 410.308185 192.657131 
L 410.755032 193.393159 
L 411.201879 193.393159 
L 411.648726 194.127385 
L 412.095572 194.127385 
L 412.542419 194.85979 
L 412.989266 194.85979 
L 413.436113 195.590353 
L 413.88296 195.590353 
L 414.329807 196.319056 
L 415.2235 196.319056 
L 415.670347 197.045878 
L 416.117194 197.045878 
L 416.564041 197.7708 
L 417.010888 197.7708 
L 417.457735 198.493803 
L 417.904581 198.493803 
L 418.351428 199.214866 
L 418.798275 199.214866 
L 419.245122 199.93397 
L 419.691969 199.93397 
L 420.138816 200.651097 
L 420.585663 200.651097 
L 421.032509 201.366226 
L 421.926203 201.366226 
L 422.37305 202.079338 
L 422.819897 202.079338 
L 423.266744 202.790414 
L 423.71359 202.790414 
L 424.160437 203.499435 
L 424.607284 203.499435 
L 425.054131 204.206381 
L 425.500978 204.206381 
L 425.947825 204.911233 
L 426.394672 204.911233 
L 426.841518 205.613973 
L 427.288365 205.613973 
L 427.735212 206.314581 
L 428.628906 206.314581 
L 429.075753 207.013039 
L 429.522599 207.013039 
L 429.969446 207.709327 
L 430.416293 207.709327 
L 430.86314 208.403427 
L 431.309987 208.403427 
L 431.756834 209.09532 
L 432.203681 209.09532 
L 432.650527 209.784987 
L 433.097374 209.784987 
L 433.544221 210.47241 
L 433.991068 210.47241 
L 434.437915 211.157571 
L 435.331608 211.157571 
L 435.778455 211.84045 
L 436.225302 211.84045 
L 436.672149 212.521029 
L 437.118996 212.521029 
L 437.565843 213.199291 
L 438.01269 213.199291 
L 438.459536 213.875216 
L 438.906383 213.875216 
L 439.35323 214.548787 
L 439.800077 214.548787 
L 440.246924 215.219985 
L 440.693771 215.219985 
L 441.140617 215.888793 
L 442.034311 215.888793 
L 442.481158 216.555193 
L 442.928005 216.555193 
L 443.374852 217.219166 
L 443.821699 217.219166 
L 444.268545 217.880695 
L 444.715392 217.880695 
L 445.162239 218.539762 
L 445.609086 218.539762 
L 446.055933 219.19635 
L 446.50278 219.19635 
L 446.949626 219.850441 
L 447.396473 219.850441 
L 447.84332 220.502017 
L 448.737014 220.502017 
L 449.183861 221.151062 
L 449.630708 221.151062 
L 450.077554 221.797557 
L 450.524401 221.797557 
L 450.971248 222.441486 
L 451.418095 222.441486 
L 451.864942 223.082832 
L 452.311789 223.082832 
L 452.758635 223.721578 
L 453.205482 223.721578 
L 453.652329 224.357706 
L 454.099176 224.357706 
L 454.546023 224.9912 
L 454.99287 224.9912 
L 455.439717 225.622043 
L 456.33341 225.622043 
L 456.780257 226.250218 
L 457.227104 226.250218 
L 457.673951 226.875709 
L 458.120798 226.875709 
L 458.567645 227.498499 
L 459.014491 227.498499 
L 459.461338 228.118572 
L 459.908185 228.118572 
L 460.355032 228.735912 
L 460.801879 228.735912 
L 461.248726 229.350502 
L 461.695572 229.350502 
L 462.142419 229.962327 
L 463.036113 229.962327 
L 463.48296 230.57137 
L 463.929807 230.57137 
L 464.376654 231.177616 
L 464.8235 231.177616 
L 465.270347 231.781048 
L 465.717194 231.781048 
L 466.164041 232.381652 
L 466.610888 232.381652 
L 467.057735 232.979412 
L 467.504581 232.979412 
L 467.951428 233.574312 
L 468.398275 233.574312 
L 468.845122 234.166337 
L 469.738816 234.166337 
L 470.185663 234.755472 
L 470.632509 234.755472 
L 471.079356 235.341702 
L 471.526203 235.341702 
L 471.97305 235.925011 
L 472.419897 235.925011 
L 472.866744 236.505386 
L 473.31359 236.505386 
L 473.760437 237.082811 
L 474.207284 237.082811 
L 474.654131 237.657271 
L 475.100978 237.657271 
L 475.547825 238.228753 
L 476.441518 238.228753 
L 476.888365 238.79724 
L 477.335212 238.79724 
L 477.782059 239.36272 
L 478.228906 239.36272 
L 478.675753 239.925177 
L 479.122599 239.925177 
L 479.569446 240.484598 
L 480.016293 240.484598 
L 480.46314 241.040969 
L 480.909987 241.040969 
L 481.356834 241.594275 
L 481.803681 241.594275 
L 482.250527 242.144503 
L 483.144221 242.144503 
L 483.591068 242.69164 
L 484.037915 242.69164 
L 484.484762 243.235672 
L 484.931608 243.235672 
L 485.378455 243.776585 
L 485.825302 243.776585 
L 486.272149 244.314367 
L 486.718996 244.314367 
L 487.165843 244.849004 
L 487.61269 244.849004 
L 488.059536 245.380483 
L 488.506383 245.380483 
L 488.95323 245.908792 
L 489.846924 245.908792 
L 490.293771 246.433918 
L 490.740617 246.433918 
L 491.187464 246.955847 
L 491.634311 246.955847 
L 492.081158 247.474569 
L 492.528005 247.474569 
L 492.974852 247.99007 
L 493.421699 247.99007 
L 493.868545 248.502338 
L 494.315392 248.502338 
L 494.762239 249.011361 
L 495.209086 249.011361 
L 495.655933 249.517128 
L 496.549626 249.517128 
L 496.996473 250.019626 
L 497.44332 250.019626 
L 497.890167 250.518845 
L 498.337014 250.518845 
L 498.783861 251.014771 
L 499.230708 251.014771 
L 499.677554 251.507394 
L 500.124401 251.507394 
L 500.571248 251.996701 
L 501.018095 251.996701 
L 501.464942 252.482683 
L 501.911789 252.482683 
L 502.358635 252.965327 
L 503.252329 252.965327 
L 503.699176 253.444623 
L 504.146023 253.444623 
L 504.59287 253.920559 
L 505.039717 253.920559 
L 505.486563 254.393127 
L 505.93341 254.393127 
L 506.380257 254.862314 
L 506.827104 254.862314 
L 507.273951 255.32811 
L 507.720798 255.32811 
L 508.167645 255.790506 
L 508.614491 255.790506 
L 509.061338 256.24949 
L 509.955032 256.24949 
L 510.401879 256.705055 
L 510.848726 256.705055 
L 511.295572 257.157188 
L 511.742419 257.157188 
L 512.189266 257.605882 
L 512.636113 257.605882 
L 513.08296 258.051125 
L 513.529807 258.051125 
L 513.976654 258.49291 
L 514.4235 258.49291 
L 514.870347 258.931226 
L 515.317194 258.931226 
L 515.764041 259.366065 
L 516.657735 259.366065 
L 517.104581 259.797418 
L 517.551428 259.797418 
L 517.998275 260.225276 
L 518.445122 260.225276 
L 518.891969 260.64963 
L 519.338816 260.64963 
L 519.785663 261.070472 
L 520.232509 261.070472 
L 520.679356 261.487794 
L 521.126203 261.487794 
L 521.57305 261.901587 
L 522.019897 261.901587 
L 522.466744 262.311843 
L 522.466744 262.311843 
" style="fill:none;stroke:#0571a3;stroke-linecap:round;stroke-opacity:0.8;stroke-width:5;"/>
   </g>
   <g id="patch_3">
    <path d="M 76.066744 296.955168 
L 76.066744 25.155168 
" style="fill:none;stroke:#cccccc;stroke-linecap:square;stroke-linejoin:miter;"/>
   </g>
   <g id="patch_4">
    <path d="M 522.466744 296.955168 
L 522.466744 25.155168 
" style="fill:none;stroke:#cccccc;stroke-linecap:square;stroke-linejoin:miter;"/>
   </g>
   <g id="patch_5">
    <path d="M 76.066744 296.955168 
L 522.466744 296.955168 
" style="fill:none;stroke:#cccccc;stroke-linecap:square;stroke-linejoin:miter;"/>
   </g>
   <g id="patch_6">
    <path d="M 76.066744 25.155168 
L 522.466744 25.155168 
" style="fill:none;stroke:#cccccc;stroke-linecap:square;stroke-linejoin:miter;"/>
   </g>
   <g id="text_14">
    <!-- Difference in $I_{max}$ with versus without intensive intervention -->
    <defs>
     <path d="M 8.90625 69 
L 8.90625 0 
L 33.5 0 
C 49.90625 0 62.5 15.3125 62.5 33.90625 
C 62.5 53.09375 49.90625 69 33.5 69 
z
M 17.09375 5.578125 
L 17.09375 63.421875 
L 31.296875 63.421875 
C 44.703125 63.421875 54.296875 51.203125 54.296875 33.90625 
C 54.296875 17.296875 44.796875 5.578125 31.296875 5.578125 
z
" id="CMSS17-68"/>
     <path d="M 38.5 39.703125 
C 38.5 40.390625 33.90625 42.40625 32.703125 42.796875 
C 29.40625 44 25.203125 44 24.09375 44 
C 11.09375 44 3.296875 32.703125 3.296875 21.296875 
C 3.296875 9.296875 12 -1 23.703125 -1 
C 30.40625 -1 35.203125 1.1875 39.09375 3.78125 
L 38.5 10.375 
C 34.203125 7.078125 29.203125 5.265625 23.796875 5.265625 
C 16 5.265625 10.90625 12.09375 10.90625 21.390625 
C 10.90625 28.609375 14.203125 37.71875 24.203125 37.71875 
C 29.703125 37.71875 32.796875 36.609375 37.40625 33.515625 
z
" id="CMSS17-99"/>
    </defs>
    <g style="fill:#262626;" transform="translate(95.427533 19.155168)scale(0.1728 -0.1728)">
     <use transform="translate(0 14.943915)scale(0.996264)" xlink:href="#CMSS17-68"/>
     <use transform="translate(67.542842 14.943915)scale(0.996264)" xlink:href="#CMSS17-105"/>
     <use transform="translate(89.723565 14.943915)scale(0.996264)" xlink:href="#CMSS17-11"/>
     <use transform="translate(144.374535 14.943915)scale(0.996264)" xlink:href="#CMSS17-101"/>
     <use transform="translate(186.013357 14.943915)scale(0.996264)" xlink:href="#CMSS17-114"/>
     <use transform="translate(217.923129 14.943915)scale(0.996264)" xlink:href="#CMSS17-101"/>
     <use transform="translate(259.561952 14.943915)scale(0.996264)" xlink:href="#CMSS17-110"/>
     <use transform="translate(307.766895 14.943915)scale(0.996264)" xlink:href="#CMSS17-99"/>
     <use transform="translate(349.405717 14.943915)scale(0.996264)" xlink:href="#CMSS17-101"/>
     <use transform="translate(422.273652 14.943915)scale(0.996264)" xlink:href="#CMSS17-105"/>
     <use transform="translate(444.454375 14.943915)scale(0.996264)" xlink:href="#CMSS17-110"/>
     <use transform="translate(523.88843 14.943915)scale(0.996264)" xlink:href="#CMMI12-73"/>
     <use transform="translate(566.912606 0)scale(0.697382)" xlink:href="#CMMI12-109"/>
     <use transform="translate(626.641397 0)scale(0.697382)" xlink:href="#CMMI12-97"/>
     <use transform="translate(662.486744 0)scale(0.697382)" xlink:href="#CMMI12-120"/>
     <use transform="translate(733.017648 14.943915)scale(0.996264)" xlink:href="#CMSS17-119"/>
     <use transform="translate(796.837193 14.943915)scale(0.996264)" xlink:href="#CMSS17-105"/>
     <use transform="translate(819.017916 14.943915)scale(0.996264)" xlink:href="#CMSS17-116"/>
     <use transform="translate(852.849483 14.943915)scale(0.996264)" xlink:href="#CMSS17-104"/>
     <use transform="translate(932.283539 14.943915)scale(0.996264)" xlink:href="#CMSS17-118"/>
     <use transform="translate(975.28368 14.943915)scale(0.996264)" xlink:href="#CMSS17-101"/>
     <use transform="translate(1016.922503 14.943915)scale(0.996264)" xlink:href="#CMSS17-114"/>
     <use transform="translate(1048.832275 14.943915)scale(0.996264)" xlink:href="#CMSS17-115"/>
     <use transform="translate(1084.745817 14.943915)scale(0.996264)" xlink:href="#CMSS17-117"/>
     <use transform="translate(1132.95076 14.943915)scale(0.996264)" xlink:href="#CMSS17-115"/>
     <use transform="translate(1200.093415 14.943915)scale(0.996264)" xlink:href="#CMSS17-119"/>
     <use transform="translate(1263.91296 14.943915)scale(0.996264)" xlink:href="#CMSS17-105"/>
     <use transform="translate(1286.093683 14.943915)scale(0.996264)" xlink:href="#CMSS17-116"/>
     <use transform="translate(1319.92525 14.943915)scale(0.996264)" xlink:href="#CMSS17-104"/>
     <use transform="translate(1368.130193 14.943915)scale(0.996264)" xlink:href="#CMSS17-111"/>
     <use transform="translate(1414.973816 14.943915)scale(0.996264)" xlink:href="#CMSS17-117"/>
     <use transform="translate(1463.17876 14.943915)scale(0.996264)" xlink:href="#CMSS17-116"/>
     <use transform="translate(1528.239439 14.943915)scale(0.996264)" xlink:href="#CMSS17-105"/>
     <use transform="translate(1550.420162 14.943915)scale(0.996264)" xlink:href="#CMSS17-110"/>
     <use transform="translate(1598.625105 14.943915)scale(0.996264)" xlink:href="#CMSS17-116"/>
     <use transform="translate(1632.456672 14.943915)scale(0.996264)" xlink:href="#CMSS17-101"/>
     <use transform="translate(1674.095494 14.943915)scale(0.996264)" xlink:href="#CMSS17-110"/>
     <use transform="translate(1722.300437 14.943915)scale(0.996264)" xlink:href="#CMSS17-115"/>
     <use transform="translate(1758.213979 14.943915)scale(0.996264)" xlink:href="#CMSS17-105"/>
     <use transform="translate(1780.394702 14.943915)scale(0.996264)" xlink:href="#CMSS17-118"/>
     <use transform="translate(1823.394844 14.943915)scale(0.996264)" xlink:href="#CMSS17-101"/>
     <use transform="translate(1896.262779 14.943915)scale(0.996264)" xlink:href="#CMSS17-105"/>
     <use transform="translate(1918.443502 14.943915)scale(0.996264)" xlink:href="#CMSS17-110"/>
     <use transform="translate(1966.648445 14.943915)scale(0.996264)" xlink:href="#CMSS17-116"/>
     <use transform="translate(2000.480011 14.943915)scale(0.996264)" xlink:href="#CMSS17-101"/>
     <use transform="translate(2042.118834 14.943915)scale(0.996264)" xlink:href="#CMSS17-114"/>
     <use transform="translate(2074.028606 14.943915)scale(0.996264)" xlink:href="#CMSS17-118"/>
     <use transform="translate(2117.028748 14.943915)scale(0.996264)" xlink:href="#CMSS17-101"/>
     <use transform="translate(2158.66757 14.943915)scale(0.996264)" xlink:href="#CMSS17-110"/>
     <use transform="translate(2206.872513 14.943915)scale(0.996264)" xlink:href="#CMSS17-116"/>
     <use transform="translate(2240.70408 14.943915)scale(0.996264)" xlink:href="#CMSS17-105"/>
     <use transform="translate(2262.884803 14.943915)scale(0.996264)" xlink:href="#CMSS17-111"/>
     <use transform="translate(2309.728426 14.943915)scale(0.996264)" xlink:href="#CMSS17-110"/>
    </g>
   </g>
   <g id="legend_1">
    <g id="patch_7">
     <path d="M 86.146744 289.755168 
L 259.345021 289.755168 
Q 262.225021 289.755168 262.225021 286.875168 
L 262.225021 248.176114 
Q 262.225021 245.296114 259.345021 245.296114 
L 86.146744 245.296114 
Q 83.266744 245.296114 83.266744 248.176114 
L 83.266744 286.875168 
Q 83.266744 289.755168 86.146744 289.755168 
z
" style="fill:#ffffff;stroke:#cccccc;stroke-linejoin:miter;"/>
    </g>
    <g id="line2d_25">
     <path d="M 89.026744 256.096114 
L 117.826744 256.096114 
" style="fill:none;stroke:#c20a1f;stroke-linecap:round;stroke-opacity:0.8;stroke-width:5;"/>
    </g>
    <g id="line2d_26"/>
    <g id="text_15">
     <!-- no continuous control -->
     <defs>
      <path d="M 14.796875 69 
L 7.40625 69 
L 7.40625 0 
L 14.796875 0 
z
" id="CMSS17-108"/>
     </defs>
     <g style="fill:#262626;" transform="translate(129.346744 261.136114)scale(0.144 -0.144)">
      <use transform="scale(0.996264)" xlink:href="#CMSS17-110"/>
      <use transform="translate(48.204943 0)scale(0.996264)" xlink:href="#CMSS17-111"/>
      <use transform="translate(126.277679 0)scale(0.996264)" xlink:href="#CMSS17-99"/>
      <use transform="translate(167.916501 0)scale(0.996264)" xlink:href="#CMSS17-111"/>
      <use transform="translate(214.760125 0)scale(0.996264)" xlink:href="#CMSS17-110"/>
      <use transform="translate(262.965068 0)scale(0.996264)" xlink:href="#CMSS17-116"/>
      <use transform="translate(296.796635 0)scale(0.996264)" xlink:href="#CMSS17-105"/>
      <use transform="translate(318.977358 0)scale(0.996264)" xlink:href="#CMSS17-110"/>
      <use transform="translate(367.182301 0)scale(0.996264)" xlink:href="#CMSS17-117"/>
      <use transform="translate(415.387244 0)scale(0.996264)" xlink:href="#CMSS17-111"/>
      <use transform="translate(462.230868 0)scale(0.996264)" xlink:href="#CMSS17-117"/>
      <use transform="translate(510.435811 0)scale(0.996264)" xlink:href="#CMSS17-115"/>
      <use transform="translate(577.578466 0)scale(0.996264)" xlink:href="#CMSS17-99"/>
      <use transform="translate(619.217288 0)scale(0.996264)" xlink:href="#CMSS17-111"/>
      <use transform="translate(666.060911 0)scale(0.996264)" xlink:href="#CMSS17-110"/>
      <use transform="translate(714.265854 0)scale(0.996264)" xlink:href="#CMSS17-116"/>
      <use transform="translate(748.097421 0)scale(0.996264)" xlink:href="#CMSS17-114"/>
      <use transform="translate(780.007193 0)scale(0.996264)" xlink:href="#CMSS17-111"/>
      <use transform="translate(826.850817 0)scale(0.996264)" xlink:href="#CMSS17-108"/>
     </g>
    </g>
    <g id="line2d_27">
     <path d="M 89.026744 276.165641 
L 117.826744 276.165641 
" style="fill:none;stroke:#0571a3;stroke-linecap:round;stroke-opacity:0.8;stroke-width:5;"/>
    </g>
    <g id="line2d_28"/>
    <g id="text_16">
     <!-- continuous control -->
     <g style="fill:#262626;" transform="translate(129.346744 281.205641)scale(0.144 -0.144)">
      <use transform="scale(0.996264)" xlink:href="#CMSS17-99"/>
      <use transform="translate(41.638822 0)scale(0.996264)" xlink:href="#CMSS17-111"/>
      <use transform="translate(88.482446 0)scale(0.996264)" xlink:href="#CMSS17-110"/>
      <use transform="translate(136.687389 0)scale(0.996264)" xlink:href="#CMSS17-116"/>
      <use transform="translate(170.518955 0)scale(0.996264)" xlink:href="#CMSS17-105"/>
      <use transform="translate(192.699678 0)scale(0.996264)" xlink:href="#CMSS17-110"/>
      <use transform="translate(240.904622 0)scale(0.996264)" xlink:href="#CMSS17-117"/>
      <use transform="translate(289.109565 0)scale(0.996264)" xlink:href="#CMSS17-111"/>
      <use transform="translate(335.953188 0)scale(0.996264)" xlink:href="#CMSS17-117"/>
      <use transform="translate(384.158131 0)scale(0.996264)" xlink:href="#CMSS17-115"/>
      <use transform="translate(451.300786 0)scale(0.996264)" xlink:href="#CMSS17-99"/>
      <use transform="translate(492.939608 0)scale(0.996264)" xlink:href="#CMSS17-111"/>
      <use transform="translate(539.783232 0)scale(0.996264)" xlink:href="#CMSS17-110"/>
      <use transform="translate(587.988175 0)scale(0.996264)" xlink:href="#CMSS17-116"/>
      <use transform="translate(621.819742 0)scale(0.996264)" xlink:href="#CMSS17-114"/>
      <use transform="translate(653.729514 0)scale(0.996264)" xlink:href="#CMSS17-111"/>
      <use transform="translate(700.573138 0)scale(0.996264)" xlink:href="#CMSS17-108"/>
     </g>
    </g>
   </g>
  </g>
 </g>
 <defs>
  <clipPath id="p49b7bd96b0">
   <rect height="271.8" width="446.4" x="76.066744" y="25.155168"/>
  </clipPath>
 </defs>
</svg>
