<?xml version="1.0" encoding="utf-8" standalone="no"?>
<!DOCTYPE svg PUBLIC "-//W3C//DTD SVG 1.1//EN"
  "http://www.w3.org/Graphics/SVG/1.1/DTD/svg11.dtd">
<!-- Created with matplotlib (https://matplotlib.org/) -->
<svg height="342.566959pt" version="1.1" viewBox="0 0 737.053813 342.566959" width="737.053813pt" xmlns="http://www.w3.org/2000/svg" xmlns:xlink="http://www.w3.org/1999/xlink">
 <defs>
  <style type="text/css">
*{stroke-linecap:butt;stroke-linejoin:round;}
  </style>
 </defs>
 <g id="figure_1">
  <g id="patch_1">
   <path d="M 0 342.566959 
L 737.053813 342.566959 
L 737.053813 0 
L 0 0 
z
" style="fill:#ffffff;"/>
  </g>
  <g id="axes_1">
   <g id="patch_2">
    <path d="M 60.253813 295.377725 
L 364.617449 295.377725 
L 364.617449 23.577725 
L 60.253813 23.577725 
z
" style="fill:#ffffff;"/>
   </g>
   <g id="matplotlib.axis_1">
    <g id="xtick_1">
     <g id="line2d_1">
      <path clip-path="url(#pd3347ff9fd)" d="M 74.088524 295.377725 
L 74.088524 23.577725 
" style="fill:none;stroke:#cccccc;stroke-linecap:round;stroke-width:0.8;"/>
     </g>
     <g id="line2d_2"/>
     <g id="text_1">
      <!-- $0$ -->
      <defs>
       <path d="M 42 31.640625 
C 42 37.75 41.90625 48.125 37.703125 56.109375 
C 34 63.109375 28.09375 65.59375 22.90625 65.59375 
C 18.09375 65.59375 12 63.40625 8.203125 56.203125 
C 4.203125 48.71875 3.796875 39.4375 3.796875 31.640625 
C 3.796875 25.953125 3.90625 17.28125 7 9.671875 
C 11.296875 -0.609375 19 -2 22.90625 -2 
C 27.5 -2 34.5 -0.109375 38.59375 9.375 
C 41.59375 16.28125 42 24.359375 42 31.640625 
z
M 22.90625 -0.40625 
C 16.5 -0.40625 12.703125 5.078125 11.296875 12.6875 
C 10.203125 18.5625 10.203125 27.15625 10.203125 32.75 
C 10.203125 40.4375 10.203125 46.828125 11.5 52.921875 
C 13.40625 61.390625 19 64 22.90625 64 
C 27 64 32.296875 61.296875 34.203125 53.125 
C 35.5 47.4375 35.59375 40.734375 35.59375 32.75 
C 35.59375 26.25 35.59375 18.265625 34.40625 12.375 
C 32.296875 1.484375 26.40625 -0.40625 22.90625 -0.40625 
z
" id="CMR17-48"/>
      </defs>
      <g style="fill:#262626;" transform="translate(70.140872 310.832893)scale(0.1728 -0.1728)">
       <use transform="scale(0.996264)" xlink:href="#CMR17-48"/>
      </g>
     </g>
    </g>
    <g id="xtick_2">
     <g id="line2d_3">
      <path clip-path="url(#pd3347ff9fd)" d="M 166.319929 295.377725 
L 166.319929 23.577725 
" style="fill:none;stroke:#cccccc;stroke-linecap:round;stroke-width:0.8;"/>
     </g>
     <g id="line2d_4"/>
     <g id="text_2">
      <!-- $100$ -->
      <defs>
       <path d="M 26.59375 63.40625 
C 26.59375 65.5 26.5 65.5 25.09375 65.5 
C 21.203125 61.1875 15.296875 59.796875 9.703125 59.796875 
C 9.40625 59.796875 8.90625 59.796875 8.796875 59.5 
C 8.703125 59.296875 8.703125 59.09375 8.703125 57 
C 11.796875 57 17 57.59375 21 59.984375 
L 21 7.203125 
C 21 3.6875 20.796875 2.5 12.203125 2.5 
L 9.203125 2.5 
L 9.203125 0 
C 14 0 19 0 23.796875 0 
C 28.59375 0 33.59375 0 38.40625 0 
L 38.40625 2.5 
L 35.40625 2.5 
C 26.796875 2.5 26.59375 3.59375 26.59375 7.15625 
z
" id="CMR17-49"/>
      </defs>
      <g style="fill:#262626;" transform="translate(154.476973 310.832893)scale(0.1728 -0.1728)">
       <use transform="scale(0.996264)" xlink:href="#CMR17-49"/>
       <use transform="translate(45.690477 0)scale(0.996264)" xlink:href="#CMR17-48"/>
       <use transform="translate(91.380954 0)scale(0.996264)" xlink:href="#CMR17-48"/>
      </g>
     </g>
    </g>
    <g id="xtick_3">
     <g id="line2d_5">
      <path clip-path="url(#pd3347ff9fd)" d="M 258.551334 295.377725 
L 258.551334 23.577725 
" style="fill:none;stroke:#cccccc;stroke-linecap:round;stroke-width:0.8;"/>
     </g>
     <g id="line2d_6"/>
     <g id="text_3">
      <!-- $200$ -->
      <defs>
       <path d="M 41.703125 15.453125 
L 39.90625 15.453125 
C 38.90625 8.375 38.09375 7.171875 37.703125 6.5625 
C 37.203125 5.765625 30 5.765625 28.59375 5.765625 
L 9.40625 5.765625 
C 13 9.671875 20 16.75 28.5 24.953125 
C 34.59375 30.734375 41.703125 37.53125 41.703125 47.421875 
C 41.703125 59.21875 32.296875 66 21.796875 66 
C 10.796875 66 4.09375 56.3125 4.09375 47.34375 
C 4.09375 43.4375 7 42.9375 8.203125 42.9375 
C 9.203125 42.9375 12.203125 43.546875 12.203125 47.03125 
C 12.203125 50.109375 9.59375 51 8.203125 51 
C 7.59375 51 7 50.90625 6.59375 50.703125 
C 8.5 59.21875 14.296875 63.40625 20.40625 63.40625 
C 29.09375 63.40625 34.796875 56.515625 34.796875 47.421875 
C 34.796875 38.734375 29.703125 31.25 24 24.75 
L 4.09375 2.28125 
L 4.09375 0 
L 39.296875 0 
z
" id="CMR17-50"/>
      </defs>
      <g style="fill:#262626;" transform="translate(246.708378 310.832893)scale(0.1728 -0.1728)">
       <use transform="scale(0.996264)" xlink:href="#CMR17-50"/>
       <use transform="translate(45.690477 0)scale(0.996264)" xlink:href="#CMR17-48"/>
       <use transform="translate(91.380954 0)scale(0.996264)" xlink:href="#CMR17-48"/>
      </g>
     </g>
    </g>
    <g id="xtick_4">
     <g id="line2d_7">
      <path clip-path="url(#pd3347ff9fd)" d="M 350.782739 295.377725 
L 350.782739 23.577725 
" style="fill:none;stroke:#cccccc;stroke-linecap:round;stroke-width:0.8;"/>
     </g>
     <g id="line2d_8"/>
     <g id="text_4">
      <!-- $300$ -->
      <defs>
       <path d="M 22.09375 33.703125 
C 31 33.703125 34.90625 25.96875 34.90625 17.03125 
C 34.90625 5 28.5 0.390625 22.703125 0.390625 
C 17.40625 0.390625 8.796875 3.03125 6.09375 10.828125 
C 6.59375 10.625 7.09375 10.625 7.59375 10.625 
C 10 10.625 11.796875 12.21875 11.796875 14.8125 
C 11.796875 17.703125 9.59375 19 7.59375 19 
C 5.90625 19 3.296875 18.203125 3.296875 14.46875 
C 3.296875 5.234375 12.296875 -2 22.90625 -2 
C 34 -2 42.5 6.71875 42.5 16.953125 
C 42.5 26.671875 34.5 33.703125 25 34.796875 
C 32.59375 36.375 39.90625 43.0625 39.90625 52.015625 
C 39.90625 59.6875 32 65.296875 23 65.296875 
C 13.90625 65.296875 5.90625 59.828125 5.90625 52.015625 
C 5.90625 48.59375 8.5 48 9.796875 48 
C 11.90625 48 13.703125 49.296875 13.703125 51.890625 
C 13.703125 54.46875 11.90625 55.765625 9.796875 55.765625 
C 9.40625 55.765625 8.90625 55.765625 8.5 55.578125 
C 11.40625 61.859375 19.296875 63 22.796875 63 
C 26.296875 63 32.90625 61.328125 32.90625 51.875 
C 32.90625 49.109375 32.5 44.1875 29.09375 39.84375 
C 26.09375 36 22.703125 36 19.40625 35.6875 
C 18.90625 35.6875 16.59375 35.453125 16.203125 35.453125 
C 15.5 35.359375 15.09375 35.265625 15.09375 34.5 
C 15.09375 33.796875 15.203125 33.703125 17.203125 33.703125 
z
" id="CMR17-51"/>
      </defs>
      <g style="fill:#262626;" transform="translate(338.939783 310.832893)scale(0.1728 -0.1728)">
       <use transform="scale(0.996264)" xlink:href="#CMR17-51"/>
       <use transform="translate(45.690477 0)scale(0.996264)" xlink:href="#CMR17-48"/>
       <use transform="translate(91.380954 0)scale(0.996264)" xlink:href="#CMR17-48"/>
      </g>
     </g>
    </g>
    <g id="text_5">
     <!-- time (days) -->
     <defs>
      <path d="M 16.703125 37 
L 29.703125 37 
L 29.703125 42.765625 
L 16.703125 42.765625 
L 16.703125 55 
L 9.59375 55 
L 9.59375 42.765625 
L 1.703125 42.765625 
L 1.703125 37 
L 9.40625 37 
L 9.40625 11.703125 
C 9.40625 6 10.703125 -1 17.296875 -1 
C 22.296875 -1 26.90625 0.390625 31.296875 2.6875 
L 29.703125 8.5625 
C 27.296875 6.46875 24.40625 5.265625 21.296875 5.265625 
C 16.90625 5.265625 16.703125 10.875 16.703125 13.375 
z
" id="CMSS17-116"/>
      <path d="M 15.296875 65.359375 
L 6.90625 65.359375 
L 6.90625 57 
L 15.296875 57 
z
M 14.796875 42.796875 
L 7.40625 42.796875 
L 7.40625 0 
L 14.796875 0 
z
" id="CMSS17-105"/>
      <path d="M 67 29.328125 
C 67 36.0625 65.296875 44 54.09375 44 
C 46.59375 44 42.09375 39.3125 40.09375 36.421875 
C 38.296875 41.71875 34.09375 44 28.09375 44 
C 21.296875 44 17 40.125 14.703125 37.328125 
L 14.703125 43.09375 
L 7.40625 43.09375 
L 7.40625 0 
L 15 0 
L 15 24.359375 
C 15 30.296875 17.203125 37.9375 24.296875 37.9375 
C 33.40625 37.9375 33.40625 31.5 33.40625 28.578125 
L 33.40625 0 
L 41 0 
L 41 24.359375 
C 41 30.296875 43.203125 37.9375 50.296875 37.9375 
C 59.40625 37.9375 59.40625 31.5 59.40625 28.578125 
L 59.40625 0 
L 67 0 
z
" id="CMSS17-109"/>
      <path d="M 39.09375 21.515625 
C 39.09375 24.84375 38.90625 31.296875 35.703125 36.640625 
C 32.203125 42.390625 26.5 44 22.203125 44 
C 11.796875 44 3 34.1875 3 21.484375 
C 3 9.09375 12.09375 -1 23.59375 -1 
C 28.09375 -1 33.59375 0.296875 38.59375 3.875 
C 38.59375 4.28125 38.40625 6.46875 38.296875 6.5625 
C 38.296875 6.765625 38 9.84375 38 10.25 
C 33.203125 6.359375 27.703125 5.078125 23.703125 5.078125 
C 17.296875 5.078125 10.40625 10.421875 10.09375 21.515625 
z
M 10.90625 27 
C 12.203125 32.5625 16.59375 37.828125 22.203125 37.828125 
C 23.703125 37.828125 30.703125 37.828125 32.5 27 
z
" id="CMSS17-101"/>
      <path d="M 25.203125 74.5 
C 19.796875 69.015625 7.40625 56.265625 7.40625 24.8125 
C 7.40625 -6.765625 19.796875 -19.421875 25.203125 -25 
L 31.296875 -25 
C 19 -12.25 15 5.578125 15 24.703125 
C 15 43.71875 18.796875 61.65625 31.296875 74.5 
z
" id="CMSS17-40"/>
      <path d="M 40.796875 69 
L 33.40625 69 
L 33.40625 38.09375 
C 30.296875 40.671875 25.203125 43.0625 19.59375 43.0625 
C 10.5 43.0625 3.296875 33.296875 3.296875 21.046875 
C 3.296875 8.78125 10.40625 -1 19.296875 -1 
C 26.203125 -1 30.796875 2.6875 33.203125 4.78125 
L 33.203125 -0.203125 
L 40.796875 -0.203125 
z
M 33.203125 13.0625 
C 33.203125 11.671875 33.203125 10.203125 30.09375 7.53125 
C 28.09375 5.859375 25.703125 5.078125 23.40625 5.078125 
C 18 5.078125 10.90625 9 10.90625 20.9375 
C 10.90625 33.34375 18.90625 37 24.40625 37 
C 28.09375 37 31.09375 35.21875 33.203125 32.265625 
z
" id="CMSS17-100"/>
      <path d="M 37.59375 27.984375 
C 37.59375 37.375 30.90625 43.875 21.90625 43.875 
C 17.5 43.875 12.703125 43.078125 7.203125 39.890625 
L 7.796875 33.359375 
C 10.296875 35.125 14.59375 38 21.796875 38 
C 26.90625 38 30 34.0625 30 27.84375 
L 30 24 
C 14 24 4 19.34375 4 11.34375 
C 4 7.203125 6.5 -1 14.796875 -1 
C 16.296875 -1 24.40625 -1 30.203125 3.390625 
L 30.203125 -0.296875 
L 37.59375 -0.296875 
z
M 30 12.75 
C 30 10.953125 30 8.5625 27 6.78125 
C 24.40625 5.078125 21.09375 5.078125 19.703125 5.078125 
C 14.703125 5.078125 11.296875 7.984375 11.296875 11.625 
C 11.296875 18.921875 26.90625 18.921875 30 18.921875 
z
" id="CMSS17-97"/>
      <path d="M 41.796875 43 
L 34 43 
C 25.5 20.21875 22.59375 10.96875 22.40625 5.984375 
L 22.296875 5.984375 
C 22 10.875 17.59375 22.8125 14.09375 31.359375 
L 9.40625 43 
L 1.296875 43 
L 19 0.203125 
C 17.90625 -2.78125 16.296875 -7.265625 15.796875 -8.265625 
C 13.59375 -13.828125 12.09375 -13.828125 10.5 -13.828125 
C 10.09375 -13.828125 6.90625 -13.828125 3.296875 -12.640625 
L 3.90625 -19.203125 
C 6.40625 -19.703125 8.90625 -20 10.703125 -20 
C 13.203125 -20 18.203125 -20 22.796875 -7.765625 
z
" id="CMSS17-121"/>
      <path d="M 32.203125 41.046875 
C 26.296875 43.859375 21.703125 43.859375 18.703125 43.859375 
C 11.59375 43.859375 3.09375 41.375 3.09375 31.296875 
C 3.09375 21.234375 14.09375 19.03125 17.09375 18.421875 
C 21.703125 17.53125 26.796875 16.53125 26.796875 11.5625 
C 26.796875 5.265625 19.59375 5.265625 18.296875 5.265625 
C 14.296875 5.265625 8.796875 6.359375 3.796875 9.96875 
L 2.59375 3.28125 
C 8.296875 0 13.796875 -1 18.40625 -1 
C 30.703125 -1 33.796875 6.5 33.796875 12.203125 
C 33.796875 17.09375 31 20.390625 29.09375 21.890625 
C 25.796875 24.5 24.59375 24.796875 16.40625 26.5 
C 15 26.703125 10.09375 27.796875 10.09375 32.28125 
C 10.09375 38 16.40625 38 17.796875 38 
C 24.296875 38 28.296875 35.984375 31 34.5 
z
" id="CMSS17-115"/>
      <path d="M 11.296875 -25 
C 16.703125 -19.515625 29.09375 -6.765625 29.09375 24.703125 
C 29.09375 56.265625 16.703125 68.921875 11.296875 74.5 
L 5.203125 74.5 
C 17.5 61.75 21.5 43.921875 21.5 24.8125 
C 21.5 5.78125 17.703125 -12.15625 5.203125 -25 
z
" id="CMSS17-41"/>
     </defs>
     <g style="fill:#262626;" transform="translate(173.95178 331.077502)scale(0.1728 -0.1728)">
      <use transform="scale(0.996264)" xlink:href="#CMSS17-116"/>
      <use transform="translate(33.831567 0)scale(0.996264)" xlink:href="#CMSS17-105"/>
      <use transform="translate(56.01229 0)scale(0.996264)" xlink:href="#CMSS17-109"/>
      <use transform="translate(130.241544 0)scale(0.996264)" xlink:href="#CMSS17-101"/>
      <use transform="translate(203.109479 0)scale(0.996264)" xlink:href="#CMSS17-40"/>
      <use transform="translate(239.543393 0)scale(0.996264)" xlink:href="#CMSS17-100"/>
      <use transform="translate(287.748336 0)scale(0.996264)" xlink:href="#CMSS17-97"/>
      <use transform="translate(330.067803 0)scale(0.996264)" xlink:href="#CMSS17-121"/>
      <use transform="translate(373.067945 0)scale(0.996264)" xlink:href="#CMSS17-115"/>
      <use transform="translate(408.981487 0)scale(0.996264)" xlink:href="#CMSS17-41"/>
     </g>
    </g>
   </g>
   <g id="matplotlib.axis_2">
    <g id="ytick_1">
     <g id="line2d_9">
      <path clip-path="url(#pd3347ff9fd)" d="M 60.253813 283.024002 
L 364.617449 283.024002 
" style="fill:none;stroke:#cccccc;stroke-linecap:round;stroke-width:0.8;"/>
     </g>
     <g id="line2d_10"/>
     <g id="text_6">
      <!-- $0.00$ -->
      <defs>
       <path d="M 18.40625 4.796875 
C 18.40625 7.6875 16 9.671875 13.59375 9.671875 
C 10.703125 9.671875 8.703125 7.28125 8.703125 4.890625 
C 8.703125 2 11.09375 0 13.5 0 
C 16.40625 0 18.40625 2.390625 18.40625 4.796875 
z
" id="CMMI12-58"/>
      </defs>
      <g style="fill:#262626;" transform="translate(28.385524 289.001586)scale(0.1728 -0.1728)">
       <use transform="scale(0.996264)" xlink:href="#CMR17-48"/>
       <use transform="translate(45.690477 0)scale(0.996264)" xlink:href="#CMMI12-58"/>
       <use transform="translate(72.787654 0)scale(0.996264)" xlink:href="#CMR17-48"/>
       <use transform="translate(118.478131 0)scale(0.996264)" xlink:href="#CMR17-48"/>
      </g>
     </g>
    </g>
    <g id="ytick_2">
     <g id="line2d_11">
      <path clip-path="url(#pd3347ff9fd)" d="M 60.253813 241.905436 
L 364.617449 241.905436 
" style="fill:none;stroke:#cccccc;stroke-linecap:round;stroke-width:0.8;"/>
     </g>
     <g id="line2d_12"/>
     <g id="text_7">
      <!-- $0.05$ -->
      <defs>
       <path d="M 11.40625 57.6875 
C 12.40625 57.28125 16.5 56 20.703125 56 
C 30 56 35.09375 61.109375 38 64.0625 
C 38 64.953125 38 65.5 37.40625 65.5 
C 37.296875 65.5 37.09375 65.5 36.296875 65.046875 
C 32.796875 63.40625 28.703125 62.078125 23.703125 62.078125 
C 20.703125 62.078125 16.203125 62.484375 11.296875 64.671875 
C 10.203125 65.171875 10 65.171875 9.90625 65.171875 
C 9.40625 65.171875 9.296875 65.0625 9.296875 63.078125 
L 9.296875 34.421875 
C 9.296875 32.640625 9.296875 32.140625 10.296875 32.140625 
C 10.796875 32.140625 11 32.34375 11.5 33.03125 
C 14.703125 37.515625 19.09375 39.40625 24.09375 39.40625 
C 27.59375 39.40625 35.09375 37.21875 35.09375 20.140625 
C 35.09375 16.953125 35.09375 11.171875 32.09375 6.578125 
C 29.59375 2.484375 25.703125 0.390625 21.40625 0.390625 
C 14.796875 0.390625 8.09375 5 6.296875 12.71875 
C 6.703125 12.609375 7.5 12.421875 7.90625 12.421875 
C 9.203125 12.421875 11.703125 13.125 11.703125 16.21875 
C 11.703125 18.90625 9.796875 20 7.90625 20 
C 5.59375 20 4.09375 18.59375 4.09375 15.796875 
C 4.09375 7.09375 11 -2 21.59375 -2 
C 31.90625 -2 41.703125 6.875 41.703125 19.75 
C 41.703125 31.71875 33.90625 41 24.203125 41 
C 19.09375 41 14.796875 39.109375 11.40625 35.53125 
z
" id="CMR17-53"/>
      </defs>
      <g style="fill:#262626;" transform="translate(28.385524 247.88302)scale(0.1728 -0.1728)">
       <use transform="scale(0.996264)" xlink:href="#CMR17-48"/>
       <use transform="translate(45.690477 0)scale(0.996264)" xlink:href="#CMMI12-58"/>
       <use transform="translate(72.787654 0)scale(0.996264)" xlink:href="#CMR17-48"/>
       <use transform="translate(118.478131 0)scale(0.996264)" xlink:href="#CMR17-53"/>
      </g>
     </g>
    </g>
    <g id="ytick_3">
     <g id="line2d_13">
      <path clip-path="url(#pd3347ff9fd)" d="M 60.253813 200.78687 
L 364.617449 200.78687 
" style="fill:none;stroke:#cccccc;stroke-linecap:round;stroke-width:0.8;"/>
     </g>
     <g id="line2d_14"/>
     <g id="text_8">
      <!-- $0.10$ -->
      <g style="fill:#262626;" transform="translate(28.385524 206.764454)scale(0.1728 -0.1728)">
       <use transform="scale(0.996264)" xlink:href="#CMR17-48"/>
       <use transform="translate(45.690477 0)scale(0.996264)" xlink:href="#CMMI12-58"/>
       <use transform="translate(72.787654 0)scale(0.996264)" xlink:href="#CMR17-49"/>
       <use transform="translate(118.478131 0)scale(0.996264)" xlink:href="#CMR17-48"/>
      </g>
     </g>
    </g>
    <g id="ytick_4">
     <g id="line2d_15">
      <path clip-path="url(#pd3347ff9fd)" d="M 60.253813 159.668304 
L 364.617449 159.668304 
" style="fill:none;stroke:#cccccc;stroke-linecap:round;stroke-width:0.8;"/>
     </g>
     <g id="line2d_16"/>
     <g id="text_9">
      <!-- $0.15$ -->
      <g style="fill:#262626;" transform="translate(28.385524 165.645888)scale(0.1728 -0.1728)">
       <use transform="scale(0.996264)" xlink:href="#CMR17-48"/>
       <use transform="translate(45.690477 0)scale(0.996264)" xlink:href="#CMMI12-58"/>
       <use transform="translate(72.787654 0)scale(0.996264)" xlink:href="#CMR17-49"/>
       <use transform="translate(118.478131 0)scale(0.996264)" xlink:href="#CMR17-53"/>
      </g>
     </g>
    </g>
    <g id="ytick_5">
     <g id="line2d_17">
      <path clip-path="url(#pd3347ff9fd)" d="M 60.253813 118.549738 
L 364.617449 118.549738 
" style="fill:none;stroke:#cccccc;stroke-linecap:round;stroke-width:0.8;"/>
     </g>
     <g id="line2d_18"/>
     <g id="text_10">
      <!-- $0.20$ -->
      <g style="fill:#262626;" transform="translate(28.385524 124.527322)scale(0.1728 -0.1728)">
       <use transform="scale(0.996264)" xlink:href="#CMR17-48"/>
       <use transform="translate(45.690477 0)scale(0.996264)" xlink:href="#CMMI12-58"/>
       <use transform="translate(72.787654 0)scale(0.996264)" xlink:href="#CMR17-50"/>
       <use transform="translate(118.478131 0)scale(0.996264)" xlink:href="#CMR17-48"/>
      </g>
     </g>
    </g>
    <g id="ytick_6">
     <g id="line2d_19">
      <path clip-path="url(#pd3347ff9fd)" d="M 60.253813 77.431172 
L 364.617449 77.431172 
" style="fill:none;stroke:#cccccc;stroke-linecap:round;stroke-width:0.8;"/>
     </g>
     <g id="line2d_20"/>
     <g id="text_11">
      <!-- $0.25$ -->
      <g style="fill:#262626;" transform="translate(28.385524 83.408757)scale(0.1728 -0.1728)">
       <use transform="scale(0.996264)" xlink:href="#CMR17-48"/>
       <use transform="translate(45.690477 0)scale(0.996264)" xlink:href="#CMMI12-58"/>
       <use transform="translate(72.787654 0)scale(0.996264)" xlink:href="#CMR17-50"/>
       <use transform="translate(118.478131 0)scale(0.996264)" xlink:href="#CMR17-53"/>
      </g>
     </g>
    </g>
    <g id="ytick_7">
     <g id="line2d_21">
      <path clip-path="url(#pd3347ff9fd)" d="M 60.253813 36.312607 
L 364.617449 36.312607 
" style="fill:none;stroke:#cccccc;stroke-linecap:round;stroke-width:0.8;"/>
     </g>
     <g id="line2d_22"/>
     <g id="text_12">
      <!-- $0.30$ -->
      <g style="fill:#262626;" transform="translate(28.385524 42.290191)scale(0.1728 -0.1728)">
       <use transform="scale(0.996264)" xlink:href="#CMR17-48"/>
       <use transform="translate(45.690477 0)scale(0.996264)" xlink:href="#CMMI12-58"/>
       <use transform="translate(72.787654 0)scale(0.996264)" xlink:href="#CMR17-51"/>
       <use transform="translate(118.478131 0)scale(0.996264)" xlink:href="#CMR17-48"/>
      </g>
     </g>
    </g>
    <g id="text_13">
     <!-- fraction of population infected ($I(t)$) -->
     <defs>
      <path d="M 16.796875 37 
L 26.90625 37 
L 26.90625 42.765625 
L 16.59375 42.765625 
L 16.59375 55.609375 
C 16.59375 62.71875 22 63.9375 25.09375 63.9375 
C 26.09375 63.9375 28.90625 63.9375 32.5 62.640625 
L 32.5 69.203125 
C 30.203125 69.703125 27.40625 70 25.203125 70 
C 15.90625 70 9.40625 62.390625 9.40625 52.484375 
L 9.40625 42.765625 
L 2.5 42.765625 
L 2.5 37 
L 9.40625 37 
L 9.40625 0 
L 16.796875 0 
z
" id="CMSS17-102"/>
      <path d="M 14.90625 21.296875 
C 14.90625 30.703125 21.796875 37 30.59375 37 
L 30.59375 43.578125 
C 24.203125 43.578125 18.203125 40.390625 14.59375 35.203125 
L 14.59375 43.09375 
L 7.5 43.09375 
L 7.5 0 
L 14.90625 0 
z
" id="CMSS17-114"/>
      <path d="M 38.5 39.703125 
C 38.5 40.390625 33.90625 42.40625 32.703125 42.796875 
C 29.40625 44 25.203125 44 24.09375 44 
C 11.09375 44 3.296875 32.703125 3.296875 21.296875 
C 3.296875 9.296875 12 -1 23.703125 -1 
C 30.40625 -1 35.203125 1.1875 39.09375 3.78125 
L 38.5 10.375 
C 34.203125 7.078125 29.203125 5.265625 23.796875 5.265625 
C 16 5.265625 10.90625 12.09375 10.90625 21.390625 
C 10.90625 28.609375 14.203125 37.71875 24.203125 37.71875 
C 29.703125 37.71875 32.796875 36.609375 37.40625 33.515625 
z
" id="CMSS17-99"/>
      <path d="M 44.203125 21.1875 
C 44.203125 34 34.703125 44 23.5 44 
C 12 44 2.703125 33.703125 2.703125 21.1875 
C 2.703125 8.5 12.296875 -1 23.40625 -1 
C 34.796875 -1 44.203125 8.796875 44.203125 21.1875 
z
M 23.5 5.265625 
C 16.40625 5.265625 10.296875 11.078125 10.296875 22 
C 10.296875 33.609375 17.40625 37.921875 23.40625 37.921875 
C 29.90625 37.921875 36.59375 33.21875 36.59375 22 
C 36.59375 10.671875 30.09375 5.265625 23.5 5.265625 
z
" id="CMSS17-111"/>
      <path d="M 40.90625 29.328125 
C 40.90625 35.671875 39.40625 44 28.09375 44 
C 21.703125 44 17.5 40.71875 14.703125 37.328125 
L 14.703125 43.09375 
L 7.40625 43.09375 
L 7.40625 0 
L 15 0 
L 15 24.359375 
C 15 30.6875 17.40625 37.9375 24.203125 37.9375 
C 33 37.9375 33.296875 32 33.296875 28.578125 
L 33.296875 0 
L 40.90625 0 
z
" id="CMSS17-110"/>
      <path d="M 15.09375 5.203125 
C 18.40625 2.015625 22.90625 -0.078125 27.703125 -0.078125 
C 37 -0.078125 45 9.421875 45 22.0625 
C 45 33.734375 39 44 30.40625 44 
C 25.40625 44 19.40625 42.21875 14.90625 38.625 
L 14.90625 43.203125 
L 7.5 43.203125 
L 7.5 -19 
L 15.09375 -19 
z
M 15.09375 32.8125 
C 15.90625 34 19.296875 37.734375 24.796875 37.734375 
C 31.796875 37.734375 37.40625 30.625 37.40625 22.0625 
C 37.40625 12.296875 30.59375 6 23.90625 6 
C 21.90625 6 19.796875 6.484375 17.796875 8.171875 
C 15.09375 10.53125 15.09375 12 15.09375 13.390625 
z
" id="CMSS17-112"/>
      <path d="M 40.90625 42.796875 
L 33.296875 42.796875 
L 33.296875 15.1875 
C 33.296875 7.78125 27.90625 4.78125 22.203125 4.78125 
C 15.59375 4.78125 15 6.984375 15 11.078125 
L 15 42.796875 
L 7.40625 42.796875 
L 7.40625 10.59375 
C 7.40625 2.796875 10.09375 -1 17 -1 
C 20.40625 -1 28.09375 -0.203125 33.5 4.78125 
L 33.5 0 
L 40.90625 0 
z
" id="CMSS17-117"/>
      <path d="M 14.796875 69 
L 7.40625 69 
L 7.40625 0 
L 14.796875 0 
z
" id="CMSS17-108"/>
      <path d="M 36.796875 60.625 
C 37.703125 64.109375 37.90625 65.109375 45.203125 65.109375 
C 47.40625 65.109375 48.203125 65.109375 48.203125 67 
C 48.203125 68 47.09375 68 46.796875 68 
C 45 68 42.796875 68 41 68 
L 28.703125 68 
C 26.703125 68 24.40625 68 22.40625 68 
C 21.59375 68 20.5 68 20.5 66.109375 
C 20.5 65.109375 21.296875 65.109375 23.296875 65.109375 
C 29.5 65.109375 29.5 64.3125 29.5 63.21875 
C 29.5 62.53125 29.296875 61.921875 29.09375 61.03125 
L 15.59375 7.375 
C 14.703125 3.890625 14.5 2.890625 7.203125 2.890625 
C 5 2.890625 4.09375 2.890625 4.09375 1 
C 4.09375 0 5.09375 0 5.59375 0 
C 7.40625 0 9.59375 0 11.40625 0 
L 23.703125 0 
C 25.703125 0 27.90625 0 29.90625 0 
C 30.703125 0 31.90625 0 31.90625 1.796875 
C 31.90625 2.890625 31.296875 2.890625 29.09375 2.890625 
C 22.90625 2.890625 22.90625 3.6875 22.90625 4.875 
C 22.90625 5.078125 22.90625 5.578125 23.296875 7.171875 
z
" id="CMMI12-73"/>
      <path d="M 30.59375 -24.390625 
C 30.59375 -24.296875 30.59375 -24.09375 30.296875 -23.796875 
C 25.703125 -19.125 13.40625 -6.359375 13.40625 24.703125 
C 13.40625 55.765625 25.5 68.421875 30.40625 73.390625 
C 30.40625 73.5 30.59375 73.703125 30.59375 74 
C 30.59375 74.296875 30.296875 74.5 29.90625 74.5 
C 28.796875 74.5 20.296875 67.125 15.40625 56.15625 
C 10.40625 45.109375 9 34.359375 9 24.8125 
C 9 17.625 9.703125 5.484375 15.703125 -7.359375 
C 20.5 -17.734375 28.703125 -25 29.90625 -25 
C 30.40625 -25 30.59375 -24.796875 30.59375 -24.390625 
z
" id="CMR17-40"/>
      <path d="M 20.09375 40.09375 
L 29.296875 40.09375 
C 31.203125 40.09375 32.203125 40.09375 32.203125 41.890625 
C 32.203125 43 31.59375 43 29.59375 43 
L 20.796875 43 
L 24.5 57.6875 
C 24.90625 59.078125 24.90625 59.28125 24.90625 60 
C 24.90625 61.609375 23.59375 62.5 22.296875 62.5 
C 21.5 62.5 19.203125 62.203125 18.40625 58.984375 
L 14.5 43 
L 5.09375 43 
C 3.09375 43 2.203125 43 2.203125 41.09375 
C 2.203125 40.09375 2.90625 40.09375 4.796875 40.09375 
L 13.703125 40.09375 
L 7.09375 13.765625 
C 6.296875 10.28125 6 9.28125 6 7.984375 
C 6 3.296875 9.296875 -1 14.90625 -1 
C 25 -1 30.40625 13.5625 30.40625 14.25 
C 30.40625 14.859375 30 15.15625 29.40625 15.15625 
C 29.203125 15.15625 28.796875 15.15625 28.59375 14.75 
C 28.5 14.65625 28.40625 14.546875 27.703125 12.953125 
C 25.59375 7.984375 21 1 15.203125 1 
C 12.203125 1 12 3.5 12 5.6875 
C 12 5.78125 12 7.6875 12.296875 8.875 
z
" id="CMMI12-116"/>
      <path d="M 26.296875 24.703125 
C 26.296875 31.875 25.59375 44.015625 19.59375 56.859375 
C 14.796875 67.234375 6.59375 74.5 5.40625 74.5 
C 5.09375 74.5 4.703125 74.390625 4.703125 73.890625 
C 4.703125 73.703125 4.796875 73.59375 4.90625 73.390625 
C 9.703125 68.40625 21.90625 55.75 21.90625 24.75 
C 21.90625 -6.359375 9.796875 -19.015625 4.90625 -24.015625 
C 4.796875 -24.203125 4.703125 -24.3125 4.703125 -24.5 
C 4.703125 -25 5.09375 -25 5.40625 -25 
C 6.5 -25 15 -17.625 19.90625 -6.65625 
C 24.90625 4.390625 26.296875 15.140625 26.296875 24.703125 
z
" id="CMR17-41"/>
     </defs>
     <g style="fill:#262626;" transform="translate(20.096067 284.43329)rotate(-90)scale(0.1728 -0.1728)">
      <use transform="scale(0.996264)" xlink:href="#CMSS17-102"/>
      <use transform="translate(28.626659 0)scale(0.996264)" xlink:href="#CMSS17-114"/>
      <use transform="translate(60.536431 0)scale(0.996264)" xlink:href="#CMSS17-97"/>
      <use transform="translate(105.458352 0)scale(0.996264)" xlink:href="#CMSS17-99"/>
      <use transform="translate(147.097174 0)scale(0.996264)" xlink:href="#CMSS17-116"/>
      <use transform="translate(180.928741 0)scale(0.996264)" xlink:href="#CMSS17-105"/>
      <use transform="translate(203.109464 0)scale(0.996264)" xlink:href="#CMSS17-111"/>
      <use transform="translate(249.953087 0)scale(0.996264)" xlink:href="#CMSS17-110"/>
      <use transform="translate(329.387143 0)scale(0.996264)" xlink:href="#CMSS17-111"/>
      <use transform="translate(376.230767 0)scale(0.996264)" xlink:href="#CMSS17-102"/>
      <use transform="translate(436.086538 0)scale(0.996264)" xlink:href="#CMSS17-112"/>
      <use transform="translate(486.89392 0)scale(0.996264)" xlink:href="#CMSS17-111"/>
      <use transform="translate(533.737544 0)scale(0.996264)" xlink:href="#CMSS17-112"/>
      <use transform="translate(581.942487 0)scale(0.996264)" xlink:href="#CMSS17-117"/>
      <use transform="translate(630.14743 0)scale(0.996264)" xlink:href="#CMSS17-108"/>
      <use transform="translate(652.328153 0)scale(0.996264)" xlink:href="#CMSS17-97"/>
      <use transform="translate(697.250074 0)scale(0.996264)" xlink:href="#CMSS17-116"/>
      <use transform="translate(731.08164 0)scale(0.996264)" xlink:href="#CMSS17-105"/>
      <use transform="translate(753.262363 0)scale(0.996264)" xlink:href="#CMSS17-111"/>
      <use transform="translate(800.105987 0)scale(0.996264)" xlink:href="#CMSS17-110"/>
      <use transform="translate(879.540043 0)scale(0.996264)" xlink:href="#CMSS17-105"/>
      <use transform="translate(901.720766 0)scale(0.996264)" xlink:href="#CMSS17-110"/>
      <use transform="translate(949.925709 0)scale(0.996264)" xlink:href="#CMSS17-102"/>
      <use transform="translate(978.552368 0)scale(0.996264)" xlink:href="#CMSS17-101"/>
      <use transform="translate(1020.19119 0)scale(0.996264)" xlink:href="#CMSS17-99"/>
      <use transform="translate(1061.830012 0)scale(0.996264)" xlink:href="#CMSS17-116"/>
      <use transform="translate(1095.661579 0)scale(0.996264)" xlink:href="#CMSS17-101"/>
      <use transform="translate(1137.300401 0)scale(0.996264)" xlink:href="#CMSS17-100"/>
      <use transform="translate(1216.734456 0)scale(0.996264)" xlink:href="#CMSS17-40"/>
      <use transform="translate(1253.168371 0)scale(0.996264)" xlink:href="#CMMI12-73"/>
      <use transform="translate(1304.024885 0)scale(0.996264)" xlink:href="#CMR17-40"/>
      <use transform="translate(1339.305653 0)scale(0.996264)" xlink:href="#CMMI12-116"/>
      <use transform="translate(1374.531983 0)scale(0.996264)" xlink:href="#CMR17-41"/>
      <use transform="translate(1409.812751 0)scale(0.996264)" xlink:href="#CMSS17-41"/>
     </g>
    </g>
   </g>
   <g id="line2d_23">
    <path clip-path="url(#pd3347ff9fd)" d="M 74.088524 283.023179 
L 105.970074 282.908459 
L 113.220912 282.668968 
L 117.759605 282.307592 
L 121.0806 281.827307 
L 123.682046 281.236385 
L 125.896042 280.510163 
L 127.777939 279.667255 
L 129.493787 278.657577 
L 131.043584 277.490888 
L 132.482682 276.13539 
L 133.86643 274.527218 
L 135.194828 272.641489 
L 136.523226 270.352259 
L 137.796274 267.70677 
L 139.069322 264.538344 
L 140.34237 260.756966 
L 141.615418 256.263067 
L 142.888466 250.949316 
L 144.216864 244.409445 
L 145.545261 236.729074 
L 146.929009 227.391646 
L 148.368107 216.125179 
L 149.917905 202.152987 
L 151.578402 185.112623 
L 153.515649 162.862274 
L 156.449194 126.210994 
L 159.43809 89.658449 
L 161.153937 71.360787 
L 162.482335 59.384556 
L 163.644683 50.786492 
L 164.640981 44.940502 
L 165.52658 40.969619 
L 166.301479 38.448005 
L 166.965678 36.986587 
L 167.519177 36.251741 
L 167.961976 35.971897 
L 168.404776 35.95822 
L 168.847575 36.202678 
L 169.345724 36.775205 
L 169.899223 37.764767 
L 170.563422 39.415968 
L 171.393671 42.13856 
L 172.334619 46.021322 
L 173.496968 51.83046 
L 174.880715 59.942449 
L 176.651913 71.738287 
L 179.198009 90.372209 
L 186.504197 144.644048 
L 189.216343 162.695795 
L 191.651739 177.453244 
L 193.976435 190.201101 
L 196.190432 201.140557 
L 198.349078 210.724737 
L 200.507725 219.304755 
L 202.611022 226.768917 
L 204.714318 233.421307 
L 206.817615 239.334121 
L 208.865562 244.447626 
L 210.968859 249.10365 
L 213.072155 253.218126 
L 215.175452 256.848984 
L 217.278749 260.049261 
L 219.437395 262.936547 
L 221.651392 265.528637 
L 223.920738 267.844497 
L 226.245435 269.90379 
L 228.680831 271.765717 
L 231.226927 273.4332 
L 233.939072 274.940931 
L 236.817268 276.284375 
L 239.916863 277.483948 
L 243.293208 278.550095 
L 247.057002 279.49945 
L 251.263595 280.324814 
L 256.079038 281.035658 
L 261.669379 281.629912 
L 268.422068 282.116327 
L 276.945955 282.496055 
L 288.403387 282.769228 
L 305.783259 282.939658 
L 340.543005 283.01476 
L 350.782739 283.019185 
L 350.782739 283.019185 
" style="fill:none;stroke:#000000;stroke-dasharray:18.5,8;stroke-dashoffset:0;stroke-width:5;"/>
   </g>
   <g id="line2d_24">
    <path clip-path="url(#pd3347ff9fd)" d="M 74.088524 283.023179 
L 105.970074 282.908459 
L 113.220912 282.668968 
L 117.759605 282.307592 
L 121.0806 281.827307 
L 123.682046 281.236385 
L 125.896042 280.510163 
L 127.777939 279.667255 
L 129.493787 278.657577 
L 131.043584 277.490888 
L 132.482682 276.13539 
L 133.86643 274.527218 
L 135.194828 272.641489 
L 136.523226 270.352259 
L 137.796274 267.70677 
L 139.069322 264.538344 
L 140.34237 260.756966 
L 141.615418 256.263067 
L 142.888466 250.949316 
L 144.216864 244.409445 
L 145.545261 236.729074 
L 146.929009 227.391646 
L 148.368107 216.125179 
L 148.534157 215.659155 
L 167.740577 215.659155 
L 169.677824 202.275062 
L 172.00252 184.555819 
L 179.474758 126.169696 
L 181.079906 116.119091 
L 182.408303 109.112845 
L 183.570652 104.082695 
L 184.6223 100.47403 
L 185.507899 98.14922 
L 186.338147 96.565984 
L 187.057696 95.656453 
L 187.666545 95.216381 
L 188.220044 95.072434 
L 188.773543 95.165897 
L 189.327043 95.489449 
L 189.935892 96.101286 
L 190.655441 97.154081 
L 191.485689 98.786045 
L 192.481988 101.2872 
L 193.644336 104.873903 
L 194.972734 109.730171 
L 196.577881 116.470975 
L 198.625828 126.086111 
L 201.670073 141.576038 
L 208.256713 175.307508 
L 211.245608 189.304025 
L 213.902404 200.702423 
L 216.39315 210.428932 
L 218.773196 218.849158 
L 221.097893 226.271641 
L 223.367239 232.790184 
L 225.636586 238.635787 
L 227.850582 243.738076 
L 230.064579 248.295567 
L 232.278575 252.356147 
L 234.492572 255.966216 
L 236.761918 259.24511 
L 239.031264 262.141405 
L 241.355961 264.754495 
L 243.736007 267.100523 
L 246.226753 269.241097 
L 248.772849 271.137889 
L 251.429645 272.843957 
L 254.252491 274.392824 
L 257.241386 275.779639 
L 260.451681 277.0243 
L 263.938725 278.137014 
L 267.813219 279.134483 
L 272.130512 280.009163 
L 277.001305 280.76302 
L 282.646996 281.404807 
L 289.344335 281.934713 
L 297.591472 282.355656 
L 308.384705 282.671456 
L 323.827331 282.882873 
L 350.505989 282.99499 
L 350.782739 282.995462 
L 350.782739 282.995462 
" style="fill:none;stroke:#fcbba1;stroke-linecap:round;stroke-opacity:0.9;stroke-width:5;"/>
   </g>
   <g id="line2d_25">
    <path clip-path="url(#pd3347ff9fd)" d="M 74.088524 283.023179 
L 105.970074 282.908459 
L 113.220912 282.668968 
L 117.759605 282.307592 
L 121.0806 281.827307 
L 123.682046 281.236385 
L 125.896042 280.510163 
L 127.777939 279.667255 
L 129.493787 278.657577 
L 131.043584 277.490888 
L 132.482682 276.13539 
L 133.86643 274.527218 
L 135.194828 272.641489 
L 136.523226 270.352259 
L 137.796274 267.70677 
L 139.069322 264.538344 
L 140.34237 260.756966 
L 141.615418 256.263067 
L 142.888466 250.949316 
L 144.216864 244.409445 
L 145.545261 236.729074 
L 146.929009 227.391646 
L 148.368107 216.125179 
L 149.917905 202.152987 
L 151.578402 185.112623 
L 153.515649 162.862274 
L 154.954747 146.51762 
L 174.161166 146.51762 
L 175.710964 139.816859 
L 177.039362 135.019668 
L 178.20171 131.605266 
L 179.253358 129.175821 
L 180.194307 127.543907 
L 181.024556 126.529644 
L 181.744105 125.970164 
L 182.408303 125.712464 
L 183.072502 125.697399 
L 183.736701 125.918008 
L 184.45625 126.413494 
L 185.231149 127.232296 
L 186.116748 128.509979 
L 187.113046 130.352164 
L 188.275394 132.992588 
L 189.603792 136.57916 
L 191.20894 141.590389 
L 193.146187 148.403998 
L 195.747633 158.429544 
L 206.817615 202.081663 
L 209.640461 211.822127 
L 212.297256 220.204736 
L 214.843352 227.504674 
L 217.278749 233.825492 
L 219.658795 239.402136 
L 222.038841 244.41827 
L 224.363538 248.813173 
L 226.688234 252.747645 
L 229.06828 256.338976 
L 231.448326 259.528615 
L 233.828373 262.355507 
L 236.263769 264.910938 
L 238.754515 267.209442 
L 241.355961 269.308565 
L 244.068107 271.208381 
L 246.890952 272.912697 
L 249.879847 274.454812 
L 253.034792 275.831902 
L 256.466487 277.082719 
L 260.174931 278.193368 
L 264.270825 279.182207 
L 268.809518 280.04471 
L 273.95706 280.792047 
L 279.93485 281.428729 
L 287.019639 281.953013 
L 295.820275 282.371424 
L 307.333057 282.682823 
L 323.882681 282.889752 
L 350.782739 282.994535 
L 350.782739 282.994535 
" style="fill:none;stroke:#fb694a;stroke-linecap:round;stroke-opacity:0.9;stroke-width:7;"/>
   </g>
   <g id="line2d_26">
    <path clip-path="url(#pd3347ff9fd)" d="M 74.088524 283.023179 
L 105.970074 282.908459 
L 113.220912 282.668968 
L 117.759605 282.307592 
L 121.0806 281.827307 
L 123.682046 281.236385 
L 125.896042 280.510163 
L 127.777939 279.667255 
L 129.493787 278.657577 
L 131.043584 277.490888 
L 132.482682 276.13539 
L 133.86643 274.527218 
L 135.194828 272.641489 
L 136.523226 270.352259 
L 137.796274 267.70677 
L 139.069322 264.538344 
L 140.34237 260.756966 
L 141.615418 256.263067 
L 142.888466 250.949316 
L 144.216864 244.409445 
L 145.545261 236.729074 
L 146.929009 227.391646 
L 148.368107 216.125179 
L 149.917905 202.152987 
L 151.578402 185.112623 
L 153.515649 162.862274 
L 156.449194 126.210994 
L 159.43809 89.658449 
L 161.153937 71.360787 
L 161.375337 69.748567 
L 180.637106 69.748567 
L 185.065099 111.008791 
L 187.777245 134.173701 
L 190.212641 153.095255 
L 192.481988 169.021594 
L 194.640634 182.652868 
L 196.743931 194.567355 
L 198.847228 205.213467 
L 200.895174 214.450487 
L 202.943121 222.666811 
L 204.935718 229.76964 
L 206.928315 236.07706 
L 208.920912 241.667968 
L 210.913509 246.616153 
L 212.906106 250.989796 
L 214.954052 254.951836 
L 217.001999 258.434391 
L 219.105296 261.570133 
L 221.208592 264.312281 
L 223.367239 266.767454 
L 225.581236 268.955154 
L 227.905932 270.939186 
L 230.341328 272.720743 
L 232.887424 274.305028 
L 235.59957 275.727125 
L 238.477765 276.98466 
L 241.63271 278.116492 
L 245.064405 279.108858 
L 248.883549 279.979754 
L 253.256192 280.742086 
L 258.293034 281.387078 
L 264.270825 281.920608 
L 271.632363 282.345259 
L 281.207898 282.663308 
L 294.879327 282.877767 
L 318.34769 282.992962 
L 350.782739 283.020359 
L 350.782739 283.020359 
" style="fill:none;stroke:#ca181d;stroke-linecap:round;stroke-opacity:0.9;stroke-width:5;"/>
   </g>
   <g id="patch_3">
    <path d="M 60.253813 295.377725 
L 60.253813 23.577725 
" style="fill:none;stroke:#cccccc;stroke-linecap:square;stroke-linejoin:miter;"/>
   </g>
   <g id="patch_4">
    <path d="M 364.617449 295.377725 
L 364.617449 23.577725 
" style="fill:none;stroke:#cccccc;stroke-linecap:square;stroke-linejoin:miter;"/>
   </g>
   <g id="patch_5">
    <path d="M 60.253813 295.377725 
L 364.617449 295.377725 
" style="fill:none;stroke:#cccccc;stroke-linecap:square;stroke-linejoin:miter;"/>
   </g>
   <g id="patch_6">
    <path d="M 60.253813 23.577725 
L 364.617449 23.577725 
" style="fill:none;stroke:#cccccc;stroke-linecap:square;stroke-linejoin:miter;"/>
   </g>
   <g id="text_14">
    <!-- Only intensive intervention -->
    <defs>
     <path d="M 64 34.03125 
C 64 54.734375 50.296875 70.265625 34.59375 70.265625 
C 18.90625 70.265625 5.203125 54.640625 5.203125 34.03125 
C 5.203125 13.234375 19.09375 -2 34.59375 -2 
C 50.09375 -2 64 13.234375 64 34.03125 
z
M 34.59375 4.265625 
C 23.59375 4.265625 13.59375 16.515625 13.59375 35.328125 
C 13.59375 53.640625 24.203125 64 34.59375 64 
C 45 64 55.59375 53.640625 55.59375 35.328125 
C 55.59375 16.421875 45.5 4.265625 34.59375 4.265625 
z
" id="CMSS17-79"/>
     <path d="M 41.796875 43 
L 34 43 
L 27.296875 24.3125 
C 25.203125 18.203125 22.203125 9.796875 21.703125 5.5 
L 21.59375 5.5 
C 21.40625 7.3125 20.59375 9.90625 20.09375 11.703125 
C 19.5 13.90625 18.703125 16.5 18.09375 18.3125 
L 9.296875 43 
L 1.296875 43 
L 17.09375 0 
L 26 0 
z
" id="CMSS17-118"/>
    </defs>
    <g style="fill:#262626;" transform="translate(131.115741 17.577725)scale(0.15 -0.15)">
     <use transform="scale(0.996264)" xlink:href="#CMSS17-79"/>
     <use transform="translate(69.024255 0)scale(0.996264)" xlink:href="#CMSS17-110"/>
     <use transform="translate(117.229198 0)scale(0.996264)" xlink:href="#CMSS17-108"/>
     <use transform="translate(139.409922 0)scale(0.996264)" xlink:href="#CMSS17-121"/>
     <use transform="translate(213.639176 0)scale(0.996264)" xlink:href="#CMSS17-105"/>
     <use transform="translate(235.819899 0)scale(0.996264)" xlink:href="#CMSS17-110"/>
     <use transform="translate(284.024842 0)scale(0.996264)" xlink:href="#CMSS17-116"/>
     <use transform="translate(317.856409 0)scale(0.996264)" xlink:href="#CMSS17-101"/>
     <use transform="translate(359.495231 0)scale(0.996264)" xlink:href="#CMSS17-110"/>
     <use transform="translate(407.700174 0)scale(0.996264)" xlink:href="#CMSS17-115"/>
     <use transform="translate(443.613716 0)scale(0.996264)" xlink:href="#CMSS17-105"/>
     <use transform="translate(465.794439 0)scale(0.996264)" xlink:href="#CMSS17-118"/>
     <use transform="translate(508.794581 0)scale(0.996264)" xlink:href="#CMSS17-101"/>
     <use transform="translate(581.662516 0)scale(0.996264)" xlink:href="#CMSS17-105"/>
     <use transform="translate(603.843239 0)scale(0.996264)" xlink:href="#CMSS17-110"/>
     <use transform="translate(652.048182 0)scale(0.996264)" xlink:href="#CMSS17-116"/>
     <use transform="translate(685.879748 0)scale(0.996264)" xlink:href="#CMSS17-101"/>
     <use transform="translate(727.51857 0)scale(0.996264)" xlink:href="#CMSS17-114"/>
     <use transform="translate(759.428343 0)scale(0.996264)" xlink:href="#CMSS17-118"/>
     <use transform="translate(802.428485 0)scale(0.996264)" xlink:href="#CMSS17-101"/>
     <use transform="translate(844.067307 0)scale(0.996264)" xlink:href="#CMSS17-110"/>
     <use transform="translate(892.27225 0)scale(0.996264)" xlink:href="#CMSS17-116"/>
     <use transform="translate(926.103817 0)scale(0.996264)" xlink:href="#CMSS17-105"/>
     <use transform="translate(948.28454 0)scale(0.996264)" xlink:href="#CMSS17-111"/>
     <use transform="translate(995.128163 0)scale(0.996264)" xlink:href="#CMSS17-110"/>
    </g>
   </g>
   <g id="legend_1">
    <g id="patch_7">
     <path d="M 220.46362 135.327985 
L 354.537449 135.327985 
Q 357.417449 135.327985 357.417449 132.447985 
L 357.417449 33.657725 
Q 357.417449 30.777725 354.537449 30.777725 
L 220.46362 30.777725 
Q 217.58362 30.777725 217.58362 33.657725 
L 217.58362 132.447985 
Q 217.58362 135.327985 220.46362 135.327985 
z
" style="fill:#ffffff;stroke:#cccccc;stroke-linejoin:miter;"/>
    </g>
    <g id="text_15">
     <!-- $t_i$ -->
     <defs>
      <path d="M 28.296875 14.265625 
C 28.296875 14.765625 27.90625 15.171875 27.296875 15.171875 
C 26.40625 15.171875 26.296875 14.875 25.796875 13.171875 
C 23.203125 4.09375 19.09375 1 15.796875 1 
C 14.59375 1 13.203125 1.296875 13.203125 4.296875 
C 13.203125 6.984375 14.40625 9.984375 15.5 12.96875 
L 22.5 31.53125 
C 22.796875 32.328125 23.5 34.125 23.5 36.015625 
C 23.5 40.21875 20.5 44 15.59375 44 
C 6.40625 44 2.703125 29.53125 2.703125 28.734375 
C 2.703125 28.34375 3.09375 27.84375 3.796875 27.84375 
C 4.703125 27.84375 4.796875 28.234375 5.203125 29.625 
C 7.59375 37.9375 11.40625 41.90625 15.296875 41.90625 
C 16.203125 41.90625 17.90625 41.90625 17.90625 38.71875 
C 17.90625 36.125 16.59375 32.828125 15.796875 30.640625 
L 8.796875 12.078125 
C 8.203125 10.484375 7.59375 8.875 7.59375 7.078125 
C 7.59375 2.59375 10.703125 -1 15.5 -1 
C 24.703125 -1 28.296875 13.578125 28.296875 14.265625 
z
M 27.5 62.703125 
C 27.5 64.203125 26.296875 66 24.09375 66 
C 21.796875 66 19.203125 63.796875 19.203125 61.203125 
C 19.203125 58.71875 21.296875 57.921875 22.5 57.921875 
C 25.203125 57.921875 27.5 60.515625 27.5 62.703125 
z
" id="CMMI12-105"/>
     </defs>
     <g style="fill:#262626;" transform="translate(283.248117 46.50035)scale(0.144 -0.144)">
      <use transform="translate(0 14.943915)scale(0.996264)" xlink:href="#CMMI12-116"/>
      <use transform="translate(35.22633 0)scale(0.697382)" xlink:href="#CMMI12-105"/>
     </g>
    </g>
    <g id="line2d_27">
     <path d="M 223.34362 61.529877 
L 252.14362 61.529877 
" style="fill:none;stroke:#000000;stroke-dasharray:18.5,8;stroke-dashoffset:0;stroke-width:5;"/>
    </g>
    <g id="line2d_28"/>
    <g id="text_16">
     <!-- no intervention -->
     <g style="fill:#262626;" transform="translate(263.66362 66.569877)scale(0.144 -0.144)">
      <use transform="scale(0.996264)" xlink:href="#CMSS17-110"/>
      <use transform="translate(48.204943 0)scale(0.996264)" xlink:href="#CMSS17-111"/>
      <use transform="translate(126.277679 0)scale(0.996264)" xlink:href="#CMSS17-105"/>
      <use transform="translate(148.458402 0)scale(0.996264)" xlink:href="#CMSS17-110"/>
      <use transform="translate(196.663346 0)scale(0.996264)" xlink:href="#CMSS17-116"/>
      <use transform="translate(230.494912 0)scale(0.996264)" xlink:href="#CMSS17-101"/>
      <use transform="translate(272.133734 0)scale(0.996264)" xlink:href="#CMSS17-114"/>
      <use transform="translate(304.043507 0)scale(0.996264)" xlink:href="#CMSS17-118"/>
      <use transform="translate(347.043649 0)scale(0.996264)" xlink:href="#CMSS17-101"/>
      <use transform="translate(388.682471 0)scale(0.996264)" xlink:href="#CMSS17-110"/>
      <use transform="translate(436.887414 0)scale(0.996264)" xlink:href="#CMSS17-116"/>
      <use transform="translate(470.71898 0)scale(0.996264)" xlink:href="#CMSS17-105"/>
      <use transform="translate(492.899704 0)scale(0.996264)" xlink:href="#CMSS17-111"/>
      <use transform="translate(539.743327 0)scale(0.996264)" xlink:href="#CMSS17-110"/>
     </g>
    </g>
    <g id="line2d_29">
     <path d="M 223.34362 81.599404 
L 252.14362 81.599404 
" style="fill:none;stroke:#fcbba1;stroke-linecap:round;stroke-opacity:0.9;stroke-width:5;"/>
    </g>
    <g id="line2d_30"/>
    <g id="text_17">
     <!-- early -->
     <g style="fill:#262626;" transform="translate(263.66362 86.639404)scale(0.144 -0.144)">
      <use transform="scale(0.996264)" xlink:href="#CMSS17-101"/>
      <use transform="translate(41.638822 0)scale(0.996264)" xlink:href="#CMSS17-97"/>
      <use transform="translate(83.958289 0)scale(0.996264)" xlink:href="#CMSS17-114"/>
      <use transform="translate(115.868061 0)scale(0.996264)" xlink:href="#CMSS17-108"/>
      <use transform="translate(138.048784 0)scale(0.996264)" xlink:href="#CMSS17-121"/>
     </g>
    </g>
    <g id="line2d_31">
     <path d="M 223.34362 101.668931 
L 252.14362 101.668931 
" style="fill:none;stroke:#fb694a;stroke-linecap:round;stroke-opacity:0.9;stroke-width:7;"/>
    </g>
    <g id="line2d_32"/>
    <g id="text_18">
     <!-- optimal -->
     <g style="fill:#262626;" transform="translate(263.66362 106.708931)scale(0.144 -0.144)">
      <use transform="scale(0.996264)" xlink:href="#CMSS17-111"/>
      <use transform="translate(46.843624 0)scale(0.996264)" xlink:href="#CMSS17-112"/>
      <use transform="translate(95.048567 0)scale(0.996264)" xlink:href="#CMSS17-116"/>
      <use transform="translate(128.880133 0)scale(0.996264)" xlink:href="#CMSS17-105"/>
      <use transform="translate(151.060856 0)scale(0.996264)" xlink:href="#CMSS17-109"/>
      <use transform="translate(225.290111 0)scale(0.996264)" xlink:href="#CMSS17-97"/>
      <use transform="translate(270.212031 0)scale(0.996264)" xlink:href="#CMSS17-108"/>
     </g>
    </g>
    <g id="line2d_33">
     <path d="M 223.34362 121.738458 
L 252.14362 121.738458 
" style="fill:none;stroke:#ca181d;stroke-linecap:round;stroke-opacity:0.9;stroke-width:5;"/>
    </g>
    <g id="line2d_34"/>
    <g id="text_19">
     <!-- late -->
     <g style="fill:#262626;" transform="translate(263.66362 126.778458)scale(0.144 -0.144)">
      <use transform="scale(0.996264)" xlink:href="#CMSS17-108"/>
      <use transform="translate(22.180723 0)scale(0.996264)" xlink:href="#CMSS17-97"/>
      <use transform="translate(67.102644 0)scale(0.996264)" xlink:href="#CMSS17-116"/>
      <use transform="translate(100.93421 0)scale(0.996264)" xlink:href="#CMSS17-101"/>
     </g>
    </g>
   </g>
  </g>
  <g id="axes_2">
   <g id="patch_8">
    <path d="M 425.490177 295.377725 
L 729.853813 295.377725 
L 729.853813 23.577725 
L 425.490177 23.577725 
z
" style="fill:#ffffff;"/>
   </g>
   <g id="matplotlib.axis_3">
    <g id="xtick_5">
     <g id="line2d_35">
      <path clip-path="url(#p6dfb0ad3b2)" d="M 439.324887 295.377725 
L 439.324887 23.577725 
" style="fill:none;stroke:#cccccc;stroke-linecap:round;stroke-width:0.8;"/>
     </g>
     <g id="line2d_36"/>
     <g id="text_20">
      <!-- $0$ -->
      <g style="fill:#262626;" transform="translate(435.377235 310.832893)scale(0.1728 -0.1728)">
       <use transform="scale(0.996264)" xlink:href="#CMR17-48"/>
      </g>
     </g>
    </g>
    <g id="xtick_6">
     <g id="line2d_37">
      <path clip-path="url(#p6dfb0ad3b2)" d="M 531.556292 295.377725 
L 531.556292 23.577725 
" style="fill:none;stroke:#cccccc;stroke-linecap:round;stroke-width:0.8;"/>
     </g>
     <g id="line2d_38"/>
     <g id="text_21">
      <!-- $100$ -->
      <g style="fill:#262626;" transform="translate(519.713336 310.832893)scale(0.1728 -0.1728)">
       <use transform="scale(0.996264)" xlink:href="#CMR17-49"/>
       <use transform="translate(45.690477 0)scale(0.996264)" xlink:href="#CMR17-48"/>
       <use transform="translate(91.380954 0)scale(0.996264)" xlink:href="#CMR17-48"/>
      </g>
     </g>
    </g>
    <g id="xtick_7">
     <g id="line2d_39">
      <path clip-path="url(#p6dfb0ad3b2)" d="M 623.787697 295.377725 
L 623.787697 23.577725 
" style="fill:none;stroke:#cccccc;stroke-linecap:round;stroke-width:0.8;"/>
     </g>
     <g id="line2d_40"/>
     <g id="text_22">
      <!-- $200$ -->
      <g style="fill:#262626;" transform="translate(611.944741 310.832893)scale(0.1728 -0.1728)">
       <use transform="scale(0.996264)" xlink:href="#CMR17-50"/>
       <use transform="translate(45.690477 0)scale(0.996264)" xlink:href="#CMR17-48"/>
       <use transform="translate(91.380954 0)scale(0.996264)" xlink:href="#CMR17-48"/>
      </g>
     </g>
    </g>
    <g id="xtick_8">
     <g id="line2d_41">
      <path clip-path="url(#p6dfb0ad3b2)" d="M 716.019102 295.377725 
L 716.019102 23.577725 
" style="fill:none;stroke:#cccccc;stroke-linecap:round;stroke-width:0.8;"/>
     </g>
     <g id="line2d_42"/>
     <g id="text_23">
      <!-- $300$ -->
      <g style="fill:#262626;" transform="translate(704.176146 310.832893)scale(0.1728 -0.1728)">
       <use transform="scale(0.996264)" xlink:href="#CMR17-51"/>
       <use transform="translate(45.690477 0)scale(0.996264)" xlink:href="#CMR17-48"/>
       <use transform="translate(91.380954 0)scale(0.996264)" xlink:href="#CMR17-48"/>
      </g>
     </g>
    </g>
    <g id="text_24">
     <!-- time (days) -->
     <g style="fill:#262626;" transform="translate(539.188143 331.077502)scale(0.1728 -0.1728)">
      <use transform="scale(0.996264)" xlink:href="#CMSS17-116"/>
      <use transform="translate(33.831567 0)scale(0.996264)" xlink:href="#CMSS17-105"/>
      <use transform="translate(56.01229 0)scale(0.996264)" xlink:href="#CMSS17-109"/>
      <use transform="translate(130.241544 0)scale(0.996264)" xlink:href="#CMSS17-101"/>
      <use transform="translate(203.109479 0)scale(0.996264)" xlink:href="#CMSS17-40"/>
      <use transform="translate(239.543393 0)scale(0.996264)" xlink:href="#CMSS17-100"/>
      <use transform="translate(287.748336 0)scale(0.996264)" xlink:href="#CMSS17-97"/>
      <use transform="translate(330.067803 0)scale(0.996264)" xlink:href="#CMSS17-121"/>
      <use transform="translate(373.067945 0)scale(0.996264)" xlink:href="#CMSS17-115"/>
      <use transform="translate(408.981487 0)scale(0.996264)" xlink:href="#CMSS17-41"/>
     </g>
    </g>
   </g>
   <g id="matplotlib.axis_4">
    <g id="ytick_8">
     <g id="line2d_43">
      <path clip-path="url(#p6dfb0ad3b2)" d="M 425.490177 283.024002 
L 729.853813 283.024002 
" style="fill:none;stroke:#cccccc;stroke-linecap:round;stroke-width:0.8;"/>
     </g>
     <g id="line2d_44"/>
    </g>
    <g id="ytick_9">
     <g id="line2d_45">
      <path clip-path="url(#p6dfb0ad3b2)" d="M 425.490177 241.905436 
L 729.853813 241.905436 
" style="fill:none;stroke:#cccccc;stroke-linecap:round;stroke-width:0.8;"/>
     </g>
     <g id="line2d_46"/>
    </g>
    <g id="ytick_10">
     <g id="line2d_47">
      <path clip-path="url(#p6dfb0ad3b2)" d="M 425.490177 200.78687 
L 729.853813 200.78687 
" style="fill:none;stroke:#cccccc;stroke-linecap:round;stroke-width:0.8;"/>
     </g>
     <g id="line2d_48"/>
    </g>
    <g id="ytick_11">
     <g id="line2d_49">
      <path clip-path="url(#p6dfb0ad3b2)" d="M 425.490177 159.668304 
L 729.853813 159.668304 
" style="fill:none;stroke:#cccccc;stroke-linecap:round;stroke-width:0.8;"/>
     </g>
     <g id="line2d_50"/>
    </g>
    <g id="ytick_12">
     <g id="line2d_51">
      <path clip-path="url(#p6dfb0ad3b2)" d="M 425.490177 118.549738 
L 729.853813 118.549738 
" style="fill:none;stroke:#cccccc;stroke-linecap:round;stroke-width:0.8;"/>
     </g>
     <g id="line2d_52"/>
    </g>
    <g id="ytick_13">
     <g id="line2d_53">
      <path clip-path="url(#p6dfb0ad3b2)" d="M 425.490177 77.431172 
L 729.853813 77.431172 
" style="fill:none;stroke:#cccccc;stroke-linecap:round;stroke-width:0.8;"/>
     </g>
     <g id="line2d_54"/>
    </g>
    <g id="ytick_14">
     <g id="line2d_55">
      <path clip-path="url(#p6dfb0ad3b2)" d="M 425.490177 36.312607 
L 729.853813 36.312607 
" style="fill:none;stroke:#cccccc;stroke-linecap:round;stroke-width:0.8;"/>
     </g>
     <g id="line2d_56"/>
    </g>
   </g>
   <g id="line2d_57">
    <path clip-path="url(#p6dfb0ad3b2)" d="M 439.324887 283.023179 
L 490.357507 282.908191 
L 501.980989 282.667491 
L 509.176478 282.309528 
L 514.490069 281.831226 
L 518.696663 281.235906 
L 522.183707 280.525 
L 525.227952 279.679833 
L 527.884748 278.7157 
L 530.320144 277.594844 
L 532.534141 276.331515 
L 534.582088 274.911259 
L 536.519335 273.302417 
L 538.401232 271.449213 
L 540.227779 269.332601 
L 541.998976 266.936308 
L 543.770173 264.154592 
L 545.486021 261.045856 
L 547.257218 257.36012 
L 549.028415 253.14024 
L 550.799612 248.338785 
L 552.626159 242.734893 
L 554.508056 236.234338 
L 556.500653 228.531086 
L 558.6593 219.254702 
L 561.039346 208.005552 
L 563.972891 192.998159 
L 571.50048 153.896619 
L 573.548426 144.744104 
L 575.264274 138.060355 
L 576.758721 133.109652 
L 578.087119 129.462405 
L 579.249467 126.887839 
L 580.301116 125.070051 
L 581.242064 123.860572 
L 582.072313 123.120205 
L 582.847212 122.703035 
L 583.566761 122.54872 
L 584.28631 122.614165 
L 585.061208 122.923899 
L 585.891457 123.521809 
L 586.777056 124.450002 
L 587.773354 125.833231 
L 588.880352 127.762346 
L 590.1534 130.446091 
L 591.592498 134.010758 
L 593.308345 138.885501 
L 595.356292 145.409441 
L 598.013088 154.672501 
L 602.496431 171.263644 
L 607.810023 190.68763 
L 611.186367 202.192244 
L 614.175263 211.609663 
L 616.942758 219.619344 
L 619.599554 226.647695 
L 622.201 232.908491 
L 624.747096 238.461078 
L 627.237842 243.3701 
L 629.728588 247.794043 
L 632.219334 251.767472 
L 634.71008 255.326001 
L 637.200826 258.505069 
L 639.746922 261.398394 
L 642.348368 264.018611 
L 645.005164 266.380148 
L 647.77266 268.539105 
L 650.595505 270.461253 
L 653.584401 272.225912 
L 656.739346 273.82586 
L 660.06034 275.258915 
L 663.602735 276.545715 
L 667.477229 277.713042 
L 671.683822 278.74568 
L 676.388565 279.666312 
L 681.646806 280.464128 
L 687.679947 281.149751 
L 694.764736 281.724934 
L 703.343972 282.190989 
L 714.247905 282.55066 
L 716.019102 282.592198 
L 716.019102 282.592198 
" style="fill:none;stroke:#0571a3;stroke-dasharray:18.5,8;stroke-dashoffset:0;stroke-width:5;"/>
   </g>
   <g id="line2d_58">
    <path clip-path="url(#p6dfb0ad3b2)" d="M 439.324887 283.023179 
L 490.357507 282.908191 
L 501.980989 282.667491 
L 509.176478 282.309528 
L 514.490069 281.831226 
L 518.696663 281.235906 
L 522.183707 280.525 
L 525.227952 279.679833 
L 527.884748 278.7157 
L 530.320144 277.594844 
L 532.534141 276.331515 
L 534.582088 274.911259 
L 536.519335 273.302417 
L 538.401232 271.449213 
L 540.227779 269.332601 
L 541.998976 266.936308 
L 543.770173 264.154592 
L 545.486021 261.045856 
L 547.257218 257.36012 
L 549.028415 253.14024 
L 550.799612 248.338785 
L 552.626159 242.734893 
L 554.508056 236.234338 
L 556.500653 228.531086 
L 558.38255 221.233565 
L 577.53362 221.233565 
L 581.629514 207.672337 
L 586.832406 190.567359 
L 589.378502 182.970048 
L 591.426448 177.523086 
L 593.197645 173.413241 
L 594.747443 170.34111 
L 596.186541 167.965273 
L 597.459589 166.266798 
L 598.621937 165.056504 
L 599.728935 164.209995 
L 600.780584 163.68275 
L 601.776882 163.430013 
L 602.77318 163.413327 
L 603.769479 163.626946 
L 604.821127 164.09415 
L 605.928125 164.84293 
L 607.145824 165.9547 
L 608.474221 167.488298 
L 609.968669 169.578585 
L 611.629167 172.303354 
L 613.566413 175.938227 
L 615.83576 180.696609 
L 618.713955 187.286551 
L 623.197298 198.192791 
L 629.894638 214.417264 
L 633.603082 222.803482 
L 636.868727 229.659192 
L 639.912972 235.551418 
L 642.846517 240.756894 
L 645.724713 245.41463 
L 648.547558 249.562354 
L 651.315054 253.24283 
L 654.08255 256.563382 
L 656.905395 259.60496 
L 659.728241 262.324759 
L 662.606436 264.794923 
L 665.595332 267.066478 
L 668.639577 269.103529 
L 671.849872 270.982226 
L 675.170867 272.66854 
L 678.713261 274.215312 
L 682.477055 275.612445 
L 686.517599 276.871455 
L 690.890242 277.997918 
L 695.705684 279.004304 
L 701.074626 279.892942 
L 707.107766 280.661011 
L 714.081855 281.318437 
L 716.019102 281.466275 
L 716.019102 281.466275 
" style="fill:none;stroke:#fcbba1;stroke-linecap:round;stroke-opacity:0.9;stroke-width:5;"/>
   </g>
   <g id="line2d_59">
    <path clip-path="url(#p6dfb0ad3b2)" d="M 439.324887 283.023179 
L 490.357507 282.908191 
L 501.980989 282.667491 
L 509.176478 282.309528 
L 514.490069 281.831226 
L 518.696663 281.235906 
L 522.183707 280.525 
L 525.227952 279.679833 
L 527.884748 278.7157 
L 530.320144 277.594844 
L 532.534141 276.331515 
L 534.582088 274.911259 
L 536.519335 273.302417 
L 538.401232 271.449213 
L 540.227779 269.332601 
L 541.998976 266.936308 
L 543.770173 264.154592 
L 545.486021 261.045856 
L 547.257218 257.36012 
L 549.028415 253.14024 
L 550.799612 248.338785 
L 552.626159 242.734893 
L 554.508056 236.234338 
L 556.500653 228.531086 
L 558.6593 219.254702 
L 561.039346 208.005552 
L 563.972891 192.998159 
L 564.74779 189.484521 
L 583.95421 189.484521 
L 586.057507 184.432094 
L 587.884054 180.595637 
L 589.489201 177.709706 
L 590.983649 175.468319 
L 592.312047 173.856657 
L 593.529745 172.704025 
L 594.692093 171.897766 
L 595.799091 171.397407 
L 596.85074 171.161879 
L 597.902388 171.156155 
L 598.954036 171.374634 
L 600.061035 171.83886 
L 601.223383 172.573921 
L 602.496431 173.654226 
L 603.880179 175.132295 
L 605.429976 177.130159 
L 607.145824 179.716223 
L 609.13842 183.139453 
L 611.518467 187.701012 
L 614.507362 193.947179 
L 619.267454 204.493918 
L 625.798744 218.873425 
L 629.617888 226.735039 
L 632.994233 233.187302 
L 636.149178 238.743496 
L 639.138073 243.56932 
L 642.071619 247.892201 
L 644.949814 251.746081 
L 647.82801 255.233351 
L 650.706205 258.375272 
L 653.63975 261.246812 
L 656.573296 263.810569 
L 659.617541 266.174001 
L 662.717136 268.299046 
L 665.927431 270.231559 
L 669.303776 272.002145 
L 672.84617 273.605934 
L 676.609964 275.062252 
L 680.595158 276.365229 
L 684.912451 277.54179 
L 689.617194 278.592057 
L 694.820086 279.523612 
L 700.687176 280.343459 
L 707.384516 281.048853 
L 715.188854 281.641292 
L 716.019102 281.692813 
L 716.019102 281.692813 
" style="fill:none;stroke:#fb694a;stroke-linecap:round;stroke-opacity:0.9;stroke-width:7;"/>
   </g>
   <g id="line2d_60">
    <path clip-path="url(#p6dfb0ad3b2)" d="M 439.324887 283.023179 
L 490.357507 282.908191 
L 501.980989 282.667491 
L 509.176478 282.309528 
L 514.490069 281.831226 
L 518.696663 281.235906 
L 522.183707 280.525 
L 525.227952 279.679833 
L 527.884748 278.7157 
L 530.320144 277.594844 
L 532.534141 276.331515 
L 534.582088 274.911259 
L 536.519335 273.302417 
L 538.401232 271.449213 
L 540.227779 269.332601 
L 541.998976 266.936308 
L 543.770173 264.154592 
L 545.486021 261.045856 
L 547.257218 257.36012 
L 549.028415 253.14024 
L 550.799612 248.338785 
L 552.626159 242.734893 
L 554.508056 236.234338 
L 556.500653 228.531086 
L 558.6593 219.254702 
L 561.039346 208.005552 
L 563.972891 192.998159 
L 571.11303 155.747108 
L 590.706899 155.84047 
L 591.703198 156.336202 
L 592.754846 157.121511 
L 593.917194 158.285793 
L 595.190242 159.893637 
L 596.62934 162.093329 
L 598.234488 164.97136 
L 600.116385 168.831281 
L 602.330381 173.909469 
L 605.153227 180.983986 
L 609.58122 192.77522 
L 616.00181 209.786474 
L 619.654904 218.819085 
L 622.865199 226.18065 
L 625.854094 232.493775 
L 628.73229 238.06242 
L 631.499785 242.946282 
L 634.267281 247.382075 
L 636.979427 251.3144 
L 639.691572 254.860341 
L 642.403718 258.0465 
L 645.171214 260.955621 
L 647.994059 263.597458 
L 650.872255 265.984224 
L 653.8058 268.129943 
L 656.850045 270.083094 
L 660.06034 271.875549 
L 663.436685 273.501234 
L 666.979079 274.958782 
L 670.798223 276.28624 
L 674.894117 277.471971 
L 679.37746 278.535091 
L 684.303602 279.472378 
L 689.838594 280.295901 
L 696.148484 281.005742 
L 703.510022 281.604928 
L 712.366008 282.095668 
L 716.019102 282.244859 
L 716.019102 282.244859 
" style="fill:none;stroke:#ca181d;stroke-linecap:round;stroke-opacity:0.9;stroke-width:5;"/>
   </g>
   <g id="patch_9">
    <path d="M 425.490177 295.377725 
L 425.490177 23.577725 
" style="fill:none;stroke:#cccccc;stroke-linecap:square;stroke-linejoin:miter;"/>
   </g>
   <g id="patch_10">
    <path d="M 729.853813 295.377725 
L 729.853813 23.577725 
" style="fill:none;stroke:#cccccc;stroke-linecap:square;stroke-linejoin:miter;"/>
   </g>
   <g id="patch_11">
    <path d="M 425.490177 295.377725 
L 729.853813 295.377725 
" style="fill:none;stroke:#cccccc;stroke-linecap:square;stroke-linejoin:miter;"/>
   </g>
   <g id="patch_12">
    <path d="M 425.490177 23.577725 
L 729.853813 23.577725 
" style="fill:none;stroke:#cccccc;stroke-linecap:square;stroke-linejoin:miter;"/>
   </g>
   <g id="text_25">
    <!-- Intensive intervention and continuous control -->
    <defs>
     <path d="M 17.09375 69 
L 8.703125 69 
L 8.703125 0 
L 17.09375 0 
z
" id="CMSS17-73"/>
    </defs>
    <g style="fill:#262626;" transform="translate(440.496249 17.577725)scale(0.15 -0.15)">
     <use transform="scale(0.996264)" xlink:href="#CMSS17-73"/>
     <use transform="translate(25.783926 0)scale(0.996264)" xlink:href="#CMSS17-110"/>
     <use transform="translate(73.988869 0)scale(0.996264)" xlink:href="#CMSS17-116"/>
     <use transform="translate(107.820435 0)scale(0.996264)" xlink:href="#CMSS17-101"/>
     <use transform="translate(149.459257 0)scale(0.996264)" xlink:href="#CMSS17-110"/>
     <use transform="translate(197.664201 0)scale(0.996264)" xlink:href="#CMSS17-115"/>
     <use transform="translate(233.577743 0)scale(0.996264)" xlink:href="#CMSS17-105"/>
     <use transform="translate(255.758466 0)scale(0.996264)" xlink:href="#CMSS17-118"/>
     <use transform="translate(298.758607 0)scale(0.996264)" xlink:href="#CMSS17-101"/>
     <use transform="translate(371.626542 0)scale(0.996264)" xlink:href="#CMSS17-105"/>
     <use transform="translate(393.807265 0)scale(0.996264)" xlink:href="#CMSS17-110"/>
     <use transform="translate(442.012208 0)scale(0.996264)" xlink:href="#CMSS17-116"/>
     <use transform="translate(475.843775 0)scale(0.996264)" xlink:href="#CMSS17-101"/>
     <use transform="translate(517.482597 0)scale(0.996264)" xlink:href="#CMSS17-114"/>
     <use transform="translate(549.39237 0)scale(0.996264)" xlink:href="#CMSS17-118"/>
     <use transform="translate(592.392511 0)scale(0.996264)" xlink:href="#CMSS17-101"/>
     <use transform="translate(634.031333 0)scale(0.996264)" xlink:href="#CMSS17-110"/>
     <use transform="translate(682.236276 0)scale(0.996264)" xlink:href="#CMSS17-116"/>
     <use transform="translate(716.067843 0)scale(0.996264)" xlink:href="#CMSS17-105"/>
     <use transform="translate(738.248566 0)scale(0.996264)" xlink:href="#CMSS17-111"/>
     <use transform="translate(785.09219 0)scale(0.996264)" xlink:href="#CMSS17-110"/>
     <use transform="translate(864.526246 0)scale(0.996264)" xlink:href="#CMSS17-97"/>
     <use transform="translate(909.448166 0)scale(0.996264)" xlink:href="#CMSS17-110"/>
     <use transform="translate(957.653109 0)scale(0.996264)" xlink:href="#CMSS17-100"/>
     <use transform="translate(1037.087165 0)scale(0.996264)" xlink:href="#CMSS17-99"/>
     <use transform="translate(1078.725987 0)scale(0.996264)" xlink:href="#CMSS17-111"/>
     <use transform="translate(1125.569611 0)scale(0.996264)" xlink:href="#CMSS17-110"/>
     <use transform="translate(1173.774554 0)scale(0.996264)" xlink:href="#CMSS17-116"/>
     <use transform="translate(1207.606121 0)scale(0.996264)" xlink:href="#CMSS17-105"/>
     <use transform="translate(1229.786844 0)scale(0.996264)" xlink:href="#CMSS17-110"/>
     <use transform="translate(1277.991787 0)scale(0.996264)" xlink:href="#CMSS17-117"/>
     <use transform="translate(1326.19673 0)scale(0.996264)" xlink:href="#CMSS17-111"/>
     <use transform="translate(1373.040353 0)scale(0.996264)" xlink:href="#CMSS17-117"/>
     <use transform="translate(1421.245297 0)scale(0.996264)" xlink:href="#CMSS17-115"/>
     <use transform="translate(1488.387951 0)scale(0.996264)" xlink:href="#CMSS17-99"/>
     <use transform="translate(1530.026773 0)scale(0.996264)" xlink:href="#CMSS17-111"/>
     <use transform="translate(1576.870397 0)scale(0.996264)" xlink:href="#CMSS17-110"/>
     <use transform="translate(1625.07534 0)scale(0.996264)" xlink:href="#CMSS17-116"/>
     <use transform="translate(1658.906907 0)scale(0.996264)" xlink:href="#CMSS17-114"/>
     <use transform="translate(1690.816679 0)scale(0.996264)" xlink:href="#CMSS17-111"/>
     <use transform="translate(1737.660303 0)scale(0.996264)" xlink:href="#CMSS17-108"/>
    </g>
   </g>
   <g id="legend_2">
    <g id="patch_13">
     <path d="M 565.487693 75.119404 
L 719.773813 75.119404 
Q 722.653813 75.119404 722.653813 72.239404 
L 722.653813 33.657725 
Q 722.653813 30.777725 719.773813 30.777725 
L 565.487693 30.777725 
Q 562.607693 30.777725 562.607693 33.657725 
L 562.607693 72.239404 
Q 562.607693 75.119404 565.487693 75.119404 
z
" style="fill:#ffffff;stroke:#cccccc;stroke-linejoin:miter;"/>
    </g>
    <g id="text_26">
     <!-- $t_i$ -->
     <g style="fill:#262626;" transform="translate(638.378336 46.50035)scale(0.144 -0.144)">
      <use transform="translate(0 14.943915)scale(0.996264)" xlink:href="#CMMI12-116"/>
      <use transform="translate(35.22633 0)scale(0.697382)" xlink:href="#CMMI12-105"/>
     </g>
    </g>
    <g id="line2d_61">
     <path d="M 568.367693 61.529877 
L 597.167693 61.529877 
" style="fill:none;stroke:#0571a3;stroke-dasharray:18.5,8;stroke-dashoffset:0;stroke-width:5;"/>
    </g>
    <g id="line2d_62"/>
    <g id="text_27">
     <!-- continuous control -->
     <g style="fill:#262626;" transform="translate(608.687693 66.569877)scale(0.144 -0.144)">
      <use transform="scale(0.996264)" xlink:href="#CMSS17-99"/>
      <use transform="translate(41.638822 0)scale(0.996264)" xlink:href="#CMSS17-111"/>
      <use transform="translate(88.482446 0)scale(0.996264)" xlink:href="#CMSS17-110"/>
      <use transform="translate(136.687389 0)scale(0.996264)" xlink:href="#CMSS17-116"/>
      <use transform="translate(170.518955 0)scale(0.996264)" xlink:href="#CMSS17-105"/>
      <use transform="translate(192.699678 0)scale(0.996264)" xlink:href="#CMSS17-110"/>
      <use transform="translate(240.904622 0)scale(0.996264)" xlink:href="#CMSS17-117"/>
      <use transform="translate(289.109565 0)scale(0.996264)" xlink:href="#CMSS17-111"/>
      <use transform="translate(335.953188 0)scale(0.996264)" xlink:href="#CMSS17-117"/>
      <use transform="translate(384.158131 0)scale(0.996264)" xlink:href="#CMSS17-115"/>
      <use transform="translate(451.300786 0)scale(0.996264)" xlink:href="#CMSS17-99"/>
      <use transform="translate(492.939608 0)scale(0.996264)" xlink:href="#CMSS17-111"/>
      <use transform="translate(539.783232 0)scale(0.996264)" xlink:href="#CMSS17-110"/>
      <use transform="translate(587.988175 0)scale(0.996264)" xlink:href="#CMSS17-116"/>
      <use transform="translate(621.819742 0)scale(0.996264)" xlink:href="#CMSS17-114"/>
      <use transform="translate(653.729514 0)scale(0.996264)" xlink:href="#CMSS17-111"/>
      <use transform="translate(700.573138 0)scale(0.996264)" xlink:href="#CMSS17-108"/>
     </g>
    </g>
   </g>
  </g>
 </g>
 <defs>
  <clipPath id="pd3347ff9fd">
   <rect height="271.8" width="304.363636" x="60.253813" y="23.577725"/>
  </clipPath>
  <clipPath id="p6dfb0ad3b2">
   <rect height="271.8" width="304.363636" x="425.490177" y="23.577725"/>
  </clipPath>
 </defs>
</svg>
