<?xml version="1.0" encoding="utf-8" standalone="no"?>
<!DOCTYPE svg PUBLIC "-//W3C//DTD SVG 1.1//EN"
  "http://www.w3.org/Graphics/SVG/1.1/DTD/svg11.dtd">
<!-- Created with matplotlib (https://matplotlib.org/) -->
<svg height="326.80667pt" version="1.1" viewBox="0 0 529.666744 326.80667" width="529.666744pt" xmlns="http://www.w3.org/2000/svg" xmlns:xlink="http://www.w3.org/1999/xlink">
 <defs>
  <style type="text/css">
*{stroke-linecap:butt;stroke-linejoin:round;}
  </style>
 </defs>
 <g id="figure_1">
  <g id="patch_1">
   <path d="M 0 326.80667 
L 529.666744 326.80667 
L 529.666744 0 
L 0 0 
z
" style="fill:#ffffff;"/>
  </g>
  <g id="axes_1">
   <g id="patch_2">
    <path d="M 76.066744 279 
L 522.466744 279 
L 522.466744 7.2 
L 76.066744 7.2 
z
" style="fill:#ffffff;"/>
   </g>
   <g id="matplotlib.axis_1">
    <g id="xtick_1">
     <g id="line2d_1">
      <path clip-path="url(#p2339370bd6)" d="M 139.838172 279 
L 139.838172 7.2 
" style="fill:none;stroke:#cccccc;stroke-linecap:round;stroke-width:0.8;"/>
     </g>
     <g id="line2d_2"/>
     <g id="text_1">
      <!-- $-10$ -->
      <defs>
       <path d="M 65.90625 23 
C 67.59375 23 69.40625 23 69.40625 25 
C 69.40625 27 67.59375 27 65.90625 27 
L 11.796875 27 
C 10.09375 27 8.296875 27 8.296875 25 
C 8.296875 23 10.09375 23 11.796875 23 
z
" id="CMSY10-0"/>
       <path d="M 26.59375 63.40625 
C 26.59375 65.5 26.5 65.5 25.09375 65.5 
C 21.203125 61.1875 15.296875 59.796875 9.703125 59.796875 
C 9.40625 59.796875 8.90625 59.796875 8.796875 59.5 
C 8.703125 59.296875 8.703125 59.09375 8.703125 57 
C 11.796875 57 17 57.59375 21 59.984375 
L 21 7.203125 
C 21 3.6875 20.796875 2.5 12.203125 2.5 
L 9.203125 2.5 
L 9.203125 0 
C 14 0 19 0 23.796875 0 
C 28.59375 0 33.59375 0 38.40625 0 
L 38.40625 2.5 
L 35.40625 2.5 
C 26.796875 2.5 26.59375 3.59375 26.59375 7.15625 
z
" id="CMR17-49"/>
       <path d="M 42 31.640625 
C 42 37.75 41.90625 48.125 37.703125 56.109375 
C 34 63.109375 28.09375 65.59375 22.90625 65.59375 
C 18.09375 65.59375 12 63.40625 8.203125 56.203125 
C 4.203125 48.71875 3.796875 39.4375 3.796875 31.640625 
C 3.796875 25.953125 3.90625 17.28125 7 9.671875 
C 11.296875 -0.609375 19 -2 22.90625 -2 
C 27.5 -2 34.5 -0.109375 38.59375 9.375 
C 41.59375 16.28125 42 24.359375 42 31.640625 
z
M 22.90625 -0.40625 
C 16.5 -0.40625 12.703125 5.078125 11.296875 12.6875 
C 10.203125 18.5625 10.203125 27.15625 10.203125 32.75 
C 10.203125 40.4375 10.203125 46.828125 11.5 52.921875 
C 13.40625 61.390625 19 64 22.90625 64 
C 27 64 32.296875 61.296875 34.203125 53.125 
C 35.5 47.4375 35.59375 40.734375 35.59375 32.75 
C 35.59375 26.25 35.59375 18.265625 34.40625 12.375 
C 32.296875 1.484375 26.40625 -0.40625 22.90625 -0.40625 
z
" id="CMR17-48"/>
      </defs>
      <g style="fill:#262626;" transform="translate(125.247958 294.455168)scale(0.1728 -0.1728)">
       <use transform="scale(0.996264)" xlink:href="#CMSY10-0"/>
       <use transform="translate(77.487468 0)scale(0.996264)" xlink:href="#CMR17-49"/>
       <use transform="translate(123.177945 0)scale(0.996264)" xlink:href="#CMR17-48"/>
      </g>
     </g>
    </g>
    <g id="xtick_2">
     <g id="line2d_3">
      <path clip-path="url(#p2339370bd6)" d="M 219.552458 279 
L 219.552458 7.2 
" style="fill:none;stroke:#cccccc;stroke-linecap:round;stroke-width:0.8;"/>
     </g>
     <g id="line2d_4"/>
     <g id="text_2">
      <!-- $-5$ -->
      <defs>
       <path d="M 11.40625 57.6875 
C 12.40625 57.28125 16.5 56 20.703125 56 
C 30 56 35.09375 61.109375 38 64.0625 
C 38 64.953125 38 65.5 37.40625 65.5 
C 37.296875 65.5 37.09375 65.5 36.296875 65.046875 
C 32.796875 63.40625 28.703125 62.078125 23.703125 62.078125 
C 20.703125 62.078125 16.203125 62.484375 11.296875 64.671875 
C 10.203125 65.171875 10 65.171875 9.90625 65.171875 
C 9.40625 65.171875 9.296875 65.0625 9.296875 63.078125 
L 9.296875 34.421875 
C 9.296875 32.640625 9.296875 32.140625 10.296875 32.140625 
C 10.796875 32.140625 11 32.34375 11.5 33.03125 
C 14.703125 37.515625 19.09375 39.40625 24.09375 39.40625 
C 27.59375 39.40625 35.09375 37.21875 35.09375 20.140625 
C 35.09375 16.953125 35.09375 11.171875 32.09375 6.578125 
C 29.59375 2.484375 25.703125 0.390625 21.40625 0.390625 
C 14.796875 0.390625 8.09375 5 6.296875 12.71875 
C 6.703125 12.609375 7.5 12.421875 7.90625 12.421875 
C 9.203125 12.421875 11.703125 13.125 11.703125 16.21875 
C 11.703125 18.90625 9.796875 20 7.90625 20 
C 5.59375 20 4.09375 18.59375 4.09375 15.796875 
C 4.09375 7.09375 11 -2 21.59375 -2 
C 31.90625 -2 41.703125 6.875 41.703125 19.75 
C 41.703125 31.71875 33.90625 41 24.203125 41 
C 19.09375 41 14.796875 39.109375 11.40625 35.53125 
z
" id="CMR17-53"/>
      </defs>
      <g style="fill:#262626;" transform="translate(208.909895 294.455168)scale(0.1728 -0.1728)">
       <use transform="scale(0.996264)" xlink:href="#CMSY10-0"/>
       <use transform="translate(77.487468 0)scale(0.996264)" xlink:href="#CMR17-53"/>
      </g>
     </g>
    </g>
    <g id="xtick_3">
     <g id="line2d_5">
      <path clip-path="url(#p2339370bd6)" d="M 299.266744 279 
L 299.266744 7.2 
" style="fill:none;stroke:#cccccc;stroke-linecap:round;stroke-width:0.8;"/>
     </g>
     <g id="line2d_6"/>
     <g id="text_3">
      <!-- $0$ -->
      <g style="fill:#262626;" transform="translate(295.319092 294.455168)scale(0.1728 -0.1728)">
       <use transform="scale(0.996264)" xlink:href="#CMR17-48"/>
      </g>
     </g>
    </g>
    <g id="xtick_4">
     <g id="line2d_7">
      <path clip-path="url(#p2339370bd6)" d="M 378.981029 279 
L 378.981029 7.2 
" style="fill:none;stroke:#cccccc;stroke-linecap:round;stroke-width:0.8;"/>
     </g>
     <g id="line2d_8"/>
     <g id="text_4">
      <!-- $5$ -->
      <g style="fill:#262626;" transform="translate(375.033377 294.455168)scale(0.1728 -0.1728)">
       <use transform="scale(0.996264)" xlink:href="#CMR17-53"/>
      </g>
     </g>
    </g>
    <g id="xtick_5">
     <g id="line2d_9">
      <path clip-path="url(#p2339370bd6)" d="M 458.695315 279 
L 458.695315 7.2 
" style="fill:none;stroke:#cccccc;stroke-linecap:round;stroke-width:0.8;"/>
     </g>
     <g id="line2d_10"/>
     <g id="text_5">
      <!-- $10$ -->
      <g style="fill:#262626;" transform="translate(450.800011 294.455168)scale(0.1728 -0.1728)">
       <use transform="scale(0.996264)" xlink:href="#CMR17-49"/>
       <use transform="translate(45.690477 0)scale(0.996264)" xlink:href="#CMR17-48"/>
      </g>
     </g>
    </g>
    <g id="text_6">
     <!-- offset from $t_{opt}$ (days) -->
     <defs>
      <path d="M 44.203125 21.1875 
C 44.203125 34 34.703125 44 23.5 44 
C 12 44 2.703125 33.703125 2.703125 21.1875 
C 2.703125 8.5 12.296875 -1 23.40625 -1 
C 34.796875 -1 44.203125 8.796875 44.203125 21.1875 
z
M 23.5 5.265625 
C 16.40625 5.265625 10.296875 11.078125 10.296875 22 
C 10.296875 33.609375 17.40625 37.921875 23.40625 37.921875 
C 29.90625 37.921875 36.59375 33.21875 36.59375 22 
C 36.59375 10.671875 30.09375 5.265625 23.5 5.265625 
z
" id="CMSS17-111"/>
      <path d="M 16.796875 37 
L 27.09375 37 
L 27.09375 42.765625 
L 16.59375 42.765625 
L 16.59375 55.609375 
C 16.59375 62.515625 21.796875 63.9375 25.203125 63.9375 
C 28.703125 63.9375 31.59375 63.03125 32.703125 62.640625 
L 32.703125 69.203125 
C 31.59375 69.40625 28.59375 70 25.296875 70 
C 16.09375 70 9.40625 62.484375 9.40625 52.484375 
L 9.40625 42.765625 
L 2.5 42.765625 
L 2.5 37 
L 9.40625 37 
L 9.40625 0 
L 16.796875 0 
z
M 42.796875 37 
L 53.09375 37 
L 53.09375 42.765625 
L 42.59375 42.765625 
L 42.59375 55.609375 
C 42.59375 62.515625 47.796875 63.9375 51.203125 63.9375 
C 54.703125 63.9375 57.59375 63.03125 58.703125 62.640625 
L 58.703125 69.203125 
C 57.59375 69.40625 54.59375 70 51.296875 70 
C 42.09375 70 35.40625 62.515625 35.40625 52.546875 
L 35.40625 0 
L 42.796875 0 
z
" id="CMSS17-11"/>
      <path d="M 32.203125 41.046875 
C 26.296875 43.859375 21.703125 43.859375 18.703125 43.859375 
C 11.59375 43.859375 3.09375 41.375 3.09375 31.296875 
C 3.09375 21.234375 14.09375 19.03125 17.09375 18.421875 
C 21.703125 17.53125 26.796875 16.53125 26.796875 11.5625 
C 26.796875 5.265625 19.59375 5.265625 18.296875 5.265625 
C 14.296875 5.265625 8.796875 6.359375 3.796875 9.96875 
L 2.59375 3.28125 
C 8.296875 0 13.796875 -1 18.40625 -1 
C 30.703125 -1 33.796875 6.5 33.796875 12.203125 
C 33.796875 17.09375 31 20.390625 29.09375 21.890625 
C 25.796875 24.5 24.59375 24.796875 16.40625 26.5 
C 15 26.703125 10.09375 27.796875 10.09375 32.28125 
C 10.09375 38 16.40625 38 17.796875 38 
C 24.296875 38 28.296875 35.984375 31 34.5 
z
" id="CMSS17-115"/>
      <path d="M 39.09375 21.515625 
C 39.09375 24.84375 38.90625 31.296875 35.703125 36.640625 
C 32.203125 42.390625 26.5 44 22.203125 44 
C 11.796875 44 3 34.1875 3 21.484375 
C 3 9.09375 12.09375 -1 23.59375 -1 
C 28.09375 -1 33.59375 0.296875 38.59375 3.875 
C 38.59375 4.28125 38.40625 6.46875 38.296875 6.5625 
C 38.296875 6.765625 38 9.84375 38 10.25 
C 33.203125 6.359375 27.703125 5.078125 23.703125 5.078125 
C 17.296875 5.078125 10.40625 10.421875 10.09375 21.515625 
z
M 10.90625 27 
C 12.203125 32.5625 16.59375 37.828125 22.203125 37.828125 
C 23.703125 37.828125 30.703125 37.828125 32.5 27 
z
" id="CMSS17-101"/>
      <path d="M 16.703125 37 
L 29.703125 37 
L 29.703125 42.765625 
L 16.703125 42.765625 
L 16.703125 55 
L 9.59375 55 
L 9.59375 42.765625 
L 1.703125 42.765625 
L 1.703125 37 
L 9.40625 37 
L 9.40625 11.703125 
C 9.40625 6 10.703125 -1 17.296875 -1 
C 22.296875 -1 26.90625 0.390625 31.296875 2.6875 
L 29.703125 8.5625 
C 27.296875 6.46875 24.40625 5.265625 21.296875 5.265625 
C 16.90625 5.265625 16.703125 10.875 16.703125 13.375 
z
" id="CMSS17-116"/>
      <path d="M 16.796875 37 
L 26.90625 37 
L 26.90625 42.765625 
L 16.59375 42.765625 
L 16.59375 55.609375 
C 16.59375 62.71875 22 63.9375 25.09375 63.9375 
C 26.09375 63.9375 28.90625 63.9375 32.5 62.640625 
L 32.5 69.203125 
C 30.203125 69.703125 27.40625 70 25.203125 70 
C 15.90625 70 9.40625 62.390625 9.40625 52.484375 
L 9.40625 42.765625 
L 2.5 42.765625 
L 2.5 37 
L 9.40625 37 
L 9.40625 0 
L 16.796875 0 
z
" id="CMSS17-102"/>
      <path d="M 14.90625 21.296875 
C 14.90625 30.703125 21.796875 37 30.59375 37 
L 30.59375 43.578125 
C 24.203125 43.578125 18.203125 40.390625 14.59375 35.203125 
L 14.59375 43.09375 
L 7.5 43.09375 
L 7.5 0 
L 14.90625 0 
z
" id="CMSS17-114"/>
      <path d="M 67 29.328125 
C 67 36.0625 65.296875 44 54.09375 44 
C 46.59375 44 42.09375 39.3125 40.09375 36.421875 
C 38.296875 41.71875 34.09375 44 28.09375 44 
C 21.296875 44 17 40.125 14.703125 37.328125 
L 14.703125 43.09375 
L 7.40625 43.09375 
L 7.40625 0 
L 15 0 
L 15 24.359375 
C 15 30.296875 17.203125 37.9375 24.296875 37.9375 
C 33.40625 37.9375 33.40625 31.5 33.40625 28.578125 
L 33.40625 0 
L 41 0 
L 41 24.359375 
C 41 30.296875 43.203125 37.9375 50.296875 37.9375 
C 59.40625 37.9375 59.40625 31.5 59.40625 28.578125 
L 59.40625 0 
L 67 0 
z
" id="CMSS17-109"/>
      <path d="M 20.09375 40.09375 
L 29.296875 40.09375 
C 31.203125 40.09375 32.203125 40.09375 32.203125 41.890625 
C 32.203125 43 31.59375 43 29.59375 43 
L 20.796875 43 
L 24.5 57.6875 
C 24.90625 59.078125 24.90625 59.28125 24.90625 60 
C 24.90625 61.609375 23.59375 62.5 22.296875 62.5 
C 21.5 62.5 19.203125 62.203125 18.40625 58.984375 
L 14.5 43 
L 5.09375 43 
C 3.09375 43 2.203125 43 2.203125 41.09375 
C 2.203125 40.09375 2.90625 40.09375 4.796875 40.09375 
L 13.703125 40.09375 
L 7.09375 13.765625 
C 6.296875 10.28125 6 9.28125 6 7.984375 
C 6 3.296875 9.296875 -1 14.90625 -1 
C 25 -1 30.40625 13.5625 30.40625 14.25 
C 30.40625 14.859375 30 15.15625 29.40625 15.15625 
C 29.203125 15.15625 28.796875 15.15625 28.59375 14.75 
C 28.5 14.65625 28.40625 14.546875 27.703125 12.953125 
C 25.59375 7.984375 21 1 15.203125 1 
C 12.203125 1 12 3.5 12 5.6875 
C 12 5.78125 12 7.6875 12.296875 8.875 
z
" id="CMMI12-116"/>
      <path d="M 45.59375 27.4375 
C 45.59375 36.921875 39.40625 44 30.296875 44 
C 17.09375 44 4.09375 29.640625 4.09375 15.5625 
C 4.09375 6.09375 10.296875 -1 19.40625 -1 
C 32.703125 -1 45.59375 13.375 45.59375 27.4375 
z
M 19.5 1 
C 14.5 1 10.796875 4.984375 10.796875 11.96875 
C 10.796875 16.5625 13.203125 26.75 16 31.734375 
C 20.5 39.421875 26.09375 42.015625 30.203125 42.015625 
C 35.09375 42.015625 38.90625 38.015625 38.90625 31.03125 
C 38.90625 27.046875 36.796875 16.359375 33 10.28125 
C 28.90625 3.59375 23.40625 1 19.5 1 
z
" id="CMMI12-111"/>
      <path d="M 4.296875 -12.328125 
C 3.59375 -15.3125 3.203125 -16.109375 -0.90625 -16.109375 
C -2.09375 -16.109375 -3.09375 -16.109375 -3.09375 -18 
C -3.09375 -18.203125 -3 -19 -1.90625 -19 
C -0.59375 -19 0.796875 -19 2.09375 -19 
L 6.40625 -19 
C 8.5 -19 13.59375 -19 15.703125 -19 
C 16.296875 -19 17.5 -19 17.5 -17.203125 
C 17.5 -16.109375 16.796875 -16.109375 15.09375 -16.109375 
C 10.5 -16.109375 10.203125 -15.421875 10.203125 -14.640625 
C 10.203125 -13.453125 14.703125 3.421875 15.296875 5.6875 
C 16.40625 2.890625 19.09375 -1 24.296875 -1 
C 35.59375 -1 47.796875 13.671875 47.796875 28.34375 
C 47.796875 37.515625 42.59375 44 35.09375 44 
C 28.703125 44 23.296875 37.8125 22.203125 36.421875 
C 21.40625 41.40625 17.5 44 13.5 44 
C 10.59375 44 8.296875 42.609375 6.40625 38.8125 
C 4.59375 35.21875 3.203125 29.140625 3.203125 28.734375 
C 3.203125 28.34375 3.59375 27.84375 4.296875 27.84375 
C 5.09375 27.84375 5.203125 27.9375 5.796875 30.234375 
C 7.296875 36.125 9.203125 42.015625 13.203125 42.015625 
C 15.5 42.015625 16.296875 40.421875 16.296875 37.453125 
C 16.296875 35.078125 16 34.078125 15.59375 32.296875 
z
M 21.59375 31.140625 
C 22.296875 33.921875 25.09375 36.828125 26.703125 38.21875 
C 27.796875 39.21875 31.09375 42.015625 34.90625 42.015625 
C 39.296875 42.015625 41.296875 37.625 41.296875 32.4375 
C 41.296875 27.640625 38.5 16.359375 36 11.171875 
C 33.5 5.78125 28.90625 1 24.296875 1 
C 17.5 1 16.40625 9.578125 16.40625 9.984375 
C 16.40625 10.28125 16.59375 11.078125 16.703125 11.578125 
z
" id="CMMI12-112"/>
      <path d="M 25.203125 74.5 
C 19.796875 69.015625 7.40625 56.265625 7.40625 24.8125 
C 7.40625 -6.765625 19.796875 -19.421875 25.203125 -25 
L 31.296875 -25 
C 19 -12.25 15 5.578125 15 24.703125 
C 15 43.71875 18.796875 61.65625 31.296875 74.5 
z
" id="CMSS17-40"/>
      <path d="M 40.796875 69 
L 33.40625 69 
L 33.40625 38.09375 
C 30.296875 40.671875 25.203125 43.0625 19.59375 43.0625 
C 10.5 43.0625 3.296875 33.296875 3.296875 21.046875 
C 3.296875 8.78125 10.40625 -1 19.296875 -1 
C 26.203125 -1 30.796875 2.6875 33.203125 4.78125 
L 33.203125 -0.203125 
L 40.796875 -0.203125 
z
M 33.203125 13.0625 
C 33.203125 11.671875 33.203125 10.203125 30.09375 7.53125 
C 28.09375 5.859375 25.703125 5.078125 23.40625 5.078125 
C 18 5.078125 10.90625 9 10.90625 20.9375 
C 10.90625 33.34375 18.90625 37 24.40625 37 
C 28.09375 37 31.09375 35.21875 33.203125 32.265625 
z
" id="CMSS17-100"/>
      <path d="M 37.59375 27.984375 
C 37.59375 37.375 30.90625 43.875 21.90625 43.875 
C 17.5 43.875 12.703125 43.078125 7.203125 39.890625 
L 7.796875 33.359375 
C 10.296875 35.125 14.59375 38 21.796875 38 
C 26.90625 38 30 34.0625 30 27.84375 
L 30 24 
C 14 24 4 19.34375 4 11.34375 
C 4 7.203125 6.5 -1 14.796875 -1 
C 16.296875 -1 24.40625 -1 30.203125 3.390625 
L 30.203125 -0.296875 
L 37.59375 -0.296875 
z
M 30 12.75 
C 30 10.953125 30 8.5625 27 6.78125 
C 24.40625 5.078125 21.09375 5.078125 19.703125 5.078125 
C 14.703125 5.078125 11.296875 7.984375 11.296875 11.625 
C 11.296875 18.921875 26.90625 18.921875 30 18.921875 
z
" id="CMSS17-97"/>
      <path d="M 41.796875 43 
L 34 43 
C 25.5 20.21875 22.59375 10.96875 22.40625 5.984375 
L 22.296875 5.984375 
C 22 10.875 17.59375 22.8125 14.09375 31.359375 
L 9.40625 43 
L 1.296875 43 
L 19 0.203125 
C 17.90625 -2.78125 16.296875 -7.265625 15.796875 -8.265625 
C 13.59375 -13.828125 12.09375 -13.828125 10.5 -13.828125 
C 10.09375 -13.828125 6.90625 -13.828125 3.296875 -12.640625 
L 3.90625 -19.203125 
C 6.40625 -19.703125 8.90625 -20 10.703125 -20 
C 13.203125 -20 18.203125 -20 22.796875 -7.765625 
z
" id="CMSS17-121"/>
      <path d="M 11.296875 -25 
C 16.703125 -19.515625 29.09375 -6.765625 29.09375 24.703125 
C 29.09375 56.265625 16.703125 68.921875 11.296875 74.5 
L 5.203125 74.5 
C 17.5 61.75 21.5 43.921875 21.5 24.8125 
C 21.5 5.78125 17.703125 -12.15625 5.203125 -25 
z
" id="CMSS17-41"/>
     </defs>
     <g style="fill:#262626;" transform="translate(224.99576 316.258127)scale(0.1728 -0.1728)">
      <use transform="translate(0 14.943915)scale(0.996264)" xlink:href="#CMSS17-111"/>
      <use transform="translate(46.843624 14.943915)scale(0.996264)" xlink:href="#CMSS17-11"/>
      <use transform="translate(101.494594 14.943915)scale(0.996264)" xlink:href="#CMSS17-115"/>
      <use transform="translate(137.408136 14.943915)scale(0.996264)" xlink:href="#CMSS17-101"/>
      <use transform="translate(179.046958 14.943915)scale(0.996264)" xlink:href="#CMSS17-116"/>
      <use transform="translate(244.107637 14.943915)scale(0.996264)" xlink:href="#CMSS17-102"/>
      <use transform="translate(272.734296 14.943915)scale(0.996264)" xlink:href="#CMSS17-114"/>
      <use transform="translate(304.644069 14.943915)scale(0.996264)" xlink:href="#CMSS17-111"/>
      <use transform="translate(351.487692 14.943915)scale(0.996264)" xlink:href="#CMSS17-109"/>
      <use transform="translate(456.946059 14.943915)scale(0.996264)" xlink:href="#CMMI12-116"/>
      <use transform="translate(492.172389 0)scale(0.697382)" xlink:href="#CMMI12-111"/>
      <use transform="translate(524.998951 0)scale(0.697382)" xlink:href="#CMMI12-112"/>
      <use transform="translate(559.270457 0)scale(0.697382)" xlink:href="#CMMI12-116"/>
      <use transform="translate(615.656012 14.943915)scale(0.996264)" xlink:href="#CMSS17-40"/>
      <use transform="translate(652.089926 14.943915)scale(0.996264)" xlink:href="#CMSS17-100"/>
      <use transform="translate(700.294869 14.943915)scale(0.996264)" xlink:href="#CMSS17-97"/>
      <use transform="translate(742.614336 14.943915)scale(0.996264)" xlink:href="#CMSS17-121"/>
      <use transform="translate(785.614477 14.943915)scale(0.996264)" xlink:href="#CMSS17-115"/>
      <use transform="translate(821.528019 14.943915)scale(0.996264)" xlink:href="#CMSS17-41"/>
     </g>
    </g>
   </g>
   <g id="matplotlib.axis_2">
    <g id="ytick_1">
     <g id="line2d_11">
      <path clip-path="url(#p2339370bd6)" d="M 76.066744 279 
L 522.466744 279 
" style="fill:none;stroke:#cccccc;stroke-linecap:round;stroke-width:0.8;"/>
     </g>
     <g id="line2d_12"/>
     <g id="text_7">
      <!-- $0.00$ -->
      <defs>
       <path d="M 18.40625 4.796875 
C 18.40625 7.6875 16 9.671875 13.59375 9.671875 
C 10.703125 9.671875 8.703125 7.28125 8.703125 4.890625 
C 8.703125 2 11.09375 0 13.5 0 
C 16.40625 0 18.40625 2.390625 18.40625 4.796875 
z
" id="CMMI12-58"/>
      </defs>
      <g style="fill:#262626;" transform="translate(44.198454 284.977584)scale(0.1728 -0.1728)">
       <use transform="scale(0.996264)" xlink:href="#CMR17-48"/>
       <use transform="translate(45.690477 0)scale(0.996264)" xlink:href="#CMMI12-58"/>
       <use transform="translate(72.787654 0)scale(0.996264)" xlink:href="#CMR17-48"/>
       <use transform="translate(118.478131 0)scale(0.996264)" xlink:href="#CMR17-48"/>
      </g>
     </g>
    </g>
    <g id="ytick_2">
     <g id="line2d_13">
      <path clip-path="url(#p2339370bd6)" d="M 76.066744 235.512 
L 522.466744 235.512 
" style="fill:none;stroke:#cccccc;stroke-linecap:round;stroke-width:0.8;"/>
     </g>
     <g id="line2d_14"/>
     <g id="text_8">
      <!-- $0.02$ -->
      <defs>
       <path d="M 41.703125 15.453125 
L 39.90625 15.453125 
C 38.90625 8.375 38.09375 7.171875 37.703125 6.5625 
C 37.203125 5.765625 30 5.765625 28.59375 5.765625 
L 9.40625 5.765625 
C 13 9.671875 20 16.75 28.5 24.953125 
C 34.59375 30.734375 41.703125 37.53125 41.703125 47.421875 
C 41.703125 59.21875 32.296875 66 21.796875 66 
C 10.796875 66 4.09375 56.3125 4.09375 47.34375 
C 4.09375 43.4375 7 42.9375 8.203125 42.9375 
C 9.203125 42.9375 12.203125 43.546875 12.203125 47.03125 
C 12.203125 50.109375 9.59375 51 8.203125 51 
C 7.59375 51 7 50.90625 6.59375 50.703125 
C 8.5 59.21875 14.296875 63.40625 20.40625 63.40625 
C 29.09375 63.40625 34.796875 56.515625 34.796875 47.421875 
C 34.796875 38.734375 29.703125 31.25 24 24.75 
L 4.09375 2.28125 
L 4.09375 0 
L 39.296875 0 
z
" id="CMR17-50"/>
      </defs>
      <g style="fill:#262626;" transform="translate(44.198454 241.489584)scale(0.1728 -0.1728)">
       <use transform="scale(0.996264)" xlink:href="#CMR17-48"/>
       <use transform="translate(45.690477 0)scale(0.996264)" xlink:href="#CMMI12-58"/>
       <use transform="translate(72.787654 0)scale(0.996264)" xlink:href="#CMR17-48"/>
       <use transform="translate(118.478131 0)scale(0.996264)" xlink:href="#CMR17-50"/>
      </g>
     </g>
    </g>
    <g id="ytick_3">
     <g id="line2d_15">
      <path clip-path="url(#p2339370bd6)" d="M 76.066744 192.024 
L 522.466744 192.024 
" style="fill:none;stroke:#cccccc;stroke-linecap:round;stroke-width:0.8;"/>
     </g>
     <g id="line2d_16"/>
     <g id="text_9">
      <!-- $0.04$ -->
      <defs>
       <path d="M 33.59375 64.40625 
C 33.59375 66.5 33.5 66.5 31.703125 66.5 
L 2 19.59375 
L 2 17 
L 27.796875 17 
L 27.796875 7.140625 
C 27.796875 3.5 27.59375 2.5 20.59375 2.5 
L 18.703125 2.5 
L 18.703125 0 
C 21.90625 0 27.296875 0 30.703125 0 
C 34.09375 0 39.5 0 42.703125 0 
L 42.703125 2.5 
L 40.796875 2.5 
C 33.796875 2.5 33.59375 3.5 33.59375 7.140625 
L 33.59375 17 
L 43.796875 17 
L 43.796875 19.59375 
L 33.59375 19.59375 
z
M 28.09375 57.859375 
L 28.09375 19.59375 
L 4 19.59375 
z
" id="CMR17-52"/>
      </defs>
      <g style="fill:#262626;" transform="translate(44.198454 198.001584)scale(0.1728 -0.1728)">
       <use transform="scale(0.996264)" xlink:href="#CMR17-48"/>
       <use transform="translate(45.690477 0)scale(0.996264)" xlink:href="#CMMI12-58"/>
       <use transform="translate(72.787654 0)scale(0.996264)" xlink:href="#CMR17-48"/>
       <use transform="translate(118.478131 0)scale(0.996264)" xlink:href="#CMR17-52"/>
      </g>
     </g>
    </g>
    <g id="ytick_4">
     <g id="line2d_17">
      <path clip-path="url(#p2339370bd6)" d="M 76.066744 148.536 
L 522.466744 148.536 
" style="fill:none;stroke:#cccccc;stroke-linecap:round;stroke-width:0.8;"/>
     </g>
     <g id="line2d_18"/>
     <g id="text_10">
      <!-- $0.06$ -->
      <defs>
       <path d="M 10.59375 34 
C 10.59375 57.65625 21.796875 63 28.296875 63 
C 30.40625 63 35.5 62.640625 37.5 59 
C 35.90625 59 32.90625 59 32.90625 55.515625 
C 32.90625 52.828125 35.09375 51.921875 36.5 51.921875 
C 37.40625 51.921875 40.09375 52.3125 40.09375 55.625 
C 40.09375 61.78125 35.09375 65.296875 28.203125 65.296875 
C 16.296875 65.296875 3.796875 52.96875 3.796875 31 
C 3.796875 3.953125 15.09375 -2 23.09375 -2 
C 32.796875 -2 42 6.671875 42 20.046875 
C 42 32.515625 33.90625 41.59375 23.703125 41.59375 
C 17.59375 41.59375 13.09375 37.609375 10.59375 30.625 
z
M 23.09375 0.390625 
C 10.796875 0.390625 10.796875 18.75 10.796875 22.4375 
C 10.796875 29.625 14.203125 40 23.5 40 
C 25.203125 40 30.09375 40 33.40625 33.125 
C 35.203125 29.21875 35.203125 25.140625 35.203125 20.140625 
C 35.203125 14.75 35.203125 10.78125 33.09375 6.78125 
C 30.90625 2.671875 27.703125 0.390625 23.09375 0.390625 
z
" id="CMR17-54"/>
      </defs>
      <g style="fill:#262626;" transform="translate(44.198454 154.513584)scale(0.1728 -0.1728)">
       <use transform="scale(0.996264)" xlink:href="#CMR17-48"/>
       <use transform="translate(45.690477 0)scale(0.996264)" xlink:href="#CMMI12-58"/>
       <use transform="translate(72.787654 0)scale(0.996264)" xlink:href="#CMR17-48"/>
       <use transform="translate(118.478131 0)scale(0.996264)" xlink:href="#CMR17-54"/>
      </g>
     </g>
    </g>
    <g id="ytick_5">
     <g id="line2d_19">
      <path clip-path="url(#p2339370bd6)" d="M 76.066744 105.048 
L 522.466744 105.048 
" style="fill:none;stroke:#cccccc;stroke-linecap:round;stroke-width:0.8;"/>
     </g>
     <g id="line2d_20"/>
     <g id="text_11">
      <!-- $0.08$ -->
      <defs>
       <path d="M 27.203125 35.375 
C 33.5 38.546875 39.90625 43.328125 39.90625 50.984375 
C 39.90625 60.015625 31.09375 65.296875 23 65.296875 
C 13.90625 65.296875 5.90625 58.734375 5.90625 49.6875 
C 5.90625 47.203125 6.5 42.921875 10.40625 39.140625 
C 11.40625 38.15625 15.59375 35.171875 18.296875 33.28125 
C 13.796875 30.984375 3.296875 25.53125 3.296875 14.59375 
C 3.296875 4.359375 13.09375 -2 22.796875 -2 
C 33.5 -2 42.5 5.65625 42.5 15.78125 
C 42.5 24.84375 36.40625 29.015625 32.40625 31.703125 
z
M 14.09375 44.09375 
C 13.296875 44.59375 9.296875 47.671875 9.296875 52.359375 
C 9.296875 58.421875 15.59375 63 22.796875 63 
C 30.703125 63 36.5 57.4375 36.5 50.96875 
C 36.5 41.703125 26.09375 36.421875 25.59375 36.421875 
C 25.5 36.421875 25.40625 36.421875 24.59375 37.03125 
z
M 32.5 23.734375 
C 34 22.640625 38.796875 19.375 38.796875 13.296875 
C 38.796875 5.953125 31.40625 0.390625 23 0.390625 
C 13.90625 0.390625 7 6.84375 7 14.6875 
C 7 22.546875 13.09375 29.09375 20 32.1875 
z
" id="CMR17-56"/>
      </defs>
      <g style="fill:#262626;" transform="translate(44.198454 111.025584)scale(0.1728 -0.1728)">
       <use transform="scale(0.996264)" xlink:href="#CMR17-48"/>
       <use transform="translate(45.690477 0)scale(0.996264)" xlink:href="#CMMI12-58"/>
       <use transform="translate(72.787654 0)scale(0.996264)" xlink:href="#CMR17-48"/>
       <use transform="translate(118.478131 0)scale(0.996264)" xlink:href="#CMR17-56"/>
      </g>
     </g>
    </g>
    <g id="ytick_6">
     <g id="line2d_21">
      <path clip-path="url(#p2339370bd6)" d="M 76.066744 61.56 
L 522.466744 61.56 
" style="fill:none;stroke:#cccccc;stroke-linecap:round;stroke-width:0.8;"/>
     </g>
     <g id="line2d_22"/>
     <g id="text_12">
      <!-- $0.10$ -->
      <g style="fill:#262626;" transform="translate(44.198454 67.537584)scale(0.1728 -0.1728)">
       <use transform="scale(0.996264)" xlink:href="#CMR17-48"/>
       <use transform="translate(45.690477 0)scale(0.996264)" xlink:href="#CMMI12-58"/>
       <use transform="translate(72.787654 0)scale(0.996264)" xlink:href="#CMR17-49"/>
       <use transform="translate(118.478131 0)scale(0.996264)" xlink:href="#CMR17-48"/>
      </g>
     </g>
    </g>
    <g id="ytick_7">
     <g id="line2d_23">
      <path clip-path="url(#p2339370bd6)" d="M 76.066744 18.072 
L 522.466744 18.072 
" style="fill:none;stroke:#cccccc;stroke-linecap:round;stroke-width:0.8;"/>
     </g>
     <g id="line2d_24"/>
     <g id="text_13">
      <!-- $0.12$ -->
      <g style="fill:#262626;" transform="translate(44.198454 24.049584)scale(0.1728 -0.1728)">
       <use transform="scale(0.996264)" xlink:href="#CMR17-48"/>
       <use transform="translate(45.690477 0)scale(0.996264)" xlink:href="#CMMI12-58"/>
       <use transform="translate(72.787654 0)scale(0.996264)" xlink:href="#CMR17-49"/>
       <use transform="translate(118.478131 0)scale(0.996264)" xlink:href="#CMR17-50"/>
      </g>
     </g>
    </g>
    <g id="text_14">
     <!-- $\Delta I_{max}$: intensive only minus -->
     <defs>
      <path d="M 40.59375 68.796875 
C 39.796875 70.5 39.40625 70.5 38.59375 70.5 
C 37.40625 70.5 37.296875 70.296875 36.59375 68.890625 
L 4.203125 1.703125 
C 4.09375 1.5 3.703125 0.59375 3.703125 0.5 
C 3.703125 0.09375 3.796875 0 5.59375 0 
L 71.5 0 
C 73.296875 0 73.40625 0.09375 73.40625 0.5 
C 73.40625 0.59375 73 1.5 72.90625 1.703125 
z
M 36.09375 63.09375 
L 63.796875 5.59375 
L 8.296875 5.59375 
z
" id="CMR17-1"/>
      <path d="M 36.796875 60.625 
C 37.703125 64.109375 37.90625 65.109375 45.203125 65.109375 
C 47.40625 65.109375 48.203125 65.109375 48.203125 67 
C 48.203125 68 47.09375 68 46.796875 68 
C 45 68 42.796875 68 41 68 
L 28.703125 68 
C 26.703125 68 24.40625 68 22.40625 68 
C 21.59375 68 20.5 68 20.5 66.109375 
C 20.5 65.109375 21.296875 65.109375 23.296875 65.109375 
C 29.5 65.109375 29.5 64.3125 29.5 63.21875 
C 29.5 62.53125 29.296875 61.921875 29.09375 61.03125 
L 15.59375 7.375 
C 14.703125 3.890625 14.5 2.890625 7.203125 2.890625 
C 5 2.890625 4.09375 2.890625 4.09375 1 
C 4.09375 0 5.09375 0 5.59375 0 
C 7.40625 0 9.59375 0 11.40625 0 
L 23.703125 0 
C 25.703125 0 27.90625 0 29.90625 0 
C 30.703125 0 31.90625 0 31.90625 1.796875 
C 31.90625 2.890625 31.296875 2.890625 29.09375 2.890625 
C 22.90625 2.890625 22.90625 3.6875 22.90625 4.875 
C 22.90625 5.078125 22.90625 5.578125 23.296875 7.171875 
z
" id="CMMI12-73"/>
      <path d="M 20.59375 29.234375 
C 20.796875 29.84375 23.296875 34.828125 27 38.015625 
C 29.59375 40.40625 33 42.015625 36.90625 42.015625 
C 40.90625 42.015625 42.296875 39.015625 42.296875 35.03125 
C 42.296875 34.421875 42.296875 32.4375 41.09375 27.734375 
L 38.59375 17.46875 
C 37.796875 14.46875 35.90625 7.078125 35.703125 5.984375 
C 35.296875 4.484375 34.703125 1.890625 34.703125 1.5 
C 34.703125 0.09375 35.796875 -1 37.296875 -1 
C 40.296875 -1 40.796875 1.296875 41.703125 4.890625 
L 47.703125 28.734375 
C 47.90625 29.53125 53.09375 42.015625 64.09375 42.015625 
C 68.09375 42.015625 69.5 39.015625 69.5 35.03125 
C 69.5 29.4375 65.59375 18.5625 63.40625 12.578125 
C 62.5 10.171875 62 8.875 62 7.078125 
C 62 2.59375 65.09375 -1 69.90625 -1 
C 79.203125 -1 82.703125 13.671875 82.703125 14.265625 
C 82.703125 14.765625 82.296875 15.171875 81.703125 15.171875 
C 80.796875 15.171875 80.703125 14.875 80.203125 13.171875 
C 77.90625 5.1875 74.203125 1 70.203125 1 
C 69.203125 1 67.59375 1 67.59375 4.203125 
C 67.59375 6.8125 68.796875 10 69.203125 11.09375 
C 71 15.90625 75.5 27.703125 75.5 33.515625 
C 75.5 39.5 72 44 64.40625 44 
C 57.703125 44 52.296875 40.21875 48.296875 34.328125 
C 48 39.71875 44.703125 44 37.203125 44 
C 28.296875 44 23.59375 37.734375 21.796875 35.234375 
C 21.5 40.90625 17.40625 44 13 44 
C 10.09375 44 7.796875 42.609375 5.90625 38.8125 
C 4.09375 35.21875 2.703125 29.140625 2.703125 28.734375 
C 2.703125 28.34375 3.09375 27.84375 3.796875 27.84375 
C 4.59375 27.84375 4.703125 27.9375 5.296875 30.234375 
C 6.796875 36.125 8.703125 42.015625 12.703125 42.015625 
C 15 42.015625 15.796875 40.40625 15.796875 37.421875 
C 15.796875 35.21875 14.796875 31.328125 14.09375 28.234375 
L 11.296875 17.46875 
C 10.90625 15.5625 9.796875 11.078125 9.296875 9.28125 
C 8.59375 6.6875 7.5 2 7.5 1.5 
C 7.5 0.09375 8.59375 -1 10.09375 -1 
C 11.296875 -1 12.703125 -0.40625 13.5 1.09375 
C 13.703125 1.59375 14.59375 5.09375 15.09375 7.078125 
L 17.296875 16.0625 
z
" id="CMMI12-109"/>
      <path d="M 30.09375 11.875 
C 29.59375 10.171875 29.59375 9.984375 28.203125 8.078125 
C 26 5.28125 21.59375 1 16.90625 1 
C 12.796875 1 10.5 4.6875 10.5 10.578125 
C 10.5 16.0625 13.59375 27.234375 15.5 31.4375 
C 18.90625 38.421875 23.59375 42.015625 27.5 42.015625 
C 34.09375 42.015625 35.40625 33.828125 35.40625 33.03125 
C 35.40625 32.9375 35.09375 31.625 35 31.4375 
z
M 36.5 37.421875 
C 35.40625 40.015625 32.703125 44 27.5 44 
C 16.203125 44 4 29.4375 4 14.671875 
C 4 4.796875 9.796875 -1 16.59375 -1 
C 22.09375 -1 26.796875 3.296875 29.59375 6.59375 
C 30.59375 0.703125 35.296875 -1 38.296875 -1 
C 41.296875 -1 43.703125 0.796875 45.5 4.390625 
C 47.09375 7.78125 48.5 13.875 48.5 14.265625 
C 48.5 14.765625 48.09375 15.171875 47.5 15.171875 
C 46.59375 15.171875 46.5 14.671875 46.09375 13.171875 
C 44.59375 7.28125 42.703125 1 38.59375 1 
C 35.703125 1 35.5 3.59375 35.5 5.59375 
C 35.5 7.890625 35.796875 8.984375 36.703125 12.875 
C 37.40625 15.375 37.90625 17.5625 38.703125 20.453125 
C 42.40625 35.421875 43.296875 39.015625 43.296875 39.609375 
C 43.296875 41.015625 42.203125 42.109375 40.703125 42.109375 
C 37.5 42.109375 36.703125 38.625 36.5 37.421875 
z
" id="CMMI12-97"/>
      <path d="M 47.40625 40.71875 
C 44.203125 40.109375 43 37.71875 43 35.828125 
C 43 33.421875 44.90625 32.625 46.296875 32.625 
C 49.296875 32.625 51.40625 35.21875 51.40625 37.921875 
C 51.40625 42.109375 46.59375 44 42.40625 44 
C 36.296875 44 32.90625 38.015625 32 36.125 
C 29.703125 44 23.5 44 21.703125 44 
C 11.5 44 6.09375 30.9375 6.09375 28.734375 
C 6.09375 28.34375 6.5 27.84375 7.203125 27.84375 
C 8 27.84375 8.203125 28.4375 8.40625 28.84375 
C 11.796875 39.921875 18.5 42.015625 21.40625 42.015625 
C 25.90625 42.015625 26.796875 37.8125 26.796875 35.421875 
C 26.796875 33.234375 26.203125 30.9375 25 26.140625 
L 21.59375 12.46875 
C 20.09375 6.484375 17.203125 1 11.90625 1 
C 11.40625 1 8.90625 1 6.796875 2.296875 
C 10.40625 3 11.203125 5.984375 11.203125 7.1875 
C 11.203125 9.1875 9.703125 10.375 7.796875 10.375 
C 5.40625 10.375 2.796875 8.28125 2.796875 5.09375 
C 2.796875 0.890625 7.5 -1 11.796875 -1 
C 16.59375 -1 20 2.796875 22.09375 6.890625 
C 23.703125 1 28.703125 -1 32.40625 -1 
C 42.59375 -1 48 12.078125 48 14.265625 
C 48 14.765625 47.59375 15.171875 47 15.171875 
C 46.09375 15.171875 46 14.671875 45.703125 13.875 
C 43 5.09375 37.203125 1 32.703125 1 
C 29.203125 1 27.296875 3.59375 27.296875 7.6875 
C 27.296875 9.875 27.703125 11.46875 29.296875 18.0625 
L 32.796875 31.625 
C 34.296875 37.625 37.703125 42.015625 42.296875 42.015625 
C 42.5 42.015625 45.296875 42.015625 47.40625 40.71875 
z
" id="CMMI12-120"/>
      <path d="M 17 42.953125 
L 9 42.953125 
L 9 35 
L 17 35 
z
M 9 7.96875 
L 9 0 
L 17 0 
L 17 7.96875 
z
" id="CMSS17-58"/>
      <path d="M 15.296875 65.359375 
L 6.90625 65.359375 
L 6.90625 57 
L 15.296875 57 
z
M 14.796875 42.796875 
L 7.40625 42.796875 
L 7.40625 0 
L 14.796875 0 
z
" id="CMSS17-105"/>
      <path d="M 40.90625 29.328125 
C 40.90625 35.671875 39.40625 44 28.09375 44 
C 21.703125 44 17.5 40.71875 14.703125 37.328125 
L 14.703125 43.09375 
L 7.40625 43.09375 
L 7.40625 0 
L 15 0 
L 15 24.359375 
C 15 30.6875 17.40625 37.9375 24.203125 37.9375 
C 33 37.9375 33.296875 32 33.296875 28.578125 
L 33.296875 0 
L 40.90625 0 
z
" id="CMSS17-110"/>
      <path d="M 41.796875 43 
L 34 43 
L 27.296875 24.3125 
C 25.203125 18.203125 22.203125 9.796875 21.703125 5.5 
L 21.59375 5.5 
C 21.40625 7.3125 20.59375 9.90625 20.09375 11.703125 
C 19.5 13.90625 18.703125 16.5 18.09375 18.3125 
L 9.296875 43 
L 1.296875 43 
L 17.09375 0 
L 26 0 
z
" id="CMSS17-118"/>
      <path d="M 14.796875 69 
L 7.40625 69 
L 7.40625 0 
L 14.796875 0 
z
" id="CMSS17-108"/>
      <path d="M 40.90625 42.796875 
L 33.296875 42.796875 
L 33.296875 15.1875 
C 33.296875 7.78125 27.90625 4.78125 22.203125 4.78125 
C 15.59375 4.78125 15 6.984375 15 11.078125 
L 15 42.796875 
L 7.40625 42.796875 
L 7.40625 10.59375 
C 7.40625 2.796875 10.09375 -1 17 -1 
C 20.40625 -1 28.09375 -0.203125 33.5 4.78125 
L 33.5 0 
L 40.90625 0 
z
" id="CMSS17-117"/>
     </defs>
     <g style="fill:#262626;" transform="translate(19.155168 239.178161)rotate(-90)scale(0.1728 -0.1728)">
      <use transform="translate(0 14.943915)scale(0.996264)" xlink:href="#CMR17-1"/>
      <use transform="translate(76.91959 14.943915)scale(0.996264)" xlink:href="#CMMI12-73"/>
      <use transform="translate(119.943766 0)scale(0.697382)" xlink:href="#CMMI12-109"/>
      <use transform="translate(179.672557 0)scale(0.697382)" xlink:href="#CMMI12-97"/>
      <use transform="translate(215.517903 0)scale(0.697382)" xlink:href="#CMMI12-120"/>
      <use transform="translate(254.819695 14.943915)scale(0.996264)" xlink:href="#CMSS17-58"/>
      <use transform="translate(322.482706 14.943915)scale(0.996264)" xlink:href="#CMSS17-105"/>
      <use transform="translate(344.663429 14.943915)scale(0.996264)" xlink:href="#CMSS17-110"/>
      <use transform="translate(392.868373 14.943915)scale(0.996264)" xlink:href="#CMSS17-116"/>
      <use transform="translate(426.699939 14.943915)scale(0.996264)" xlink:href="#CMSS17-101"/>
      <use transform="translate(468.338761 14.943915)scale(0.996264)" xlink:href="#CMSS17-110"/>
      <use transform="translate(516.543705 14.943915)scale(0.996264)" xlink:href="#CMSS17-115"/>
      <use transform="translate(552.457247 14.943915)scale(0.996264)" xlink:href="#CMSS17-105"/>
      <use transform="translate(574.63797 14.943915)scale(0.996264)" xlink:href="#CMSS17-118"/>
      <use transform="translate(617.638111 14.943915)scale(0.996264)" xlink:href="#CMSS17-101"/>
      <use transform="translate(690.506046 14.943915)scale(0.996264)" xlink:href="#CMSS17-111"/>
      <use transform="translate(737.34967 14.943915)scale(0.996264)" xlink:href="#CMSS17-110"/>
      <use transform="translate(785.554613 14.943915)scale(0.996264)" xlink:href="#CMSS17-108"/>
      <use transform="translate(807.735336 14.943915)scale(0.996264)" xlink:href="#CMSS17-121"/>
      <use transform="translate(881.96459 14.943915)scale(0.996264)" xlink:href="#CMSS17-109"/>
      <use transform="translate(956.193845 14.943915)scale(0.996264)" xlink:href="#CMSS17-105"/>
      <use transform="translate(978.374568 14.943915)scale(0.996264)" xlink:href="#CMSS17-110"/>
      <use transform="translate(1026.579511 14.943915)scale(0.996264)" xlink:href="#CMSS17-117"/>
      <use transform="translate(1074.784454 14.943915)scale(0.996264)" xlink:href="#CMSS17-115"/>
     </g>
     <!-- intensive w. continuous control -->
     <defs>
      <path d="M 62.703125 43 
L 55.09375 43 
L 49.796875 25.015625 
C 48.703125 21.21875 45.59375 10.703125 45.203125 5.796875 
L 45.09375 5.796875 
C 44.90625 8.8125 43.203125 16 40.40625 25.515625 
L 35.296875 43 
L 28.40625 43 
L 23.40625 25.90625 
C 20.90625 17.203125 19 9.796875 18.796875 5.796875 
L 18.703125 5.796875 
C 18.296875 11.703125 14.203125 25.515625 13.59375 27.703125 
L 9.09375 43 
L 1.296875 43 
L 14.296875 0 
L 21.90625 0 
C 27.09375 17.125 31.09375 30.359375 31.40625 37.03125 
C 31.59375 33.75 33.296875 26.671875 34.296875 23.1875 
L 40.90625 0 
L 49.703125 0 
z
" id="CMSS17-119"/>
      <path d="M 17 7.96875 
L 9 7.96875 
L 9 0 
L 17 0 
z
" id="CMSS17-46"/>
      <path d="M 38.5 39.703125 
C 38.5 40.390625 33.90625 42.40625 32.703125 42.796875 
C 29.40625 44 25.203125 44 24.09375 44 
C 11.09375 44 3.296875 32.703125 3.296875 21.296875 
C 3.296875 9.296875 12 -1 23.703125 -1 
C 30.40625 -1 35.203125 1.1875 39.09375 3.78125 
L 38.5 10.375 
C 34.203125 7.078125 29.203125 5.265625 23.796875 5.265625 
C 16 5.265625 10.90625 12.09375 10.90625 21.390625 
C 10.90625 28.609375 14.203125 37.71875 24.203125 37.71875 
C 29.703125 37.71875 32.796875 36.609375 37.40625 33.515625 
z
" id="CMSS17-99"/>
     </defs>
     <g style="fill:#262626;" transform="translate(36.849912 248.703141)rotate(-90)scale(0.1728 -0.1728)">
      <use transform="scale(0.996264)" xlink:href="#CMSS17-105"/>
      <use transform="translate(22.180723 0)scale(0.996264)" xlink:href="#CMSS17-110"/>
      <use transform="translate(70.385666 0)scale(0.996264)" xlink:href="#CMSS17-116"/>
      <use transform="translate(104.217233 0)scale(0.996264)" xlink:href="#CMSS17-101"/>
      <use transform="translate(145.856055 0)scale(0.996264)" xlink:href="#CMSS17-110"/>
      <use transform="translate(194.060998 0)scale(0.996264)" xlink:href="#CMSS17-115"/>
      <use transform="translate(229.97454 0)scale(0.996264)" xlink:href="#CMSS17-105"/>
      <use transform="translate(252.155263 0)scale(0.996264)" xlink:href="#CMSS17-118"/>
      <use transform="translate(295.155405 0)scale(0.996264)" xlink:href="#CMSS17-101"/>
      <use transform="translate(368.02334 0)scale(0.996264)" xlink:href="#CMSS17-119"/>
      <use transform="translate(431.842885 0)scale(0.996264)" xlink:href="#CMSS17-46"/>
      <use transform="translate(499.505896 0)scale(0.996264)" xlink:href="#CMSS17-99"/>
      <use transform="translate(541.144719 0)scale(0.996264)" xlink:href="#CMSS17-111"/>
      <use transform="translate(587.988342 0)scale(0.996264)" xlink:href="#CMSS17-110"/>
      <use transform="translate(636.193285 0)scale(0.996264)" xlink:href="#CMSS17-116"/>
      <use transform="translate(670.024852 0)scale(0.996264)" xlink:href="#CMSS17-105"/>
      <use transform="translate(692.205575 0)scale(0.996264)" xlink:href="#CMSS17-110"/>
      <use transform="translate(740.410518 0)scale(0.996264)" xlink:href="#CMSS17-117"/>
      <use transform="translate(788.615461 0)scale(0.996264)" xlink:href="#CMSS17-111"/>
      <use transform="translate(835.459085 0)scale(0.996264)" xlink:href="#CMSS17-117"/>
      <use transform="translate(883.664028 0)scale(0.996264)" xlink:href="#CMSS17-115"/>
      <use transform="translate(950.806683 0)scale(0.996264)" xlink:href="#CMSS17-99"/>
      <use transform="translate(992.445505 0)scale(0.996264)" xlink:href="#CMSS17-111"/>
      <use transform="translate(1039.289128 0)scale(0.996264)" xlink:href="#CMSS17-110"/>
      <use transform="translate(1087.494071 0)scale(0.996264)" xlink:href="#CMSS17-116"/>
      <use transform="translate(1121.325638 0)scale(0.996264)" xlink:href="#CMSS17-114"/>
      <use transform="translate(1153.235411 0)scale(0.996264)" xlink:href="#CMSS17-111"/>
      <use transform="translate(1200.079034 0)scale(0.996264)" xlink:href="#CMSS17-108"/>
     </g>
    </g>
   </g>
   <g id="line2d_25">
    <path clip-path="url(#p2339370bd6)" d="M 76.066744 47.462219 
L 76.51359 47.995827 
L 76.960437 47.710808 
L 77.407284 47.710808 
L 77.854131 47.962393 
L 78.300978 47.962393 
L 78.747825 48.216911 
L 79.194672 48.216911 
L 79.641518 48.47431 
L 80.088365 48.47431 
L 80.535212 48.734604 
L 80.982059 48.734604 
L 81.428906 48.997806 
L 81.875753 48.997806 
L 82.322599 49.263929 
L 82.769446 49.263929 
L 83.216293 49.821628 
L 83.66314 49.532966 
L 84.109987 49.532966 
L 84.556834 49.804995 
L 85.003681 49.804995 
L 85.450527 50.080101 
L 85.897374 50.080101 
L 86.344221 50.358201 
L 86.791068 50.358201 
L 87.237915 50.639014 
L 87.684762 50.639014 
L 88.131608 50.922922 
L 88.578455 50.922922 
L 89.025302 51.209782 
L 89.472149 51.209782 
L 89.918996 51.791602 
L 90.365843 51.499656 
L 90.81269 51.499656 
L 91.259536 51.792579 
L 91.706383 51.792579 
L 92.15323 52.08855 
L 92.600077 52.08855 
L 93.046924 52.387871 
L 93.493771 52.387871 
L 93.940617 52.69031 
L 94.387464 52.69031 
L 94.834311 52.995841 
L 95.281158 52.995841 
L 95.728005 53.304474 
L 96.174852 53.304474 
L 96.621699 53.911175 
L 97.068545 53.61622 
L 97.515392 53.61622 
L 97.962239 53.931089 
L 98.409086 53.931089 
L 98.855933 54.24912 
L 99.30278 54.24912 
L 99.749626 54.570762 
L 100.196473 54.570762 
L 100.64332 54.895414 
L 101.090167 54.895414 
L 101.537014 55.223232 
L 101.983861 55.223232 
L 102.430708 55.554223 
L 102.877554 55.554223 
L 103.324401 56.18604 
L 103.771248 55.888396 
L 104.218095 55.888396 
L 104.664942 56.225802 
L 105.111789 56.225802 
L 105.558635 56.566521 
L 106.005482 56.566521 
L 106.452329 56.910669 
L 106.899176 56.910669 
L 107.346023 57.258035 
L 107.79287 57.258035 
L 108.239717 57.608625 
L 108.686563 57.608625 
L 109.13341 57.962448 
L 109.580257 57.962448 
L 110.027104 58.619503 
L 110.473951 58.319594 
L 110.920798 58.319594 
L 111.367645 58.680306 
L 111.814491 58.680306 
L 112.261338 59.044273 
L 112.708185 59.044273 
L 113.155032 59.411502 
L 113.601879 59.411502 
L 114.048726 59.781913 
L 114.495572 59.781913 
L 114.942419 60.155558 
L 115.389266 60.155558 
L 115.836113 60.532896 
L 116.28296 60.532896 
L 116.729807 61.215137 
L 117.176654 60.913594 
L 117.6235 61.599407 
L 118.070347 61.297553 
L 118.517194 61.297553 
L 118.964041 61.68487 
L 119.410888 61.68487 
L 119.857735 62.075458 
L 120.304581 62.075458 
L 120.751428 62.469809 
L 121.198275 62.469809 
L 121.645122 62.867509 
L 122.091969 62.867509 
L 122.538816 63.268504 
L 122.985663 63.268504 
L 123.432509 63.97593 
L 123.879356 63.672822 
L 124.326203 64.383831 
L 124.77305 64.08065 
L 125.219897 64.08065 
L 125.666744 64.4921 
L 126.11359 64.4921 
L 126.560437 64.906882 
L 127.007284 64.906882 
L 127.454131 65.324993 
L 127.900978 65.324993 
L 128.347825 65.746446 
L 128.794672 65.746446 
L 129.241518 66.171802 
L 129.688365 66.171802 
L 130.135212 66.904175 
L 130.582059 66.600418 
L 131.028906 67.336323 
L 131.475753 67.032367 
L 131.922599 67.032367 
L 132.369446 67.467461 
L 132.816293 67.467461 
L 133.26314 67.906506 
L 133.709987 67.906506 
L 134.156834 68.348861 
L 134.603681 68.348861 
L 135.050527 68.794484 
L 135.497374 68.794484 
L 135.944221 69.243415 
L 136.391068 69.243415 
L 136.837915 69.696164 
L 137.284762 69.696164 
L 137.731608 70.45629 
L 138.178455 70.152253 
L 138.625302 70.152253 
L 139.072149 70.611642 
L 139.518996 70.611642 
L 139.965843 71.074424 
L 140.41269 71.074424 
L 140.859536 71.540966 
L 141.306383 71.540966 
L 141.75323 72.010796 
L 142.200077 72.010796 
L 142.646924 72.483906 
L 143.093771 72.483906 
L 143.540617 72.960625 
L 143.987464 72.960625 
L 144.434311 73.744453 
L 144.881158 73.440864 
L 145.328005 73.440864 
L 145.774852 73.924367 
L 146.221699 73.924367 
L 146.668545 74.411188 
L 147.115392 74.411188 
L 147.562239 74.901795 
L 148.009086 74.901795 
L 148.455933 75.395642 
L 148.90278 75.395642 
L 149.349626 75.892717 
L 149.796473 75.892717 
L 150.24332 76.393506 
L 150.690167 76.393506 
L 151.137014 77.200223 
L 151.583861 76.897635 
L 152.030708 76.897635 
L 152.477554 77.404961 
L 152.924401 77.404961 
L 153.371248 77.915841 
L 153.818095 77.915841 
L 154.264942 78.429617 
L 154.711789 78.429617 
L 155.158635 78.946534 
L 155.605482 78.946534 
L 156.052329 79.46691 
L 156.499176 79.46691 
L 156.946023 79.990738 
L 157.39287 79.990738 
L 157.839717 80.81868 
L 158.286563 80.517669 
L 158.73341 80.517669 
L 159.180257 81.04803 
L 159.627104 81.04803 
L 160.073951 81.581802 
L 160.520798 81.581802 
L 160.967645 82.118589 
L 161.414491 82.118589 
L 161.861338 82.658892 
L 162.308185 82.658892 
L 162.755032 83.20249 
L 163.201879 83.20249 
L 163.648726 83.748574 
L 164.095572 83.748574 
L 164.542419 84.596192 
L 164.989266 84.297937 
L 165.436113 84.297937 
L 165.88296 84.850389 
L 166.329807 84.850389 
L 166.776654 85.405832 
L 167.2235 85.405832 
L 167.670347 85.964864 
L 168.117194 85.964864 
L 168.564041 86.526787 
L 169.010888 86.526787 
L 169.457735 87.091908 
L 169.904581 87.091908 
L 170.351428 87.660129 
L 170.798275 87.660129 
L 171.245122 88.525639 
L 171.691969 88.230352 
L 172.138816 88.230352 
L 172.585663 88.80402 
L 173.032509 88.80402 
L 173.479356 89.380562 
L 173.926203 89.380562 
L 174.37305 89.96011 
L 174.819897 89.96011 
L 175.266744 90.542878 
L 175.71359 90.542878 
L 176.160437 91.128318 
L 176.607284 91.128318 
L 177.054131 91.716109 
L 177.500978 91.716109 
L 177.947825 92.597475 
L 178.394672 92.306466 
L 178.841518 92.306466 
L 179.288365 92.899828 
L 179.735212 92.899828 
L 180.182059 93.496144 
L 180.628906 93.496144 
L 181.075753 94.09514 
L 181.522599 94.09514 
L 181.969446 94.696464 
L 182.416293 94.696464 
L 182.86314 95.299773 
L 183.309987 95.299773 
L 183.756834 95.906269 
L 184.203681 95.906269 
L 184.650527 96.801217 
L 185.097374 96.51523 
L 185.544221 96.51523 
L 185.991068 97.127044 
L 186.437915 97.127044 
L 186.884762 97.740081 
L 187.331608 97.740081 
L 187.778455 98.355842 
L 188.225302 98.355842 
L 188.672149 98.974251 
L 189.118996 98.974251 
L 189.565843 99.595183 
L 190.01269 99.595183 
L 190.459536 100.217374 
L 190.906383 100.217374 
L 191.35323 101.121748 
L 191.800077 100.841797 
L 192.246924 100.841797 
L 192.693771 101.468955 
L 193.140617 101.468955 
L 193.587464 102.098034 
L 194.034311 102.098034 
L 194.481158 102.728416 
L 194.928005 102.728416 
L 195.374852 103.36085 
L 195.821699 103.36085 
L 196.268545 103.996001 
L 196.715392 103.996001 
L 197.162239 104.631856 
L 197.609086 104.631856 
L 198.055933 105.542446 
L 198.50278 105.269771 
L 198.949626 106.181485 
L 199.396473 105.909688 
L 199.84332 105.909688 
L 200.290167 106.550981 
L 200.737014 106.550981 
L 201.183861 107.193402 
L 201.630708 107.193402 
L 202.077554 107.838029 
L 202.524401 107.838029 
L 202.971248 108.48352 
L 203.418095 108.48352 
L 203.864942 109.130138 
L 204.311789 109.130138 
L 204.758635 110.043471 
L 205.205482 109.778886 
L 205.652329 110.691213 
L 206.099176 110.427652 
L 206.546023 110.427652 
L 206.99287 111.078142 
L 207.439717 111.078142 
L 207.886563 111.72982 
L 208.33341 111.72982 
L 208.780257 112.381985 
L 209.227104 112.381985 
L 209.673951 113.035455 
L 210.120798 113.035455 
L 210.567645 113.689182 
L 211.014491 113.689182 
L 211.461338 114.343807 
L 211.908185 114.343807 
L 212.355032 115.253275 
L 212.801879 114.999141 
L 213.248726 114.999141 
L 213.695572 115.654643 
L 214.142419 115.654643 
L 214.589266 116.311332 
L 215.036113 116.311332 
L 215.48296 116.967173 
L 215.929807 116.967173 
L 216.376654 117.624387 
L 216.8235 117.624387 
L 217.270347 118.280484 
L 217.717194 118.280484 
L 218.164041 118.937897 
L 218.610888 118.937897 
L 219.057735 119.837562 
L 219.504581 119.594153 
L 219.951428 119.594153 
L 220.398275 120.251096 
L 220.845122 120.251096 
L 221.291969 120.907066 
L 221.738816 120.907066 
L 222.185663 121.56325 
L 222.632509 121.56325 
L 223.079356 122.218185 
L 223.526203 122.218185 
L 223.97305 122.873665 
L 224.419897 122.873665 
L 224.866744 123.526958 
L 225.31359 123.526958 
L 225.760437 124.411977 
L 226.207284 124.180667 
L 226.654131 124.180667 
L 227.100978 124.832767 
L 227.547825 124.832767 
L 227.994672 125.483831 
L 228.441518 125.483831 
L 228.888365 126.134297 
L 229.335212 126.134297 
L 229.782059 126.782739 
L 230.228906 126.782739 
L 230.675753 127.430282 
L 231.122599 127.430282 
L 231.569446 128.07586 
L 232.016293 128.07586 
L 232.46314 128.937951 
L 232.909987 128.719841 
L 233.356834 128.719841 
L 233.803681 129.362478 
L 234.250527 129.362478 
L 234.697374 130.002322 
L 235.144221 130.002322 
L 235.591068 130.640511 
L 236.037915 130.640511 
L 236.484762 131.276833 
L 236.931608 131.276833 
L 237.378455 131.91003 
L 237.825302 131.91003 
L 238.272149 132.540851 
L 238.718996 132.540851 
L 239.165843 133.372901 
L 239.61269 133.169421 
L 240.059536 133.169421 
L 240.506383 133.795317 
L 240.95323 133.795317 
L 241.400077 134.417297 
L 241.846924 134.417297 
L 242.293771 135.036653 
L 242.740617 135.036653 
L 243.187464 135.653015 
L 243.634311 135.653015 
L 244.081158 136.266054 
L 244.528005 136.266054 
L 244.974852 136.874908 
L 245.421699 136.874908 
L 245.868545 137.667481 
L 246.315392 137.479945 
L 246.762239 137.479945 
L 247.209086 138.081257 
L 247.655933 138.081257 
L 248.10278 138.678614 
L 248.549626 138.678614 
L 248.996473 139.271713 
L 249.44332 139.271713 
L 249.890167 139.860354 
L 250.337014 139.860354 
L 250.783861 140.444429 
L 251.230708 140.444429 
L 251.677554 141.023394 
L 252.124401 141.023394 
L 252.571248 141.767244 
L 253.018095 141.597364 
L 253.464942 141.597364 
L 253.911789 142.166137 
L 254.358635 142.166137 
L 254.805482 142.729513 
L 255.252329 142.729513 
L 255.699176 143.287291 
L 256.146023 143.287291 
L 256.59287 143.839503 
L 257.039717 143.839503 
L 257.486563 144.385744 
L 257.93341 144.385744 
L 258.380257 144.925774 
L 258.827104 144.925774 
L 259.273951 145.610156 
L 259.720798 145.459394 
L 260.167645 145.459394 
L 260.614491 145.986367 
L 261.061338 145.986367 
L 261.508185 146.50656 
L 261.955032 146.50656 
L 262.401879 147.019749 
L 262.848726 147.019749 
L 263.295572 147.525846 
L 263.742419 147.525846 
L 264.189266 148.024582 
L 264.636113 148.024582 
L 265.08296 148.515347 
L 265.529807 148.515347 
L 265.976654 149.127969 
L 266.4235 148.998018 
L 266.870347 148.998018 
L 267.317194 149.472586 
L 267.764041 149.472586 
L 268.210888 149.938856 
L 268.657735 149.938856 
L 269.104581 150.39661 
L 269.551428 150.39661 
L 269.998275 150.845658 
L 270.445122 150.845658 
L 270.891969 151.285337 
L 271.338816 151.285337 
L 271.785663 151.715318 
L 272.232509 151.715318 
L 272.679356 152.243459 
L 273.57305 152.135915 
L 274.019897 152.546922 
L 274.466744 152.546922 
L 274.91359 152.947675 
L 275.360437 152.947675 
L 275.807284 153.337628 
L 276.254131 153.337628 
L 276.700978 153.717303 
L 277.147825 153.717303 
L 277.594672 154.086232 
L 278.041518 154.086232 
L 278.488365 154.443175 
L 278.935212 154.443175 
L 279.382059 154.872433 
L 279.828906 154.789159 
L 280.275753 155.202954 
L 281.169446 155.123283 
L 281.616293 155.444948 
L 282.06314 155.444948 
L 282.509987 155.754968 
L 282.956834 155.754968 
L 283.403681 156.051319 
L 283.850527 156.051319 
L 284.297374 156.335416 
L 284.744221 156.335416 
L 285.191068 156.605708 
L 285.637915 156.605708 
L 286.084762 156.920028 
L 286.531608 156.862771 
L 286.978455 157.158969 
L 287.872149 157.105565 
L 288.318996 157.334444 
L 288.765843 157.334444 
L 289.21269 157.548295 
L 289.659536 157.548295 
L 290.106383 157.747865 
L 290.55323 157.747865 
L 291.000077 157.931324 
L 291.446924 157.931324 
L 291.893771 158.100001 
L 292.340617 158.100001 
L 292.787464 158.25221 
L 293.234311 158.25221 
L 293.681158 158.413479 
L 294.574852 158.38827 
L 295.021699 158.508238 
L 296.362239 158.610191 
L 297.70278 158.762924 
L 304.852329 158.703576 
L 306.19287 158.504724 
L 306.639717 158.504724 
L 307.086563 158.335919 
L 307.980257 158.372751 
L 308.427104 158.218227 
L 308.873951 158.218227 
L 309.320798 158.040983 
L 309.767645 158.040983 
L 310.214491 157.840608 
L 310.661338 157.840608 
L 311.108185 157.616836 
L 311.555032 157.616836 
L 312.001879 157.368941 
L 312.448726 157.368941 
L 312.895572 157.096533 
L 313.342419 157.096533 
L 313.789266 156.728208 
L 314.68296 156.799053 
L 315.129807 156.476003 
L 315.576654 156.476003 
L 316.0235 156.126881 
L 316.470347 156.126881 
L 316.917194 155.751408 
L 317.364041 155.751408 
L 317.810888 155.348921 
L 318.257735 155.348921 
L 318.704581 154.918836 
L 319.151428 154.918836 
L 319.598275 154.460627 
L 320.045122 154.460627 
L 320.491969 153.866929 
L 321.385663 153.973759 
L 321.832509 153.45785 
L 322.279356 153.45785 
L 322.726203 152.912407 
L 323.17305 152.912407 
L 323.619897 152.336355 
L 324.066744 152.336355 
L 324.51359 151.729179 
L 324.960437 151.729179 
L 325.407284 151.090541 
L 325.854131 151.090541 
L 326.300978 150.420118 
L 326.747825 150.420118 
L 327.194672 149.572025 
L 327.641518 149.717202 
L 328.088365 149.717202 
L 328.535212 148.981084 
L 328.982059 148.981084 
L 329.428906 148.210994 
L 329.875753 148.210994 
L 330.322599 147.405832 
L 330.769446 147.405832 
L 331.216293 146.565879 
L 331.66314 146.565879 
L 332.109987 145.690218 
L 332.556834 145.690218 
L 333.003681 144.778209 
L 333.450527 144.778209 
L 333.897374 143.643335 
L 334.344221 143.828577 
L 334.791068 143.828577 
L 335.237915 142.841135 
L 335.684762 142.841135 
L 336.131608 141.815307 
L 336.578455 141.815307 
L 337.025302 140.750405 
L 337.472149 140.750405 
L 337.918996 139.644901 
L 338.365843 139.644901 
L 338.81269 138.498798 
L 339.259536 138.498798 
L 339.706383 137.311431 
L 340.15323 137.311431 
L 340.600077 135.854113 
L 341.046924 136.081808 
L 341.493771 136.081808 
L 341.940617 134.808369 
L 342.387464 134.808369 
L 342.834311 133.491617 
L 343.281158 133.491617 
L 343.728005 132.130496 
L 344.174852 132.130496 
L 344.621699 130.722734 
L 345.068545 130.722734 
L 345.515392 129.269158 
L 345.962239 129.269158 
L 346.409086 127.768793 
L 346.855933 127.768793 
L 347.30278 125.954929 
L 347.749626 126.227251 
L 348.196473 126.227251 
L 348.64332 124.689288 
L 349.090167 124.689288 
L 349.537014 123.16112 
L 349.983861 123.16112 
L 350.430708 121.642539 
L 350.877554 121.642539 
L 351.324401 120.133691 
L 351.771248 120.133691 
L 352.218095 118.635176 
L 352.664942 118.635176 
L 353.111789 117.146763 
L 353.558635 117.146763 
L 354.005482 115.34944 
L 354.452329 115.668532 
L 354.899176 113.874832 
L 355.346023 114.200903 
L 355.79287 114.200903 
L 356.239717 112.744012 
L 356.686563 112.744012 
L 357.13341 111.297749 
L 357.580257 111.297749 
L 358.027104 109.862382 
L 358.473951 109.862382 
L 358.920798 108.438365 
L 359.367645 108.438365 
L 359.814491 107.025424 
L 360.261338 107.025424 
L 360.708185 105.255684 
L 361.155032 105.623707 
L 361.601879 103.858329 
L 362.048726 104.233902 
L 362.495572 104.233902 
L 362.942419 102.855637 
L 363.389266 102.855637 
L 363.836113 101.489043 
L 364.28296 101.489043 
L 364.729807 100.134696 
L 365.176654 100.134696 
L 365.6235 98.792456 
L 366.070347 98.792456 
L 366.517194 97.462334 
L 366.964041 97.462334 
L 367.410888 95.725333 
L 367.857735 96.144798 
L 368.304581 94.412891 
L 368.751428 94.839928 
L 369.198275 94.839928 
L 369.645122 93.547621 
L 370.091969 93.547621 
L 370.538816 92.268249 
L 370.985663 92.268249 
L 371.432509 91.002088 
L 371.879356 91.002088 
L 372.326203 89.748932 
L 372.77305 89.748932 
L 373.219897 88.509055 
L 373.666744 88.509055 
L 374.11359 87.282932 
L 374.560437 87.282932 
L 375.007284 85.589562 
L 375.454131 86.070254 
L 375.900978 86.070254 
L 376.347825 84.871192 
L 376.794672 84.871192 
L 377.241518 83.686431 
L 377.688365 83.686431 
L 378.135212 82.515553 
L 378.582059 82.515553 
L 379.028906 81.358704 
L 379.475753 81.358704 
L 379.922599 80.21653 
L 380.369446 80.21653 
L 380.816293 79.088762 
L 381.26314 79.088762 
L 381.709987 77.43888 
L 382.156834 77.975455 
L 382.603681 77.975455 
L 383.050527 76.877131 
L 383.497374 76.877131 
L 383.944221 75.793773 
L 384.391068 75.793773 
L 384.837915 74.725306 
L 385.284762 74.725306 
L 385.731608 73.672103 
L 386.178455 73.672103 
L 386.625302 72.634435 
L 387.072149 72.634435 
L 387.518996 71.612083 
L 387.965843 71.612083 
L 388.41269 70.010487 
L 388.859536 70.605239 
L 389.306383 70.605239 
L 389.75323 69.614526 
L 390.200077 69.614526 
L 390.646924 68.639549 
L 391.093771 68.639549 
L 391.540617 67.680448 
L 391.987464 67.680448 
L 392.434311 66.737788 
L 392.881158 66.737788 
L 393.328005 65.811435 
L 393.774852 65.811435 
L 394.221699 64.901372 
L 394.668545 64.901372 
L 395.115392 63.352666 
L 395.562239 64.007906 
L 396.009086 64.007906 
L 396.455933 63.131407 
L 396.90278 63.131407 
L 397.349626 62.271604 
L 397.796473 62.271604 
L 398.24332 61.428632 
L 398.690167 61.428632 
L 399.137014 60.603059 
L 399.583861 60.603059 
L 400.030708 59.794714 
L 400.477554 59.794714 
L 400.924401 59.003598 
L 401.371248 59.003598 
L 401.818095 57.512161 
L 402.264942 58.229894 
L 402.711789 58.229894 
L 403.158635 57.466156 
L 403.605482 57.466156 
L 404.052329 56.70945 
L 404.499176 56.70945 
L 404.946023 55.959838 
L 405.39287 55.959838 
L 405.839717 55.217383 
L 406.286563 55.217383 
L 406.73341 54.482148 
L 407.180257 54.482148 
L 407.627104 53.754192 
L 408.073951 53.754192 
L 408.520798 52.324141 
L 408.967645 53.033577 
L 409.414491 53.033577 
L 409.861338 52.320361 
L 410.308185 52.320361 
L 410.755032 51.614603 
L 411.201879 51.614603 
L 411.648726 50.916359 
L 412.095572 50.916359 
L 412.542419 50.225688 
L 412.989266 50.225688 
L 413.436113 49.542643 
L 413.88296 49.542643 
L 414.329807 48.867281 
L 414.776654 48.867281 
L 415.2235 47.502449 
L 415.670347 48.199655 
L 416.117194 48.199655 
L 416.564041 47.539817 
L 417.010888 47.539817 
L 417.457735 46.887821 
L 417.904581 46.887821 
L 418.351428 46.243716 
L 418.798275 46.243716 
L 419.245122 45.607555 
L 419.691969 45.607555 
L 420.138816 44.979385 
L 420.585663 44.979385 
L 421.032509 44.359256 
L 421.479356 44.359256 
L 421.926203 43.06316 
L 422.37305 43.747215 
L 422.819897 43.747215 
L 423.266744 43.143308 
L 423.71359 43.143308 
L 424.160437 42.547582 
L 424.607284 42.547582 
L 425.054131 41.960081 
L 425.500978 41.960081 
L 425.947825 41.380847 
L 426.394672 41.380847 
L 426.841518 40.809925 
L 427.288365 40.809925 
L 427.735212 40.247355 
L 428.182059 40.247355 
L 428.628906 39.023182 
L 429.075753 39.693179 
L 429.522599 39.693179 
L 429.969446 39.147436 
L 430.416293 39.147436 
L 430.86314 38.610164 
L 431.309987 38.610164 
L 431.756834 38.081402 
L 432.203681 38.081402 
L 432.650527 37.561187 
L 433.097374 37.561187 
L 433.544221 37.049553 
L 433.991068 37.049553 
L 434.437915 36.546537 
L 434.884762 36.546537 
L 435.331608 35.397117 
L 435.778455 36.052171 
L 436.225302 34.913641 
L 436.672149 35.566489 
L 437.118996 35.566489 
L 437.565843 35.089521 
L 438.01269 35.089521 
L 438.459536 34.6213 
L 438.906383 34.6213 
L 439.35323 34.161854 
L 439.800077 34.161854 
L 440.246924 33.711213 
L 440.693771 33.711213 
L 441.140617 33.269403 
L 441.587464 33.269403 
L 442.034311 32.197207 
L 442.481158 32.836452 
L 442.928005 31.775467 
L 443.374852 32.412385 
L 443.821699 32.412385 
L 444.268545 31.997226 
L 444.715392 31.997226 
L 445.162239 31.590999 
L 445.609086 31.590999 
L 446.055933 31.193727 
L 446.50278 31.193727 
L 446.949626 30.805431 
L 447.396473 30.805431 
L 447.84332 30.426132 
L 448.290167 30.426132 
L 448.737014 29.433251 
L 449.183861 30.055849 
L 449.630708 29.074448 
L 450.077554 29.6946 
L 450.524401 29.6946 
L 450.971248 29.342404 
L 451.418095 29.342404 
L 451.864942 28.999275 
L 452.311789 28.999275 
L 452.758635 28.665231 
L 453.205482 28.665231 
L 453.652329 28.340284 
L 454.099176 28.340284 
L 454.546023 28.024448 
L 454.99287 28.024448 
L 455.439717 27.717735 
L 455.886563 27.717735 
L 456.33341 26.817579 
L 456.780257 27.420157 
L 457.227104 27.420157 
L 457.673951 27.131724 
L 458.120798 27.131724 
L 458.567645 26.852445 
L 459.014491 26.852445 
L 459.461338 26.582328 
L 459.908185 26.582328 
L 460.355032 26.321381 
L 460.801879 26.321381 
L 461.248726 26.069609 
L 461.695572 26.069609 
L 462.142419 25.827018 
L 462.589266 25.827018 
L 463.036113 25.009386 
L 463.48296 25.593612 
L 463.929807 25.593612 
L 464.376654 25.369395 
L 464.8235 25.369395 
L 465.270347 25.154368 
L 465.717194 25.154368 
L 466.164041 24.948533 
L 466.610888 24.948533 
L 467.057735 24.751891 
L 467.504581 24.751891 
L 467.951428 24.56444 
L 468.398275 24.56444 
L 468.845122 24.386178 
L 469.291969 24.386178 
L 469.738816 23.651975 
L 470.185663 24.217104 
L 470.632509 24.217104 
L 471.079356 24.057214 
L 471.526203 24.057214 
L 471.97305 23.906503 
L 472.419897 23.906503 
L 472.866744 23.764966 
L 473.31359 23.764966 
L 473.760437 23.632596 
L 474.207284 23.632596 
L 474.654131 23.509387 
L 475.100978 23.509387 
L 475.994672 23.395328 
L 476.441518 22.745089 
L 476.888365 23.290412 
L 478.228906 23.194628 
L 479.569446 23.030409 
L 480.909987 22.96195 
L 482.250527 22.852262 
L 482.697374 22.852262 
L 483.144221 22.286162 
L 483.591068 22.811004 
L 489.400077 22.752565 
L 489.846924 22.270434 
L 490.293771 22.774162 
L 492.528005 22.844022 
L 494.762239 23.015119 
L 496.10278 23.089733 
L 496.549626 22.69107 
L 496.996473 23.173093 
L 498.337014 23.265171 
L 499.677554 23.475367 
L 500.124401 23.475367 
L 500.571248 23.593426 
L 501.018095 23.593426 
L 501.464942 23.720084 
L 501.911789 23.720084 
L 502.358635 23.85531 
L 502.805482 23.85531 
L 503.252329 23.539306 
L 503.699176 23.999072 
L 504.146023 23.999072 
L 504.59287 24.151337 
L 505.039717 24.151337 
L 505.486563 24.312072 
L 505.93341 24.312072 
L 506.380257 24.481242 
L 506.827104 24.481242 
L 507.273951 24.658811 
L 507.720798 24.658811 
L 508.167645 24.844744 
L 508.614491 24.844744 
L 509.061338 25.039005 
L 509.508185 25.039005 
L 509.955032 24.804556 
L 510.401879 25.241558 
L 510.848726 25.241558 
L 511.295572 25.452363 
L 511.742419 25.452363 
L 512.189266 25.671385 
L 512.636113 25.671385 
L 513.08296 25.898583 
L 513.529807 25.898583 
L 513.976654 26.133919 
L 514.4235 26.133919 
L 514.870347 26.377352 
L 515.317194 26.377352 
L 515.764041 26.628843 
L 516.210888 26.628843 
L 516.657735 26.474574 
L 517.104581 26.888351 
L 517.551428 26.74541 
L 517.998275 27.155833 
L 518.445122 27.155833 
L 518.891969 27.431249 
L 519.338816 27.431249 
L 519.785663 27.714555 
L 520.232509 27.714555 
L 520.679356 28.005709 
L 521.126203 28.005709 
L 521.57305 28.304667 
L 522.019897 28.304667 
L 522.466744 28.611384 
L 522.466744 28.611384 
" style="fill:none;stroke:#0571a3;stroke-linecap:round;stroke-width:5;"/>
   </g>
   <g id="patch_3">
    <path d="M 76.066744 279 
L 76.066744 7.2 
" style="fill:none;stroke:#cccccc;stroke-linecap:square;stroke-linejoin:miter;"/>
   </g>
   <g id="patch_4">
    <path d="M 522.466744 279 
L 522.466744 7.2 
" style="fill:none;stroke:#cccccc;stroke-linecap:square;stroke-linejoin:miter;"/>
   </g>
   <g id="patch_5">
    <path d="M 76.066744 279 
L 522.466744 279 
" style="fill:none;stroke:#cccccc;stroke-linecap:square;stroke-linejoin:miter;"/>
   </g>
   <g id="patch_6">
    <path d="M 76.066744 7.2 
L 522.466744 7.2 
" style="fill:none;stroke:#cccccc;stroke-linecap:square;stroke-linejoin:miter;"/>
   </g>
  </g>
 </g>
 <defs>
  <clipPath id="p2339370bd6">
   <rect height="271.8" width="446.4" x="76.066744" y="7.2"/>
  </clipPath>
 </defs>
</svg>
