<?xml version="1.0" encoding="utf-8" standalone="no"?>
<!DOCTYPE svg PUBLIC "-//W3C//DTD SVG 1.1//EN"
  "http://www.w3.org/Graphics/SVG/1.1/DTD/svg11.dtd">
<!-- Created with matplotlib (https://matplotlib.org/) -->
<svg height="398.504402pt" version="1.1" viewBox="0 0 513.853813 398.504402" width="513.853813pt" xmlns="http://www.w3.org/2000/svg" xmlns:xlink="http://www.w3.org/1999/xlink">
 <defs>
  <style type="text/css">
*{stroke-linecap:butt;stroke-linejoin:round;}
  </style>
 </defs>
 <g id="figure_1">
  <g id="patch_1">
   <path d="M 0 398.504402 
L 513.853813 398.504402 
L 513.853813 0 
L 0 0 
z
" style="fill:#ffffff;"/>
  </g>
  <g id="axes_1">
   <g id="patch_2">
    <path d="M 60.253813 351.315168 
L 506.653813 351.315168 
L 506.653813 25.155168 
L 60.253813 25.155168 
z
" style="fill:#ffffff;"/>
   </g>
   <g id="matplotlib.axis_1">
    <g id="xtick_1">
     <g id="line2d_1">
      <path clip-path="url(#p2c8e6878b3)" d="M 80.544722 351.315168 
L 80.544722 25.155168 
" style="fill:none;stroke:#cccccc;stroke-linecap:round;stroke-width:0.8;"/>
     </g>
     <g id="line2d_2"/>
     <g id="text_1">
      <!-- $0$ -->
      <defs>
       <path d="M 42 31.640625 
C 42 37.75 41.90625 48.125 37.703125 56.109375 
C 34 63.109375 28.09375 65.59375 22.90625 65.59375 
C 18.09375 65.59375 12 63.40625 8.203125 56.203125 
C 4.203125 48.71875 3.796875 39.4375 3.796875 31.640625 
C 3.796875 25.953125 3.90625 17.28125 7 9.671875 
C 11.296875 -0.609375 19 -2 22.90625 -2 
C 27.5 -2 34.5 -0.109375 38.59375 9.375 
C 41.59375 16.28125 42 24.359375 42 31.640625 
z
M 22.90625 -0.40625 
C 16.5 -0.40625 12.703125 5.078125 11.296875 12.6875 
C 10.203125 18.5625 10.203125 27.15625 10.203125 32.75 
C 10.203125 40.4375 10.203125 46.828125 11.5 52.921875 
C 13.40625 61.390625 19 64 22.90625 64 
C 27 64 32.296875 61.296875 34.203125 53.125 
C 35.5 47.4375 35.59375 40.734375 35.59375 32.75 
C 35.59375 26.25 35.59375 18.265625 34.40625 12.375 
C 32.296875 1.484375 26.40625 -0.40625 22.90625 -0.40625 
z
" id="CMR17-48"/>
      </defs>
      <g style="fill:#262626;" transform="translate(76.59707 366.770336)scale(0.1728 -0.1728)">
       <use transform="scale(0.996264)" xlink:href="#CMR17-48"/>
      </g>
     </g>
    </g>
    <g id="xtick_2">
     <g id="line2d_3">
      <path clip-path="url(#p2c8e6878b3)" d="M 148.181086 351.315168 
L 148.181086 25.155168 
" style="fill:none;stroke:#cccccc;stroke-linecap:round;stroke-width:0.8;"/>
     </g>
     <g id="line2d_4"/>
     <g id="text_2">
      <!-- $50$ -->
      <defs>
       <path d="M 11.40625 57.6875 
C 12.40625 57.28125 16.5 56 20.703125 56 
C 30 56 35.09375 61.109375 38 64.0625 
C 38 64.953125 38 65.5 37.40625 65.5 
C 37.296875 65.5 37.09375 65.5 36.296875 65.046875 
C 32.796875 63.40625 28.703125 62.078125 23.703125 62.078125 
C 20.703125 62.078125 16.203125 62.484375 11.296875 64.671875 
C 10.203125 65.171875 10 65.171875 9.90625 65.171875 
C 9.40625 65.171875 9.296875 65.0625 9.296875 63.078125 
L 9.296875 34.421875 
C 9.296875 32.640625 9.296875 32.140625 10.296875 32.140625 
C 10.796875 32.140625 11 32.34375 11.5 33.03125 
C 14.703125 37.515625 19.09375 39.40625 24.09375 39.40625 
C 27.59375 39.40625 35.09375 37.21875 35.09375 20.140625 
C 35.09375 16.953125 35.09375 11.171875 32.09375 6.578125 
C 29.59375 2.484375 25.703125 0.390625 21.40625 0.390625 
C 14.796875 0.390625 8.09375 5 6.296875 12.71875 
C 6.703125 12.609375 7.5 12.421875 7.90625 12.421875 
C 9.203125 12.421875 11.703125 13.125 11.703125 16.21875 
C 11.703125 18.90625 9.796875 20 7.90625 20 
C 5.59375 20 4.09375 18.59375 4.09375 15.796875 
C 4.09375 7.09375 11 -2 21.59375 -2 
C 31.90625 -2 41.703125 6.875 41.703125 19.75 
C 41.703125 31.71875 33.90625 41 24.203125 41 
C 19.09375 41 14.796875 39.109375 11.40625 35.53125 
z
" id="CMR17-53"/>
      </defs>
      <g style="fill:#262626;" transform="translate(140.285782 366.770336)scale(0.1728 -0.1728)">
       <use transform="scale(0.996264)" xlink:href="#CMR17-53"/>
       <use transform="translate(45.690477 0)scale(0.996264)" xlink:href="#CMR17-48"/>
      </g>
     </g>
    </g>
    <g id="xtick_3">
     <g id="line2d_5">
      <path clip-path="url(#p2c8e6878b3)" d="M 215.817449 351.315168 
L 215.817449 25.155168 
" style="fill:none;stroke:#cccccc;stroke-linecap:round;stroke-width:0.8;"/>
     </g>
     <g id="line2d_6"/>
     <g id="text_3">
      <!-- $100$ -->
      <defs>
       <path d="M 26.59375 63.40625 
C 26.59375 65.5 26.5 65.5 25.09375 65.5 
C 21.203125 61.1875 15.296875 59.796875 9.703125 59.796875 
C 9.40625 59.796875 8.90625 59.796875 8.796875 59.5 
C 8.703125 59.296875 8.703125 59.09375 8.703125 57 
C 11.796875 57 17 57.59375 21 59.984375 
L 21 7.203125 
C 21 3.6875 20.796875 2.5 12.203125 2.5 
L 9.203125 2.5 
L 9.203125 0 
C 14 0 19 0 23.796875 0 
C 28.59375 0 33.59375 0 38.40625 0 
L 38.40625 2.5 
L 35.40625 2.5 
C 26.796875 2.5 26.59375 3.59375 26.59375 7.15625 
z
" id="CMR17-49"/>
      </defs>
      <g style="fill:#262626;" transform="translate(203.974493 366.770336)scale(0.1728 -0.1728)">
       <use transform="scale(0.996264)" xlink:href="#CMR17-49"/>
       <use transform="translate(45.690477 0)scale(0.996264)" xlink:href="#CMR17-48"/>
       <use transform="translate(91.380954 0)scale(0.996264)" xlink:href="#CMR17-48"/>
      </g>
     </g>
    </g>
    <g id="xtick_4">
     <g id="line2d_7">
      <path clip-path="url(#p2c8e6878b3)" d="M 283.453813 351.315168 
L 283.453813 25.155168 
" style="fill:none;stroke:#cccccc;stroke-linecap:round;stroke-width:0.8;"/>
     </g>
     <g id="line2d_8"/>
     <g id="text_4">
      <!-- $150$ -->
      <g style="fill:#262626;" transform="translate(271.610857 366.770336)scale(0.1728 -0.1728)">
       <use transform="scale(0.996264)" xlink:href="#CMR17-49"/>
       <use transform="translate(45.690477 0)scale(0.996264)" xlink:href="#CMR17-53"/>
       <use transform="translate(91.380954 0)scale(0.996264)" xlink:href="#CMR17-48"/>
      </g>
     </g>
    </g>
    <g id="xtick_5">
     <g id="line2d_9">
      <path clip-path="url(#p2c8e6878b3)" d="M 351.090177 351.315168 
L 351.090177 25.155168 
" style="fill:none;stroke:#cccccc;stroke-linecap:round;stroke-width:0.8;"/>
     </g>
     <g id="line2d_10"/>
     <g id="text_5">
      <!-- $200$ -->
      <defs>
       <path d="M 41.703125 15.453125 
L 39.90625 15.453125 
C 38.90625 8.375 38.09375 7.171875 37.703125 6.5625 
C 37.203125 5.765625 30 5.765625 28.59375 5.765625 
L 9.40625 5.765625 
C 13 9.671875 20 16.75 28.5 24.953125 
C 34.59375 30.734375 41.703125 37.53125 41.703125 47.421875 
C 41.703125 59.21875 32.296875 66 21.796875 66 
C 10.796875 66 4.09375 56.3125 4.09375 47.34375 
C 4.09375 43.4375 7 42.9375 8.203125 42.9375 
C 9.203125 42.9375 12.203125 43.546875 12.203125 47.03125 
C 12.203125 50.109375 9.59375 51 8.203125 51 
C 7.59375 51 7 50.90625 6.59375 50.703125 
C 8.5 59.21875 14.296875 63.40625 20.40625 63.40625 
C 29.09375 63.40625 34.796875 56.515625 34.796875 47.421875 
C 34.796875 38.734375 29.703125 31.25 24 24.75 
L 4.09375 2.28125 
L 4.09375 0 
L 39.296875 0 
z
" id="CMR17-50"/>
      </defs>
      <g style="fill:#262626;" transform="translate(339.247221 366.770336)scale(0.1728 -0.1728)">
       <use transform="scale(0.996264)" xlink:href="#CMR17-50"/>
       <use transform="translate(45.690477 0)scale(0.996264)" xlink:href="#CMR17-48"/>
       <use transform="translate(91.380954 0)scale(0.996264)" xlink:href="#CMR17-48"/>
      </g>
     </g>
    </g>
    <g id="xtick_6">
     <g id="line2d_11">
      <path clip-path="url(#p2c8e6878b3)" d="M 418.72654 351.315168 
L 418.72654 25.155168 
" style="fill:none;stroke:#cccccc;stroke-linecap:round;stroke-width:0.8;"/>
     </g>
     <g id="line2d_12"/>
     <g id="text_6">
      <!-- $250$ -->
      <g style="fill:#262626;" transform="translate(406.883584 366.770336)scale(0.1728 -0.1728)">
       <use transform="scale(0.996264)" xlink:href="#CMR17-50"/>
       <use transform="translate(45.690477 0)scale(0.996264)" xlink:href="#CMR17-53"/>
       <use transform="translate(91.380954 0)scale(0.996264)" xlink:href="#CMR17-48"/>
      </g>
     </g>
    </g>
    <g id="xtick_7">
     <g id="line2d_13">
      <path clip-path="url(#p2c8e6878b3)" d="M 486.362904 351.315168 
L 486.362904 25.155168 
" style="fill:none;stroke:#cccccc;stroke-linecap:round;stroke-width:0.8;"/>
     </g>
     <g id="line2d_14"/>
     <g id="text_7">
      <!-- $300$ -->
      <defs>
       <path d="M 22.09375 33.703125 
C 31 33.703125 34.90625 25.96875 34.90625 17.03125 
C 34.90625 5 28.5 0.390625 22.703125 0.390625 
C 17.40625 0.390625 8.796875 3.03125 6.09375 10.828125 
C 6.59375 10.625 7.09375 10.625 7.59375 10.625 
C 10 10.625 11.796875 12.21875 11.796875 14.8125 
C 11.796875 17.703125 9.59375 19 7.59375 19 
C 5.90625 19 3.296875 18.203125 3.296875 14.46875 
C 3.296875 5.234375 12.296875 -2 22.90625 -2 
C 34 -2 42.5 6.71875 42.5 16.953125 
C 42.5 26.671875 34.5 33.703125 25 34.796875 
C 32.59375 36.375 39.90625 43.0625 39.90625 52.015625 
C 39.90625 59.6875 32 65.296875 23 65.296875 
C 13.90625 65.296875 5.90625 59.828125 5.90625 52.015625 
C 5.90625 48.59375 8.5 48 9.796875 48 
C 11.90625 48 13.703125 49.296875 13.703125 51.890625 
C 13.703125 54.46875 11.90625 55.765625 9.796875 55.765625 
C 9.40625 55.765625 8.90625 55.765625 8.5 55.578125 
C 11.40625 61.859375 19.296875 63 22.796875 63 
C 26.296875 63 32.90625 61.328125 32.90625 51.875 
C 32.90625 49.109375 32.5 44.1875 29.09375 39.84375 
C 26.09375 36 22.703125 36 19.40625 35.6875 
C 18.90625 35.6875 16.59375 35.453125 16.203125 35.453125 
C 15.5 35.359375 15.09375 35.265625 15.09375 34.5 
C 15.09375 33.796875 15.203125 33.703125 17.203125 33.703125 
z
" id="CMR17-51"/>
      </defs>
      <g style="fill:#262626;" transform="translate(474.519948 366.770336)scale(0.1728 -0.1728)">
       <use transform="scale(0.996264)" xlink:href="#CMR17-51"/>
       <use transform="translate(45.690477 0)scale(0.996264)" xlink:href="#CMR17-48"/>
       <use transform="translate(91.380954 0)scale(0.996264)" xlink:href="#CMR17-48"/>
      </g>
     </g>
    </g>
    <g id="text_8">
     <!-- time (days) -->
     <defs>
      <path d="M 16.703125 37 
L 29.703125 37 
L 29.703125 42.765625 
L 16.703125 42.765625 
L 16.703125 55 
L 9.59375 55 
L 9.59375 42.765625 
L 1.703125 42.765625 
L 1.703125 37 
L 9.40625 37 
L 9.40625 11.703125 
C 9.40625 6 10.703125 -1 17.296875 -1 
C 22.296875 -1 26.90625 0.390625 31.296875 2.6875 
L 29.703125 8.5625 
C 27.296875 6.46875 24.40625 5.265625 21.296875 5.265625 
C 16.90625 5.265625 16.703125 10.875 16.703125 13.375 
z
" id="CMSS17-116"/>
      <path d="M 15.296875 65.359375 
L 6.90625 65.359375 
L 6.90625 57 
L 15.296875 57 
z
M 14.796875 42.796875 
L 7.40625 42.796875 
L 7.40625 0 
L 14.796875 0 
z
" id="CMSS17-105"/>
      <path d="M 67 29.328125 
C 67 36.0625 65.296875 44 54.09375 44 
C 46.59375 44 42.09375 39.3125 40.09375 36.421875 
C 38.296875 41.71875 34.09375 44 28.09375 44 
C 21.296875 44 17 40.125 14.703125 37.328125 
L 14.703125 43.09375 
L 7.40625 43.09375 
L 7.40625 0 
L 15 0 
L 15 24.359375 
C 15 30.296875 17.203125 37.9375 24.296875 37.9375 
C 33.40625 37.9375 33.40625 31.5 33.40625 28.578125 
L 33.40625 0 
L 41 0 
L 41 24.359375 
C 41 30.296875 43.203125 37.9375 50.296875 37.9375 
C 59.40625 37.9375 59.40625 31.5 59.40625 28.578125 
L 59.40625 0 
L 67 0 
z
" id="CMSS17-109"/>
      <path d="M 39.09375 21.515625 
C 39.09375 24.84375 38.90625 31.296875 35.703125 36.640625 
C 32.203125 42.390625 26.5 44 22.203125 44 
C 11.796875 44 3 34.1875 3 21.484375 
C 3 9.09375 12.09375 -1 23.59375 -1 
C 28.09375 -1 33.59375 0.296875 38.59375 3.875 
C 38.59375 4.28125 38.40625 6.46875 38.296875 6.5625 
C 38.296875 6.765625 38 9.84375 38 10.25 
C 33.203125 6.359375 27.703125 5.078125 23.703125 5.078125 
C 17.296875 5.078125 10.40625 10.421875 10.09375 21.515625 
z
M 10.90625 27 
C 12.203125 32.5625 16.59375 37.828125 22.203125 37.828125 
C 23.703125 37.828125 30.703125 37.828125 32.5 27 
z
" id="CMSS17-101"/>
      <path d="M 25.203125 74.5 
C 19.796875 69.015625 7.40625 56.265625 7.40625 24.8125 
C 7.40625 -6.765625 19.796875 -19.421875 25.203125 -25 
L 31.296875 -25 
C 19 -12.25 15 5.578125 15 24.703125 
C 15 43.71875 18.796875 61.65625 31.296875 74.5 
z
" id="CMSS17-40"/>
      <path d="M 40.796875 69 
L 33.40625 69 
L 33.40625 38.09375 
C 30.296875 40.671875 25.203125 43.0625 19.59375 43.0625 
C 10.5 43.0625 3.296875 33.296875 3.296875 21.046875 
C 3.296875 8.78125 10.40625 -1 19.296875 -1 
C 26.203125 -1 30.796875 2.6875 33.203125 4.78125 
L 33.203125 -0.203125 
L 40.796875 -0.203125 
z
M 33.203125 13.0625 
C 33.203125 11.671875 33.203125 10.203125 30.09375 7.53125 
C 28.09375 5.859375 25.703125 5.078125 23.40625 5.078125 
C 18 5.078125 10.90625 9 10.90625 20.9375 
C 10.90625 33.34375 18.90625 37 24.40625 37 
C 28.09375 37 31.09375 35.21875 33.203125 32.265625 
z
" id="CMSS17-100"/>
      <path d="M 37.59375 27.984375 
C 37.59375 37.375 30.90625 43.875 21.90625 43.875 
C 17.5 43.875 12.703125 43.078125 7.203125 39.890625 
L 7.796875 33.359375 
C 10.296875 35.125 14.59375 38 21.796875 38 
C 26.90625 38 30 34.0625 30 27.84375 
L 30 24 
C 14 24 4 19.34375 4 11.34375 
C 4 7.203125 6.5 -1 14.796875 -1 
C 16.296875 -1 24.40625 -1 30.203125 3.390625 
L 30.203125 -0.296875 
L 37.59375 -0.296875 
z
M 30 12.75 
C 30 10.953125 30 8.5625 27 6.78125 
C 24.40625 5.078125 21.09375 5.078125 19.703125 5.078125 
C 14.703125 5.078125 11.296875 7.984375 11.296875 11.625 
C 11.296875 18.921875 26.90625 18.921875 30 18.921875 
z
" id="CMSS17-97"/>
      <path d="M 41.796875 43 
L 34 43 
C 25.5 20.21875 22.59375 10.96875 22.40625 5.984375 
L 22.296875 5.984375 
C 22 10.875 17.59375 22.8125 14.09375 31.359375 
L 9.40625 43 
L 1.296875 43 
L 19 0.203125 
C 17.90625 -2.78125 16.296875 -7.265625 15.796875 -8.265625 
C 13.59375 -13.828125 12.09375 -13.828125 10.5 -13.828125 
C 10.09375 -13.828125 6.90625 -13.828125 3.296875 -12.640625 
L 3.90625 -19.203125 
C 6.40625 -19.703125 8.90625 -20 10.703125 -20 
C 13.203125 -20 18.203125 -20 22.796875 -7.765625 
z
" id="CMSS17-121"/>
      <path d="M 32.203125 41.046875 
C 26.296875 43.859375 21.703125 43.859375 18.703125 43.859375 
C 11.59375 43.859375 3.09375 41.375 3.09375 31.296875 
C 3.09375 21.234375 14.09375 19.03125 17.09375 18.421875 
C 21.703125 17.53125 26.796875 16.53125 26.796875 11.5625 
C 26.796875 5.265625 19.59375 5.265625 18.296875 5.265625 
C 14.296875 5.265625 8.796875 6.359375 3.796875 9.96875 
L 2.59375 3.28125 
C 8.296875 0 13.796875 -1 18.40625 -1 
C 30.703125 -1 33.796875 6.5 33.796875 12.203125 
C 33.796875 17.09375 31 20.390625 29.09375 21.890625 
C 25.796875 24.5 24.59375 24.796875 16.40625 26.5 
C 15 26.703125 10.09375 27.796875 10.09375 32.28125 
C 10.09375 38 16.40625 38 17.796875 38 
C 24.296875 38 28.296875 35.984375 31 34.5 
z
" id="CMSS17-115"/>
      <path d="M 11.296875 -25 
C 16.703125 -19.515625 29.09375 -6.765625 29.09375 24.703125 
C 29.09375 56.265625 16.703125 68.921875 11.296875 74.5 
L 5.203125 74.5 
C 17.5 61.75 21.5 43.921875 21.5 24.8125 
C 21.5 5.78125 17.703125 -12.15625 5.203125 -25 
z
" id="CMSS17-41"/>
     </defs>
     <g style="fill:#262626;" transform="translate(244.969961 387.014946)scale(0.1728 -0.1728)">
      <use transform="scale(0.996264)" xlink:href="#CMSS17-116"/>
      <use transform="translate(33.831567 0)scale(0.996264)" xlink:href="#CMSS17-105"/>
      <use transform="translate(56.01229 0)scale(0.996264)" xlink:href="#CMSS17-109"/>
      <use transform="translate(130.241544 0)scale(0.996264)" xlink:href="#CMSS17-101"/>
      <use transform="translate(203.109479 0)scale(0.996264)" xlink:href="#CMSS17-40"/>
      <use transform="translate(239.543393 0)scale(0.996264)" xlink:href="#CMSS17-100"/>
      <use transform="translate(287.748336 0)scale(0.996264)" xlink:href="#CMSS17-97"/>
      <use transform="translate(330.067803 0)scale(0.996264)" xlink:href="#CMSS17-121"/>
      <use transform="translate(373.067945 0)scale(0.996264)" xlink:href="#CMSS17-115"/>
      <use transform="translate(408.981487 0)scale(0.996264)" xlink:href="#CMSS17-41"/>
     </g>
    </g>
   </g>
   <g id="matplotlib.axis_2">
    <g id="ytick_1">
     <g id="line2d_15">
      <path clip-path="url(#p2c8e6878b3)" d="M 60.253813 336.4907 
L 506.653813 336.4907 
" style="fill:none;stroke:#cccccc;stroke-linecap:round;stroke-width:0.8;"/>
     </g>
     <g id="line2d_16"/>
     <g id="text_9">
      <!-- $0.00$ -->
      <defs>
       <path d="M 18.40625 4.796875 
C 18.40625 7.6875 16 9.671875 13.59375 9.671875 
C 10.703125 9.671875 8.703125 7.28125 8.703125 4.890625 
C 8.703125 2 11.09375 0 13.5 0 
C 16.40625 0 18.40625 2.390625 18.40625 4.796875 
z
" id="CMMI12-58"/>
      </defs>
      <g style="fill:#262626;" transform="translate(28.385524 342.468284)scale(0.1728 -0.1728)">
       <use transform="scale(0.996264)" xlink:href="#CMR17-48"/>
       <use transform="translate(45.690477 0)scale(0.996264)" xlink:href="#CMMI12-58"/>
       <use transform="translate(72.787654 0)scale(0.996264)" xlink:href="#CMR17-48"/>
       <use transform="translate(118.478131 0)scale(0.996264)" xlink:href="#CMR17-48"/>
      </g>
     </g>
    </g>
    <g id="ytick_2">
     <g id="line2d_17">
      <path clip-path="url(#p2c8e6878b3)" d="M 60.253813 287.148421 
L 506.653813 287.148421 
" style="fill:none;stroke:#cccccc;stroke-linecap:round;stroke-width:0.8;"/>
     </g>
     <g id="line2d_18"/>
     <g id="text_10">
      <!-- $0.05$ -->
      <g style="fill:#262626;" transform="translate(28.385524 293.126005)scale(0.1728 -0.1728)">
       <use transform="scale(0.996264)" xlink:href="#CMR17-48"/>
       <use transform="translate(45.690477 0)scale(0.996264)" xlink:href="#CMMI12-58"/>
       <use transform="translate(72.787654 0)scale(0.996264)" xlink:href="#CMR17-48"/>
       <use transform="translate(118.478131 0)scale(0.996264)" xlink:href="#CMR17-53"/>
      </g>
     </g>
    </g>
    <g id="ytick_3">
     <g id="line2d_19">
      <path clip-path="url(#p2c8e6878b3)" d="M 60.253813 237.806142 
L 506.653813 237.806142 
" style="fill:none;stroke:#cccccc;stroke-linecap:round;stroke-width:0.8;"/>
     </g>
     <g id="line2d_20"/>
     <g id="text_11">
      <!-- $0.10$ -->
      <g style="fill:#262626;" transform="translate(28.385524 243.783726)scale(0.1728 -0.1728)">
       <use transform="scale(0.996264)" xlink:href="#CMR17-48"/>
       <use transform="translate(45.690477 0)scale(0.996264)" xlink:href="#CMMI12-58"/>
       <use transform="translate(72.787654 0)scale(0.996264)" xlink:href="#CMR17-49"/>
       <use transform="translate(118.478131 0)scale(0.996264)" xlink:href="#CMR17-48"/>
      </g>
     </g>
    </g>
    <g id="ytick_4">
     <g id="line2d_21">
      <path clip-path="url(#p2c8e6878b3)" d="M 60.253813 188.463863 
L 506.653813 188.463863 
" style="fill:none;stroke:#cccccc;stroke-linecap:round;stroke-width:0.8;"/>
     </g>
     <g id="line2d_22"/>
     <g id="text_12">
      <!-- $0.15$ -->
      <g style="fill:#262626;" transform="translate(28.385524 194.441447)scale(0.1728 -0.1728)">
       <use transform="scale(0.996264)" xlink:href="#CMR17-48"/>
       <use transform="translate(45.690477 0)scale(0.996264)" xlink:href="#CMMI12-58"/>
       <use transform="translate(72.787654 0)scale(0.996264)" xlink:href="#CMR17-49"/>
       <use transform="translate(118.478131 0)scale(0.996264)" xlink:href="#CMR17-53"/>
      </g>
     </g>
    </g>
    <g id="ytick_5">
     <g id="line2d_23">
      <path clip-path="url(#p2c8e6878b3)" d="M 60.253813 139.121584 
L 506.653813 139.121584 
" style="fill:none;stroke:#cccccc;stroke-linecap:round;stroke-width:0.8;"/>
     </g>
     <g id="line2d_24"/>
     <g id="text_13">
      <!-- $0.20$ -->
      <g style="fill:#262626;" transform="translate(28.385524 145.099168)scale(0.1728 -0.1728)">
       <use transform="scale(0.996264)" xlink:href="#CMR17-48"/>
       <use transform="translate(45.690477 0)scale(0.996264)" xlink:href="#CMMI12-58"/>
       <use transform="translate(72.787654 0)scale(0.996264)" xlink:href="#CMR17-50"/>
       <use transform="translate(118.478131 0)scale(0.996264)" xlink:href="#CMR17-48"/>
      </g>
     </g>
    </g>
    <g id="ytick_6">
     <g id="line2d_25">
      <path clip-path="url(#p2c8e6878b3)" d="M 60.253813 89.779305 
L 506.653813 89.779305 
" style="fill:none;stroke:#cccccc;stroke-linecap:round;stroke-width:0.8;"/>
     </g>
     <g id="line2d_26"/>
     <g id="text_14">
      <!-- $0.25$ -->
      <g style="fill:#262626;" transform="translate(28.385524 95.756889)scale(0.1728 -0.1728)">
       <use transform="scale(0.996264)" xlink:href="#CMR17-48"/>
       <use transform="translate(45.690477 0)scale(0.996264)" xlink:href="#CMMI12-58"/>
       <use transform="translate(72.787654 0)scale(0.996264)" xlink:href="#CMR17-50"/>
       <use transform="translate(118.478131 0)scale(0.996264)" xlink:href="#CMR17-53"/>
      </g>
     </g>
    </g>
    <g id="ytick_7">
     <g id="line2d_27">
      <path clip-path="url(#p2c8e6878b3)" d="M 60.253813 40.437026 
L 506.653813 40.437026 
" style="fill:none;stroke:#cccccc;stroke-linecap:round;stroke-width:0.8;"/>
     </g>
     <g id="line2d_28"/>
     <g id="text_15">
      <!-- $0.30$ -->
      <g style="fill:#262626;" transform="translate(28.385524 46.41461)scale(0.1728 -0.1728)">
       <use transform="scale(0.996264)" xlink:href="#CMR17-48"/>
       <use transform="translate(45.690477 0)scale(0.996264)" xlink:href="#CMMI12-58"/>
       <use transform="translate(72.787654 0)scale(0.996264)" xlink:href="#CMR17-51"/>
       <use transform="translate(118.478131 0)scale(0.996264)" xlink:href="#CMR17-48"/>
      </g>
     </g>
    </g>
    <g id="text_16">
     <!-- fraction of population infected ($I(t)$) -->
     <defs>
      <path d="M 16.796875 37 
L 26.90625 37 
L 26.90625 42.765625 
L 16.59375 42.765625 
L 16.59375 55.609375 
C 16.59375 62.71875 22 63.9375 25.09375 63.9375 
C 26.09375 63.9375 28.90625 63.9375 32.5 62.640625 
L 32.5 69.203125 
C 30.203125 69.703125 27.40625 70 25.203125 70 
C 15.90625 70 9.40625 62.390625 9.40625 52.484375 
L 9.40625 42.765625 
L 2.5 42.765625 
L 2.5 37 
L 9.40625 37 
L 9.40625 0 
L 16.796875 0 
z
" id="CMSS17-102"/>
      <path d="M 14.90625 21.296875 
C 14.90625 30.703125 21.796875 37 30.59375 37 
L 30.59375 43.578125 
C 24.203125 43.578125 18.203125 40.390625 14.59375 35.203125 
L 14.59375 43.09375 
L 7.5 43.09375 
L 7.5 0 
L 14.90625 0 
z
" id="CMSS17-114"/>
      <path d="M 38.5 39.703125 
C 38.5 40.390625 33.90625 42.40625 32.703125 42.796875 
C 29.40625 44 25.203125 44 24.09375 44 
C 11.09375 44 3.296875 32.703125 3.296875 21.296875 
C 3.296875 9.296875 12 -1 23.703125 -1 
C 30.40625 -1 35.203125 1.1875 39.09375 3.78125 
L 38.5 10.375 
C 34.203125 7.078125 29.203125 5.265625 23.796875 5.265625 
C 16 5.265625 10.90625 12.09375 10.90625 21.390625 
C 10.90625 28.609375 14.203125 37.71875 24.203125 37.71875 
C 29.703125 37.71875 32.796875 36.609375 37.40625 33.515625 
z
" id="CMSS17-99"/>
      <path d="M 44.203125 21.1875 
C 44.203125 34 34.703125 44 23.5 44 
C 12 44 2.703125 33.703125 2.703125 21.1875 
C 2.703125 8.5 12.296875 -1 23.40625 -1 
C 34.796875 -1 44.203125 8.796875 44.203125 21.1875 
z
M 23.5 5.265625 
C 16.40625 5.265625 10.296875 11.078125 10.296875 22 
C 10.296875 33.609375 17.40625 37.921875 23.40625 37.921875 
C 29.90625 37.921875 36.59375 33.21875 36.59375 22 
C 36.59375 10.671875 30.09375 5.265625 23.5 5.265625 
z
" id="CMSS17-111"/>
      <path d="M 40.90625 29.328125 
C 40.90625 35.671875 39.40625 44 28.09375 44 
C 21.703125 44 17.5 40.71875 14.703125 37.328125 
L 14.703125 43.09375 
L 7.40625 43.09375 
L 7.40625 0 
L 15 0 
L 15 24.359375 
C 15 30.6875 17.40625 37.9375 24.203125 37.9375 
C 33 37.9375 33.296875 32 33.296875 28.578125 
L 33.296875 0 
L 40.90625 0 
z
" id="CMSS17-110"/>
      <path d="M 15.09375 5.203125 
C 18.40625 2.015625 22.90625 -0.078125 27.703125 -0.078125 
C 37 -0.078125 45 9.421875 45 22.0625 
C 45 33.734375 39 44 30.40625 44 
C 25.40625 44 19.40625 42.21875 14.90625 38.625 
L 14.90625 43.203125 
L 7.5 43.203125 
L 7.5 -19 
L 15.09375 -19 
z
M 15.09375 32.8125 
C 15.90625 34 19.296875 37.734375 24.796875 37.734375 
C 31.796875 37.734375 37.40625 30.625 37.40625 22.0625 
C 37.40625 12.296875 30.59375 6 23.90625 6 
C 21.90625 6 19.796875 6.484375 17.796875 8.171875 
C 15.09375 10.53125 15.09375 12 15.09375 13.390625 
z
" id="CMSS17-112"/>
      <path d="M 40.90625 42.796875 
L 33.296875 42.796875 
L 33.296875 15.1875 
C 33.296875 7.78125 27.90625 4.78125 22.203125 4.78125 
C 15.59375 4.78125 15 6.984375 15 11.078125 
L 15 42.796875 
L 7.40625 42.796875 
L 7.40625 10.59375 
C 7.40625 2.796875 10.09375 -1 17 -1 
C 20.40625 -1 28.09375 -0.203125 33.5 4.78125 
L 33.5 0 
L 40.90625 0 
z
" id="CMSS17-117"/>
      <path d="M 14.796875 69 
L 7.40625 69 
L 7.40625 0 
L 14.796875 0 
z
" id="CMSS17-108"/>
      <path d="M 36.796875 60.625 
C 37.703125 64.109375 37.90625 65.109375 45.203125 65.109375 
C 47.40625 65.109375 48.203125 65.109375 48.203125 67 
C 48.203125 68 47.09375 68 46.796875 68 
C 45 68 42.796875 68 41 68 
L 28.703125 68 
C 26.703125 68 24.40625 68 22.40625 68 
C 21.59375 68 20.5 68 20.5 66.109375 
C 20.5 65.109375 21.296875 65.109375 23.296875 65.109375 
C 29.5 65.109375 29.5 64.3125 29.5 63.21875 
C 29.5 62.53125 29.296875 61.921875 29.09375 61.03125 
L 15.59375 7.375 
C 14.703125 3.890625 14.5 2.890625 7.203125 2.890625 
C 5 2.890625 4.09375 2.890625 4.09375 1 
C 4.09375 0 5.09375 0 5.59375 0 
C 7.40625 0 9.59375 0 11.40625 0 
L 23.703125 0 
C 25.703125 0 27.90625 0 29.90625 0 
C 30.703125 0 31.90625 0 31.90625 1.796875 
C 31.90625 2.890625 31.296875 2.890625 29.09375 2.890625 
C 22.90625 2.890625 22.90625 3.6875 22.90625 4.875 
C 22.90625 5.078125 22.90625 5.578125 23.296875 7.171875 
z
" id="CMMI12-73"/>
      <path d="M 30.59375 -24.390625 
C 30.59375 -24.296875 30.59375 -24.09375 30.296875 -23.796875 
C 25.703125 -19.125 13.40625 -6.359375 13.40625 24.703125 
C 13.40625 55.765625 25.5 68.421875 30.40625 73.390625 
C 30.40625 73.5 30.59375 73.703125 30.59375 74 
C 30.59375 74.296875 30.296875 74.5 29.90625 74.5 
C 28.796875 74.5 20.296875 67.125 15.40625 56.15625 
C 10.40625 45.109375 9 34.359375 9 24.8125 
C 9 17.625 9.703125 5.484375 15.703125 -7.359375 
C 20.5 -17.734375 28.703125 -25 29.90625 -25 
C 30.40625 -25 30.59375 -24.796875 30.59375 -24.390625 
z
" id="CMR17-40"/>
      <path d="M 20.09375 40.09375 
L 29.296875 40.09375 
C 31.203125 40.09375 32.203125 40.09375 32.203125 41.890625 
C 32.203125 43 31.59375 43 29.59375 43 
L 20.796875 43 
L 24.5 57.6875 
C 24.90625 59.078125 24.90625 59.28125 24.90625 60 
C 24.90625 61.609375 23.59375 62.5 22.296875 62.5 
C 21.5 62.5 19.203125 62.203125 18.40625 58.984375 
L 14.5 43 
L 5.09375 43 
C 3.09375 43 2.203125 43 2.203125 41.09375 
C 2.203125 40.09375 2.90625 40.09375 4.796875 40.09375 
L 13.703125 40.09375 
L 7.09375 13.765625 
C 6.296875 10.28125 6 9.28125 6 7.984375 
C 6 3.296875 9.296875 -1 14.90625 -1 
C 25 -1 30.40625 13.5625 30.40625 14.25 
C 30.40625 14.859375 30 15.15625 29.40625 15.15625 
C 29.203125 15.15625 28.796875 15.15625 28.59375 14.75 
C 28.5 14.65625 28.40625 14.546875 27.703125 12.953125 
C 25.59375 7.984375 21 1 15.203125 1 
C 12.203125 1 12 3.5 12 5.6875 
C 12 5.78125 12 7.6875 12.296875 8.875 
z
" id="CMMI12-116"/>
      <path d="M 26.296875 24.703125 
C 26.296875 31.875 25.59375 44.015625 19.59375 56.859375 
C 14.796875 67.234375 6.59375 74.5 5.40625 74.5 
C 5.09375 74.5 4.703125 74.390625 4.703125 73.890625 
C 4.703125 73.703125 4.796875 73.59375 4.90625 73.390625 
C 9.703125 68.40625 21.90625 55.75 21.90625 24.75 
C 21.90625 -6.359375 9.796875 -19.015625 4.90625 -24.015625 
C 4.796875 -24.203125 4.703125 -24.3125 4.703125 -24.5 
C 4.703125 -25 5.09375 -25 5.40625 -25 
C 6.5 -25 15 -17.625 19.90625 -6.65625 
C 24.90625 4.390625 26.296875 15.140625 26.296875 24.703125 
z
" id="CMR17-41"/>
     </defs>
     <g style="fill:#262626;" transform="translate(20.096067 313.190733)rotate(-90)scale(0.1728 -0.1728)">
      <use transform="scale(0.996264)" xlink:href="#CMSS17-102"/>
      <use transform="translate(28.626659 0)scale(0.996264)" xlink:href="#CMSS17-114"/>
      <use transform="translate(60.536431 0)scale(0.996264)" xlink:href="#CMSS17-97"/>
      <use transform="translate(105.458352 0)scale(0.996264)" xlink:href="#CMSS17-99"/>
      <use transform="translate(147.097174 0)scale(0.996264)" xlink:href="#CMSS17-116"/>
      <use transform="translate(180.928741 0)scale(0.996264)" xlink:href="#CMSS17-105"/>
      <use transform="translate(203.109464 0)scale(0.996264)" xlink:href="#CMSS17-111"/>
      <use transform="translate(249.953087 0)scale(0.996264)" xlink:href="#CMSS17-110"/>
      <use transform="translate(329.387143 0)scale(0.996264)" xlink:href="#CMSS17-111"/>
      <use transform="translate(376.230767 0)scale(0.996264)" xlink:href="#CMSS17-102"/>
      <use transform="translate(436.086538 0)scale(0.996264)" xlink:href="#CMSS17-112"/>
      <use transform="translate(486.89392 0)scale(0.996264)" xlink:href="#CMSS17-111"/>
      <use transform="translate(533.737544 0)scale(0.996264)" xlink:href="#CMSS17-112"/>
      <use transform="translate(581.942487 0)scale(0.996264)" xlink:href="#CMSS17-117"/>
      <use transform="translate(630.14743 0)scale(0.996264)" xlink:href="#CMSS17-108"/>
      <use transform="translate(652.328153 0)scale(0.996264)" xlink:href="#CMSS17-97"/>
      <use transform="translate(697.250074 0)scale(0.996264)" xlink:href="#CMSS17-116"/>
      <use transform="translate(731.08164 0)scale(0.996264)" xlink:href="#CMSS17-105"/>
      <use transform="translate(753.262363 0)scale(0.996264)" xlink:href="#CMSS17-111"/>
      <use transform="translate(800.105987 0)scale(0.996264)" xlink:href="#CMSS17-110"/>
      <use transform="translate(879.540043 0)scale(0.996264)" xlink:href="#CMSS17-105"/>
      <use transform="translate(901.720766 0)scale(0.996264)" xlink:href="#CMSS17-110"/>
      <use transform="translate(949.925709 0)scale(0.996264)" xlink:href="#CMSS17-102"/>
      <use transform="translate(978.552368 0)scale(0.996264)" xlink:href="#CMSS17-101"/>
      <use transform="translate(1020.19119 0)scale(0.996264)" xlink:href="#CMSS17-99"/>
      <use transform="translate(1061.830012 0)scale(0.996264)" xlink:href="#CMSS17-116"/>
      <use transform="translate(1095.661579 0)scale(0.996264)" xlink:href="#CMSS17-101"/>
      <use transform="translate(1137.300401 0)scale(0.996264)" xlink:href="#CMSS17-100"/>
      <use transform="translate(1216.734456 0)scale(0.996264)" xlink:href="#CMSS17-40"/>
      <use transform="translate(1253.168371 0)scale(0.996264)" xlink:href="#CMMI12-73"/>
      <use transform="translate(1304.024885 0)scale(0.996264)" xlink:href="#CMR17-40"/>
      <use transform="translate(1339.305653 0)scale(0.996264)" xlink:href="#CMMI12-116"/>
      <use transform="translate(1374.531983 0)scale(0.996264)" xlink:href="#CMR17-41"/>
      <use transform="translate(1409.812751 0)scale(0.996264)" xlink:href="#CMSS17-41"/>
     </g>
    </g>
   </g>
   <g id="line2d_29">
    <path clip-path="url(#p2c8e6878b3)" d="M 80.544722 336.489714 
L 125.680731 336.373896 
L 136.315294 336.131739 
L 142.890864 335.772422 
L 147.761656 335.29062 
L 151.57711 334.697553 
L 154.743126 333.989662 
L 157.503241 333.149716 
L 159.938637 332.179454 
L 162.130494 331.070453 
L 164.159991 329.794671 
L 166.027128 328.362282 
L 167.813085 326.712815 
L 169.517862 324.835494 
L 171.14146 322.724268 
L 172.765057 320.245339 
L 174.388655 317.3404 
L 175.931072 314.126743 
L 177.47349 310.407958 
L 179.015907 306.116896 
L 180.558325 301.181881 
L 182.181922 295.209043 
L 183.80552 288.350884 
L 185.429117 280.520945 
L 187.133895 271.167314 
L 188.919852 260.044734 
L 190.786989 246.912141 
L 192.735306 231.564519 
L 194.845982 213.140472 
L 197.362558 189.08645 
L 201.015653 151.686812 
L 205.155826 109.831115 
L 207.347683 89.895947 
L 209.13364 75.588112 
L 210.676058 64.949386 
L 212.056115 56.941063 
L 213.273813 51.134567 
L 214.329152 47.085862 
L 215.30331 44.166119 
L 216.196289 42.175453 
L 216.926908 41.027742 
L 217.576347 40.363988 
L 218.144606 40.052498 
L 218.712865 39.986432 
L 219.281124 40.159459 
L 219.849383 40.564666 
L 220.498822 41.302493 
L 221.229441 42.468692 
L 222.12242 44.352334 
L 223.096578 46.944648 
L 224.233096 50.618791 
L 225.531974 55.585044 
L 227.074392 62.401451 
L 228.941529 71.748442 
L 231.214565 84.348668 
L 234.2994 102.809591 
L 245.339863 169.972957 
L 248.668238 188.266333 
L 251.671893 203.56429 
L 254.513189 216.920689 
L 257.273304 228.8515 
L 259.95224 239.467968 
L 262.549996 248.890734 
L 265.147752 257.497723 
L 267.745508 265.336988 
L 270.262084 272.247263 
L 272.77866 278.532107 
L 275.295236 284.238356 
L 277.811812 289.411593 
L 280.328388 294.095549 
L 282.926144 298.461357 
L 285.5239 302.392885 
L 288.121656 305.930083 
L 290.800592 309.203935 
L 293.479527 312.135077 
L 296.239643 314.832655 
L 299.080939 317.303261 
L 302.003414 319.555213 
L 305.088249 321.64993 
L 308.254264 323.53371 
L 311.582639 325.259347 
L 315.154553 326.858544 
L 318.970007 328.317838 
L 323.029001 329.629781 
L 327.412714 330.812305 
L 332.202326 331.873505 
L 337.560198 332.828117 
L 343.567509 333.666334 
L 350.386618 334.388276 
L 358.342245 335.001093 
L 367.92147 335.50714 
L 379.854911 335.904367 
L 395.684987 336.195547 
L 419.06479 336.383623 
L 462.577201 336.474479 
L 486.362904 336.48492 
L 486.362904 336.48492 
" style="fill:none;stroke:#000000;stroke-dasharray:18.5,8;stroke-dashoffset:0;stroke-width:5;"/>
   </g>
   <g id="line2d_30">
    <path clip-path="url(#p2c8e6878b3)" d="M 80.544722 336.489714 
L 125.680731 336.373896 
L 136.315294 336.131739 
L 142.890864 335.772422 
L 147.761656 335.29062 
L 151.57711 334.697553 
L 154.743126 333.989662 
L 157.503241 333.149716 
L 159.938637 332.179454 
L 162.130494 331.070453 
L 164.159991 329.794671 
L 166.027128 328.362282 
L 167.813085 326.712815 
L 169.517862 324.835494 
L 171.14146 322.724268 
L 172.765057 320.245339 
L 174.388655 317.3404 
L 175.931072 314.126743 
L 177.47349 310.407958 
L 179.015907 306.116896 
L 180.558325 301.181881 
L 182.181922 295.209043 
L 183.80552 288.350884 
L 185.429117 280.520945 
L 187.133895 271.167314 
L 188.919852 260.044734 
L 189.650471 255.652885 
L 217.901066 255.652885 
L 220.255282 242.465206 
L 222.934218 226.128232 
L 226.506133 202.820425 
L 232.513443 163.510191 
L 234.948839 149.164774 
L 236.897156 138.937659 
L 238.601934 131.112773 
L 240.144351 125.053503 
L 241.524409 120.515568 
L 242.742107 117.233298 
L 243.878625 114.792219 
L 244.852784 113.18023 
L 245.745762 112.089871 
L 246.557561 111.416101 
L 247.28818 111.063835 
L 248.018799 110.94735 
L 248.749418 111.060975 
L 249.480037 111.39826 
L 250.291835 112.026619 
L 251.184814 113.01379 
L 252.158972 114.426885 
L 253.295491 116.491536 
L 254.594368 119.356967 
L 256.055606 123.161414 
L 257.760383 128.278151 
L 259.7087 134.873037 
L 262.062917 143.670843 
L 265.147752 156.137446 
L 270.667983 179.586981 
L 276.188215 202.662738 
L 280.003669 217.661545 
L 283.332043 229.876806 
L 286.498058 240.662004 
L 289.501714 250.114649 
L 292.424189 258.583618 
L 295.265485 266.144642 
L 298.0256 272.878785 
L 300.785716 279.040425 
L 303.545831 284.662453 
L 306.305947 289.77972 
L 309.066063 294.427795 
L 311.826178 298.641996 
L 314.586294 302.456753 
L 317.42759 306.001329 
L 320.268885 309.191863 
L 323.191361 312.138014 
L 326.195016 314.845298 
L 329.279851 317.32124 
L 332.445866 319.575035 
L 335.693061 321.617214 
L 339.102616 323.501324 
L 342.67453 325.22351 
L 346.489984 326.814872 
L 350.548978 328.264461 
L 354.932691 329.589253 
L 359.641123 330.777239 
L 364.836635 331.853645 
L 370.519226 332.801261 
L 376.932436 333.641066 
L 384.238625 334.368066 
L 392.762511 334.985762 
L 402.991175 335.494912 
L 415.736415 335.895635 
L 432.621829 336.189953 
L 457.462869 336.380527 
L 486.362904 336.456453 
L 486.362904 336.456453 
" style="fill:none;stroke:#fcbba1;stroke-linecap:round;stroke-opacity:0.9;stroke-width:5;"/>
   </g>
   <g id="line2d_31">
    <path clip-path="url(#p2c8e6878b3)" d="M 80.544722 336.489714 
L 125.680731 336.373896 
L 136.315294 336.131739 
L 142.890864 335.772422 
L 147.761656 335.29062 
L 151.57711 334.697553 
L 154.743126 333.989662 
L 157.503241 333.149716 
L 159.938637 332.179454 
L 162.130494 331.070453 
L 164.159991 329.794671 
L 166.027128 328.362282 
L 167.813085 326.712815 
L 169.517862 324.835494 
L 171.14146 322.724268 
L 172.765057 320.245339 
L 174.388655 317.3404 
L 175.931072 314.126743 
L 177.47349 310.407958 
L 179.015907 306.116896 
L 180.558325 301.181881 
L 182.181922 295.209043 
L 183.80552 288.350884 
L 185.429117 280.520945 
L 187.133895 271.167314 
L 188.919852 260.044734 
L 190.786989 246.912141 
L 192.735306 231.564519 
L 194.845982 213.140472 
L 197.362558 189.08645 
L 199.067336 172.683042 
L 227.317931 172.683042 
L 229.185068 165.977962 
L 230.808666 160.913898 
L 232.269904 157.01897 
L 233.649961 153.947183 
L 234.867659 151.740637 
L 236.004178 150.112992 
L 237.059516 148.97542 
L 238.033675 148.242545 
L 238.926653 147.834618 
L 239.819632 147.674383 
L 240.71261 147.756052 
L 241.605589 148.072765 
L 242.579747 148.677133 
L 243.635086 149.623935 
L 244.771604 150.965768 
L 245.989302 152.751024 
L 247.36936 155.17555 
L 248.911777 158.341633 
L 250.697735 162.536148 
L 252.727231 167.883581 
L 255.162628 174.946696 
L 258.247463 184.608568 
L 263.199435 200.962372 
L 270.262084 224.167093 
L 274.321077 236.711311 
L 277.892992 247.037652 
L 281.221367 255.985094 
L 284.387382 263.86476 
L 287.472217 270.947002 
L 290.475872 277.288525 
L 293.398347 282.951661 
L 296.320823 288.137667 
L 299.243298 292.87271 
L 302.165774 297.184934 
L 305.088249 301.103351 
L 308.010724 304.657014 
L 311.01438 307.959246 
L 314.018035 310.936087 
L 317.10287 313.68448 
L 320.268885 316.20977 
L 323.51608 318.519168 
L 326.925635 320.669589 
L 330.497549 322.653693 
L 334.231823 324.468004 
L 338.128457 326.112563 
L 342.268631 327.617835 
L 346.733524 329.000492 
L 351.523136 330.247575 
L 356.718648 331.368678 
L 362.482419 332.380017 
L 368.895629 333.273634 
L 376.120637 334.050807 
L 384.482164 334.719648 
L 394.304929 335.275583 
L 406.31955 335.724508 
L 421.743726 336.066998 
L 443.175212 336.30474 
L 477.920197 336.441784 
L 486.362904 336.455341 
L 486.362904 336.455341 
" style="fill:none;stroke:#fb694a;stroke-linecap:round;stroke-opacity:0.9;stroke-width:7;"/>
   </g>
   <g id="line2d_32">
    <path clip-path="url(#p2c8e6878b3)" d="M 80.544722 336.489714 
L 125.680731 336.373896 
L 136.315294 336.131739 
L 142.890864 335.772422 
L 147.761656 335.29062 
L 151.57711 334.697553 
L 154.743126 333.989662 
L 157.503241 333.149716 
L 159.938637 332.179454 
L 162.130494 331.070453 
L 164.159991 329.794671 
L 166.027128 328.362282 
L 167.813085 326.712815 
L 169.517862 324.835494 
L 171.14146 322.724268 
L 172.765057 320.245339 
L 174.388655 317.3404 
L 175.931072 314.126743 
L 177.47349 310.407958 
L 179.015907 306.116896 
L 180.558325 301.181881 
L 182.181922 295.209043 
L 183.80552 288.350884 
L 185.429117 280.520945 
L 187.133895 271.167314 
L 188.919852 260.044734 
L 190.786989 246.912141 
L 192.735306 231.564519 
L 194.845982 213.140472 
L 197.362558 189.08645 
L 201.015653 151.686812 
L 205.155826 109.831115 
L 207.347683 89.895947 
L 208.484201 80.560179 
L 236.815976 80.560179 
L 242.498567 124.111951 
L 245.908122 148.509528 
L 248.911777 168.469129 
L 251.753073 185.898656 
L 254.432009 201.008506 
L 257.029765 214.447643 
L 259.627521 226.732155 
L 262.144097 237.583934 
L 264.660673 247.463323 
L 267.177249 256.434222 
L 269.612645 264.312596 
L 272.048041 271.460956 
L 274.483437 277.937132 
L 276.918833 283.796653 
L 279.35423 289.092214 
L 281.789626 293.873362 
L 284.306202 298.322553 
L 286.822778 302.319098 
L 289.339354 305.90652 
L 291.93711 309.222805 
L 294.534866 312.185663 
L 297.213801 314.909366 
L 299.973917 317.400905 
L 302.815213 319.669029 
L 305.818868 321.777297 
L 308.903703 323.670158 
L 312.150898 325.402086 
L 315.560453 326.970945 
L 319.213547 328.407687 
L 323.191361 329.727741 
L 327.493894 330.914836 
L 332.202326 331.977191 
L 337.397838 332.916684 
L 343.242789 333.742389 
L 349.899539 334.453345 
L 357.692806 335.055836 
L 367.109672 335.551469 
L 378.880753 335.937781 
L 394.629648 336.218602 
L 418.252991 336.39678 
L 463.957259 336.478707 
L 486.362904 336.486329 
L 486.362904 336.486329 
" style="fill:none;stroke:#ca181d;stroke-linecap:round;stroke-opacity:0.9;stroke-width:5;"/>
   </g>
   <g id="patch_3">
    <path d="M 60.253813 351.315168 
L 60.253813 25.155168 
" style="fill:none;stroke:#cccccc;stroke-linecap:square;stroke-linejoin:miter;"/>
   </g>
   <g id="patch_4">
    <path d="M 506.653813 351.315168 
L 506.653813 25.155168 
" style="fill:none;stroke:#cccccc;stroke-linecap:square;stroke-linejoin:miter;"/>
   </g>
   <g id="patch_5">
    <path d="M 60.253813 351.315168 
L 506.653813 351.315168 
" style="fill:none;stroke:#cccccc;stroke-linecap:square;stroke-linejoin:miter;"/>
   </g>
   <g id="patch_6">
    <path d="M 60.253813 25.155168 
L 506.653813 25.155168 
" style="fill:none;stroke:#cccccc;stroke-linecap:square;stroke-linejoin:miter;"/>
   </g>
   <g id="text_17">
    <!-- The problem of timing -->
    <defs>
     <path d="M 36.203125 62 
L 44.5 62 
C 45.703125 62 46.90625 62 48.09375 62 
L 60.59375 62 
L 60.59375 68.375 
L 3.40625 68.375 
L 3.40625 62 
L 15.90625 62 
C 17.09375 62 18.296875 62 19.5 62 
L 27.796875 62 
L 27.796875 -0.5 
L 36.203125 -0.5 
z
" id="CMSS17-84"/>
     <path d="M 40.90625 29.546875 
C 40.90625 35.8125 39.40625 44.0625 28.09375 44.0625 
C 21.796875 44.0625 17.703125 40.984375 14.796875 37.609375 
L 14.796875 69.5 
L 7.40625 69.5 
L 7.40625 0.5 
L 15 0.5 
L 15 24.578125 
C 15 30.828125 17.40625 38 24.203125 38 
C 33 38 33.296875 32.125 33.296875 28.734375 
L 33.296875 0.5 
L 40.90625 0.5 
z
" id="CMSS17-104"/>
     <path d="M 14.90625 69 
L 7.5 69 
L 7.5 -0.203125 
L 15.09375 -0.203125 
L 15.09375 4.28125 
C 18.90625 0.59375 23.5 -1 27.59375 -1 
C 37.203125 -1 45 8.578125 45 21.125 
C 45 32.59375 39 43.0625 30.09375 43.0625 
C 23.796875 43.0625 18.203125 40.484375 14.90625 37.796875 
z
M 15.09375 31.96875 
C 17.296875 34.71875 20.40625 37 24.796875 37 
C 30.703125 37 37.40625 32.765625 37.40625 21.125 
C 37.40625 8.71875 29.40625 5.078125 23.90625 5.078125 
C 21.90625 5.078125 19.796875 5.5625 17.796875 7.25 
C 15.09375 9.609375 15.09375 11.078125 15.09375 12.453125 
z
" id="CMSS17-98"/>
     <path d="M 44.5 43.875 
C 38.796875 43.875 33.90625 42.78125 29.90625 40.890625 
C 26.59375 43.390625 23.203125 43.875 20.90625 43.875 
C 12.203125 43.875 5.59375 36.703125 5.59375 28.34375 
C 5.59375 22.9375 8.59375 18.859375 8.796875 18.671875 
C 7 16.171875 6 13.484375 6 10.5 
C 6 7 7.40625 4.515625 8.5 3.125 
C 3.296875 -0.046875 2.59375 -4.90625 2.59375 -6.796875 
C 2.59375 -14.03125 11.703125 -20 23.40625 -20 
C 35.203125 -20 44.296875 -14.03125 44.296875 -6.6875 
C 44.296875 7 29 7 24.796875 7 
L 16.703125 7 
C 15.203125 7 11.203125 7 11.203125 12.359375 
C 11.203125 14.390625 12.09375 15.6875 12.203125 15.78125 
C 13.703125 14.6875 16.796875 13 20.90625 13 
C 29.203125 13 36.09375 19.96875 36.09375 28.546875 
C 36.09375 33.3125 33.90625 36.796875 33 38 
L 33.296875 38 
C 33.59375 38 37.796875 38 39.296875 38 
C 42.5 38 42.796875 37.953125 45.59375 37.796875 
z
M 20.90625 18.46875 
C 17.5 18.46875 12.703125 20.546875 12.703125 28.484375 
C 12.703125 37.109375 18.203125 38.5 20.796875 38.5 
C 24.203125 38.5 29 36.421875 29 28.484375 
C 29 19.859375 23.5 18.46875 20.90625 18.46875 
z
M 24.703125 -0.15625 
C 27.09375 -0.15625 37.203125 -0.15625 37.203125 -6.90625 
C 37.203125 -11.15625 31 -14.515625 23.5 -14.515625 
C 15.90625 -14.515625 9.703125 -11.25 9.703125 -6.796875 
C 9.703125 -6.296875 9.703125 -0.15625 16.59375 -0.15625 
z
" id="CMSS17-103"/>
    </defs>
    <g style="fill:#262626;" transform="translate(207.344015 19.155168)scale(0.1728 -0.1728)">
     <use transform="scale(0.996264)" xlink:href="#CMSS17-84"/>
     <use transform="translate(63.819454 0)scale(0.996264)" xlink:href="#CMSS17-104"/>
     <use transform="translate(112.024397 0)scale(0.996264)" xlink:href="#CMSS17-101"/>
     <use transform="translate(184.892332 0)scale(0.996264)" xlink:href="#CMSS17-112"/>
     <use transform="translate(230.494821 0)scale(0.996264)" xlink:href="#CMSS17-114"/>
     <use transform="translate(262.404594 0)scale(0.996264)" xlink:href="#CMSS17-111"/>
     <use transform="translate(309.248217 0)scale(0.996264)" xlink:href="#CMSS17-98"/>
     <use transform="translate(357.45316 0)scale(0.996264)" xlink:href="#CMSS17-108"/>
     <use transform="translate(379.633883 0)scale(0.996264)" xlink:href="#CMSS17-101"/>
     <use transform="translate(421.272705 0)scale(0.996264)" xlink:href="#CMSS17-109"/>
     <use transform="translate(526.731073 0)scale(0.996264)" xlink:href="#CMSS17-111"/>
     <use transform="translate(573.574696 0)scale(0.996264)" xlink:href="#CMSS17-102"/>
     <use transform="translate(633.430468 0)scale(0.996264)" xlink:href="#CMSS17-116"/>
     <use transform="translate(667.262034 0)scale(0.996264)" xlink:href="#CMSS17-105"/>
     <use transform="translate(689.442757 0)scale(0.996264)" xlink:href="#CMSS17-109"/>
     <use transform="translate(763.672012 0)scale(0.996264)" xlink:href="#CMSS17-105"/>
     <use transform="translate(785.852735 0)scale(0.996264)" xlink:href="#CMSS17-110"/>
     <use transform="translate(834.057678 0)scale(0.996264)" xlink:href="#CMSS17-103"/>
    </g>
   </g>
   <g id="legend_1">
    <g id="patch_7">
     <path d="M 362.499983 136.905428 
L 496.573813 136.905428 
Q 499.453813 136.905428 499.453813 134.025428 
L 499.453813 35.235168 
Q 499.453813 32.355168 496.573813 32.355168 
L 362.499983 32.355168 
Q 359.619983 32.355168 359.619983 35.235168 
L 359.619983 134.025428 
Q 359.619983 136.905428 362.499983 136.905428 
z
" style="fill:#ffffff;stroke:#cccccc;stroke-linejoin:miter;"/>
    </g>
    <g id="text_18">
     <!-- $t_i$ -->
     <defs>
      <path d="M 28.296875 14.265625 
C 28.296875 14.765625 27.90625 15.171875 27.296875 15.171875 
C 26.40625 15.171875 26.296875 14.875 25.796875 13.171875 
C 23.203125 4.09375 19.09375 1 15.796875 1 
C 14.59375 1 13.203125 1.296875 13.203125 4.296875 
C 13.203125 6.984375 14.40625 9.984375 15.5 12.96875 
L 22.5 31.53125 
C 22.796875 32.328125 23.5 34.125 23.5 36.015625 
C 23.5 40.21875 20.5 44 15.59375 44 
C 6.40625 44 2.703125 29.53125 2.703125 28.734375 
C 2.703125 28.34375 3.09375 27.84375 3.796875 27.84375 
C 4.703125 27.84375 4.796875 28.234375 5.203125 29.625 
C 7.59375 37.9375 11.40625 41.90625 15.296875 41.90625 
C 16.203125 41.90625 17.90625 41.90625 17.90625 38.71875 
C 17.90625 36.125 16.59375 32.828125 15.796875 30.640625 
L 8.796875 12.078125 
C 8.203125 10.484375 7.59375 8.875 7.59375 7.078125 
C 7.59375 2.59375 10.703125 -1 15.5 -1 
C 24.703125 -1 28.296875 13.578125 28.296875 14.265625 
z
M 27.5 62.703125 
C 27.5 64.203125 26.296875 66 24.09375 66 
C 21.796875 66 19.203125 63.796875 19.203125 61.203125 
C 19.203125 58.71875 21.296875 57.921875 22.5 57.921875 
C 25.203125 57.921875 27.5 60.515625 27.5 62.703125 
z
" id="CMMI12-105"/>
     </defs>
     <g style="fill:#262626;" transform="translate(425.284481 48.077793)scale(0.144 -0.144)">
      <use transform="translate(0 14.943915)scale(0.996264)" xlink:href="#CMMI12-116"/>
      <use transform="translate(35.22633 0)scale(0.697382)" xlink:href="#CMMI12-105"/>
     </g>
    </g>
    <g id="line2d_33">
     <path d="M 365.379983 63.10732 
L 394.179983 63.10732 
" style="fill:none;stroke:#000000;stroke-dasharray:18.5,8;stroke-dashoffset:0;stroke-width:5;"/>
    </g>
    <g id="line2d_34"/>
    <g id="text_19">
     <!-- no intervention -->
     <defs>
      <path d="M 41.796875 43 
L 34 43 
L 27.296875 24.3125 
C 25.203125 18.203125 22.203125 9.796875 21.703125 5.5 
L 21.59375 5.5 
C 21.40625 7.3125 20.59375 9.90625 20.09375 11.703125 
C 19.5 13.90625 18.703125 16.5 18.09375 18.3125 
L 9.296875 43 
L 1.296875 43 
L 17.09375 0 
L 26 0 
z
" id="CMSS17-118"/>
     </defs>
     <g style="fill:#262626;" transform="translate(405.699983 68.14732)scale(0.144 -0.144)">
      <use transform="scale(0.996264)" xlink:href="#CMSS17-110"/>
      <use transform="translate(48.204943 0)scale(0.996264)" xlink:href="#CMSS17-111"/>
      <use transform="translate(126.277679 0)scale(0.996264)" xlink:href="#CMSS17-105"/>
      <use transform="translate(148.458402 0)scale(0.996264)" xlink:href="#CMSS17-110"/>
      <use transform="translate(196.663346 0)scale(0.996264)" xlink:href="#CMSS17-116"/>
      <use transform="translate(230.494912 0)scale(0.996264)" xlink:href="#CMSS17-101"/>
      <use transform="translate(272.133734 0)scale(0.996264)" xlink:href="#CMSS17-114"/>
      <use transform="translate(304.043507 0)scale(0.996264)" xlink:href="#CMSS17-118"/>
      <use transform="translate(347.043649 0)scale(0.996264)" xlink:href="#CMSS17-101"/>
      <use transform="translate(388.682471 0)scale(0.996264)" xlink:href="#CMSS17-110"/>
      <use transform="translate(436.887414 0)scale(0.996264)" xlink:href="#CMSS17-116"/>
      <use transform="translate(470.71898 0)scale(0.996264)" xlink:href="#CMSS17-105"/>
      <use transform="translate(492.899704 0)scale(0.996264)" xlink:href="#CMSS17-111"/>
      <use transform="translate(539.743327 0)scale(0.996264)" xlink:href="#CMSS17-110"/>
     </g>
    </g>
    <g id="line2d_35">
     <path d="M 365.379983 83.176847 
L 394.179983 83.176847 
" style="fill:none;stroke:#fcbba1;stroke-linecap:round;stroke-opacity:0.9;stroke-width:5;"/>
    </g>
    <g id="line2d_36"/>
    <g id="text_20">
     <!-- early -->
     <g style="fill:#262626;" transform="translate(405.699983 88.216847)scale(0.144 -0.144)">
      <use transform="scale(0.996264)" xlink:href="#CMSS17-101"/>
      <use transform="translate(41.638822 0)scale(0.996264)" xlink:href="#CMSS17-97"/>
      <use transform="translate(83.958289 0)scale(0.996264)" xlink:href="#CMSS17-114"/>
      <use transform="translate(115.868061 0)scale(0.996264)" xlink:href="#CMSS17-108"/>
      <use transform="translate(138.048784 0)scale(0.996264)" xlink:href="#CMSS17-121"/>
     </g>
    </g>
    <g id="line2d_37">
     <path d="M 365.379983 103.246374 
L 394.179983 103.246374 
" style="fill:none;stroke:#fb694a;stroke-linecap:round;stroke-opacity:0.9;stroke-width:7;"/>
    </g>
    <g id="line2d_38"/>
    <g id="text_21">
     <!-- optimal -->
     <g style="fill:#262626;" transform="translate(405.699983 108.286374)scale(0.144 -0.144)">
      <use transform="scale(0.996264)" xlink:href="#CMSS17-111"/>
      <use transform="translate(46.843624 0)scale(0.996264)" xlink:href="#CMSS17-112"/>
      <use transform="translate(95.048567 0)scale(0.996264)" xlink:href="#CMSS17-116"/>
      <use transform="translate(128.880133 0)scale(0.996264)" xlink:href="#CMSS17-105"/>
      <use transform="translate(151.060856 0)scale(0.996264)" xlink:href="#CMSS17-109"/>
      <use transform="translate(225.290111 0)scale(0.996264)" xlink:href="#CMSS17-97"/>
      <use transform="translate(270.212031 0)scale(0.996264)" xlink:href="#CMSS17-108"/>
     </g>
    </g>
    <g id="line2d_39">
     <path d="M 365.379983 123.315901 
L 394.179983 123.315901 
" style="fill:none;stroke:#ca181d;stroke-linecap:round;stroke-opacity:0.9;stroke-width:5;"/>
    </g>
    <g id="line2d_40"/>
    <g id="text_22">
     <!-- late -->
     <g style="fill:#262626;" transform="translate(405.699983 128.355901)scale(0.144 -0.144)">
      <use transform="scale(0.996264)" xlink:href="#CMSS17-108"/>
      <use transform="translate(22.180723 0)scale(0.996264)" xlink:href="#CMSS17-97"/>
      <use transform="translate(67.102644 0)scale(0.996264)" xlink:href="#CMSS17-116"/>
      <use transform="translate(100.93421 0)scale(0.996264)" xlink:href="#CMSS17-101"/>
     </g>
    </g>
   </g>
  </g>
 </g>
 <defs>
  <clipPath id="p2c8e6878b3">
   <rect height="326.16" width="446.4" x="60.253813" y="25.155168"/>
  </clipPath>
 </defs>
</svg>
