<?xml version="1.0" encoding="utf-8" standalone="no"?>
<!DOCTYPE svg PUBLIC "-//W3C//DTD SVG 1.1//EN"
  "http://www.w3.org/Graphics/SVG/1.1/DTD/svg11.dtd">
<!-- Created with matplotlib (https://matplotlib.org/) -->
<svg height="368.39952pt" version="1.1" viewBox="0 0 540.024808 368.39952" width="540.024808pt" xmlns="http://www.w3.org/2000/svg" xmlns:xlink="http://www.w3.org/1999/xlink">
 <defs>
  <style type="text/css">
*{stroke-linecap:butt;stroke-linejoin:round;}
  </style>
 </defs>
 <g id="figure_1">
  <g id="patch_1">
   <path d="M 0 368.39952 
L 540.024808 368.39952 
L 540.024808 0 
L 0 0 
z
" style="fill:#ffffff;"/>
  </g>
  <g id="axes_1">
   <g id="patch_2">
    <path d="M 50.476696 170.539542 
L 243.261334 170.539542 
L 243.261334 54.868758 
L 50.476696 54.868758 
z
" style="fill:#ffffff;"/>
   </g>
   <g id="matplotlib.axis_1">
    <g id="xtick_1">
     <g id="line2d_1">
      <path clip-path="url(#p2470021957)" d="M 50.476696 170.539542 
L 50.476696 54.868758 
" style="fill:none;stroke:#cccccc;stroke-linecap:round;stroke-width:0.8;"/>
     </g>
     <g id="line2d_2"/>
    </g>
    <g id="xtick_2">
     <g id="line2d_3">
      <path clip-path="url(#p2470021957)" d="M 89.033623 170.539542 
L 89.033623 54.868758 
" style="fill:none;stroke:#cccccc;stroke-linecap:round;stroke-width:0.8;"/>
     </g>
     <g id="line2d_4"/>
    </g>
    <g id="xtick_3">
     <g id="line2d_5">
      <path clip-path="url(#p2470021957)" d="M 127.590551 170.539542 
L 127.590551 54.868758 
" style="fill:none;stroke:#cccccc;stroke-linecap:round;stroke-width:0.8;"/>
     </g>
     <g id="line2d_6"/>
    </g>
    <g id="xtick_4">
     <g id="line2d_7">
      <path clip-path="url(#p2470021957)" d="M 166.147479 170.539542 
L 166.147479 54.868758 
" style="fill:none;stroke:#cccccc;stroke-linecap:round;stroke-width:0.8;"/>
     </g>
     <g id="line2d_8"/>
    </g>
    <g id="xtick_5">
     <g id="line2d_9">
      <path clip-path="url(#p2470021957)" d="M 204.704407 170.539542 
L 204.704407 54.868758 
" style="fill:none;stroke:#cccccc;stroke-linecap:round;stroke-width:0.8;"/>
     </g>
     <g id="line2d_10"/>
    </g>
    <g id="xtick_6">
     <g id="line2d_11">
      <path clip-path="url(#p2470021957)" d="M 243.261334 170.539542 
L 243.261334 54.868758 
" style="fill:none;stroke:#cccccc;stroke-linecap:round;stroke-width:0.8;"/>
     </g>
     <g id="line2d_12"/>
    </g>
   </g>
   <g id="matplotlib.axis_2">
    <g id="ytick_1">
     <g id="line2d_13">
      <path clip-path="url(#p2470021957)" d="M 50.476696 170.539542 
L 243.261334 170.539542 
" style="fill:none;stroke:#cccccc;stroke-linecap:round;stroke-width:0.8;"/>
     </g>
     <g id="line2d_14"/>
     <g id="text_1">
      <!-- $0.0$ -->
      <defs>
       <path d="M 42 31.640625 
C 42 37.75 41.90625 48.125 37.703125 56.109375 
C 34 63.109375 28.09375 65.59375 22.90625 65.59375 
C 18.09375 65.59375 12 63.40625 8.203125 56.203125 
C 4.203125 48.71875 3.796875 39.4375 3.796875 31.640625 
C 3.796875 25.953125 3.90625 17.28125 7 9.671875 
C 11.296875 -0.609375 19 -2 22.90625 -2 
C 27.5 -2 34.5 -0.109375 38.59375 9.375 
C 41.59375 16.28125 42 24.359375 42 31.640625 
z
M 22.90625 -0.40625 
C 16.5 -0.40625 12.703125 5.078125 11.296875 12.6875 
C 10.203125 18.5625 10.203125 27.15625 10.203125 32.75 
C 10.203125 40.4375 10.203125 46.828125 11.5 52.921875 
C 13.40625 61.390625 19 64 22.90625 64 
C 27 64 32.296875 61.296875 34.203125 53.125 
C 35.5 47.4375 35.59375 40.734375 35.59375 32.75 
C 35.59375 26.25 35.59375 18.265625 34.40625 12.375 
C 32.296875 1.484375 26.40625 -0.40625 22.90625 -0.40625 
z
" id="CMR17-48"/>
       <path d="M 18.40625 4.796875 
C 18.40625 7.6875 16 9.671875 13.59375 9.671875 
C 10.703125 9.671875 8.703125 7.28125 8.703125 4.890625 
C 8.703125 2 11.09375 0 13.5 0 
C 16.40625 0 18.40625 2.390625 18.40625 4.796875 
z
" id="CMMI12-58"/>
      </defs>
      <g style="fill:#262626;" transform="translate(26.50371 176.517126)scale(0.1728 -0.1728)">
       <use transform="scale(0.996264)" xlink:href="#CMR17-48"/>
       <use transform="translate(45.690477 0)scale(0.996264)" xlink:href="#CMMI12-58"/>
       <use transform="translate(72.787654 0)scale(0.996264)" xlink:href="#CMR17-48"/>
      </g>
     </g>
    </g>
    <g id="ytick_2">
     <g id="line2d_15">
      <path clip-path="url(#p2470021957)" d="M 50.476696 131.982614 
L 243.261334 131.982614 
" style="fill:none;stroke:#cccccc;stroke-linecap:round;stroke-width:0.8;"/>
     </g>
     <g id="line2d_16"/>
     <g id="text_2">
      <!-- $0.2$ -->
      <defs>
       <path d="M 41.703125 15.453125 
L 39.90625 15.453125 
C 38.90625 8.375 38.09375 7.171875 37.703125 6.5625 
C 37.203125 5.765625 30 5.765625 28.59375 5.765625 
L 9.40625 5.765625 
C 13 9.671875 20 16.75 28.5 24.953125 
C 34.59375 30.734375 41.703125 37.53125 41.703125 47.421875 
C 41.703125 59.21875 32.296875 66 21.796875 66 
C 10.796875 66 4.09375 56.3125 4.09375 47.34375 
C 4.09375 43.4375 7 42.9375 8.203125 42.9375 
C 9.203125 42.9375 12.203125 43.546875 12.203125 47.03125 
C 12.203125 50.109375 9.59375 51 8.203125 51 
C 7.59375 51 7 50.90625 6.59375 50.703125 
C 8.5 59.21875 14.296875 63.40625 20.40625 63.40625 
C 29.09375 63.40625 34.796875 56.515625 34.796875 47.421875 
C 34.796875 38.734375 29.703125 31.25 24 24.75 
L 4.09375 2.28125 
L 4.09375 0 
L 39.296875 0 
z
" id="CMR17-50"/>
      </defs>
      <g style="fill:#262626;" transform="translate(26.50371 137.960198)scale(0.1728 -0.1728)">
       <use transform="scale(0.996264)" xlink:href="#CMR17-48"/>
       <use transform="translate(45.690477 0)scale(0.996264)" xlink:href="#CMMI12-58"/>
       <use transform="translate(72.787654 0)scale(0.996264)" xlink:href="#CMR17-50"/>
      </g>
     </g>
    </g>
    <g id="ytick_3">
     <g id="line2d_17">
      <path clip-path="url(#p2470021957)" d="M 50.476696 93.425686 
L 243.261334 93.425686 
" style="fill:none;stroke:#cccccc;stroke-linecap:round;stroke-width:0.8;"/>
     </g>
     <g id="line2d_18"/>
     <g id="text_3">
      <!-- $0.4$ -->
      <defs>
       <path d="M 33.59375 64.40625 
C 33.59375 66.5 33.5 66.5 31.703125 66.5 
L 2 19.59375 
L 2 17 
L 27.796875 17 
L 27.796875 7.140625 
C 27.796875 3.5 27.59375 2.5 20.59375 2.5 
L 18.703125 2.5 
L 18.703125 0 
C 21.90625 0 27.296875 0 30.703125 0 
C 34.09375 0 39.5 0 42.703125 0 
L 42.703125 2.5 
L 40.796875 2.5 
C 33.796875 2.5 33.59375 3.5 33.59375 7.140625 
L 33.59375 17 
L 43.796875 17 
L 43.796875 19.59375 
L 33.59375 19.59375 
z
M 28.09375 57.859375 
L 28.09375 19.59375 
L 4 19.59375 
z
" id="CMR17-52"/>
      </defs>
      <g style="fill:#262626;" transform="translate(26.50371 99.40327)scale(0.1728 -0.1728)">
       <use transform="scale(0.996264)" xlink:href="#CMR17-48"/>
       <use transform="translate(45.690477 0)scale(0.996264)" xlink:href="#CMMI12-58"/>
       <use transform="translate(72.787654 0)scale(0.996264)" xlink:href="#CMR17-52"/>
      </g>
     </g>
    </g>
    <g id="ytick_4">
     <g id="line2d_19">
      <path clip-path="url(#p2470021957)" d="M 50.476696 54.868758 
L 243.261334 54.868758 
" style="fill:none;stroke:#cccccc;stroke-linecap:round;stroke-width:0.8;"/>
     </g>
     <g id="line2d_20"/>
     <g id="text_4">
      <!-- $0.6$ -->
      <defs>
       <path d="M 10.59375 34 
C 10.59375 57.65625 21.796875 63 28.296875 63 
C 30.40625 63 35.5 62.640625 37.5 59 
C 35.90625 59 32.90625 59 32.90625 55.515625 
C 32.90625 52.828125 35.09375 51.921875 36.5 51.921875 
C 37.40625 51.921875 40.09375 52.3125 40.09375 55.625 
C 40.09375 61.78125 35.09375 65.296875 28.203125 65.296875 
C 16.296875 65.296875 3.796875 52.96875 3.796875 31 
C 3.796875 3.953125 15.09375 -2 23.09375 -2 
C 32.796875 -2 42 6.671875 42 20.046875 
C 42 32.515625 33.90625 41.59375 23.703125 41.59375 
C 17.59375 41.59375 13.09375 37.609375 10.59375 30.625 
z
M 23.09375 0.390625 
C 10.796875 0.390625 10.796875 18.75 10.796875 22.4375 
C 10.796875 29.625 14.203125 40 23.5 40 
C 25.203125 40 30.09375 40 33.40625 33.125 
C 35.203125 29.21875 35.203125 25.140625 35.203125 20.140625 
C 35.203125 14.75 35.203125 10.78125 33.09375 6.78125 
C 30.90625 2.671875 27.703125 0.390625 23.09375 0.390625 
z
" id="CMR17-54"/>
      </defs>
      <g style="fill:#262626;" transform="translate(26.50371 60.846343)scale(0.1728 -0.1728)">
       <use transform="scale(0.996264)" xlink:href="#CMR17-48"/>
       <use transform="translate(45.690477 0)scale(0.996264)" xlink:href="#CMMI12-58"/>
       <use transform="translate(72.787654 0)scale(0.996264)" xlink:href="#CMR17-54"/>
      </g>
     </g>
    </g>
    <g id="text_5">
     <!-- $I_{max}$ -->
     <defs>
      <path d="M 36.796875 60.625 
C 37.703125 64.109375 37.90625 65.109375 45.203125 65.109375 
C 47.40625 65.109375 48.203125 65.109375 48.203125 67 
C 48.203125 68 47.09375 68 46.796875 68 
C 45 68 42.796875 68 41 68 
L 28.703125 68 
C 26.703125 68 24.40625 68 22.40625 68 
C 21.59375 68 20.5 68 20.5 66.109375 
C 20.5 65.109375 21.296875 65.109375 23.296875 65.109375 
C 29.5 65.109375 29.5 64.3125 29.5 63.21875 
C 29.5 62.53125 29.296875 61.921875 29.09375 61.03125 
L 15.59375 7.375 
C 14.703125 3.890625 14.5 2.890625 7.203125 2.890625 
C 5 2.890625 4.09375 2.890625 4.09375 1 
C 4.09375 0 5.09375 0 5.59375 0 
C 7.40625 0 9.59375 0 11.40625 0 
L 23.703125 0 
C 25.703125 0 27.90625 0 29.90625 0 
C 30.703125 0 31.90625 0 31.90625 1.796875 
C 31.90625 2.890625 31.296875 2.890625 29.09375 2.890625 
C 22.90625 2.890625 22.90625 3.6875 22.90625 4.875 
C 22.90625 5.078125 22.90625 5.578125 23.296875 7.171875 
z
" id="CMMI12-73"/>
      <path d="M 20.59375 29.234375 
C 20.796875 29.84375 23.296875 34.828125 27 38.015625 
C 29.59375 40.40625 33 42.015625 36.90625 42.015625 
C 40.90625 42.015625 42.296875 39.015625 42.296875 35.03125 
C 42.296875 34.421875 42.296875 32.4375 41.09375 27.734375 
L 38.59375 17.46875 
C 37.796875 14.46875 35.90625 7.078125 35.703125 5.984375 
C 35.296875 4.484375 34.703125 1.890625 34.703125 1.5 
C 34.703125 0.09375 35.796875 -1 37.296875 -1 
C 40.296875 -1 40.796875 1.296875 41.703125 4.890625 
L 47.703125 28.734375 
C 47.90625 29.53125 53.09375 42.015625 64.09375 42.015625 
C 68.09375 42.015625 69.5 39.015625 69.5 35.03125 
C 69.5 29.4375 65.59375 18.5625 63.40625 12.578125 
C 62.5 10.171875 62 8.875 62 7.078125 
C 62 2.59375 65.09375 -1 69.90625 -1 
C 79.203125 -1 82.703125 13.671875 82.703125 14.265625 
C 82.703125 14.765625 82.296875 15.171875 81.703125 15.171875 
C 80.796875 15.171875 80.703125 14.875 80.203125 13.171875 
C 77.90625 5.1875 74.203125 1 70.203125 1 
C 69.203125 1 67.59375 1 67.59375 4.203125 
C 67.59375 6.8125 68.796875 10 69.203125 11.09375 
C 71 15.90625 75.5 27.703125 75.5 33.515625 
C 75.5 39.5 72 44 64.40625 44 
C 57.703125 44 52.296875 40.21875 48.296875 34.328125 
C 48 39.71875 44.703125 44 37.203125 44 
C 28.296875 44 23.59375 37.734375 21.796875 35.234375 
C 21.5 40.90625 17.40625 44 13 44 
C 10.09375 44 7.796875 42.609375 5.90625 38.8125 
C 4.09375 35.21875 2.703125 29.140625 2.703125 28.734375 
C 2.703125 28.34375 3.09375 27.84375 3.796875 27.84375 
C 4.59375 27.84375 4.703125 27.9375 5.296875 30.234375 
C 6.796875 36.125 8.703125 42.015625 12.703125 42.015625 
C 15 42.015625 15.796875 40.40625 15.796875 37.421875 
C 15.796875 35.21875 14.796875 31.328125 14.09375 28.234375 
L 11.296875 17.46875 
C 10.90625 15.5625 9.796875 11.078125 9.296875 9.28125 
C 8.59375 6.6875 7.5 2 7.5 1.5 
C 7.5 0.09375 8.59375 -1 10.09375 -1 
C 11.296875 -1 12.703125 -0.40625 13.5 1.09375 
C 13.703125 1.59375 14.59375 5.09375 15.09375 7.078125 
L 17.296875 16.0625 
z
" id="CMMI12-109"/>
      <path d="M 30.09375 11.875 
C 29.59375 10.171875 29.59375 9.984375 28.203125 8.078125 
C 26 5.28125 21.59375 1 16.90625 1 
C 12.796875 1 10.5 4.6875 10.5 10.578125 
C 10.5 16.0625 13.59375 27.234375 15.5 31.4375 
C 18.90625 38.421875 23.59375 42.015625 27.5 42.015625 
C 34.09375 42.015625 35.40625 33.828125 35.40625 33.03125 
C 35.40625 32.9375 35.09375 31.625 35 31.4375 
z
M 36.5 37.421875 
C 35.40625 40.015625 32.703125 44 27.5 44 
C 16.203125 44 4 29.4375 4 14.671875 
C 4 4.796875 9.796875 -1 16.59375 -1 
C 22.09375 -1 26.796875 3.296875 29.59375 6.59375 
C 30.59375 0.703125 35.296875 -1 38.296875 -1 
C 41.296875 -1 43.703125 0.796875 45.5 4.390625 
C 47.09375 7.78125 48.5 13.875 48.5 14.265625 
C 48.5 14.765625 48.09375 15.171875 47.5 15.171875 
C 46.59375 15.171875 46.5 14.671875 46.09375 13.171875 
C 44.59375 7.28125 42.703125 1 38.59375 1 
C 35.703125 1 35.5 3.59375 35.5 5.59375 
C 35.5 7.890625 35.796875 8.984375 36.703125 12.875 
C 37.40625 15.375 37.90625 17.5625 38.703125 20.453125 
C 42.40625 35.421875 43.296875 39.015625 43.296875 39.609375 
C 43.296875 41.015625 42.203125 42.109375 40.703125 42.109375 
C 37.5 42.109375 36.703125 38.625 36.5 37.421875 
z
" id="CMMI12-97"/>
      <path d="M 47.40625 40.71875 
C 44.203125 40.109375 43 37.71875 43 35.828125 
C 43 33.421875 44.90625 32.625 46.296875 32.625 
C 49.296875 32.625 51.40625 35.21875 51.40625 37.921875 
C 51.40625 42.109375 46.59375 44 42.40625 44 
C 36.296875 44 32.90625 38.015625 32 36.125 
C 29.703125 44 23.5 44 21.703125 44 
C 11.5 44 6.09375 30.9375 6.09375 28.734375 
C 6.09375 28.34375 6.5 27.84375 7.203125 27.84375 
C 8 27.84375 8.203125 28.4375 8.40625 28.84375 
C 11.796875 39.921875 18.5 42.015625 21.40625 42.015625 
C 25.90625 42.015625 26.796875 37.8125 26.796875 35.421875 
C 26.796875 33.234375 26.203125 30.9375 25 26.140625 
L 21.59375 12.46875 
C 20.09375 6.484375 17.203125 1 11.90625 1 
C 11.40625 1 8.90625 1 6.796875 2.296875 
C 10.40625 3 11.203125 5.984375 11.203125 7.1875 
C 11.203125 9.1875 9.703125 10.375 7.796875 10.375 
C 5.40625 10.375 2.796875 8.28125 2.796875 5.09375 
C 2.796875 0.890625 7.5 -1 11.796875 -1 
C 16.59375 -1 20 2.796875 22.09375 6.890625 
C 23.703125 1 28.703125 -1 32.40625 -1 
C 42.59375 -1 48 12.078125 48 14.265625 
C 48 14.765625 47.59375 15.171875 47 15.171875 
C 46.09375 15.171875 46 14.671875 45.703125 13.875 
C 43 5.09375 37.203125 1 32.703125 1 
C 29.203125 1 27.296875 3.59375 27.296875 7.6875 
C 27.296875 9.875 27.703125 11.46875 29.296875 18.0625 
L 32.796875 31.625 
C 34.296875 37.625 37.703125 42.015625 42.296875 42.015625 
C 42.5 42.015625 45.296875 42.015625 47.40625 40.71875 
z
" id="CMMI12-120"/>
     </defs>
     <g style="fill:#262626;" transform="translate(19.155168 127.939582)rotate(-90)scale(0.1728 -0.1728)">
      <use transform="translate(0 14.943915)scale(0.996264)" xlink:href="#CMMI12-73"/>
      <use transform="translate(43.024176 0)scale(0.697382)" xlink:href="#CMMI12-109"/>
      <use transform="translate(102.752967 0)scale(0.697382)" xlink:href="#CMMI12-97"/>
      <use transform="translate(138.598314 0)scale(0.697382)" xlink:href="#CMMI12-120"/>
     </g>
    </g>
   </g>
   <g id="line2d_21">
    <path clip-path="url(#p2470021957)" d="M 50.476696 112.614974 
L 56.073046 117.948952 
L 56.844957 118.595921 
L 57.42389 119.144714 
L 64.371084 124.91767 
L 64.950017 125.429608 
L 72.090189 130.192086 
L 72.283166 130.192086 
L 73.248054 130.812156 
L 73.441032 130.812156 
L 74.40592 131.2853 
L 75.370808 131.732414 
L 76.335696 132.148173 
L 77.493562 132.614261 
L 78.45845 132.93582 
L 78.844405 133.008252 
L 79.809293 133.261368 
L 80.388226 133.364522 
L 81.353114 133.518159 
L 85.019689 133.420428 
L 87.528398 132.655374 
L 88.493286 132.080958 
L 88.686264 132.080958 
L 89.844129 131.123207 
L 90.037107 131.123207 
L 90.61604 130.405362 
L 90.809017 130.405362 
L 91.194973 129.872189 
L 91.38795 129.872189 
L 91.966883 129.072414 
L 92.159861 129.072414 
L 92.738794 128.280657 
L 92.931771 128.280657 
L 93.317726 127.757852 
L 93.510704 127.757852 
L 94.089637 126.982058 
L 94.282614 126.982058 
L 95.054525 125.965167 
L 95.247503 125.965167 
L 95.826435 125.217099 
L 96.019413 125.217099 
L 96.791323 124.241265 
L 96.984301 124.241265 
L 97.756212 123.292458 
L 97.949189 123.292458 
L 99.107055 121.925309 
L 99.300032 121.925309 
L 101.615764 119.420823 
L 108.36998 112.649763 
L 109.141891 112.614983 
L 243.261334 112.614983 
L 243.261334 112.614983 
" style="fill:none;stroke:#0571a3;stroke-linecap:round;stroke-width:5;"/>
   </g>
   <g id="line2d_22">
    <path clip-path="url(#p2470021957)" d="M 82.703957 170.539542 
L 82.703957 54.868758 
" style="fill:none;stroke:#0571a3;stroke-dasharray:11.1,4.8;stroke-dashoffset:0;stroke-width:3;"/>
   </g>
   <g id="line2d_23">
    <path clip-path="url(#p2470021957)" d="M 108.401264 170.539542 
L 108.401264 54.868758 
" style="fill:none;stroke:#c20a1f;stroke-dasharray:11.1,4.8;stroke-dashoffset:0;stroke-width:3;"/>
   </g>
   <g id="patch_3">
    <path d="M 50.476696 170.539542 
L 50.476696 54.868758 
" style="fill:none;stroke:#cccccc;stroke-linecap:square;stroke-linejoin:miter;"/>
   </g>
   <g id="patch_4">
    <path d="M 243.261334 170.539542 
L 243.261334 54.868758 
" style="fill:none;stroke:#cccccc;stroke-linecap:square;stroke-linejoin:miter;"/>
   </g>
   <g id="patch_5">
    <path d="M 50.476696 170.539542 
L 243.261334 170.539542 
" style="fill:none;stroke:#cccccc;stroke-linecap:square;stroke-linejoin:miter;"/>
   </g>
   <g id="patch_6">
    <path d="M 50.476696 54.868758 
L 243.261334 54.868758 
" style="fill:none;stroke:#cccccc;stroke-linecap:square;stroke-linejoin:miter;"/>
   </g>
   <g id="text_6">
    <!-- $\mathcal{R}_0 = 3$ ;  $\gamma{} \tau{} = 1.5$ -->
    <defs>
     <path d="M 40.5 63 
C 59.703125 63 64.703125 58.234375 64.703125 51.546875 
C 64.703125 45.375 59.90625 33.203125 43.40625 33.203125 
C 38.5 33.203125 35.09375 29.390625 35.09375 28.203125 
C 35.09375 27.609375 35.5 27.609375 35.59375 27.609375 
C 39.796875 26.90625 41.796875 24.90625 47 13.109375 
C 51.59375 2.609375 54.203125 -2 60.09375 -2 
C 72.203125 -2 83.703125 10.296875 83.703125 12.5 
C 83.703125 13.203125 82.90625 13.203125 82.59375 13.203125 
C 81.40625 13.203125 77.5 11.796875 75.40625 8.90625 
C 73.796875 6.609375 71.59375 3.5 66.703125 3.5 
C 61.59375 3.5 58.5 10.609375 55.09375 18.40625 
C 53 23.40625 51.203125 27.109375 48.90625 29.796875 
C 63.40625 35.109375 73.203125 45.609375 73.203125 56 
C 73.203125 68.5 56.40625 68.5 41.296875 68.5 
C 31.296875 68.5 25.703125 68.5 17.296875 64.90625 
C 3.90625 59 2.09375 50.703125 2.09375 49.90625 
C 2.09375 49.296875 2.5 49.109375 3.09375 49.109375 
C 4.703125 49.109375 7 50.53125 7.796875 51.046875 
C 9.90625 52.484375 10.203125 53.09375 10.796875 55.03125 
C 12.203125 59.125 15 62.703125 27.59375 62.703125 
C 27.09375 56.640625 26.203125 47.390625 22.796875 32.84375 
C 20.09375 21.6875 16.40625 10.734375 12 0.09375 
C 11.5 -1 11.5 -1.203125 11.5 -1.296875 
C 11.5 -2 12.296875 -2 12.5 -2 
C 14.5 -2 18.703125 0.40625 19.796875 2.296875 
C 20 2.796875 32.703125 31 35.796875 63 
z
" id="CMSY10-82"/>
     <path d="M 64.296875 31.515625 
C 65.796875 31.515625 67.296875 31.515625 67.296875 33.203125 
C 67.296875 35 65.59375 35 63.90625 35 
L 8 35 
C 6.296875 35 4.59375 35 4.59375 33.203125 
C 4.59375 31.515625 6.09375 31.515625 7.59375 31.515625 
z
M 63.90625 14 
C 65.59375 14 67.296875 14 67.296875 15.796875 
C 67.296875 17.484375 65.796875 17.484375 64.296875 17.484375 
L 7.59375 17.484375 
C 6.09375 17.484375 4.59375 17.484375 4.59375 15.796875 
C 4.59375 14 6.296875 14 8 14 
z
" id="CMR17-61"/>
     <path d="M 22.09375 33.703125 
C 31 33.703125 34.90625 25.96875 34.90625 17.03125 
C 34.90625 5 28.5 0.390625 22.703125 0.390625 
C 17.40625 0.390625 8.796875 3.03125 6.09375 10.828125 
C 6.59375 10.625 7.09375 10.625 7.59375 10.625 
C 10 10.625 11.796875 12.21875 11.796875 14.8125 
C 11.796875 17.703125 9.59375 19 7.59375 19 
C 5.90625 19 3.296875 18.203125 3.296875 14.46875 
C 3.296875 5.234375 12.296875 -2 22.90625 -2 
C 34 -2 42.5 6.71875 42.5 16.953125 
C 42.5 26.671875 34.5 33.703125 25 34.796875 
C 32.59375 36.375 39.90625 43.0625 39.90625 52.015625 
C 39.90625 59.6875 32 65.296875 23 65.296875 
C 13.90625 65.296875 5.90625 59.828125 5.90625 52.015625 
C 5.90625 48.59375 8.5 48 9.796875 48 
C 11.90625 48 13.703125 49.296875 13.703125 51.890625 
C 13.703125 54.46875 11.90625 55.765625 9.796875 55.765625 
C 9.40625 55.765625 8.90625 55.765625 8.5 55.578125 
C 11.40625 61.859375 19.296875 63 22.796875 63 
C 26.296875 63 32.90625 61.328125 32.90625 51.875 
C 32.90625 49.109375 32.5 44.1875 29.09375 39.84375 
C 26.09375 36 22.703125 36 19.40625 35.6875 
C 18.90625 35.6875 16.59375 35.453125 16.203125 35.453125 
C 15.5 35.359375 15.09375 35.265625 15.09375 34.5 
C 15.09375 33.796875 15.203125 33.703125 17.203125 33.703125 
z
" id="CMR17-51"/>
     <path d="M 17 42.953125 
L 9 42.953125 
L 9 35 
L 17 35 
z
M 8.90625 -12.5 
L 12.90625 -12.5 
L 17 0.09375 
L 17 7.96875 
L 9 7.96875 
L 9 0 
L 11.5 0 
z
" id="CMSS17-59"/>
     <path d="M 37.796875 11.875 
C 37.59375 16.734375 37.40625 24.390625 33.59375 33.328125 
C 31.59375 38.3125 28.203125 43.5625 20.90625 43.5625 
C 8.59375 43.5625 1.90625 27.96875 1.90625 25.390625 
C 1.90625 24.484375 2.59375 24.484375 2.90625 24.484375 
C 3.796875 24.484375 3.796875 24.6875 4.296875 25.984375 
C 6.40625 32.140625 12.796875 37 19.703125 37 
C 33.59375 37 35.59375 21.609375 35.59375 11.78125 
C 35.59375 5.5 34.90625 3.4375 34.296875 1.4375 
C 32.40625 -4.71875 29.09375 -17.03125 29.09375 -19.8125 
C 29.09375 -20.609375 29.40625 -21.5 30.203125 -21.5 
C 31.703125 -21.5 32.59375 -18.21875 33.703125 -14.25 
C 36.09375 -5.515625 36.703125 -1.140625 37.203125 2.828125 
C 37.5 5.21875 43.203125 21.625 51.09375 37.21875 
C 51.796875 38.796875 53.203125 41.484375 53.203125 41.78125 
C 53.203125 41.875 53.09375 42.578125 52.203125 42.578125 
C 52 42.578125 51.5 42.578125 51.296875 42.171875 
C 51.09375 41.984375 47.59375 35.21875 44.59375 28.46875 
C 43.09375 25.09375 41.09375 20.625 37.796875 11.875 
z
" id="CMMI12-13"/>
     <path d="M 28.703125 37.625 
L 45.296875 37.625 
C 46.59375 37.625 49.90625 37.625 49.90625 40.8125 
C 49.90625 43 48 43 46.203125 43 
L 18.703125 43 
C 16.40625 43 13 43 8.40625 38.125 
C 5.796875 35.234375 2.59375 29.953125 2.59375 29.359375 
C 2.59375 28.765625 3.09375 28.5625 3.703125 28.5625 
C 4.40625 28.5625 4.5 28.859375 5 29.453125 
C 10.203125 37.625 15.40625 37.625 17.90625 37.625 
L 26.203125 37.625 
L 15.796875 3.484375 
C 15.296875 1.984375 15.296875 1.78125 15.296875 1.484375 
C 15.296875 0.390625 16 -1 18 -1 
C 21.09375 -1 21.59375 1.6875 21.90625 3.171875 
z
" id="CMMI12-28"/>
     <path d="M 26.59375 63.40625 
C 26.59375 65.5 26.5 65.5 25.09375 65.5 
C 21.203125 61.1875 15.296875 59.796875 9.703125 59.796875 
C 9.40625 59.796875 8.90625 59.796875 8.796875 59.5 
C 8.703125 59.296875 8.703125 59.09375 8.703125 57 
C 11.796875 57 17 57.59375 21 59.984375 
L 21 7.203125 
C 21 3.6875 20.796875 2.5 12.203125 2.5 
L 9.203125 2.5 
L 9.203125 0 
C 14 0 19 0 23.796875 0 
C 28.59375 0 33.59375 0 38.40625 0 
L 38.40625 2.5 
L 35.40625 2.5 
C 26.796875 2.5 26.59375 3.59375 26.59375 7.15625 
z
" id="CMR17-49"/>
     <path d="M 11.40625 57.6875 
C 12.40625 57.28125 16.5 56 20.703125 56 
C 30 56 35.09375 61.109375 38 64.0625 
C 38 64.953125 38 65.5 37.40625 65.5 
C 37.296875 65.5 37.09375 65.5 36.296875 65.046875 
C 32.796875 63.40625 28.703125 62.078125 23.703125 62.078125 
C 20.703125 62.078125 16.203125 62.484375 11.296875 64.671875 
C 10.203125 65.171875 10 65.171875 9.90625 65.171875 
C 9.40625 65.171875 9.296875 65.0625 9.296875 63.078125 
L 9.296875 34.421875 
C 9.296875 32.640625 9.296875 32.140625 10.296875 32.140625 
C 10.796875 32.140625 11 32.34375 11.5 33.03125 
C 14.703125 37.515625 19.09375 39.40625 24.09375 39.40625 
C 27.59375 39.40625 35.09375 37.21875 35.09375 20.140625 
C 35.09375 16.953125 35.09375 11.171875 32.09375 6.578125 
C 29.59375 2.484375 25.703125 0.390625 21.40625 0.390625 
C 14.796875 0.390625 8.09375 5 6.296875 12.71875 
C 6.703125 12.609375 7.5 12.421875 7.90625 12.421875 
C 9.203125 12.421875 11.703125 13.125 11.703125 16.21875 
C 11.703125 18.90625 9.796875 20 7.90625 20 
C 5.59375 20 4.09375 18.59375 4.09375 15.796875 
C 4.09375 7.09375 11 -2 21.59375 -2 
C 31.90625 -2 41.703125 6.875 41.703125 19.75 
C 41.703125 31.71875 33.90625 41 24.203125 41 
C 19.09375 41 14.796875 39.109375 11.40625 35.53125 
z
" id="CMR17-53"/>
    </defs>
    <g style="fill:#262626;" transform="translate(83.151375 48.868758)scale(0.1728 -0.1728)">
     <use transform="translate(0 14.943915)scale(0.996264)" xlink:href="#CMSY10-82"/>
     <use transform="translate(84.43374 0)scale(0.697382)" xlink:href="#CMR17-48"/>
     <use transform="translate(144.589062 14.943915)scale(0.996264)" xlink:href="#CMR17-61"/>
     <use transform="translate(243.97786 14.943915)scale(0.996264)" xlink:href="#CMR17-51"/>
     <use transform="translate(320.897449 14.943915)scale(0.996264)" xlink:href="#CMSS17-59"/>
     <use transform="translate(378.150767 14.943915)scale(0.996264)" xlink:href="#CMMI12-13"/>
     <use transform="translate(434.169335 14.943915)scale(0.996264)" xlink:href="#CMMI12-28"/>
     <use transform="translate(515.334509 14.943915)scale(0.996264)" xlink:href="#CMR17-61"/>
     <use transform="translate(614.723306 14.943915)scale(0.996264)" xlink:href="#CMR17-49"/>
     <use transform="translate(660.413783 14.943915)scale(0.996264)" xlink:href="#CMMI12-58"/>
     <use transform="translate(687.51096 14.943915)scale(0.996264)" xlink:href="#CMR17-53"/>
    </g>
   </g>
   <g id="legend_1">
    <g id="patch_7">
     <path d="M 160.80181 163.339542 
L 233.181334 163.339542 
Q 236.061334 163.339542 236.061334 160.459542 
L 236.061334 119.714879 
Q 236.061334 116.834879 233.181334 116.834879 
L 160.80181 116.834879 
Q 157.92181 116.834879 157.92181 119.714879 
L 157.92181 160.459542 
Q 157.92181 163.339542 160.80181 163.339542 
z
" style="fill:#ffffff;stroke:#cccccc;stroke-linejoin:miter;"/>
    </g>
    <g id="line2d_24">
     <path d="M 163.68181 128.657683 
L 192.48181 128.657683 
" style="fill:none;stroke:#0571a3;stroke-dasharray:11.1,4.8;stroke-dashoffset:0;stroke-width:3;"/>
    </g>
    <g id="line2d_25"/>
    <g id="text_7">
     <!-- $I_{opt}$ -->
     <defs>
      <path d="M 45.59375 27.4375 
C 45.59375 36.921875 39.40625 44 30.296875 44 
C 17.09375 44 4.09375 29.640625 4.09375 15.5625 
C 4.09375 6.09375 10.296875 -1 19.40625 -1 
C 32.703125 -1 45.59375 13.375 45.59375 27.4375 
z
M 19.5 1 
C 14.5 1 10.796875 4.984375 10.796875 11.96875 
C 10.796875 16.5625 13.203125 26.75 16 31.734375 
C 20.5 39.421875 26.09375 42.015625 30.203125 42.015625 
C 35.09375 42.015625 38.90625 38.015625 38.90625 31.03125 
C 38.90625 27.046875 36.796875 16.359375 33 10.28125 
C 28.90625 3.59375 23.40625 1 19.5 1 
z
" id="CMMI12-111"/>
      <path d="M 4.296875 -12.328125 
C 3.59375 -15.3125 3.203125 -16.109375 -0.90625 -16.109375 
C -2.09375 -16.109375 -3.09375 -16.109375 -3.09375 -18 
C -3.09375 -18.203125 -3 -19 -1.90625 -19 
C -0.59375 -19 0.796875 -19 2.09375 -19 
L 6.40625 -19 
C 8.5 -19 13.59375 -19 15.703125 -19 
C 16.296875 -19 17.5 -19 17.5 -17.203125 
C 17.5 -16.109375 16.796875 -16.109375 15.09375 -16.109375 
C 10.5 -16.109375 10.203125 -15.421875 10.203125 -14.640625 
C 10.203125 -13.453125 14.703125 3.421875 15.296875 5.6875 
C 16.40625 2.890625 19.09375 -1 24.296875 -1 
C 35.59375 -1 47.796875 13.671875 47.796875 28.34375 
C 47.796875 37.515625 42.59375 44 35.09375 44 
C 28.703125 44 23.296875 37.8125 22.203125 36.421875 
C 21.40625 41.40625 17.5 44 13.5 44 
C 10.59375 44 8.296875 42.609375 6.40625 38.8125 
C 4.59375 35.21875 3.203125 29.140625 3.203125 28.734375 
C 3.203125 28.34375 3.59375 27.84375 4.296875 27.84375 
C 5.09375 27.84375 5.203125 27.9375 5.796875 30.234375 
C 7.296875 36.125 9.203125 42.015625 13.203125 42.015625 
C 15.5 42.015625 16.296875 40.421875 16.296875 37.453125 
C 16.296875 35.078125 16 34.078125 15.59375 32.296875 
z
M 21.59375 31.140625 
C 22.296875 33.921875 25.09375 36.828125 26.703125 38.21875 
C 27.796875 39.21875 31.09375 42.015625 34.90625 42.015625 
C 39.296875 42.015625 41.296875 37.625 41.296875 32.4375 
C 41.296875 27.640625 38.5 16.359375 36 11.171875 
C 33.5 5.78125 28.90625 1 24.296875 1 
C 17.5 1 16.40625 9.578125 16.40625 9.984375 
C 16.40625 10.28125 16.59375 11.078125 16.703125 11.578125 
z
" id="CMMI12-112"/>
      <path d="M 20.09375 40.09375 
L 29.296875 40.09375 
C 31.203125 40.09375 32.203125 40.09375 32.203125 41.890625 
C 32.203125 43 31.59375 43 29.59375 43 
L 20.796875 43 
L 24.5 57.6875 
C 24.90625 59.078125 24.90625 59.28125 24.90625 60 
C 24.90625 61.609375 23.59375 62.5 22.296875 62.5 
C 21.5 62.5 19.203125 62.203125 18.40625 58.984375 
L 14.5 43 
L 5.09375 43 
C 3.09375 43 2.203125 43 2.203125 41.09375 
C 2.203125 40.09375 2.90625 40.09375 4.796875 40.09375 
L 13.703125 40.09375 
L 7.09375 13.765625 
C 6.296875 10.28125 6 9.28125 6 7.984375 
C 6 3.296875 9.296875 -1 14.90625 -1 
C 25 -1 30.40625 13.5625 30.40625 14.25 
C 30.40625 14.859375 30 15.15625 29.40625 15.15625 
C 29.203125 15.15625 28.796875 15.15625 28.59375 14.75 
C 28.5 14.65625 28.40625 14.546875 27.703125 12.953125 
C 25.59375 7.984375 21 1 15.203125 1 
C 12.203125 1 12 3.5 12 5.6875 
C 12 5.78125 12 7.6875 12.296875 8.875 
z
" id="CMMI12-116"/>
     </defs>
     <g style="fill:#262626;" transform="translate(204.00181 133.697683)scale(0.144 -0.144)">
      <use transform="translate(0 14.943915)scale(0.996264)" xlink:href="#CMMI12-73"/>
      <use transform="translate(43.024176 0)scale(0.697382)" xlink:href="#CMMI12-111"/>
      <use transform="translate(75.850737 0)scale(0.697382)" xlink:href="#CMMI12-112"/>
      <use transform="translate(110.122244 0)scale(0.697382)" xlink:href="#CMMI12-116"/>
     </g>
    </g>
    <g id="line2d_26">
     <path d="M 163.68181 149.750015 
L 192.48181 149.750015 
" style="fill:none;stroke:#c20a1f;stroke-dasharray:11.1,4.8;stroke-dashoffset:0;stroke-width:3;"/>
    </g>
    <g id="line2d_27"/>
    <g id="text_8">
     <!-- $I_{peak}$ -->
     <defs>
      <path d="M 17.90625 23.109375 
C 20.59375 23.109375 27.40625 23.109375 32.203125 24.921875 
C 39.796875 27.859375 40.5 33.71875 40.5 35.53125 
C 40.5 39.96875 36.703125 44 30.09375 44 
C 19.59375 44 4.5 34.53125 4.5 16.765625 
C 4.5 6.28125 10.5 -1 19.59375 -1 
C 33.203125 -1 41.796875 9.515625 41.796875 10.8125 
C 41.796875 11.40625 41.203125 11.90625 40.796875 11.90625 
C 40.5 11.90625 40.40625 11.8125 39.5 10.921875 
C 33.09375 2.484375 23.59375 1 19.796875 1 
C 14.09375 1 11.09375 5.46875 11.09375 12.84375 
C 11.09375 14.234375 11.09375 16.734375 12.59375 23.109375 
z
M 13.09375 25 
C 17.40625 40.5 26.90625 42.015625 30.09375 42.015625 
C 34.5 42.015625 37.5 39.40625 37.5 35.578125 
C 37.5 25 21.5 25 17.296875 25 
z
" id="CMMI12-101"/>
      <path d="M 28.09375 66.515625 
C 28.203125 66.921875 28.40625 67.515625 28.40625 68 
C 28.40625 69 27.40625 69 27.203125 69 
C 27.09375 69 23.5 68.640625 21.703125 68.390625 
C 20 68.390625 18.5 68.09375 16.703125 68.09375 
C 14.296875 67.890625 13.59375 67.796875 13.59375 66 
C 13.59375 65 14.59375 65 15.59375 65 
C 20.703125 65 20.703125 64.109375 20.703125 63.125 
C 20.703125 62.734375 20.703125 62.53125 20.203125 60.75 
L 5.90625 3.875 
C 5.5 2.375 5.5 2.1875 5.5 1.578125 
C 5.5 -0.59375 7.203125 -1 8.203125 -1 
C 11 -1 11.59375 1.203125 12.40625 4.296875 
L 17.09375 22.953125 
C 24.296875 22.15625 28.59375 19.15625 28.59375 14.375 
C 28.59375 13.765625 28.59375 13.375 28.296875 11.875 
C 27.90625 10.375 27.90625 9.1875 27.90625 8.6875 
C 27.90625 2.890625 31.703125 -1 36.796875 -1 
C 41.40625 -1 43.796875 3.1875 44.59375 4.59375 
C 46.703125 8.28125 48 13.875 48 14.265625 
C 48 14.765625 47.59375 15.171875 47 15.171875 
C 46.09375 15.171875 46 14.765625 45.59375 13.171875 
C 44.203125 7.984375 42.09375 1 37 1 
C 35 1 33.703125 2 33.703125 5.78125 
C 33.703125 7.6875 34.09375 9.875 34.5 11.375 
C 34.90625 13.171875 34.90625 13.265625 34.90625 14.46875 
C 34.90625 20.359375 29.59375 23.65625 20.40625 24.84375 
C 24 27.046875 27.59375 30.9375 29 32.4375 
C 34.703125 38.8125 38.59375 42.015625 43.203125 42.015625 
C 45.5 42.015625 46.09375 41.40625 46.796875 40.8125 
C 43.09375 40.40625 41.703125 37.8125 41.703125 35.828125 
C 41.703125 33.421875 43.59375 32.625 45 32.625 
C 47.703125 32.625 50.09375 34.921875 50.09375 38.125 
C 50.09375 41.015625 47.796875 44 43.296875 44 
C 37.796875 44 33.296875 40.109375 26.203125 32.125 
C 25.203125 30.9375 21.5 27.140625 17.796875 25.75 
z
" id="CMMI12-107"/>
     </defs>
     <g style="fill:#262626;" transform="translate(204.00181 154.790015)scale(0.144 -0.144)">
      <use transform="translate(0 14.943915)scale(0.996264)" xlink:href="#CMMI12-73"/>
      <use transform="translate(43.024176 0)scale(0.697382)" xlink:href="#CMMI12-112"/>
      <use transform="translate(77.295682 0)scale(0.697382)" xlink:href="#CMMI12-101"/>
      <use transform="translate(108.943938 0)scale(0.697382)" xlink:href="#CMMI12-97"/>
      <use transform="translate(144.789285 0)scale(0.697382)" xlink:href="#CMMI12-107"/>
     </g>
    </g>
   </g>
  </g>
  <g id="axes_2">
   <g id="patch_8">
    <path d="M 329.803676 170.539542 
L 522.588315 170.539542 
L 522.588315 54.868758 
L 329.803676 54.868758 
z
" style="fill:#ffffff;"/>
   </g>
   <g id="matplotlib.axis_3">
    <g id="xtick_7">
     <g id="line2d_28">
      <path clip-path="url(#p76fe239a58)" d="M 329.803676 170.539542 
L 329.803676 54.868758 
" style="fill:none;stroke:#cccccc;stroke-linecap:round;stroke-width:0.8;"/>
     </g>
     <g id="line2d_29"/>
    </g>
    <g id="xtick_8">
     <g id="line2d_30">
      <path clip-path="url(#p76fe239a58)" d="M 368.360604 170.539542 
L 368.360604 54.868758 
" style="fill:none;stroke:#cccccc;stroke-linecap:round;stroke-width:0.8;"/>
     </g>
     <g id="line2d_31"/>
    </g>
    <g id="xtick_9">
     <g id="line2d_32">
      <path clip-path="url(#p76fe239a58)" d="M 406.917532 170.539542 
L 406.917532 54.868758 
" style="fill:none;stroke:#cccccc;stroke-linecap:round;stroke-width:0.8;"/>
     </g>
     <g id="line2d_33"/>
    </g>
    <g id="xtick_10">
     <g id="line2d_34">
      <path clip-path="url(#p76fe239a58)" d="M 445.47446 170.539542 
L 445.47446 54.868758 
" style="fill:none;stroke:#cccccc;stroke-linecap:round;stroke-width:0.8;"/>
     </g>
     <g id="line2d_35"/>
    </g>
    <g id="xtick_11">
     <g id="line2d_36">
      <path clip-path="url(#p76fe239a58)" d="M 484.031387 170.539542 
L 484.031387 54.868758 
" style="fill:none;stroke:#cccccc;stroke-linecap:round;stroke-width:0.8;"/>
     </g>
     <g id="line2d_37"/>
    </g>
    <g id="xtick_12">
     <g id="line2d_38">
      <path clip-path="url(#p76fe239a58)" d="M 522.588315 170.539542 
L 522.588315 54.868758 
" style="fill:none;stroke:#cccccc;stroke-linecap:round;stroke-width:0.8;"/>
     </g>
     <g id="line2d_39"/>
    </g>
   </g>
   <g id="matplotlib.axis_4">
    <g id="ytick_5">
     <g id="line2d_40">
      <path clip-path="url(#p76fe239a58)" d="M 329.803676 170.539542 
L 522.588315 170.539542 
" style="fill:none;stroke:#cccccc;stroke-linecap:round;stroke-width:0.8;"/>
     </g>
     <g id="line2d_41"/>
    </g>
    <g id="ytick_6">
     <g id="line2d_42">
      <path clip-path="url(#p76fe239a58)" d="M 329.803676 131.982614 
L 522.588315 131.982614 
" style="fill:none;stroke:#cccccc;stroke-linecap:round;stroke-width:0.8;"/>
     </g>
     <g id="line2d_43"/>
    </g>
    <g id="ytick_7">
     <g id="line2d_44">
      <path clip-path="url(#p76fe239a58)" d="M 329.803676 93.425686 
L 522.588315 93.425686 
" style="fill:none;stroke:#cccccc;stroke-linecap:round;stroke-width:0.8;"/>
     </g>
     <g id="line2d_45"/>
    </g>
    <g id="ytick_8">
     <g id="line2d_46">
      <path clip-path="url(#p76fe239a58)" d="M 329.803676 54.868758 
L 522.588315 54.868758 
" style="fill:none;stroke:#cccccc;stroke-linecap:round;stroke-width:0.8;"/>
     </g>
     <g id="line2d_47"/>
    </g>
   </g>
   <g id="line2d_48">
    <path clip-path="url(#p76fe239a58)" d="M 329.803676 112.614974 
L 340.224468 114.87196 
L 342.154244 115.236969 
L 343.31211 115.481011 
L 348.715483 116.471655 
L 353.539923 117.284476 
L 354.311834 117.394677 
L 356.24161 117.682221 
L 357.206498 117.786869 
L 359.329252 118.053643 
L 361.644983 118.325169 
L 363.960715 118.554504 
L 365.504535 118.658952 
L 368.206222 118.807844 
L 371.293864 118.858033 
L 374.188528 118.754525 
L 378.048081 118.297651 
L 380.942745 117.556177 
L 383.065499 116.728634 
L 383.451454 116.464006 
L 384.416342 115.884508 
L 384.995275 115.349724 
L 385.38123 115.006139 
L 386.15314 114.250232 
L 387.889939 112.614983 
L 522.588315 112.614983 
L 522.588315 112.614983 
" style="fill:none;stroke:#0571a3;stroke-linecap:round;stroke-width:5;"/>
   </g>
   <g id="line2d_49">
    <path clip-path="url(#p76fe239a58)" d="M 370.907909 170.539542 
L 370.907909 54.868758 
" style="fill:none;stroke:#0571a3;stroke-dasharray:11.1,4.8;stroke-dashoffset:0;stroke-width:3;"/>
   </g>
   <g id="line2d_50">
    <path clip-path="url(#p76fe239a58)" d="M 387.728245 170.539542 
L 387.728245 54.868758 
" style="fill:none;stroke:#c20a1f;stroke-dasharray:11.1,4.8;stroke-dashoffset:0;stroke-width:3;"/>
   </g>
   <g id="patch_9">
    <path d="M 329.803676 170.539542 
L 329.803676 54.868758 
" style="fill:none;stroke:#cccccc;stroke-linecap:square;stroke-linejoin:miter;"/>
   </g>
   <g id="patch_10">
    <path d="M 522.588315 170.539542 
L 522.588315 54.868758 
" style="fill:none;stroke:#cccccc;stroke-linecap:square;stroke-linejoin:miter;"/>
   </g>
   <g id="patch_11">
    <path d="M 329.803676 170.539542 
L 522.588315 170.539542 
" style="fill:none;stroke:#cccccc;stroke-linecap:square;stroke-linejoin:miter;"/>
   </g>
   <g id="patch_12">
    <path d="M 329.803676 54.868758 
L 522.588315 54.868758 
" style="fill:none;stroke:#cccccc;stroke-linecap:square;stroke-linejoin:miter;"/>
   </g>
   <g id="text_9">
    <!-- $\mathcal{R}_0 = 3$ ;  $\gamma{} \tau{} = 0.4$ -->
    <g style="fill:#262626;" transform="translate(362.478356 48.868758)scale(0.1728 -0.1728)">
     <use transform="translate(0 14.943915)scale(0.996264)" xlink:href="#CMSY10-82"/>
     <use transform="translate(84.43374 0)scale(0.697382)" xlink:href="#CMR17-48"/>
     <use transform="translate(144.589062 14.943915)scale(0.996264)" xlink:href="#CMR17-61"/>
     <use transform="translate(243.97786 14.943915)scale(0.996264)" xlink:href="#CMR17-51"/>
     <use transform="translate(320.897449 14.943915)scale(0.996264)" xlink:href="#CMSS17-59"/>
     <use transform="translate(378.150767 14.943915)scale(0.996264)" xlink:href="#CMMI12-13"/>
     <use transform="translate(434.169335 14.943915)scale(0.996264)" xlink:href="#CMMI12-28"/>
     <use transform="translate(515.334509 14.943915)scale(0.996264)" xlink:href="#CMR17-61"/>
     <use transform="translate(614.723306 14.943915)scale(0.996264)" xlink:href="#CMR17-48"/>
     <use transform="translate(660.413783 14.943915)scale(0.996264)" xlink:href="#CMMI12-58"/>
     <use transform="translate(687.51096 14.943915)scale(0.996264)" xlink:href="#CMR17-52"/>
    </g>
   </g>
  </g>
  <g id="axes_3">
   <g id="patch_13">
    <path d="M 50.476696 323.092099 
L 243.261334 323.092099 
L 243.261334 207.421316 
L 50.476696 207.421316 
z
" style="fill:#ffffff;"/>
   </g>
   <g id="matplotlib.axis_5">
    <g id="xtick_13">
     <g id="line2d_51">
      <path clip-path="url(#p9ba2fdce18)" d="M 50.476696 323.092099 
L 50.476696 207.421316 
" style="fill:none;stroke:#cccccc;stroke-linecap:round;stroke-width:0.8;"/>
     </g>
     <g id="line2d_52"/>
     <g id="text_10">
      <!-- $0.0$ -->
      <g style="fill:#262626;" transform="translate(40.240203 338.547267)scale(0.1728 -0.1728)">
       <use transform="scale(0.996264)" xlink:href="#CMR17-48"/>
       <use transform="translate(45.690477 0)scale(0.996264)" xlink:href="#CMMI12-58"/>
       <use transform="translate(72.787654 0)scale(0.996264)" xlink:href="#CMR17-48"/>
      </g>
     </g>
    </g>
    <g id="xtick_14">
     <g id="line2d_53">
      <path clip-path="url(#p9ba2fdce18)" d="M 89.033623 323.092099 
L 89.033623 207.421316 
" style="fill:none;stroke:#cccccc;stroke-linecap:round;stroke-width:0.8;"/>
     </g>
     <g id="line2d_54"/>
     <g id="text_11">
      <!-- $0.2$ -->
      <g style="fill:#262626;" transform="translate(78.797131 338.547267)scale(0.1728 -0.1728)">
       <use transform="scale(0.996264)" xlink:href="#CMR17-48"/>
       <use transform="translate(45.690477 0)scale(0.996264)" xlink:href="#CMMI12-58"/>
       <use transform="translate(72.787654 0)scale(0.996264)" xlink:href="#CMR17-50"/>
      </g>
     </g>
    </g>
    <g id="xtick_15">
     <g id="line2d_55">
      <path clip-path="url(#p9ba2fdce18)" d="M 127.590551 323.092099 
L 127.590551 207.421316 
" style="fill:none;stroke:#cccccc;stroke-linecap:round;stroke-width:0.8;"/>
     </g>
     <g id="line2d_56"/>
     <g id="text_12">
      <!-- $0.4$ -->
      <g style="fill:#262626;" transform="translate(117.354058 338.547267)scale(0.1728 -0.1728)">
       <use transform="scale(0.996264)" xlink:href="#CMR17-48"/>
       <use transform="translate(45.690477 0)scale(0.996264)" xlink:href="#CMMI12-58"/>
       <use transform="translate(72.787654 0)scale(0.996264)" xlink:href="#CMR17-52"/>
      </g>
     </g>
    </g>
    <g id="xtick_16">
     <g id="line2d_57">
      <path clip-path="url(#p9ba2fdce18)" d="M 166.147479 323.092099 
L 166.147479 207.421316 
" style="fill:none;stroke:#cccccc;stroke-linecap:round;stroke-width:0.8;"/>
     </g>
     <g id="line2d_58"/>
     <g id="text_13">
      <!-- $0.6$ -->
      <g style="fill:#262626;" transform="translate(155.910986 338.547267)scale(0.1728 -0.1728)">
       <use transform="scale(0.996264)" xlink:href="#CMR17-48"/>
       <use transform="translate(45.690477 0)scale(0.996264)" xlink:href="#CMMI12-58"/>
       <use transform="translate(72.787654 0)scale(0.996264)" xlink:href="#CMR17-54"/>
      </g>
     </g>
    </g>
    <g id="xtick_17">
     <g id="line2d_59">
      <path clip-path="url(#p9ba2fdce18)" d="M 204.704407 323.092099 
L 204.704407 207.421316 
" style="fill:none;stroke:#cccccc;stroke-linecap:round;stroke-width:0.8;"/>
     </g>
     <g id="line2d_60"/>
     <g id="text_14">
      <!-- $0.8$ -->
      <defs>
       <path d="M 27.203125 35.375 
C 33.5 38.546875 39.90625 43.328125 39.90625 50.984375 
C 39.90625 60.015625 31.09375 65.296875 23 65.296875 
C 13.90625 65.296875 5.90625 58.734375 5.90625 49.6875 
C 5.90625 47.203125 6.5 42.921875 10.40625 39.140625 
C 11.40625 38.15625 15.59375 35.171875 18.296875 33.28125 
C 13.796875 30.984375 3.296875 25.53125 3.296875 14.59375 
C 3.296875 4.359375 13.09375 -2 22.796875 -2 
C 33.5 -2 42.5 5.65625 42.5 15.78125 
C 42.5 24.84375 36.40625 29.015625 32.40625 31.703125 
z
M 14.09375 44.09375 
C 13.296875 44.59375 9.296875 47.671875 9.296875 52.359375 
C 9.296875 58.421875 15.59375 63 22.796875 63 
C 30.703125 63 36.5 57.4375 36.5 50.96875 
C 36.5 41.703125 26.09375 36.421875 25.59375 36.421875 
C 25.5 36.421875 25.40625 36.421875 24.59375 37.03125 
z
M 32.5 23.734375 
C 34 22.640625 38.796875 19.375 38.796875 13.296875 
C 38.796875 5.953125 31.40625 0.390625 23 0.390625 
C 13.90625 0.390625 7 6.84375 7 14.6875 
C 7 22.546875 13.09375 29.09375 20 32.1875 
z
" id="CMR17-56"/>
      </defs>
      <g style="fill:#262626;" transform="translate(194.467914 338.547267)scale(0.1728 -0.1728)">
       <use transform="scale(0.996264)" xlink:href="#CMR17-48"/>
       <use transform="translate(45.690477 0)scale(0.996264)" xlink:href="#CMMI12-58"/>
       <use transform="translate(72.787654 0)scale(0.996264)" xlink:href="#CMR17-56"/>
      </g>
     </g>
    </g>
    <g id="xtick_18">
     <g id="line2d_61">
      <path clip-path="url(#p9ba2fdce18)" d="M 243.261334 323.092099 
L 243.261334 207.421316 
" style="fill:none;stroke:#cccccc;stroke-linecap:round;stroke-width:0.8;"/>
     </g>
     <g id="line2d_62"/>
     <g id="text_15">
      <!-- $1.0$ -->
      <g style="fill:#262626;" transform="translate(233.024842 338.547267)scale(0.1728 -0.1728)">
       <use transform="scale(0.996264)" xlink:href="#CMR17-49"/>
       <use transform="translate(45.690477 0)scale(0.996264)" xlink:href="#CMMI12-58"/>
       <use transform="translate(72.787654 0)scale(0.996264)" xlink:href="#CMR17-48"/>
      </g>
     </g>
    </g>
    <g id="text_16">
     <!-- $I_i$ -->
     <defs>
      <path d="M 28.296875 14.265625 
C 28.296875 14.765625 27.90625 15.171875 27.296875 15.171875 
C 26.40625 15.171875 26.296875 14.875 25.796875 13.171875 
C 23.203125 4.09375 19.09375 1 15.796875 1 
C 14.59375 1 13.203125 1.296875 13.203125 4.296875 
C 13.203125 6.984375 14.40625 9.984375 15.5 12.96875 
L 22.5 31.53125 
C 22.796875 32.328125 23.5 34.125 23.5 36.015625 
C 23.5 40.21875 20.5 44 15.59375 44 
C 6.40625 44 2.703125 29.53125 2.703125 28.734375 
C 2.703125 28.34375 3.09375 27.84375 3.796875 27.84375 
C 4.703125 27.84375 4.796875 28.234375 5.203125 29.625 
C 7.59375 37.9375 11.40625 41.90625 15.296875 41.90625 
C 16.203125 41.90625 17.90625 41.90625 17.90625 38.71875 
C 17.90625 36.125 16.59375 32.828125 15.796875 30.640625 
L 8.796875 12.078125 
C 8.203125 10.484375 7.59375 8.875 7.59375 7.078125 
C 7.59375 2.59375 10.703125 -1 15.5 -1 
C 24.703125 -1 28.296875 13.578125 28.296875 14.265625 
z
M 27.5 62.703125 
C 27.5 64.203125 26.296875 66 24.09375 66 
C 21.796875 66 19.203125 63.796875 19.203125 61.203125 
C 19.203125 58.71875 21.296875 57.921875 22.5 57.921875 
C 25.203125 57.921875 27.5 60.515625 27.5 62.703125 
z
" id="CMMI12-105"/>
     </defs>
     <g style="fill:#262626;" transform="translate(141.155015 357.850978)scale(0.1728 -0.1728)">
      <use transform="translate(0 14.943915)scale(0.996264)" xlink:href="#CMMI12-73"/>
      <use transform="translate(43.024176 0)scale(0.697382)" xlink:href="#CMMI12-105"/>
     </g>
    </g>
   </g>
   <g id="matplotlib.axis_6">
    <g id="ytick_9">
     <g id="line2d_63">
      <path clip-path="url(#p9ba2fdce18)" d="M 50.476696 323.092099 
L 243.261334 323.092099 
" style="fill:none;stroke:#cccccc;stroke-linecap:round;stroke-width:0.8;"/>
     </g>
     <g id="line2d_64"/>
     <g id="text_17">
      <!-- $0.0$ -->
      <g style="fill:#262626;" transform="translate(26.50371 329.069683)scale(0.1728 -0.1728)">
       <use transform="scale(0.996264)" xlink:href="#CMR17-48"/>
       <use transform="translate(45.690477 0)scale(0.996264)" xlink:href="#CMMI12-58"/>
       <use transform="translate(72.787654 0)scale(0.996264)" xlink:href="#CMR17-48"/>
      </g>
     </g>
    </g>
    <g id="ytick_10">
     <g id="line2d_65">
      <path clip-path="url(#p9ba2fdce18)" d="M 50.476696 284.535172 
L 243.261334 284.535172 
" style="fill:none;stroke:#cccccc;stroke-linecap:round;stroke-width:0.8;"/>
     </g>
     <g id="line2d_66"/>
     <g id="text_18">
      <!-- $0.2$ -->
      <g style="fill:#262626;" transform="translate(26.50371 290.512756)scale(0.1728 -0.1728)">
       <use transform="scale(0.996264)" xlink:href="#CMR17-48"/>
       <use transform="translate(45.690477 0)scale(0.996264)" xlink:href="#CMMI12-58"/>
       <use transform="translate(72.787654 0)scale(0.996264)" xlink:href="#CMR17-50"/>
      </g>
     </g>
    </g>
    <g id="ytick_11">
     <g id="line2d_67">
      <path clip-path="url(#p9ba2fdce18)" d="M 50.476696 245.978244 
L 243.261334 245.978244 
" style="fill:none;stroke:#cccccc;stroke-linecap:round;stroke-width:0.8;"/>
     </g>
     <g id="line2d_68"/>
     <g id="text_19">
      <!-- $0.4$ -->
      <g style="fill:#262626;" transform="translate(26.50371 251.955828)scale(0.1728 -0.1728)">
       <use transform="scale(0.996264)" xlink:href="#CMR17-48"/>
       <use transform="translate(45.690477 0)scale(0.996264)" xlink:href="#CMMI12-58"/>
       <use transform="translate(72.787654 0)scale(0.996264)" xlink:href="#CMR17-52"/>
      </g>
     </g>
    </g>
    <g id="ytick_12">
     <g id="line2d_69">
      <path clip-path="url(#p9ba2fdce18)" d="M 50.476696 207.421316 
L 243.261334 207.421316 
" style="fill:none;stroke:#cccccc;stroke-linecap:round;stroke-width:0.8;"/>
     </g>
     <g id="line2d_70"/>
     <g id="text_20">
      <!-- $0.6$ -->
      <g style="fill:#262626;" transform="translate(26.50371 213.3989)scale(0.1728 -0.1728)">
       <use transform="scale(0.996264)" xlink:href="#CMR17-48"/>
       <use transform="translate(45.690477 0)scale(0.996264)" xlink:href="#CMMI12-58"/>
       <use transform="translate(72.787654 0)scale(0.996264)" xlink:href="#CMR17-54"/>
      </g>
     </g>
    </g>
    <g id="text_21">
     <!-- $I_{max}$ -->
     <g style="fill:#262626;" transform="translate(19.155168 280.492139)rotate(-90)scale(0.1728 -0.1728)">
      <use transform="translate(0 14.943915)scale(0.996264)" xlink:href="#CMMI12-73"/>
      <use transform="translate(43.024176 0)scale(0.697382)" xlink:href="#CMMI12-109"/>
      <use transform="translate(102.752967 0)scale(0.697382)" xlink:href="#CMMI12-97"/>
      <use transform="translate(138.598314 0)scale(0.697382)" xlink:href="#CMMI12-120"/>
     </g>
    </g>
   </g>
   <g id="line2d_71">
    <path clip-path="url(#p9ba2fdce18)" d="M 50.476696 230.91937 
L 58.774733 240.548017 
L 58.967711 240.548017 
L 59.739621 241.594362 
L 59.932599 241.594362 
L 60.511532 242.441856 
L 60.704509 242.441856 
L 61.283442 243.347086 
L 61.47642 243.347086 
L 61.862375 243.983942 
L 62.055353 243.983942 
L 62.24833 244.312565 
L 62.441308 244.312565 
L 62.827263 244.989415 
L 63.020241 244.989415 
L 63.213218 245.338014 
L 63.406196 245.338014 
L 63.792151 246.056318 
L 63.985129 246.056318 
L 64.178106 246.426088 
L 64.371084 246.426088 
L 64.564062 246.802938 
L 64.757039 246.802938 
L 64.950017 247.18689 
L 65.142994 247.18689 
L 65.335972 247.577941 
L 65.52895 247.577941 
L 65.914905 248.38129 
L 66.30086 248.38129 
L 66.493838 248.793541 
L 66.686815 248.793541 
L 66.879793 249.212799 
L 67.072771 249.212799 
L 67.265748 249.63901 
L 67.458726 249.63901 
L 67.651703 250.072115 
L 67.844681 250.072115 
L 68.037659 250.512044 
L 68.230636 250.512044 
L 68.423614 250.958725 
L 68.809569 250.958725 
L 69.002547 251.412055 
L 69.195524 251.412055 
L 69.388502 251.871932 
L 69.58148 251.871932 
L 69.774457 252.338236 
L 70.160412 252.338236 
L 70.35339 252.810835 
L 70.546368 252.810835 
L 70.739345 253.289585 
L 71.1253 253.289585 
L 71.318278 253.774339 
L 71.511256 253.774339 
L 71.704233 254.26492 
L 72.090189 254.26492 
L 72.283166 254.761142 
L 72.476144 254.761142 
L 72.669121 255.262819 
L 73.055077 255.262819 
L 73.248054 255.769026 
L 73.63401 255.769026 
L 73.826987 256.279683 
L 74.212942 256.279683 
L 74.40592 256.794981 
L 74.791875 256.794981 
L 74.984853 257.314696 
L 75.17783 257.314696 
L 75.370808 257.837626 
L 75.756763 257.837626 
L 75.949741 258.363464 
L 76.335696 258.363464 
L 76.528674 258.892712 
L 76.914629 258.892712 
L 77.107607 259.423529 
L 77.686539 259.423529 
L 77.879517 259.956364 
L 78.265472 259.956364 
L 78.45845 260.490242 
L 78.844405 260.490242 
L 79.037383 261.024658 
L 79.423338 261.024658 
L 79.616316 261.558657 
L 80.002271 261.558657 
L 80.195248 262.092418 
L 80.774181 262.092418 
L 80.967159 262.62359 
L 81.353114 262.62359 
L 81.546092 263.152498 
L 82.125025 263.152498 
L 82.318002 263.678197 
L 82.703957 263.678197 
L 82.896935 264.199553 
L 83.475868 264.199553 
L 83.668846 264.71545 
L 84.054801 264.71545 
L 84.247778 265.224727 
L 84.826711 265.224727 
L 85.019689 265.726254 
L 85.405644 265.726254 
L 85.598622 266.218874 
L 86.177555 266.218874 
L 86.370532 266.701444 
L 86.949465 266.701444 
L 87.142443 267.171903 
L 87.721375 267.171903 
L 87.914353 267.628983 
L 88.300308 267.628983 
L 88.493286 268.071047 
L 89.072219 268.071047 
L 89.265196 268.49661 
L 89.844129 268.49661 
L 90.037107 268.902585 
L 90.61604 268.902585 
L 90.809017 269.287763 
L 91.38795 269.287763 
L 91.580928 269.649746 
L 92.159861 269.649746 
L 92.352838 269.986058 
L 92.931771 269.986058 
L 93.124749 270.293172 
L 93.703682 270.293172 
L 93.896659 270.569335 
L 94.475592 270.569335 
L 94.66857 270.810336 
L 95.247503 270.810336 
L 95.44048 271.013303 
L 96.019413 271.013303 
L 96.212391 271.173993 
L 96.791323 271.173993 
L 97.177279 271.288039 
L 100.071943 271.301027 
L 100.457898 271.1754 
L 100.843853 271.1754 
L 101.036831 270.97327 
L 101.808741 270.97327 
L 102.001719 270.685895 
L 102.580652 270.685895 
L 102.77363 270.303027 
L 103.352562 270.303027 
L 103.54554 269.814141 
L 104.124473 269.814141 
L 104.317451 269.205684 
L 105.089361 269.205684 
L 105.282339 268.461915 
L 105.861271 268.461915 
L 106.054249 267.639466 
L 106.633182 267.639466 
L 106.82616 266.81734 
L 107.405092 266.81734 
L 107.59807 265.995973 
L 108.36998 265.995973 
L 108.562958 265.175802 
L 109.141891 265.175802 
L 109.334869 264.357271 
L 109.913801 264.357271 
L 110.106779 263.540823 
L 110.685712 263.540823 
L 110.878689 262.726903 
L 111.6506 262.726903 
L 111.843578 261.915956 
L 112.42251 261.915956 
L 112.615488 261.108429 
L 113.194421 261.108429 
L 113.387398 260.304766 
L 113.966331 260.304766 
L 114.159309 259.505411 
L 114.738242 259.505411 
L 114.931219 258.710807 
L 115.510152 258.710807 
L 115.70313 257.921391 
L 116.282063 257.921391 
L 116.47504 257.137599 
L 117.053973 257.137599 
L 117.246951 256.359861 
L 117.825884 256.359861 
L 118.018861 255.588603 
L 118.597794 255.588603 
L 118.790772 254.824244 
L 119.369705 254.824244 
L 119.562682 254.067197 
L 120.141615 254.067197 
L 120.334593 253.317867 
L 120.913526 253.317867 
L 121.106503 252.576654 
L 121.685436 252.576654 
L 121.878414 251.843947 
L 122.264369 251.843947 
L 122.457346 251.120127 
L 123.036279 251.120127 
L 123.229257 250.405564 
L 123.80819 250.405564 
L 124.001167 249.70062 
L 124.387123 249.70062 
L 124.5801 249.005646 
L 125.159033 249.005646 
L 125.352011 248.320981 
L 125.737966 248.320981 
L 125.930944 247.646953 
L 126.509876 247.646953 
L 126.702854 246.983877 
L 127.088809 246.983877 
L 127.281787 246.332058 
L 127.86072 246.332058 
L 128.053697 245.691787 
L 128.439653 245.691787 
L 128.63263 245.063341 
L 129.018585 245.063341 
L 129.211563 244.446985 
L 129.597518 244.446985 
L 129.790496 243.842971 
L 130.176451 243.842971 
L 130.369429 243.251535 
L 130.755384 243.251535 
L 130.948362 242.672903 
L 131.334317 242.672903 
L 131.527294 242.107283 
L 131.91325 242.107283 
L 132.106227 241.55487 
L 132.492182 241.55487 
L 132.68516 241.015848 
L 133.071115 241.015848 
L 133.264093 240.490382 
L 133.457071 240.490382 
L 133.650048 239.978626 
L 134.036003 239.978626 
L 134.228981 239.48072 
L 134.421959 239.48072 
L 134.614936 238.996787 
L 135.000892 238.996787 
L 135.193869 238.526938 
L 135.386847 238.526938 
L 135.579824 238.071272 
L 135.772802 238.071272 
L 135.96578 237.62987 
L 136.351735 237.62987 
L 136.544712 237.202803 
L 136.73769 237.202803 
L 136.930668 236.790128 
L 137.123645 236.790128 
L 137.316623 236.391887 
L 137.509601 236.391887 
L 137.702578 236.008112 
L 137.895556 236.008112 
L 138.088533 235.638819 
L 138.281511 235.638819 
L 138.667466 234.943693 
L 138.860444 234.943693 
L 139.053421 234.617836 
L 139.246399 234.617836 
L 139.632354 234.009384 
L 139.825332 234.009384 
L 140.404265 233.2041 
L 140.597242 233.2041 
L 141.948086 231.670563 
L 142.334041 231.316613 
L 142.719996 230.919644 
L 243.261334 230.919644 
L 243.261334 230.919644 
" style="fill:none;stroke:#0571a3;stroke-linecap:round;stroke-width:5;"/>
   </g>
   <g id="line2d_72">
    <path clip-path="url(#p9ba2fdce18)" d="M 98.7211 323.092099 
L 98.7211 207.421316 
" style="fill:none;stroke:#0571a3;stroke-dasharray:11.1,4.8;stroke-dashoffset:0;stroke-width:3;"/>
   </g>
   <g id="line2d_73">
    <path clip-path="url(#p9ba2fdce18)" d="M 142.649425 323.092099 
L 142.649425 207.421316 
" style="fill:none;stroke:#c20a1f;stroke-dasharray:11.1,4.8;stroke-dashoffset:0;stroke-width:3;"/>
   </g>
   <g id="patch_14">
    <path d="M 50.476696 323.092099 
L 50.476696 207.421316 
" style="fill:none;stroke:#cccccc;stroke-linecap:square;stroke-linejoin:miter;"/>
   </g>
   <g id="patch_15">
    <path d="M 243.261334 323.092099 
L 243.261334 207.421316 
" style="fill:none;stroke:#cccccc;stroke-linecap:square;stroke-linejoin:miter;"/>
   </g>
   <g id="patch_16">
    <path d="M 50.476696 323.092099 
L 243.261334 323.092099 
" style="fill:none;stroke:#cccccc;stroke-linecap:square;stroke-linejoin:miter;"/>
   </g>
   <g id="patch_17">
    <path d="M 50.476696 207.421316 
L 243.261334 207.421316 
" style="fill:none;stroke:#cccccc;stroke-linecap:square;stroke-linejoin:miter;"/>
   </g>
   <g id="text_22">
    <!-- $\mathcal{R}_0 = 5$ ;  $\gamma{} \tau{} = 1.5$ -->
    <g style="fill:#262626;" transform="translate(83.151375 201.421316)scale(0.1728 -0.1728)">
     <use transform="translate(0 14.943915)scale(0.996264)" xlink:href="#CMSY10-82"/>
     <use transform="translate(84.43374 0)scale(0.697382)" xlink:href="#CMR17-48"/>
     <use transform="translate(144.589062 14.943915)scale(0.996264)" xlink:href="#CMR17-61"/>
     <use transform="translate(243.97786 14.943915)scale(0.996264)" xlink:href="#CMR17-53"/>
     <use transform="translate(320.897449 14.943915)scale(0.996264)" xlink:href="#CMSS17-59"/>
     <use transform="translate(378.150767 14.943915)scale(0.996264)" xlink:href="#CMMI12-13"/>
     <use transform="translate(434.169335 14.943915)scale(0.996264)" xlink:href="#CMMI12-28"/>
     <use transform="translate(515.334509 14.943915)scale(0.996264)" xlink:href="#CMR17-61"/>
     <use transform="translate(614.723306 14.943915)scale(0.996264)" xlink:href="#CMR17-49"/>
     <use transform="translate(660.413783 14.943915)scale(0.996264)" xlink:href="#CMMI12-58"/>
     <use transform="translate(687.51096 14.943915)scale(0.996264)" xlink:href="#CMR17-53"/>
    </g>
   </g>
  </g>
  <g id="axes_4">
   <g id="patch_18">
    <path d="M 329.803676 323.092099 
L 522.588315 323.092099 
L 522.588315 207.421316 
L 329.803676 207.421316 
z
" style="fill:#ffffff;"/>
   </g>
   <g id="matplotlib.axis_7">
    <g id="xtick_19">
     <g id="line2d_74">
      <path clip-path="url(#pbe88859967)" d="M 329.803676 323.092099 
L 329.803676 207.421316 
" style="fill:none;stroke:#cccccc;stroke-linecap:round;stroke-width:0.8;"/>
     </g>
     <g id="line2d_75"/>
     <g id="text_23">
      <!-- $0.0$ -->
      <g style="fill:#262626;" transform="translate(319.567184 338.547267)scale(0.1728 -0.1728)">
       <use transform="scale(0.996264)" xlink:href="#CMR17-48"/>
       <use transform="translate(45.690477 0)scale(0.996264)" xlink:href="#CMMI12-58"/>
       <use transform="translate(72.787654 0)scale(0.996264)" xlink:href="#CMR17-48"/>
      </g>
     </g>
    </g>
    <g id="xtick_20">
     <g id="line2d_76">
      <path clip-path="url(#pbe88859967)" d="M 368.360604 323.092099 
L 368.360604 207.421316 
" style="fill:none;stroke:#cccccc;stroke-linecap:round;stroke-width:0.8;"/>
     </g>
     <g id="line2d_77"/>
     <g id="text_24">
      <!-- $0.2$ -->
      <g style="fill:#262626;" transform="translate(358.124112 338.547267)scale(0.1728 -0.1728)">
       <use transform="scale(0.996264)" xlink:href="#CMR17-48"/>
       <use transform="translate(45.690477 0)scale(0.996264)" xlink:href="#CMMI12-58"/>
       <use transform="translate(72.787654 0)scale(0.996264)" xlink:href="#CMR17-50"/>
      </g>
     </g>
    </g>
    <g id="xtick_21">
     <g id="line2d_78">
      <path clip-path="url(#pbe88859967)" d="M 406.917532 323.092099 
L 406.917532 207.421316 
" style="fill:none;stroke:#cccccc;stroke-linecap:round;stroke-width:0.8;"/>
     </g>
     <g id="line2d_79"/>
     <g id="text_25">
      <!-- $0.4$ -->
      <g style="fill:#262626;" transform="translate(396.681039 338.547267)scale(0.1728 -0.1728)">
       <use transform="scale(0.996264)" xlink:href="#CMR17-48"/>
       <use transform="translate(45.690477 0)scale(0.996264)" xlink:href="#CMMI12-58"/>
       <use transform="translate(72.787654 0)scale(0.996264)" xlink:href="#CMR17-52"/>
      </g>
     </g>
    </g>
    <g id="xtick_22">
     <g id="line2d_80">
      <path clip-path="url(#pbe88859967)" d="M 445.47446 323.092099 
L 445.47446 207.421316 
" style="fill:none;stroke:#cccccc;stroke-linecap:round;stroke-width:0.8;"/>
     </g>
     <g id="line2d_81"/>
     <g id="text_26">
      <!-- $0.6$ -->
      <g style="fill:#262626;" transform="translate(435.237967 338.547267)scale(0.1728 -0.1728)">
       <use transform="scale(0.996264)" xlink:href="#CMR17-48"/>
       <use transform="translate(45.690477 0)scale(0.996264)" xlink:href="#CMMI12-58"/>
       <use transform="translate(72.787654 0)scale(0.996264)" xlink:href="#CMR17-54"/>
      </g>
     </g>
    </g>
    <g id="xtick_23">
     <g id="line2d_82">
      <path clip-path="url(#pbe88859967)" d="M 484.031387 323.092099 
L 484.031387 207.421316 
" style="fill:none;stroke:#cccccc;stroke-linecap:round;stroke-width:0.8;"/>
     </g>
     <g id="line2d_83"/>
     <g id="text_27">
      <!-- $0.8$ -->
      <g style="fill:#262626;" transform="translate(473.794895 338.547267)scale(0.1728 -0.1728)">
       <use transform="scale(0.996264)" xlink:href="#CMR17-48"/>
       <use transform="translate(45.690477 0)scale(0.996264)" xlink:href="#CMMI12-58"/>
       <use transform="translate(72.787654 0)scale(0.996264)" xlink:href="#CMR17-56"/>
      </g>
     </g>
    </g>
    <g id="xtick_24">
     <g id="line2d_84">
      <path clip-path="url(#pbe88859967)" d="M 522.588315 323.092099 
L 522.588315 207.421316 
" style="fill:none;stroke:#cccccc;stroke-linecap:round;stroke-width:0.8;"/>
     </g>
     <g id="line2d_85"/>
     <g id="text_28">
      <!-- $1.0$ -->
      <g style="fill:#262626;" transform="translate(512.351823 338.547267)scale(0.1728 -0.1728)">
       <use transform="scale(0.996264)" xlink:href="#CMR17-49"/>
       <use transform="translate(45.690477 0)scale(0.996264)" xlink:href="#CMMI12-58"/>
       <use transform="translate(72.787654 0)scale(0.996264)" xlink:href="#CMR17-48"/>
      </g>
     </g>
    </g>
    <g id="text_29">
     <!-- $I_i$ -->
     <g style="fill:#262626;" transform="translate(420.481995 357.850978)scale(0.1728 -0.1728)">
      <use transform="translate(0 14.943915)scale(0.996264)" xlink:href="#CMMI12-73"/>
      <use transform="translate(43.024176 0)scale(0.697382)" xlink:href="#CMMI12-105"/>
     </g>
    </g>
   </g>
   <g id="matplotlib.axis_8">
    <g id="ytick_13">
     <g id="line2d_86">
      <path clip-path="url(#pbe88859967)" d="M 329.803676 323.092099 
L 522.588315 323.092099 
" style="fill:none;stroke:#cccccc;stroke-linecap:round;stroke-width:0.8;"/>
     </g>
     <g id="line2d_87"/>
    </g>
    <g id="ytick_14">
     <g id="line2d_88">
      <path clip-path="url(#pbe88859967)" d="M 329.803676 284.535172 
L 522.588315 284.535172 
" style="fill:none;stroke:#cccccc;stroke-linecap:round;stroke-width:0.8;"/>
     </g>
     <g id="line2d_89"/>
    </g>
    <g id="ytick_15">
     <g id="line2d_90">
      <path clip-path="url(#pbe88859967)" d="M 329.803676 245.978244 
L 522.588315 245.978244 
" style="fill:none;stroke:#cccccc;stroke-linecap:round;stroke-width:0.8;"/>
     </g>
     <g id="line2d_91"/>
    </g>
    <g id="ytick_16">
     <g id="line2d_92">
      <path clip-path="url(#pbe88859967)" d="M 329.803676 207.421316 
L 522.588315 207.421316 
" style="fill:none;stroke:#cccccc;stroke-linecap:round;stroke-width:0.8;"/>
     </g>
     <g id="line2d_93"/>
    </g>
   </g>
   <g id="line2d_94">
    <path clip-path="url(#pbe88859967)" d="M 329.803676 230.91937 
L 343.505087 234.548758 
L 344.08402 234.63882 
L 344.662953 234.824419 
L 345.048908 234.919973 
L 345.434863 235.017387 
L 346.013796 235.116658 
L 346.592729 235.320764 
L 347.171662 235.425557 
L 347.750595 235.640831 
L 348.522505 235.751313 
L 349.101438 235.977954 
L 349.487393 235.977954 
L 350.066326 236.212114 
L 350.452281 236.212114 
L 351.031214 236.453693 
L 351.417169 236.453693 
L 351.996102 236.702515 
L 352.382058 236.702515 
L 352.768013 236.82949 
L 352.96099 236.82949 
L 353.346946 236.95819 
L 353.539923 236.95819 
L 353.925878 237.088586 
L 354.118856 237.088586 
L 354.697789 237.354319 
L 355.083744 237.354319 
L 355.469699 237.489585 
L 355.662677 237.489585 
L 355.855655 237.62639 
L 356.24161 237.62639 
L 356.434587 237.764679 
L 357.01352 237.764679 
L 357.206498 237.90442 
L 357.592453 237.90442 
L 357.785431 238.045538 
L 358.171386 238.045538 
L 358.364364 238.187981 
L 358.750319 238.187981 
L 358.943296 238.331683 
L 359.329252 238.331683 
L 359.522229 238.476572 
L 360.101162 238.476572 
L 360.29414 238.622599 
L 360.680095 238.622599 
L 360.873073 238.769661 
L 361.452006 238.769661 
L 361.644983 238.917692 
L 362.030938 238.917692 
L 362.223916 239.066603 
L 362.802849 239.066603 
L 362.995826 239.216316 
L 363.381782 239.216316 
L 363.574759 239.366732 
L 364.153692 239.366732 
L 364.34667 239.517122 
L 364.732625 239.517122 
L 364.925603 239.667684 
L 365.504535 239.667684 
L 365.697513 239.818588 
L 366.276446 239.818588 
L 366.469424 239.969732 
L 367.048356 239.969732 
L 367.241334 240.121016 
L 367.627289 240.121016 
L 367.820267 240.272305 
L 368.3992 240.272305 
L 368.592177 240.423483 
L 369.17111 240.423483 
L 369.364088 240.574426 
L 369.943021 240.574426 
L 370.135998 240.723877 
L 370.714931 240.723877 
L 370.907909 240.872471 
L 371.486842 240.872471 
L 371.679819 241.020368 
L 372.258752 241.020368 
L 372.45173 241.167434 
L 373.030662 241.167434 
L 373.22364 241.313516 
L 373.802573 241.313516 
L 373.995551 241.458022 
L 374.574483 241.458022 
L 374.767461 241.599841 
L 375.346394 241.599841 
L 375.539371 241.740154 
L 376.118304 241.740154 
L 376.311282 241.878825 
L 377.083192 241.878825 
L 377.27617 242.015681 
L 377.855103 242.015681 
L 378.241058 242.148656 
L 378.627013 242.148656 
L 379.012969 242.279123 
L 379.398924 242.279123 
L 379.784879 242.407217 
L 380.170834 242.407217 
L 380.55679 242.532336 
L 381.135722 242.532336 
L 381.521678 242.65262 
L 381.907633 242.65262 
L 382.293588 242.769941 
L 382.679543 242.769941 
L 383.065499 242.884132 
L 384.416342 242.992287 
L 384.802297 243.096763 
L 385.960163 243.19723 
L 386.346118 243.290923 
L 387.696961 243.380455 
L 388.082917 243.463981 
L 389.240782 243.541206 
L 389.626737 243.613292 
L 390.977581 243.677115 
L 391.363536 243.735739 
L 393.293312 243.829218 
L 394.2582 243.891446 
L 400.240506 243.821595 
L 400.819439 243.769434 
L 401.59135 243.706868 
L 401.977305 243.632766 
L 403.135171 243.545175 
L 403.521126 243.445723 
L 403.714103 243.445723 
L 404.100059 243.333883 
L 404.486014 243.333883 
L 404.871969 243.207144 
L 405.064947 243.207144 
L 405.257924 243.066787 
L 405.836857 243.066787 
L 406.029835 242.91255 
L 406.41579 242.91255 
L 406.608768 242.743891 
L 407.187701 242.743891 
L 407.380678 242.559009 
L 407.766633 242.559009 
L 407.959611 242.358207 
L 408.345566 242.358207 
L 408.538544 242.141422 
L 408.924499 242.141422 
L 409.117477 241.908078 
L 409.503432 241.908078 
L 409.69641 241.657588 
L 410.082365 241.657588 
L 410.275342 241.389348 
L 410.661298 241.389348 
L 410.854275 241.102355 
L 411.240231 241.102355 
L 411.433208 240.795907 
L 411.819163 240.795907 
L 412.012141 240.469945 
L 412.398096 240.469945 
L 412.591074 240.123804 
L 412.784051 240.123804 
L 412.977029 239.756792 
L 413.362984 239.756792 
L 413.555962 239.368196 
L 413.74894 239.368196 
L 413.941917 238.957275 
L 414.327872 238.957275 
L 414.52085 238.523255 
L 414.713828 238.523255 
L 414.906805 238.071272 
L 415.099783 238.071272 
L 415.29276 237.62987 
L 415.678716 237.62987 
L 415.871693 237.202803 
L 416.064671 237.202803 
L 416.257649 236.790128 
L 416.450626 236.790128 
L 416.643604 236.391887 
L 416.836581 236.391887 
L 417.029559 236.008112 
L 417.222537 236.008112 
L 417.415514 235.638819 
L 417.608492 235.638819 
L 417.994447 234.943693 
L 418.187425 234.943693 
L 418.380402 234.617836 
L 418.57338 234.617836 
L 418.959335 234.009384 
L 419.152313 234.009384 
L 419.731246 233.2041 
L 419.924223 233.2041 
L 421.275067 231.670563 
L 421.661022 231.316613 
L 422.046977 230.919644 
L 522.588315 230.919644 
L 522.588315 230.919644 
" style="fill:none;stroke:#0571a3;stroke-linecap:round;stroke-width:5;"/>
   </g>
   <g id="line2d_95">
    <path clip-path="url(#pbe88859967)" d="M 395.802021 323.092099 
L 395.802021 207.421316 
" style="fill:none;stroke:#0571a3;stroke-dasharray:11.1,4.8;stroke-dashoffset:0;stroke-width:3;"/>
   </g>
   <g id="line2d_96">
    <path clip-path="url(#pbe88859967)" d="M 421.976406 323.092099 
L 421.976406 207.421316 
" style="fill:none;stroke:#c20a1f;stroke-dasharray:11.1,4.8;stroke-dashoffset:0;stroke-width:3;"/>
   </g>
   <g id="patch_19">
    <path d="M 329.803676 323.092099 
L 329.803676 207.421316 
" style="fill:none;stroke:#cccccc;stroke-linecap:square;stroke-linejoin:miter;"/>
   </g>
   <g id="patch_20">
    <path d="M 522.588315 323.092099 
L 522.588315 207.421316 
" style="fill:none;stroke:#cccccc;stroke-linecap:square;stroke-linejoin:miter;"/>
   </g>
   <g id="patch_21">
    <path d="M 329.803676 323.092099 
L 522.588315 323.092099 
" style="fill:none;stroke:#cccccc;stroke-linecap:square;stroke-linejoin:miter;"/>
   </g>
   <g id="patch_22">
    <path d="M 329.803676 207.421316 
L 522.588315 207.421316 
" style="fill:none;stroke:#cccccc;stroke-linecap:square;stroke-linejoin:miter;"/>
   </g>
   <g id="text_30">
    <!-- $\mathcal{R}_0 = 5$ ;  $\gamma{} \tau{} = 0.4$ -->
    <g style="fill:#262626;" transform="translate(362.478356 201.421316)scale(0.1728 -0.1728)">
     <use transform="translate(0 14.943915)scale(0.996264)" xlink:href="#CMSY10-82"/>
     <use transform="translate(84.43374 0)scale(0.697382)" xlink:href="#CMR17-48"/>
     <use transform="translate(144.589062 14.943915)scale(0.996264)" xlink:href="#CMR17-61"/>
     <use transform="translate(243.97786 14.943915)scale(0.996264)" xlink:href="#CMR17-53"/>
     <use transform="translate(320.897449 14.943915)scale(0.996264)" xlink:href="#CMSS17-59"/>
     <use transform="translate(378.150767 14.943915)scale(0.996264)" xlink:href="#CMMI12-13"/>
     <use transform="translate(434.169335 14.943915)scale(0.996264)" xlink:href="#CMMI12-28"/>
     <use transform="translate(515.334509 14.943915)scale(0.996264)" xlink:href="#CMR17-61"/>
     <use transform="translate(614.723306 14.943915)scale(0.996264)" xlink:href="#CMR17-48"/>
     <use transform="translate(660.413783 14.943915)scale(0.996264)" xlink:href="#CMMI12-58"/>
     <use transform="translate(687.51096 14.943915)scale(0.996264)" xlink:href="#CMR17-52"/>
    </g>
   </g>
  </g>
  <g id="text_31">
   <!-- Peak incidence $I_{\max}$ as a function of intervention point $I_i$ -->
   <defs>
    <path d="M 32.90625 29 
C 44.90625 29 54.703125 38.328125 54.703125 49.34375 
C 54.703125 60.15625 45.296875 69.578125 32.296875 69.578125 
L 8.90625 69.578125 
L 8.90625 0 
L 17.296875 0 
L 17.296875 29 
z
M 30.09375 64 
C 41.703125 64 46.796875 56.671875 46.796875 49.328125 
C 46.796875 42.5 42.09375 34.78125 30.09375 34.78125 
L 17.09375 34.78125 
L 17.09375 64 
z
" id="CMSS17-80"/>
    <path d="M 39.09375 21.515625 
C 39.09375 24.84375 38.90625 31.296875 35.703125 36.640625 
C 32.203125 42.390625 26.5 44 22.203125 44 
C 11.796875 44 3 34.1875 3 21.484375 
C 3 9.09375 12.09375 -1 23.59375 -1 
C 28.09375 -1 33.59375 0.296875 38.59375 3.875 
C 38.59375 4.28125 38.40625 6.46875 38.296875 6.5625 
C 38.296875 6.765625 38 9.84375 38 10.25 
C 33.203125 6.359375 27.703125 5.078125 23.703125 5.078125 
C 17.296875 5.078125 10.40625 10.421875 10.09375 21.515625 
z
M 10.90625 27 
C 12.203125 32.5625 16.59375 37.828125 22.203125 37.828125 
C 23.703125 37.828125 30.703125 37.828125 32.5 27 
z
" id="CMSS17-101"/>
    <path d="M 37.59375 27.984375 
C 37.59375 37.375 30.90625 43.875 21.90625 43.875 
C 17.5 43.875 12.703125 43.078125 7.203125 39.890625 
L 7.796875 33.359375 
C 10.296875 35.125 14.59375 38 21.796875 38 
C 26.90625 38 30 34.0625 30 27.84375 
L 30 24 
C 14 24 4 19.34375 4 11.34375 
C 4 7.203125 6.5 -1 14.796875 -1 
C 16.296875 -1 24.40625 -1 30.203125 3.390625 
L 30.203125 -0.296875 
L 37.59375 -0.296875 
z
M 30 12.75 
C 30 10.953125 30 8.5625 27 6.78125 
C 24.40625 5.078125 21.09375 5.078125 19.703125 5.078125 
C 14.703125 5.078125 11.296875 7.984375 11.296875 11.625 
C 11.296875 18.921875 26.90625 18.921875 30 18.921875 
z
" id="CMSS17-97"/>
    <path d="M 26.5 26.375 
L 42 42.796875 
L 32.40625 42.796875 
L 14.90625 24.28125 
L 14.90625 69 
L 7.5 69 
L 7.5 0 
L 14.796875 0 
L 14.796875 13.9375 
L 21.5 21 
L 35.59375 0 
L 44.09375 0 
z
" id="CMSS17-107"/>
    <path d="M 15.296875 65.359375 
L 6.90625 65.359375 
L 6.90625 57 
L 15.296875 57 
z
M 14.796875 42.796875 
L 7.40625 42.796875 
L 7.40625 0 
L 14.796875 0 
z
" id="CMSS17-105"/>
    <path d="M 40.90625 29.328125 
C 40.90625 35.671875 39.40625 44 28.09375 44 
C 21.703125 44 17.5 40.71875 14.703125 37.328125 
L 14.703125 43.09375 
L 7.40625 43.09375 
L 7.40625 0 
L 15 0 
L 15 24.359375 
C 15 30.6875 17.40625 37.9375 24.203125 37.9375 
C 33 37.9375 33.296875 32 33.296875 28.578125 
L 33.296875 0 
L 40.90625 0 
z
" id="CMSS17-110"/>
    <path d="M 38.5 39.703125 
C 38.5 40.390625 33.90625 42.40625 32.703125 42.796875 
C 29.40625 44 25.203125 44 24.09375 44 
C 11.09375 44 3.296875 32.703125 3.296875 21.296875 
C 3.296875 9.296875 12 -1 23.703125 -1 
C 30.40625 -1 35.203125 1.1875 39.09375 3.78125 
L 38.5 10.375 
C 34.203125 7.078125 29.203125 5.265625 23.796875 5.265625 
C 16 5.265625 10.90625 12.09375 10.90625 21.390625 
C 10.90625 28.609375 14.203125 37.71875 24.203125 37.71875 
C 29.703125 37.71875 32.796875 36.609375 37.40625 33.515625 
z
" id="CMSS17-99"/>
    <path d="M 40.796875 69 
L 33.40625 69 
L 33.40625 38.09375 
C 30.296875 40.671875 25.203125 43.0625 19.59375 43.0625 
C 10.5 43.0625 3.296875 33.296875 3.296875 21.046875 
C 3.296875 8.78125 10.40625 -1 19.296875 -1 
C 26.203125 -1 30.796875 2.6875 33.203125 4.78125 
L 33.203125 -0.203125 
L 40.796875 -0.203125 
z
M 33.203125 13.0625 
C 33.203125 11.671875 33.203125 10.203125 30.09375 7.53125 
C 28.09375 5.859375 25.703125 5.078125 23.40625 5.078125 
C 18 5.078125 10.90625 9 10.90625 20.9375 
C 10.90625 33.34375 18.90625 37 24.40625 37 
C 28.09375 37 31.09375 35.21875 33.203125 32.265625 
z
" id="CMSS17-100"/>
    <path d="M 67.59375 30.203125 
C 67.59375 35.1875 66.703125 43.59375 54.796875 43.59375 
C 48 43.59375 43.296875 39 41.5 33.609375 
L 41.40625 33.609375 
C 40.203125 41.8125 34.296875 43.59375 28.703125 43.59375 
C 20.796875 43.59375 16.703125 37.5 15.203125 33.5 
L 15.09375 33.5 
L 15.09375 43.59375 
L 3.296875 42.5 
L 3.296875 39.90625 
C 9.203125 39.90625 10.09375 39.296875 10.09375 34.5 
L 10.09375 6.6875 
C 10.09375 2.875 9.703125 2.390625 3.296875 2.390625 
L 3.296875 -0.203125 
C 5.703125 0 10.09375 0 12.703125 0 
C 15.296875 0 19.796875 0 22.203125 -0.203125 
L 22.203125 2.390625 
C 15.796875 2.390625 15.40625 2.78125 15.40625 6.6875 
L 15.40625 25.90625 
C 15.40625 35.109375 21 42 28 42 
C 35.40625 42 36.203125 35.40625 36.203125 30.59375 
L 36.203125 6.6875 
C 36.203125 2.875 35.796875 2.390625 29.40625 2.390625 
L 29.40625 -0.203125 
C 31.796875 0 36.203125 0 38.796875 0 
C 41.40625 0 45.90625 0 48.296875 -0.203125 
L 48.296875 2.390625 
C 41.90625 2.390625 41.5 2.78125 41.5 6.6875 
L 41.5 25.90625 
C 41.5 35.109375 47.09375 42 54.09375 42 
C 61.5 42 62.296875 35.40625 62.296875 30.59375 
L 62.296875 6.6875 
C 62.296875 2.875 61.90625 2.390625 55.5 2.390625 
L 55.5 -0.203125 
C 57.90625 0 62.296875 0 64.90625 0 
C 67.5 0 72 0 74.40625 -0.203125 
L 74.40625 2.390625 
C 68 2.390625 67.59375 2.78125 67.59375 6.6875 
z
" id="CMR17-109"/>
    <path d="M 36 25.828125 
C 36 32.375 36 35.84375 31.796875 39.734375 
C 28.09375 43 23.796875 44 20.40625 44 
C 12.5 44 6.796875 37.609375 6.796875 30.796875 
C 6.796875 27 9.796875 27 10.40625 27 
C 11.703125 27 14 27.78125 14 30.53125 
C 14 33 12.09375 34.078125 10.40625 34.078125 
C 10 34.078125 9.5 33.96875 9.203125 33.875 
C 11.296875 40.5 16.703125 42.40625 20.203125 42.40625 
C 25.203125 42.40625 30.703125 37.953125 30.703125 29.453125 
L 30.703125 25 
C 24.796875 25 17.703125 24.203125 12.09375 21.203125 
C 5.796875 17.703125 4 12.703125 4 8.90625 
C 4 1.203125 13 -1 18.296875 -1 
C 23.796875 -1 28.90625 2.171875 31.09375 7.984375 
C 31.296875 3.640625 34.09375 -0.28125 38.5 -0.28125 
C 40.59375 -0.28125 45.90625 1.09375 45.90625 8.859375 
L 45.90625 14.375 
L 44.09375 14.375 
L 44.09375 8.78125 
C 44.09375 2.78125 41.40625 2 40.09375 2 
C 36 2 36 7.15625 36 11.53125 
z
M 30.703125 13.59375 
C 30.703125 4.953125 24.5 0.59375 19 0.59375 
C 14 0.59375 10.09375 4.296875 10.09375 8.90625 
C 10.09375 11.890625 11.40625 17.1875 17.203125 20.390625 
C 22 23.09375 27.5 23.5 30.703125 23.5 
z
" id="CMR17-97"/>
    <path d="M 26 23.078125 
C 29 26.96875 32.40625 31.34375 35.203125 34.625 
C 38.5 38.40625 42.296875 40 46.703125 40 
L 46.703125 42.59375 
C 45 42.59375 41.5 42.59375 39.703125 42.59375 
C 37 42.59375 33.90625 42.59375 31.59375 42.6875 
L 31.59375 40.09375 
C 33 39.890625 33.796875 38.890625 33.796875 37.5 
C 33.796875 35.703125 32.796875 34.609375 32.296875 33.921875 
L 24.90625 24.578125 
L 16.09375 36.03125 
C 15.203125 37.125 15.203125 37.3125 15.203125 37.8125 
C 15.203125 39.015625 16.203125 40 17.90625 40 
L 17.90625 42.6875 
C 15.5 42.59375 11.203125 42.59375 8.703125 42.59375 
C 6 42.59375 2.796875 42.59375 0.59375 42.6875 
L 0.59375 40 
C 6 40 7.203125 39.59375 9.59375 36.609375 
L 21.09375 21.796875 
C 21.296875 21.59375 21.796875 21 21.796875 20.703125 
C 21.796875 20.296875 13.09375 9.671875 12 8.28125 
C 7.5 2.890625 2.796875 2.5 0.09375 2.5 
L 0.09375 0 
C 1.796875 0 5.296875 0 7.09375 0 
C 9.09375 0 13.5 0 15.296875 -0.09375 
L 15.296875 2.5 
C 14.703125 2.59375 13.09375 2.796875 13.09375 5.078125 
C 13.09375 6.875 13.90625 7.96875 14.796875 9.15625 
L 23.09375 19.3125 
L 31.796875 8 
C 32.59375 6.90625 33.796875 5.40625 33.796875 4.703125 
C 33.796875 3.296875 32.59375 2.5 31 2.5 
L 31 -0.09375 
C 33.40625 0 37.703125 0 40.203125 0 
C 42.90625 0 46.09375 0 48.296875 -0.09375 
L 48.296875 2.5 
C 43.296875 2.5 41.796875 2.6875 39.40625 5.78125 
z
" id="CMR17-120"/>
    <path d="M 32.203125 41.046875 
C 26.296875 43.859375 21.703125 43.859375 18.703125 43.859375 
C 11.59375 43.859375 3.09375 41.375 3.09375 31.296875 
C 3.09375 21.234375 14.09375 19.03125 17.09375 18.421875 
C 21.703125 17.53125 26.796875 16.53125 26.796875 11.5625 
C 26.796875 5.265625 19.59375 5.265625 18.296875 5.265625 
C 14.296875 5.265625 8.796875 6.359375 3.796875 9.96875 
L 2.59375 3.28125 
C 8.296875 0 13.796875 -1 18.40625 -1 
C 30.703125 -1 33.796875 6.5 33.796875 12.203125 
C 33.796875 17.09375 31 20.390625 29.09375 21.890625 
C 25.796875 24.5 24.59375 24.796875 16.40625 26.5 
C 15 26.703125 10.09375 27.796875 10.09375 32.28125 
C 10.09375 38 16.40625 38 17.796875 38 
C 24.296875 38 28.296875 35.984375 31 34.5 
z
" id="CMSS17-115"/>
    <path d="M 16.796875 37 
L 26.90625 37 
L 26.90625 42.765625 
L 16.59375 42.765625 
L 16.59375 55.609375 
C 16.59375 62.71875 22 63.9375 25.09375 63.9375 
C 26.09375 63.9375 28.90625 63.9375 32.5 62.640625 
L 32.5 69.203125 
C 30.203125 69.703125 27.40625 70 25.203125 70 
C 15.90625 70 9.40625 62.390625 9.40625 52.484375 
L 9.40625 42.765625 
L 2.5 42.765625 
L 2.5 37 
L 9.40625 37 
L 9.40625 0 
L 16.796875 0 
z
" id="CMSS17-102"/>
    <path d="M 40.90625 42.796875 
L 33.296875 42.796875 
L 33.296875 15.1875 
C 33.296875 7.78125 27.90625 4.78125 22.203125 4.78125 
C 15.59375 4.78125 15 6.984375 15 11.078125 
L 15 42.796875 
L 7.40625 42.796875 
L 7.40625 10.59375 
C 7.40625 2.796875 10.09375 -1 17 -1 
C 20.40625 -1 28.09375 -0.203125 33.5 4.78125 
L 33.5 0 
L 40.90625 0 
z
" id="CMSS17-117"/>
    <path d="M 16.703125 37 
L 29.703125 37 
L 29.703125 42.765625 
L 16.703125 42.765625 
L 16.703125 55 
L 9.59375 55 
L 9.59375 42.765625 
L 1.703125 42.765625 
L 1.703125 37 
L 9.40625 37 
L 9.40625 11.703125 
C 9.40625 6 10.703125 -1 17.296875 -1 
C 22.296875 -1 26.90625 0.390625 31.296875 2.6875 
L 29.703125 8.5625 
C 27.296875 6.46875 24.40625 5.265625 21.296875 5.265625 
C 16.90625 5.265625 16.703125 10.875 16.703125 13.375 
z
" id="CMSS17-116"/>
    <path d="M 44.203125 21.1875 
C 44.203125 34 34.703125 44 23.5 44 
C 12 44 2.703125 33.703125 2.703125 21.1875 
C 2.703125 8.5 12.296875 -1 23.40625 -1 
C 34.796875 -1 44.203125 8.796875 44.203125 21.1875 
z
M 23.5 5.265625 
C 16.40625 5.265625 10.296875 11.078125 10.296875 22 
C 10.296875 33.609375 17.40625 37.921875 23.40625 37.921875 
C 29.90625 37.921875 36.59375 33.21875 36.59375 22 
C 36.59375 10.671875 30.09375 5.265625 23.5 5.265625 
z
" id="CMSS17-111"/>
    <path d="M 14.90625 21.296875 
C 14.90625 30.703125 21.796875 37 30.59375 37 
L 30.59375 43.578125 
C 24.203125 43.578125 18.203125 40.390625 14.59375 35.203125 
L 14.59375 43.09375 
L 7.5 43.09375 
L 7.5 0 
L 14.90625 0 
z
" id="CMSS17-114"/>
    <path d="M 41.796875 43 
L 34 43 
L 27.296875 24.3125 
C 25.203125 18.203125 22.203125 9.796875 21.703125 5.5 
L 21.59375 5.5 
C 21.40625 7.3125 20.59375 9.90625 20.09375 11.703125 
C 19.5 13.90625 18.703125 16.5 18.09375 18.3125 
L 9.296875 43 
L 1.296875 43 
L 17.09375 0 
L 26 0 
z
" id="CMSS17-118"/>
    <path d="M 15.09375 5.203125 
C 18.40625 2.015625 22.90625 -0.078125 27.703125 -0.078125 
C 37 -0.078125 45 9.421875 45 22.0625 
C 45 33.734375 39 44 30.40625 44 
C 25.40625 44 19.40625 42.21875 14.90625 38.625 
L 14.90625 43.203125 
L 7.5 43.203125 
L 7.5 -19 
L 15.09375 -19 
z
M 15.09375 32.8125 
C 15.90625 34 19.296875 37.734375 24.796875 37.734375 
C 31.796875 37.734375 37.40625 30.625 37.40625 22.0625 
C 37.40625 12.296875 30.59375 6 23.90625 6 
C 21.90625 6 19.796875 6.484375 17.796875 8.171875 
C 15.09375 10.53125 15.09375 12 15.09375 13.390625 
z
" id="CMSS17-112"/>
   </defs>
   <g style="fill:#262626;" transform="translate(50.248413 20.968591)scale(0.2 -0.2)">
    <use transform="translate(0 14.943915)scale(0.996264)" xlink:href="#CMSS17-80"/>
    <use transform="translate(57.133132 14.943915)scale(0.996264)" xlink:href="#CMSS17-101"/>
    <use transform="translate(98.771954 14.943915)scale(0.996264)" xlink:href="#CMSS17-97"/>
    <use transform="translate(143.693875 14.943915)scale(0.996264)" xlink:href="#CMSS17-107"/>
    <use transform="translate(220.525477 14.943915)scale(0.996264)" xlink:href="#CMSS17-105"/>
    <use transform="translate(242.7062 14.943915)scale(0.996264)" xlink:href="#CMSS17-110"/>
    <use transform="translate(290.911143 14.943915)scale(0.996264)" xlink:href="#CMSS17-99"/>
    <use transform="translate(332.549965 14.943915)scale(0.996264)" xlink:href="#CMSS17-105"/>
    <use transform="translate(354.730688 14.943915)scale(0.996264)" xlink:href="#CMSS17-100"/>
    <use transform="translate(402.935631 14.943915)scale(0.996264)" xlink:href="#CMSS17-101"/>
    <use transform="translate(444.574453 14.943915)scale(0.996264)" xlink:href="#CMSS17-110"/>
    <use transform="translate(492.779397 14.943915)scale(0.996264)" xlink:href="#CMSS17-99"/>
    <use transform="translate(534.418219 14.943915)scale(0.996264)" xlink:href="#CMSS17-101"/>
    <use transform="translate(607.286153 14.943915)scale(0.996264)" xlink:href="#CMMI12-73"/>
    <use transform="translate(650.310329 0)scale(0.697382)" xlink:href="#CMR17-109"/>
    <use transform="translate(704.153796 0)scale(0.697382)" xlink:href="#CMR17-97"/>
    <use transform="translate(736.136978 0)scale(0.697382)" xlink:href="#CMR17-120"/>
    <use transform="translate(801.66911 14.943915)scale(0.996264)" xlink:href="#CMSS17-97"/>
    <use transform="translate(846.591031 14.943915)scale(0.996264)" xlink:href="#CMSS17-115"/>
    <use transform="translate(913.733685 14.943915)scale(0.996264)" xlink:href="#CMSS17-97"/>
    <use transform="translate(989.884719 14.943915)scale(0.996264)" xlink:href="#CMSS17-102"/>
    <use transform="translate(1018.511378 14.943915)scale(0.996264)" xlink:href="#CMSS17-117"/>
    <use transform="translate(1066.716321 14.943915)scale(0.996264)" xlink:href="#CMSS17-110"/>
    <use transform="translate(1114.921264 14.943915)scale(0.996264)" xlink:href="#CMSS17-99"/>
    <use transform="translate(1156.560086 14.943915)scale(0.996264)" xlink:href="#CMSS17-116"/>
    <use transform="translate(1190.391653 14.943915)scale(0.996264)" xlink:href="#CMSS17-105"/>
    <use transform="translate(1212.572376 14.943915)scale(0.996264)" xlink:href="#CMSS17-111"/>
    <use transform="translate(1259.415999 14.943915)scale(0.996264)" xlink:href="#CMSS17-110"/>
    <use transform="translate(1338.850055 14.943915)scale(0.996264)" xlink:href="#CMSS17-111"/>
    <use transform="translate(1385.693679 14.943915)scale(0.996264)" xlink:href="#CMSS17-102"/>
    <use transform="translate(1445.54945 14.943915)scale(0.996264)" xlink:href="#CMSS17-105"/>
    <use transform="translate(1467.730173 14.943915)scale(0.996264)" xlink:href="#CMSS17-110"/>
    <use transform="translate(1515.935116 14.943915)scale(0.996264)" xlink:href="#CMSS17-116"/>
    <use transform="translate(1549.766683 14.943915)scale(0.996264)" xlink:href="#CMSS17-101"/>
    <use transform="translate(1591.405505 14.943915)scale(0.996264)" xlink:href="#CMSS17-114"/>
    <use transform="translate(1623.315278 14.943915)scale(0.996264)" xlink:href="#CMSS17-118"/>
    <use transform="translate(1666.315419 14.943915)scale(0.996264)" xlink:href="#CMSS17-101"/>
    <use transform="translate(1707.954241 14.943915)scale(0.996264)" xlink:href="#CMSS17-110"/>
    <use transform="translate(1756.159185 14.943915)scale(0.996264)" xlink:href="#CMSS17-116"/>
    <use transform="translate(1789.990751 14.943915)scale(0.996264)" xlink:href="#CMSS17-105"/>
    <use transform="translate(1812.171474 14.943915)scale(0.996264)" xlink:href="#CMSS17-111"/>
    <use transform="translate(1859.015098 14.943915)scale(0.996264)" xlink:href="#CMSS17-110"/>
    <use transform="translate(1938.449154 14.943915)scale(0.996264)" xlink:href="#CMSS17-112"/>
    <use transform="translate(1989.256536 14.943915)scale(0.996264)" xlink:href="#CMSS17-111"/>
    <use transform="translate(2036.100159 14.943915)scale(0.996264)" xlink:href="#CMSS17-105"/>
    <use transform="translate(2058.280882 14.943915)scale(0.996264)" xlink:href="#CMSS17-110"/>
    <use transform="translate(2106.485825 14.943915)scale(0.996264)" xlink:href="#CMSS17-116"/>
    <use transform="translate(2171.546505 14.943915)scale(0.996264)" xlink:href="#CMMI12-73"/>
    <use transform="translate(2214.57068 0)scale(0.697382)" xlink:href="#CMMI12-105"/>
   </g>
  </g>
 </g>
 <defs>
  <clipPath id="p2470021957">
   <rect height="115.670783" width="192.784639" x="50.476696" y="54.868758"/>
  </clipPath>
  <clipPath id="p76fe239a58">
   <rect height="115.670783" width="192.784639" x="329.803676" y="54.868758"/>
  </clipPath>
  <clipPath id="p9ba2fdce18">
   <rect height="115.670783" width="192.784639" x="50.476696" y="207.421316"/>
  </clipPath>
  <clipPath id="pbe88859967">
   <rect height="115.670783" width="192.784639" x="329.803676" y="207.421316"/>
  </clipPath>
 </defs>
</svg>
