<?xml version="1.0" encoding="utf-8" standalone="no"?>
<!DOCTYPE svg PUBLIC "-//W3C//DTD SVG 1.1//EN"
  "http://www.w3.org/Graphics/SVG/1.1/DTD/svg11.dtd">
<!-- Created with matplotlib (https://matplotlib.org/) -->
<svg height="344.761838pt" version="1.1" viewBox="0 0 565.650042 344.761838" width="565.650042pt" xmlns="http://www.w3.org/2000/svg" xmlns:xlink="http://www.w3.org/1999/xlink">
 <defs>
  <style type="text/css">
*{stroke-linecap:butt;stroke-linejoin:round;}
  </style>
 </defs>
 <g id="figure_1">
  <g id="patch_1">
   <path d="M 0 344.761838 
L 565.650042 344.761838 
L 565.650042 0 
L 0 0 
z
" style="fill:#ffffff;"/>
  </g>
  <g id="axes_1">
   <g id="patch_2">
    <path d="M 76.066744 296.955168 
L 522.466744 296.955168 
L 522.466744 25.155168 
L 76.066744 25.155168 
z
" style="fill:#ffffff;"/>
   </g>
   <g id="matplotlib.axis_1">
    <g id="xtick_1">
     <g id="line2d_1">
      <path clip-path="url(#p7e62a3a776)" d="M 139.838172 296.955168 
L 139.838172 25.155168 
" style="fill:none;stroke:#cccccc;stroke-linecap:round;stroke-width:0.8;"/>
     </g>
     <g id="line2d_2"/>
     <g id="text_1">
      <!-- $-10$ -->
      <defs>
       <path d="M 65.90625 23 
C 67.59375 23 69.40625 23 69.40625 25 
C 69.40625 27 67.59375 27 65.90625 27 
L 11.796875 27 
C 10.09375 27 8.296875 27 8.296875 25 
C 8.296875 23 10.09375 23 11.796875 23 
z
" id="CMSY10-0"/>
       <path d="M 26.59375 63.40625 
C 26.59375 65.5 26.5 65.5 25.09375 65.5 
C 21.203125 61.1875 15.296875 59.796875 9.703125 59.796875 
C 9.40625 59.796875 8.90625 59.796875 8.796875 59.5 
C 8.703125 59.296875 8.703125 59.09375 8.703125 57 
C 11.796875 57 17 57.59375 21 59.984375 
L 21 7.203125 
C 21 3.6875 20.796875 2.5 12.203125 2.5 
L 9.203125 2.5 
L 9.203125 0 
C 14 0 19 0 23.796875 0 
C 28.59375 0 33.59375 0 38.40625 0 
L 38.40625 2.5 
L 35.40625 2.5 
C 26.796875 2.5 26.59375 3.59375 26.59375 7.15625 
z
" id="CMR17-49"/>
       <path d="M 42 31.640625 
C 42 37.75 41.90625 48.125 37.703125 56.109375 
C 34 63.109375 28.09375 65.59375 22.90625 65.59375 
C 18.09375 65.59375 12 63.40625 8.203125 56.203125 
C 4.203125 48.71875 3.796875 39.4375 3.796875 31.640625 
C 3.796875 25.953125 3.90625 17.28125 7 9.671875 
C 11.296875 -0.609375 19 -2 22.90625 -2 
C 27.5 -2 34.5 -0.109375 38.59375 9.375 
C 41.59375 16.28125 42 24.359375 42 31.640625 
z
M 22.90625 -0.40625 
C 16.5 -0.40625 12.703125 5.078125 11.296875 12.6875 
C 10.203125 18.5625 10.203125 27.15625 10.203125 32.75 
C 10.203125 40.4375 10.203125 46.828125 11.5 52.921875 
C 13.40625 61.390625 19 64 22.90625 64 
C 27 64 32.296875 61.296875 34.203125 53.125 
C 35.5 47.4375 35.59375 40.734375 35.59375 32.75 
C 35.59375 26.25 35.59375 18.265625 34.40625 12.375 
C 32.296875 1.484375 26.40625 -0.40625 22.90625 -0.40625 
z
" id="CMR17-48"/>
      </defs>
      <g style="fill:#262626;" transform="translate(125.247958 312.410336)scale(0.1728 -0.1728)">
       <use transform="scale(0.996264)" xlink:href="#CMSY10-0"/>
       <use transform="translate(77.487468 0)scale(0.996264)" xlink:href="#CMR17-49"/>
       <use transform="translate(123.177945 0)scale(0.996264)" xlink:href="#CMR17-48"/>
      </g>
     </g>
    </g>
    <g id="xtick_2">
     <g id="line2d_3">
      <path clip-path="url(#p7e62a3a776)" d="M 219.552458 296.955168 
L 219.552458 25.155168 
" style="fill:none;stroke:#cccccc;stroke-linecap:round;stroke-width:0.8;"/>
     </g>
     <g id="line2d_4"/>
     <g id="text_2">
      <!-- $-5$ -->
      <defs>
       <path d="M 11.40625 57.6875 
C 12.40625 57.28125 16.5 56 20.703125 56 
C 30 56 35.09375 61.109375 38 64.0625 
C 38 64.953125 38 65.5 37.40625 65.5 
C 37.296875 65.5 37.09375 65.5 36.296875 65.046875 
C 32.796875 63.40625 28.703125 62.078125 23.703125 62.078125 
C 20.703125 62.078125 16.203125 62.484375 11.296875 64.671875 
C 10.203125 65.171875 10 65.171875 9.90625 65.171875 
C 9.40625 65.171875 9.296875 65.0625 9.296875 63.078125 
L 9.296875 34.421875 
C 9.296875 32.640625 9.296875 32.140625 10.296875 32.140625 
C 10.796875 32.140625 11 32.34375 11.5 33.03125 
C 14.703125 37.515625 19.09375 39.40625 24.09375 39.40625 
C 27.59375 39.40625 35.09375 37.21875 35.09375 20.140625 
C 35.09375 16.953125 35.09375 11.171875 32.09375 6.578125 
C 29.59375 2.484375 25.703125 0.390625 21.40625 0.390625 
C 14.796875 0.390625 8.09375 5 6.296875 12.71875 
C 6.703125 12.609375 7.5 12.421875 7.90625 12.421875 
C 9.203125 12.421875 11.703125 13.125 11.703125 16.21875 
C 11.703125 18.90625 9.796875 20 7.90625 20 
C 5.59375 20 4.09375 18.59375 4.09375 15.796875 
C 4.09375 7.09375 11 -2 21.59375 -2 
C 31.90625 -2 41.703125 6.875 41.703125 19.75 
C 41.703125 31.71875 33.90625 41 24.203125 41 
C 19.09375 41 14.796875 39.109375 11.40625 35.53125 
z
" id="CMR17-53"/>
      </defs>
      <g style="fill:#262626;" transform="translate(208.909895 312.410336)scale(0.1728 -0.1728)">
       <use transform="scale(0.996264)" xlink:href="#CMSY10-0"/>
       <use transform="translate(77.487468 0)scale(0.996264)" xlink:href="#CMR17-53"/>
      </g>
     </g>
    </g>
    <g id="xtick_3">
     <g id="line2d_5">
      <path clip-path="url(#p7e62a3a776)" d="M 299.266744 296.955168 
L 299.266744 25.155168 
" style="fill:none;stroke:#cccccc;stroke-linecap:round;stroke-width:0.8;"/>
     </g>
     <g id="line2d_6"/>
     <g id="text_3">
      <!-- $0$ -->
      <g style="fill:#262626;" transform="translate(295.319092 312.410336)scale(0.1728 -0.1728)">
       <use transform="scale(0.996264)" xlink:href="#CMR17-48"/>
      </g>
     </g>
    </g>
    <g id="xtick_4">
     <g id="line2d_7">
      <path clip-path="url(#p7e62a3a776)" d="M 378.981029 296.955168 
L 378.981029 25.155168 
" style="fill:none;stroke:#cccccc;stroke-linecap:round;stroke-width:0.8;"/>
     </g>
     <g id="line2d_8"/>
     <g id="text_4">
      <!-- $5$ -->
      <g style="fill:#262626;" transform="translate(375.033377 312.410336)scale(0.1728 -0.1728)">
       <use transform="scale(0.996264)" xlink:href="#CMR17-53"/>
      </g>
     </g>
    </g>
    <g id="xtick_5">
     <g id="line2d_9">
      <path clip-path="url(#p7e62a3a776)" d="M 458.695315 296.955168 
L 458.695315 25.155168 
" style="fill:none;stroke:#cccccc;stroke-linecap:round;stroke-width:0.8;"/>
     </g>
     <g id="line2d_10"/>
     <g id="text_5">
      <!-- $10$ -->
      <g style="fill:#262626;" transform="translate(450.800011 312.410336)scale(0.1728 -0.1728)">
       <use transform="scale(0.996264)" xlink:href="#CMR17-49"/>
       <use transform="translate(45.690477 0)scale(0.996264)" xlink:href="#CMR17-48"/>
      </g>
     </g>
    </g>
    <g id="text_6">
     <!-- offset from $t_{opt}$ (days) -->
     <defs>
      <path d="M 44.203125 21.1875 
C 44.203125 34 34.703125 44 23.5 44 
C 12 44 2.703125 33.703125 2.703125 21.1875 
C 2.703125 8.5 12.296875 -1 23.40625 -1 
C 34.796875 -1 44.203125 8.796875 44.203125 21.1875 
z
M 23.5 5.265625 
C 16.40625 5.265625 10.296875 11.078125 10.296875 22 
C 10.296875 33.609375 17.40625 37.921875 23.40625 37.921875 
C 29.90625 37.921875 36.59375 33.21875 36.59375 22 
C 36.59375 10.671875 30.09375 5.265625 23.5 5.265625 
z
" id="CMSS17-111"/>
      <path d="M 16.796875 37 
L 27.09375 37 
L 27.09375 42.765625 
L 16.59375 42.765625 
L 16.59375 55.609375 
C 16.59375 62.515625 21.796875 63.9375 25.203125 63.9375 
C 28.703125 63.9375 31.59375 63.03125 32.703125 62.640625 
L 32.703125 69.203125 
C 31.59375 69.40625 28.59375 70 25.296875 70 
C 16.09375 70 9.40625 62.484375 9.40625 52.484375 
L 9.40625 42.765625 
L 2.5 42.765625 
L 2.5 37 
L 9.40625 37 
L 9.40625 0 
L 16.796875 0 
z
M 42.796875 37 
L 53.09375 37 
L 53.09375 42.765625 
L 42.59375 42.765625 
L 42.59375 55.609375 
C 42.59375 62.515625 47.796875 63.9375 51.203125 63.9375 
C 54.703125 63.9375 57.59375 63.03125 58.703125 62.640625 
L 58.703125 69.203125 
C 57.59375 69.40625 54.59375 70 51.296875 70 
C 42.09375 70 35.40625 62.515625 35.40625 52.546875 
L 35.40625 0 
L 42.796875 0 
z
" id="CMSS17-11"/>
      <path d="M 32.203125 41.046875 
C 26.296875 43.859375 21.703125 43.859375 18.703125 43.859375 
C 11.59375 43.859375 3.09375 41.375 3.09375 31.296875 
C 3.09375 21.234375 14.09375 19.03125 17.09375 18.421875 
C 21.703125 17.53125 26.796875 16.53125 26.796875 11.5625 
C 26.796875 5.265625 19.59375 5.265625 18.296875 5.265625 
C 14.296875 5.265625 8.796875 6.359375 3.796875 9.96875 
L 2.59375 3.28125 
C 8.296875 0 13.796875 -1 18.40625 -1 
C 30.703125 -1 33.796875 6.5 33.796875 12.203125 
C 33.796875 17.09375 31 20.390625 29.09375 21.890625 
C 25.796875 24.5 24.59375 24.796875 16.40625 26.5 
C 15 26.703125 10.09375 27.796875 10.09375 32.28125 
C 10.09375 38 16.40625 38 17.796875 38 
C 24.296875 38 28.296875 35.984375 31 34.5 
z
" id="CMSS17-115"/>
      <path d="M 39.09375 21.515625 
C 39.09375 24.84375 38.90625 31.296875 35.703125 36.640625 
C 32.203125 42.390625 26.5 44 22.203125 44 
C 11.796875 44 3 34.1875 3 21.484375 
C 3 9.09375 12.09375 -1 23.59375 -1 
C 28.09375 -1 33.59375 0.296875 38.59375 3.875 
C 38.59375 4.28125 38.40625 6.46875 38.296875 6.5625 
C 38.296875 6.765625 38 9.84375 38 10.25 
C 33.203125 6.359375 27.703125 5.078125 23.703125 5.078125 
C 17.296875 5.078125 10.40625 10.421875 10.09375 21.515625 
z
M 10.90625 27 
C 12.203125 32.5625 16.59375 37.828125 22.203125 37.828125 
C 23.703125 37.828125 30.703125 37.828125 32.5 27 
z
" id="CMSS17-101"/>
      <path d="M 16.703125 37 
L 29.703125 37 
L 29.703125 42.765625 
L 16.703125 42.765625 
L 16.703125 55 
L 9.59375 55 
L 9.59375 42.765625 
L 1.703125 42.765625 
L 1.703125 37 
L 9.40625 37 
L 9.40625 11.703125 
C 9.40625 6 10.703125 -1 17.296875 -1 
C 22.296875 -1 26.90625 0.390625 31.296875 2.6875 
L 29.703125 8.5625 
C 27.296875 6.46875 24.40625 5.265625 21.296875 5.265625 
C 16.90625 5.265625 16.703125 10.875 16.703125 13.375 
z
" id="CMSS17-116"/>
      <path d="M 16.796875 37 
L 26.90625 37 
L 26.90625 42.765625 
L 16.59375 42.765625 
L 16.59375 55.609375 
C 16.59375 62.71875 22 63.9375 25.09375 63.9375 
C 26.09375 63.9375 28.90625 63.9375 32.5 62.640625 
L 32.5 69.203125 
C 30.203125 69.703125 27.40625 70 25.203125 70 
C 15.90625 70 9.40625 62.390625 9.40625 52.484375 
L 9.40625 42.765625 
L 2.5 42.765625 
L 2.5 37 
L 9.40625 37 
L 9.40625 0 
L 16.796875 0 
z
" id="CMSS17-102"/>
      <path d="M 14.90625 21.296875 
C 14.90625 30.703125 21.796875 37 30.59375 37 
L 30.59375 43.578125 
C 24.203125 43.578125 18.203125 40.390625 14.59375 35.203125 
L 14.59375 43.09375 
L 7.5 43.09375 
L 7.5 0 
L 14.90625 0 
z
" id="CMSS17-114"/>
      <path d="M 67 29.328125 
C 67 36.0625 65.296875 44 54.09375 44 
C 46.59375 44 42.09375 39.3125 40.09375 36.421875 
C 38.296875 41.71875 34.09375 44 28.09375 44 
C 21.296875 44 17 40.125 14.703125 37.328125 
L 14.703125 43.09375 
L 7.40625 43.09375 
L 7.40625 0 
L 15 0 
L 15 24.359375 
C 15 30.296875 17.203125 37.9375 24.296875 37.9375 
C 33.40625 37.9375 33.40625 31.5 33.40625 28.578125 
L 33.40625 0 
L 41 0 
L 41 24.359375 
C 41 30.296875 43.203125 37.9375 50.296875 37.9375 
C 59.40625 37.9375 59.40625 31.5 59.40625 28.578125 
L 59.40625 0 
L 67 0 
z
" id="CMSS17-109"/>
      <path d="M 20.09375 40.09375 
L 29.296875 40.09375 
C 31.203125 40.09375 32.203125 40.09375 32.203125 41.890625 
C 32.203125 43 31.59375 43 29.59375 43 
L 20.796875 43 
L 24.5 57.6875 
C 24.90625 59.078125 24.90625 59.28125 24.90625 60 
C 24.90625 61.609375 23.59375 62.5 22.296875 62.5 
C 21.5 62.5 19.203125 62.203125 18.40625 58.984375 
L 14.5 43 
L 5.09375 43 
C 3.09375 43 2.203125 43 2.203125 41.09375 
C 2.203125 40.09375 2.90625 40.09375 4.796875 40.09375 
L 13.703125 40.09375 
L 7.09375 13.765625 
C 6.296875 10.28125 6 9.28125 6 7.984375 
C 6 3.296875 9.296875 -1 14.90625 -1 
C 25 -1 30.40625 13.5625 30.40625 14.25 
C 30.40625 14.859375 30 15.15625 29.40625 15.15625 
C 29.203125 15.15625 28.796875 15.15625 28.59375 14.75 
C 28.5 14.65625 28.40625 14.546875 27.703125 12.953125 
C 25.59375 7.984375 21 1 15.203125 1 
C 12.203125 1 12 3.5 12 5.6875 
C 12 5.78125 12 7.6875 12.296875 8.875 
z
" id="CMMI12-116"/>
      <path d="M 45.59375 27.4375 
C 45.59375 36.921875 39.40625 44 30.296875 44 
C 17.09375 44 4.09375 29.640625 4.09375 15.5625 
C 4.09375 6.09375 10.296875 -1 19.40625 -1 
C 32.703125 -1 45.59375 13.375 45.59375 27.4375 
z
M 19.5 1 
C 14.5 1 10.796875 4.984375 10.796875 11.96875 
C 10.796875 16.5625 13.203125 26.75 16 31.734375 
C 20.5 39.421875 26.09375 42.015625 30.203125 42.015625 
C 35.09375 42.015625 38.90625 38.015625 38.90625 31.03125 
C 38.90625 27.046875 36.796875 16.359375 33 10.28125 
C 28.90625 3.59375 23.40625 1 19.5 1 
z
" id="CMMI12-111"/>
      <path d="M 4.296875 -12.328125 
C 3.59375 -15.3125 3.203125 -16.109375 -0.90625 -16.109375 
C -2.09375 -16.109375 -3.09375 -16.109375 -3.09375 -18 
C -3.09375 -18.203125 -3 -19 -1.90625 -19 
C -0.59375 -19 0.796875 -19 2.09375 -19 
L 6.40625 -19 
C 8.5 -19 13.59375 -19 15.703125 -19 
C 16.296875 -19 17.5 -19 17.5 -17.203125 
C 17.5 -16.109375 16.796875 -16.109375 15.09375 -16.109375 
C 10.5 -16.109375 10.203125 -15.421875 10.203125 -14.640625 
C 10.203125 -13.453125 14.703125 3.421875 15.296875 5.6875 
C 16.40625 2.890625 19.09375 -1 24.296875 -1 
C 35.59375 -1 47.796875 13.671875 47.796875 28.34375 
C 47.796875 37.515625 42.59375 44 35.09375 44 
C 28.703125 44 23.296875 37.8125 22.203125 36.421875 
C 21.40625 41.40625 17.5 44 13.5 44 
C 10.59375 44 8.296875 42.609375 6.40625 38.8125 
C 4.59375 35.21875 3.203125 29.140625 3.203125 28.734375 
C 3.203125 28.34375 3.59375 27.84375 4.296875 27.84375 
C 5.09375 27.84375 5.203125 27.9375 5.796875 30.234375 
C 7.296875 36.125 9.203125 42.015625 13.203125 42.015625 
C 15.5 42.015625 16.296875 40.421875 16.296875 37.453125 
C 16.296875 35.078125 16 34.078125 15.59375 32.296875 
z
M 21.59375 31.140625 
C 22.296875 33.921875 25.09375 36.828125 26.703125 38.21875 
C 27.796875 39.21875 31.09375 42.015625 34.90625 42.015625 
C 39.296875 42.015625 41.296875 37.625 41.296875 32.4375 
C 41.296875 27.640625 38.5 16.359375 36 11.171875 
C 33.5 5.78125 28.90625 1 24.296875 1 
C 17.5 1 16.40625 9.578125 16.40625 9.984375 
C 16.40625 10.28125 16.59375 11.078125 16.703125 11.578125 
z
" id="CMMI12-112"/>
      <path d="M 25.203125 74.5 
C 19.796875 69.015625 7.40625 56.265625 7.40625 24.8125 
C 7.40625 -6.765625 19.796875 -19.421875 25.203125 -25 
L 31.296875 -25 
C 19 -12.25 15 5.578125 15 24.703125 
C 15 43.71875 18.796875 61.65625 31.296875 74.5 
z
" id="CMSS17-40"/>
      <path d="M 40.796875 69 
L 33.40625 69 
L 33.40625 38.09375 
C 30.296875 40.671875 25.203125 43.0625 19.59375 43.0625 
C 10.5 43.0625 3.296875 33.296875 3.296875 21.046875 
C 3.296875 8.78125 10.40625 -1 19.296875 -1 
C 26.203125 -1 30.796875 2.6875 33.203125 4.78125 
L 33.203125 -0.203125 
L 40.796875 -0.203125 
z
M 33.203125 13.0625 
C 33.203125 11.671875 33.203125 10.203125 30.09375 7.53125 
C 28.09375 5.859375 25.703125 5.078125 23.40625 5.078125 
C 18 5.078125 10.90625 9 10.90625 20.9375 
C 10.90625 33.34375 18.90625 37 24.40625 37 
C 28.09375 37 31.09375 35.21875 33.203125 32.265625 
z
" id="CMSS17-100"/>
      <path d="M 37.59375 27.984375 
C 37.59375 37.375 30.90625 43.875 21.90625 43.875 
C 17.5 43.875 12.703125 43.078125 7.203125 39.890625 
L 7.796875 33.359375 
C 10.296875 35.125 14.59375 38 21.796875 38 
C 26.90625 38 30 34.0625 30 27.84375 
L 30 24 
C 14 24 4 19.34375 4 11.34375 
C 4 7.203125 6.5 -1 14.796875 -1 
C 16.296875 -1 24.40625 -1 30.203125 3.390625 
L 30.203125 -0.296875 
L 37.59375 -0.296875 
z
M 30 12.75 
C 30 10.953125 30 8.5625 27 6.78125 
C 24.40625 5.078125 21.09375 5.078125 19.703125 5.078125 
C 14.703125 5.078125 11.296875 7.984375 11.296875 11.625 
C 11.296875 18.921875 26.90625 18.921875 30 18.921875 
z
" id="CMSS17-97"/>
      <path d="M 41.796875 43 
L 34 43 
C 25.5 20.21875 22.59375 10.96875 22.40625 5.984375 
L 22.296875 5.984375 
C 22 10.875 17.59375 22.8125 14.09375 31.359375 
L 9.40625 43 
L 1.296875 43 
L 19 0.203125 
C 17.90625 -2.78125 16.296875 -7.265625 15.796875 -8.265625 
C 13.59375 -13.828125 12.09375 -13.828125 10.5 -13.828125 
C 10.09375 -13.828125 6.90625 -13.828125 3.296875 -12.640625 
L 3.90625 -19.203125 
C 6.40625 -19.703125 8.90625 -20 10.703125 -20 
C 13.203125 -20 18.203125 -20 22.796875 -7.765625 
z
" id="CMSS17-121"/>
      <path d="M 11.296875 -25 
C 16.703125 -19.515625 29.09375 -6.765625 29.09375 24.703125 
C 29.09375 56.265625 16.703125 68.921875 11.296875 74.5 
L 5.203125 74.5 
C 17.5 61.75 21.5 43.921875 21.5 24.8125 
C 21.5 5.78125 17.703125 -12.15625 5.203125 -25 
z
" id="CMSS17-41"/>
     </defs>
     <g style="fill:#262626;" transform="translate(224.99576 334.213296)scale(0.1728 -0.1728)">
      <use transform="translate(0 14.943915)scale(0.996264)" xlink:href="#CMSS17-111"/>
      <use transform="translate(46.843624 14.943915)scale(0.996264)" xlink:href="#CMSS17-11"/>
      <use transform="translate(101.494594 14.943915)scale(0.996264)" xlink:href="#CMSS17-115"/>
      <use transform="translate(137.408136 14.943915)scale(0.996264)" xlink:href="#CMSS17-101"/>
      <use transform="translate(179.046958 14.943915)scale(0.996264)" xlink:href="#CMSS17-116"/>
      <use transform="translate(244.107637 14.943915)scale(0.996264)" xlink:href="#CMSS17-102"/>
      <use transform="translate(272.734296 14.943915)scale(0.996264)" xlink:href="#CMSS17-114"/>
      <use transform="translate(304.644069 14.943915)scale(0.996264)" xlink:href="#CMSS17-111"/>
      <use transform="translate(351.487692 14.943915)scale(0.996264)" xlink:href="#CMSS17-109"/>
      <use transform="translate(456.946059 14.943915)scale(0.996264)" xlink:href="#CMMI12-116"/>
      <use transform="translate(492.172389 0)scale(0.697382)" xlink:href="#CMMI12-111"/>
      <use transform="translate(524.998951 0)scale(0.697382)" xlink:href="#CMMI12-112"/>
      <use transform="translate(559.270457 0)scale(0.697382)" xlink:href="#CMMI12-116"/>
      <use transform="translate(615.656012 14.943915)scale(0.996264)" xlink:href="#CMSS17-40"/>
      <use transform="translate(652.089926 14.943915)scale(0.996264)" xlink:href="#CMSS17-100"/>
      <use transform="translate(700.294869 14.943915)scale(0.996264)" xlink:href="#CMSS17-97"/>
      <use transform="translate(742.614336 14.943915)scale(0.996264)" xlink:href="#CMSS17-121"/>
      <use transform="translate(785.614477 14.943915)scale(0.996264)" xlink:href="#CMSS17-115"/>
      <use transform="translate(821.528019 14.943915)scale(0.996264)" xlink:href="#CMSS17-41"/>
     </g>
    </g>
   </g>
   <g id="matplotlib.axis_2">
    <g id="ytick_1">
     <g id="line2d_11">
      <path clip-path="url(#p7e62a3a776)" d="M 76.066744 275.934225 
L 522.466744 275.934225 
" style="fill:none;stroke:#cccccc;stroke-linecap:round;stroke-width:0.8;"/>
     </g>
     <g id="line2d_12"/>
     <g id="text_7">
      <!-- $0.00$ -->
      <defs>
       <path d="M 18.40625 4.796875 
C 18.40625 7.6875 16 9.671875 13.59375 9.671875 
C 10.703125 9.671875 8.703125 7.28125 8.703125 4.890625 
C 8.703125 2 11.09375 0 13.5 0 
C 16.40625 0 18.40625 2.390625 18.40625 4.796875 
z
" id="CMMI12-58"/>
      </defs>
      <g style="fill:#262626;" transform="translate(44.198454 281.911809)scale(0.1728 -0.1728)">
       <use transform="scale(0.996264)" xlink:href="#CMR17-48"/>
       <use transform="translate(45.690477 0)scale(0.996264)" xlink:href="#CMMI12-58"/>
       <use transform="translate(72.787654 0)scale(0.996264)" xlink:href="#CMR17-48"/>
       <use transform="translate(118.478131 0)scale(0.996264)" xlink:href="#CMR17-48"/>
      </g>
     </g>
    </g>
    <g id="ytick_2">
     <g id="line2d_13">
      <path clip-path="url(#p7e62a3a776)" d="M 76.066744 230.598931 
L 522.466744 230.598931 
" style="fill:none;stroke:#cccccc;stroke-linecap:round;stroke-width:0.8;"/>
     </g>
     <g id="line2d_14"/>
     <g id="text_8">
      <!-- $0.02$ -->
      <defs>
       <path d="M 41.703125 15.453125 
L 39.90625 15.453125 
C 38.90625 8.375 38.09375 7.171875 37.703125 6.5625 
C 37.203125 5.765625 30 5.765625 28.59375 5.765625 
L 9.40625 5.765625 
C 13 9.671875 20 16.75 28.5 24.953125 
C 34.59375 30.734375 41.703125 37.53125 41.703125 47.421875 
C 41.703125 59.21875 32.296875 66 21.796875 66 
C 10.796875 66 4.09375 56.3125 4.09375 47.34375 
C 4.09375 43.4375 7 42.9375 8.203125 42.9375 
C 9.203125 42.9375 12.203125 43.546875 12.203125 47.03125 
C 12.203125 50.109375 9.59375 51 8.203125 51 
C 7.59375 51 7 50.90625 6.59375 50.703125 
C 8.5 59.21875 14.296875 63.40625 20.40625 63.40625 
C 29.09375 63.40625 34.796875 56.515625 34.796875 47.421875 
C 34.796875 38.734375 29.703125 31.25 24 24.75 
L 4.09375 2.28125 
L 4.09375 0 
L 39.296875 0 
z
" id="CMR17-50"/>
      </defs>
      <g style="fill:#262626;" transform="translate(44.198454 236.576515)scale(0.1728 -0.1728)">
       <use transform="scale(0.996264)" xlink:href="#CMR17-48"/>
       <use transform="translate(45.690477 0)scale(0.996264)" xlink:href="#CMMI12-58"/>
       <use transform="translate(72.787654 0)scale(0.996264)" xlink:href="#CMR17-48"/>
       <use transform="translate(118.478131 0)scale(0.996264)" xlink:href="#CMR17-50"/>
      </g>
     </g>
    </g>
    <g id="ytick_3">
     <g id="line2d_15">
      <path clip-path="url(#p7e62a3a776)" d="M 76.066744 185.263637 
L 522.466744 185.263637 
" style="fill:none;stroke:#cccccc;stroke-linecap:round;stroke-width:0.8;"/>
     </g>
     <g id="line2d_16"/>
     <g id="text_9">
      <!-- $0.04$ -->
      <defs>
       <path d="M 33.59375 64.40625 
C 33.59375 66.5 33.5 66.5 31.703125 66.5 
L 2 19.59375 
L 2 17 
L 27.796875 17 
L 27.796875 7.140625 
C 27.796875 3.5 27.59375 2.5 20.59375 2.5 
L 18.703125 2.5 
L 18.703125 0 
C 21.90625 0 27.296875 0 30.703125 0 
C 34.09375 0 39.5 0 42.703125 0 
L 42.703125 2.5 
L 40.796875 2.5 
C 33.796875 2.5 33.59375 3.5 33.59375 7.140625 
L 33.59375 17 
L 43.796875 17 
L 43.796875 19.59375 
L 33.59375 19.59375 
z
M 28.09375 57.859375 
L 28.09375 19.59375 
L 4 19.59375 
z
" id="CMR17-52"/>
      </defs>
      <g style="fill:#262626;" transform="translate(44.198454 191.241221)scale(0.1728 -0.1728)">
       <use transform="scale(0.996264)" xlink:href="#CMR17-48"/>
       <use transform="translate(45.690477 0)scale(0.996264)" xlink:href="#CMMI12-58"/>
       <use transform="translate(72.787654 0)scale(0.996264)" xlink:href="#CMR17-48"/>
       <use transform="translate(118.478131 0)scale(0.996264)" xlink:href="#CMR17-52"/>
      </g>
     </g>
    </g>
    <g id="ytick_4">
     <g id="line2d_17">
      <path clip-path="url(#p7e62a3a776)" d="M 76.066744 139.928343 
L 522.466744 139.928343 
" style="fill:none;stroke:#cccccc;stroke-linecap:round;stroke-width:0.8;"/>
     </g>
     <g id="line2d_18"/>
     <g id="text_10">
      <!-- $0.06$ -->
      <defs>
       <path d="M 10.59375 34 
C 10.59375 57.65625 21.796875 63 28.296875 63 
C 30.40625 63 35.5 62.640625 37.5 59 
C 35.90625 59 32.90625 59 32.90625 55.515625 
C 32.90625 52.828125 35.09375 51.921875 36.5 51.921875 
C 37.40625 51.921875 40.09375 52.3125 40.09375 55.625 
C 40.09375 61.78125 35.09375 65.296875 28.203125 65.296875 
C 16.296875 65.296875 3.796875 52.96875 3.796875 31 
C 3.796875 3.953125 15.09375 -2 23.09375 -2 
C 32.796875 -2 42 6.671875 42 20.046875 
C 42 32.515625 33.90625 41.59375 23.703125 41.59375 
C 17.59375 41.59375 13.09375 37.609375 10.59375 30.625 
z
M 23.09375 0.390625 
C 10.796875 0.390625 10.796875 18.75 10.796875 22.4375 
C 10.796875 29.625 14.203125 40 23.5 40 
C 25.203125 40 30.09375 40 33.40625 33.125 
C 35.203125 29.21875 35.203125 25.140625 35.203125 20.140625 
C 35.203125 14.75 35.203125 10.78125 33.09375 6.78125 
C 30.90625 2.671875 27.703125 0.390625 23.09375 0.390625 
z
" id="CMR17-54"/>
      </defs>
      <g style="fill:#262626;" transform="translate(44.198454 145.905927)scale(0.1728 -0.1728)">
       <use transform="scale(0.996264)" xlink:href="#CMR17-48"/>
       <use transform="translate(45.690477 0)scale(0.996264)" xlink:href="#CMMI12-58"/>
       <use transform="translate(72.787654 0)scale(0.996264)" xlink:href="#CMR17-48"/>
       <use transform="translate(118.478131 0)scale(0.996264)" xlink:href="#CMR17-54"/>
      </g>
     </g>
    </g>
    <g id="ytick_5">
     <g id="line2d_19">
      <path clip-path="url(#p7e62a3a776)" d="M 76.066744 94.593048 
L 522.466744 94.593048 
" style="fill:none;stroke:#cccccc;stroke-linecap:round;stroke-width:0.8;"/>
     </g>
     <g id="line2d_20"/>
     <g id="text_11">
      <!-- $0.08$ -->
      <defs>
       <path d="M 27.203125 35.375 
C 33.5 38.546875 39.90625 43.328125 39.90625 50.984375 
C 39.90625 60.015625 31.09375 65.296875 23 65.296875 
C 13.90625 65.296875 5.90625 58.734375 5.90625 49.6875 
C 5.90625 47.203125 6.5 42.921875 10.40625 39.140625 
C 11.40625 38.15625 15.59375 35.171875 18.296875 33.28125 
C 13.796875 30.984375 3.296875 25.53125 3.296875 14.59375 
C 3.296875 4.359375 13.09375 -2 22.796875 -2 
C 33.5 -2 42.5 5.65625 42.5 15.78125 
C 42.5 24.84375 36.40625 29.015625 32.40625 31.703125 
z
M 14.09375 44.09375 
C 13.296875 44.59375 9.296875 47.671875 9.296875 52.359375 
C 9.296875 58.421875 15.59375 63 22.796875 63 
C 30.703125 63 36.5 57.4375 36.5 50.96875 
C 36.5 41.703125 26.09375 36.421875 25.59375 36.421875 
C 25.5 36.421875 25.40625 36.421875 24.59375 37.03125 
z
M 32.5 23.734375 
C 34 22.640625 38.796875 19.375 38.796875 13.296875 
C 38.796875 5.953125 31.40625 0.390625 23 0.390625 
C 13.90625 0.390625 7 6.84375 7 14.6875 
C 7 22.546875 13.09375 29.09375 20 32.1875 
z
" id="CMR17-56"/>
      </defs>
      <g style="fill:#262626;" transform="translate(44.198454 100.570632)scale(0.1728 -0.1728)">
       <use transform="scale(0.996264)" xlink:href="#CMR17-48"/>
       <use transform="translate(45.690477 0)scale(0.996264)" xlink:href="#CMMI12-58"/>
       <use transform="translate(72.787654 0)scale(0.996264)" xlink:href="#CMR17-48"/>
       <use transform="translate(118.478131 0)scale(0.996264)" xlink:href="#CMR17-56"/>
      </g>
     </g>
    </g>
    <g id="ytick_6">
     <g id="line2d_21">
      <path clip-path="url(#p7e62a3a776)" d="M 76.066744 49.257754 
L 522.466744 49.257754 
" style="fill:none;stroke:#cccccc;stroke-linecap:round;stroke-width:0.8;"/>
     </g>
     <g id="line2d_22"/>
     <g id="text_12">
      <!-- $0.10$ -->
      <g style="fill:#262626;" transform="translate(44.198454 55.235338)scale(0.1728 -0.1728)">
       <use transform="scale(0.996264)" xlink:href="#CMR17-48"/>
       <use transform="translate(45.690477 0)scale(0.996264)" xlink:href="#CMMI12-58"/>
       <use transform="translate(72.787654 0)scale(0.996264)" xlink:href="#CMR17-49"/>
       <use transform="translate(118.478131 0)scale(0.996264)" xlink:href="#CMR17-48"/>
      </g>
     </g>
    </g>
    <g id="text_13">
     <!-- $\Delta I_{max}$: intensive only minus -->
     <defs>
      <path d="M 40.59375 68.796875 
C 39.796875 70.5 39.40625 70.5 38.59375 70.5 
C 37.40625 70.5 37.296875 70.296875 36.59375 68.890625 
L 4.203125 1.703125 
C 4.09375 1.5 3.703125 0.59375 3.703125 0.5 
C 3.703125 0.09375 3.796875 0 5.59375 0 
L 71.5 0 
C 73.296875 0 73.40625 0.09375 73.40625 0.5 
C 73.40625 0.59375 73 1.5 72.90625 1.703125 
z
M 36.09375 63.09375 
L 63.796875 5.59375 
L 8.296875 5.59375 
z
" id="CMR17-1"/>
      <path d="M 36.796875 60.625 
C 37.703125 64.109375 37.90625 65.109375 45.203125 65.109375 
C 47.40625 65.109375 48.203125 65.109375 48.203125 67 
C 48.203125 68 47.09375 68 46.796875 68 
C 45 68 42.796875 68 41 68 
L 28.703125 68 
C 26.703125 68 24.40625 68 22.40625 68 
C 21.59375 68 20.5 68 20.5 66.109375 
C 20.5 65.109375 21.296875 65.109375 23.296875 65.109375 
C 29.5 65.109375 29.5 64.3125 29.5 63.21875 
C 29.5 62.53125 29.296875 61.921875 29.09375 61.03125 
L 15.59375 7.375 
C 14.703125 3.890625 14.5 2.890625 7.203125 2.890625 
C 5 2.890625 4.09375 2.890625 4.09375 1 
C 4.09375 0 5.09375 0 5.59375 0 
C 7.40625 0 9.59375 0 11.40625 0 
L 23.703125 0 
C 25.703125 0 27.90625 0 29.90625 0 
C 30.703125 0 31.90625 0 31.90625 1.796875 
C 31.90625 2.890625 31.296875 2.890625 29.09375 2.890625 
C 22.90625 2.890625 22.90625 3.6875 22.90625 4.875 
C 22.90625 5.078125 22.90625 5.578125 23.296875 7.171875 
z
" id="CMMI12-73"/>
      <path d="M 20.59375 29.234375 
C 20.796875 29.84375 23.296875 34.828125 27 38.015625 
C 29.59375 40.40625 33 42.015625 36.90625 42.015625 
C 40.90625 42.015625 42.296875 39.015625 42.296875 35.03125 
C 42.296875 34.421875 42.296875 32.4375 41.09375 27.734375 
L 38.59375 17.46875 
C 37.796875 14.46875 35.90625 7.078125 35.703125 5.984375 
C 35.296875 4.484375 34.703125 1.890625 34.703125 1.5 
C 34.703125 0.09375 35.796875 -1 37.296875 -1 
C 40.296875 -1 40.796875 1.296875 41.703125 4.890625 
L 47.703125 28.734375 
C 47.90625 29.53125 53.09375 42.015625 64.09375 42.015625 
C 68.09375 42.015625 69.5 39.015625 69.5 35.03125 
C 69.5 29.4375 65.59375 18.5625 63.40625 12.578125 
C 62.5 10.171875 62 8.875 62 7.078125 
C 62 2.59375 65.09375 -1 69.90625 -1 
C 79.203125 -1 82.703125 13.671875 82.703125 14.265625 
C 82.703125 14.765625 82.296875 15.171875 81.703125 15.171875 
C 80.796875 15.171875 80.703125 14.875 80.203125 13.171875 
C 77.90625 5.1875 74.203125 1 70.203125 1 
C 69.203125 1 67.59375 1 67.59375 4.203125 
C 67.59375 6.8125 68.796875 10 69.203125 11.09375 
C 71 15.90625 75.5 27.703125 75.5 33.515625 
C 75.5 39.5 72 44 64.40625 44 
C 57.703125 44 52.296875 40.21875 48.296875 34.328125 
C 48 39.71875 44.703125 44 37.203125 44 
C 28.296875 44 23.59375 37.734375 21.796875 35.234375 
C 21.5 40.90625 17.40625 44 13 44 
C 10.09375 44 7.796875 42.609375 5.90625 38.8125 
C 4.09375 35.21875 2.703125 29.140625 2.703125 28.734375 
C 2.703125 28.34375 3.09375 27.84375 3.796875 27.84375 
C 4.59375 27.84375 4.703125 27.9375 5.296875 30.234375 
C 6.796875 36.125 8.703125 42.015625 12.703125 42.015625 
C 15 42.015625 15.796875 40.40625 15.796875 37.421875 
C 15.796875 35.21875 14.796875 31.328125 14.09375 28.234375 
L 11.296875 17.46875 
C 10.90625 15.5625 9.796875 11.078125 9.296875 9.28125 
C 8.59375 6.6875 7.5 2 7.5 1.5 
C 7.5 0.09375 8.59375 -1 10.09375 -1 
C 11.296875 -1 12.703125 -0.40625 13.5 1.09375 
C 13.703125 1.59375 14.59375 5.09375 15.09375 7.078125 
L 17.296875 16.0625 
z
" id="CMMI12-109"/>
      <path d="M 30.09375 11.875 
C 29.59375 10.171875 29.59375 9.984375 28.203125 8.078125 
C 26 5.28125 21.59375 1 16.90625 1 
C 12.796875 1 10.5 4.6875 10.5 10.578125 
C 10.5 16.0625 13.59375 27.234375 15.5 31.4375 
C 18.90625 38.421875 23.59375 42.015625 27.5 42.015625 
C 34.09375 42.015625 35.40625 33.828125 35.40625 33.03125 
C 35.40625 32.9375 35.09375 31.625 35 31.4375 
z
M 36.5 37.421875 
C 35.40625 40.015625 32.703125 44 27.5 44 
C 16.203125 44 4 29.4375 4 14.671875 
C 4 4.796875 9.796875 -1 16.59375 -1 
C 22.09375 -1 26.796875 3.296875 29.59375 6.59375 
C 30.59375 0.703125 35.296875 -1 38.296875 -1 
C 41.296875 -1 43.703125 0.796875 45.5 4.390625 
C 47.09375 7.78125 48.5 13.875 48.5 14.265625 
C 48.5 14.765625 48.09375 15.171875 47.5 15.171875 
C 46.59375 15.171875 46.5 14.671875 46.09375 13.171875 
C 44.59375 7.28125 42.703125 1 38.59375 1 
C 35.703125 1 35.5 3.59375 35.5 5.59375 
C 35.5 7.890625 35.796875 8.984375 36.703125 12.875 
C 37.40625 15.375 37.90625 17.5625 38.703125 20.453125 
C 42.40625 35.421875 43.296875 39.015625 43.296875 39.609375 
C 43.296875 41.015625 42.203125 42.109375 40.703125 42.109375 
C 37.5 42.109375 36.703125 38.625 36.5 37.421875 
z
" id="CMMI12-97"/>
      <path d="M 47.40625 40.71875 
C 44.203125 40.109375 43 37.71875 43 35.828125 
C 43 33.421875 44.90625 32.625 46.296875 32.625 
C 49.296875 32.625 51.40625 35.21875 51.40625 37.921875 
C 51.40625 42.109375 46.59375 44 42.40625 44 
C 36.296875 44 32.90625 38.015625 32 36.125 
C 29.703125 44 23.5 44 21.703125 44 
C 11.5 44 6.09375 30.9375 6.09375 28.734375 
C 6.09375 28.34375 6.5 27.84375 7.203125 27.84375 
C 8 27.84375 8.203125 28.4375 8.40625 28.84375 
C 11.796875 39.921875 18.5 42.015625 21.40625 42.015625 
C 25.90625 42.015625 26.796875 37.8125 26.796875 35.421875 
C 26.796875 33.234375 26.203125 30.9375 25 26.140625 
L 21.59375 12.46875 
C 20.09375 6.484375 17.203125 1 11.90625 1 
C 11.40625 1 8.90625 1 6.796875 2.296875 
C 10.40625 3 11.203125 5.984375 11.203125 7.1875 
C 11.203125 9.1875 9.703125 10.375 7.796875 10.375 
C 5.40625 10.375 2.796875 8.28125 2.796875 5.09375 
C 2.796875 0.890625 7.5 -1 11.796875 -1 
C 16.59375 -1 20 2.796875 22.09375 6.890625 
C 23.703125 1 28.703125 -1 32.40625 -1 
C 42.59375 -1 48 12.078125 48 14.265625 
C 48 14.765625 47.59375 15.171875 47 15.171875 
C 46.09375 15.171875 46 14.671875 45.703125 13.875 
C 43 5.09375 37.203125 1 32.703125 1 
C 29.203125 1 27.296875 3.59375 27.296875 7.6875 
C 27.296875 9.875 27.703125 11.46875 29.296875 18.0625 
L 32.796875 31.625 
C 34.296875 37.625 37.703125 42.015625 42.296875 42.015625 
C 42.5 42.015625 45.296875 42.015625 47.40625 40.71875 
z
" id="CMMI12-120"/>
      <path d="M 17 42.953125 
L 9 42.953125 
L 9 35 
L 17 35 
z
M 9 7.96875 
L 9 0 
L 17 0 
L 17 7.96875 
z
" id="CMSS17-58"/>
      <path d="M 15.296875 65.359375 
L 6.90625 65.359375 
L 6.90625 57 
L 15.296875 57 
z
M 14.796875 42.796875 
L 7.40625 42.796875 
L 7.40625 0 
L 14.796875 0 
z
" id="CMSS17-105"/>
      <path d="M 40.90625 29.328125 
C 40.90625 35.671875 39.40625 44 28.09375 44 
C 21.703125 44 17.5 40.71875 14.703125 37.328125 
L 14.703125 43.09375 
L 7.40625 43.09375 
L 7.40625 0 
L 15 0 
L 15 24.359375 
C 15 30.6875 17.40625 37.9375 24.203125 37.9375 
C 33 37.9375 33.296875 32 33.296875 28.578125 
L 33.296875 0 
L 40.90625 0 
z
" id="CMSS17-110"/>
      <path d="M 41.796875 43 
L 34 43 
L 27.296875 24.3125 
C 25.203125 18.203125 22.203125 9.796875 21.703125 5.5 
L 21.59375 5.5 
C 21.40625 7.3125 20.59375 9.90625 20.09375 11.703125 
C 19.5 13.90625 18.703125 16.5 18.09375 18.3125 
L 9.296875 43 
L 1.296875 43 
L 17.09375 0 
L 26 0 
z
" id="CMSS17-118"/>
      <path d="M 14.796875 69 
L 7.40625 69 
L 7.40625 0 
L 14.796875 0 
z
" id="CMSS17-108"/>
      <path d="M 40.90625 42.796875 
L 33.296875 42.796875 
L 33.296875 15.1875 
C 33.296875 7.78125 27.90625 4.78125 22.203125 4.78125 
C 15.59375 4.78125 15 6.984375 15 11.078125 
L 15 42.796875 
L 7.40625 42.796875 
L 7.40625 10.59375 
C 7.40625 2.796875 10.09375 -1 17 -1 
C 20.40625 -1 28.09375 -0.203125 33.5 4.78125 
L 33.5 0 
L 40.90625 0 
z
" id="CMSS17-117"/>
     </defs>
     <g style="fill:#262626;" transform="translate(19.155168 257.133329)rotate(-90)scale(0.1728 -0.1728)">
      <use transform="translate(0 14.943915)scale(0.996264)" xlink:href="#CMR17-1"/>
      <use transform="translate(76.91959 14.943915)scale(0.996264)" xlink:href="#CMMI12-73"/>
      <use transform="translate(119.943766 0)scale(0.697382)" xlink:href="#CMMI12-109"/>
      <use transform="translate(179.672557 0)scale(0.697382)" xlink:href="#CMMI12-97"/>
      <use transform="translate(215.517903 0)scale(0.697382)" xlink:href="#CMMI12-120"/>
      <use transform="translate(254.819695 14.943915)scale(0.996264)" xlink:href="#CMSS17-58"/>
      <use transform="translate(322.482706 14.943915)scale(0.996264)" xlink:href="#CMSS17-105"/>
      <use transform="translate(344.663429 14.943915)scale(0.996264)" xlink:href="#CMSS17-110"/>
      <use transform="translate(392.868373 14.943915)scale(0.996264)" xlink:href="#CMSS17-116"/>
      <use transform="translate(426.699939 14.943915)scale(0.996264)" xlink:href="#CMSS17-101"/>
      <use transform="translate(468.338761 14.943915)scale(0.996264)" xlink:href="#CMSS17-110"/>
      <use transform="translate(516.543705 14.943915)scale(0.996264)" xlink:href="#CMSS17-115"/>
      <use transform="translate(552.457247 14.943915)scale(0.996264)" xlink:href="#CMSS17-105"/>
      <use transform="translate(574.63797 14.943915)scale(0.996264)" xlink:href="#CMSS17-118"/>
      <use transform="translate(617.638111 14.943915)scale(0.996264)" xlink:href="#CMSS17-101"/>
      <use transform="translate(690.506046 14.943915)scale(0.996264)" xlink:href="#CMSS17-111"/>
      <use transform="translate(737.34967 14.943915)scale(0.996264)" xlink:href="#CMSS17-110"/>
      <use transform="translate(785.554613 14.943915)scale(0.996264)" xlink:href="#CMSS17-108"/>
      <use transform="translate(807.735336 14.943915)scale(0.996264)" xlink:href="#CMSS17-121"/>
      <use transform="translate(881.96459 14.943915)scale(0.996264)" xlink:href="#CMSS17-109"/>
      <use transform="translate(956.193845 14.943915)scale(0.996264)" xlink:href="#CMSS17-105"/>
      <use transform="translate(978.374568 14.943915)scale(0.996264)" xlink:href="#CMSS17-110"/>
      <use transform="translate(1026.579511 14.943915)scale(0.996264)" xlink:href="#CMSS17-117"/>
      <use transform="translate(1074.784454 14.943915)scale(0.996264)" xlink:href="#CMSS17-115"/>
     </g>
     <!-- continuous only -->
     <defs>
      <path d="M 38.5 39.703125 
C 38.5 40.390625 33.90625 42.40625 32.703125 42.796875 
C 29.40625 44 25.203125 44 24.09375 44 
C 11.09375 44 3.296875 32.703125 3.296875 21.296875 
C 3.296875 9.296875 12 -1 23.703125 -1 
C 30.40625 -1 35.203125 1.1875 39.09375 3.78125 
L 38.5 10.375 
C 34.203125 7.078125 29.203125 5.265625 23.796875 5.265625 
C 16 5.265625 10.90625 12.09375 10.90625 21.390625 
C 10.90625 28.609375 14.203125 37.71875 24.203125 37.71875 
C 29.703125 37.71875 32.796875 36.609375 37.40625 33.515625 
z
" id="CMSS17-99"/>
     </defs>
     <g style="fill:#262626;" transform="translate(36.849912 213.891319)rotate(-90)scale(0.1728 -0.1728)">
      <use transform="scale(0.996264)" xlink:href="#CMSS17-99"/>
      <use transform="translate(41.638822 0)scale(0.996264)" xlink:href="#CMSS17-111"/>
      <use transform="translate(88.482446 0)scale(0.996264)" xlink:href="#CMSS17-110"/>
      <use transform="translate(136.687389 0)scale(0.996264)" xlink:href="#CMSS17-116"/>
      <use transform="translate(170.518955 0)scale(0.996264)" xlink:href="#CMSS17-105"/>
      <use transform="translate(192.699678 0)scale(0.996264)" xlink:href="#CMSS17-110"/>
      <use transform="translate(240.904622 0)scale(0.996264)" xlink:href="#CMSS17-117"/>
      <use transform="translate(289.109565 0)scale(0.996264)" xlink:href="#CMSS17-111"/>
      <use transform="translate(335.953188 0)scale(0.996264)" xlink:href="#CMSS17-117"/>
      <use transform="translate(384.158131 0)scale(0.996264)" xlink:href="#CMSS17-115"/>
      <use transform="translate(451.300786 0)scale(0.996264)" xlink:href="#CMSS17-111"/>
      <use transform="translate(498.14441 0)scale(0.996264)" xlink:href="#CMSS17-110"/>
      <use transform="translate(546.349353 0)scale(0.996264)" xlink:href="#CMSS17-108"/>
      <use transform="translate(568.530076 0)scale(0.996264)" xlink:href="#CMSS17-121"/>
     </g>
    </g>
   </g>
   <g id="line2d_23">
    <path clip-path="url(#p7e62a3a776)" d="M 76.066744 110.890018 
L 76.51359 111.446293 
L 77.407284 111.446293 
L 77.854131 112.006127 
L 78.300978 112.006127 
L 78.747825 112.56953 
L 79.194672 112.56953 
L 79.641518 113.136511 
L 80.088365 113.136511 
L 80.535212 113.707081 
L 80.982059 113.707081 
L 81.428906 114.281248 
L 81.875753 114.281248 
L 82.322599 114.859022 
L 82.769446 114.859022 
L 83.216293 115.440411 
L 84.109987 115.440411 
L 84.556834 116.025424 
L 85.003681 116.025424 
L 85.450527 116.614069 
L 85.897374 116.614069 
L 86.344221 117.20622 
L 86.791068 117.20622 
L 87.237915 117.801733 
L 87.684762 117.801733 
L 88.131608 118.400912 
L 88.578455 118.400912 
L 89.025302 119.003785 
L 89.472149 119.003785 
L 89.918996 119.610319 
L 90.81269 119.610319 
L 91.259536 120.220547 
L 91.706383 120.220547 
L 92.15323 120.83446 
L 92.600077 120.83446 
L 93.046924 121.452073 
L 93.493771 121.452073 
L 93.940617 122.073393 
L 94.387464 122.073393 
L 94.834311 122.698425 
L 95.281158 122.698425 
L 95.728005 123.327175 
L 96.174852 123.327175 
L 96.621699 123.959647 
L 97.515392 123.959647 
L 97.962239 124.595847 
L 98.409086 124.595847 
L 98.855933 125.235779 
L 99.30278 125.235779 
L 99.749626 125.879601 
L 100.196473 125.879601 
L 100.64332 126.527013 
L 101.090167 126.527013 
L 101.537014 127.17817 
L 101.983861 127.17817 
L 102.430708 127.833075 
L 102.877554 127.833075 
L 103.324401 128.49173 
L 104.218095 128.49173 
L 104.664942 129.154184 
L 105.111789 129.154184 
L 105.558635 129.820159 
L 106.005482 129.820159 
L 106.452329 130.490079 
L 106.899176 130.490079 
L 107.346023 131.163759 
L 107.79287 131.163759 
L 108.239717 131.841201 
L 108.686563 131.841201 
L 109.13341 132.522404 
L 109.580257 132.522404 
L 110.027104 133.207369 
L 110.920798 133.207369 
L 111.367645 133.896096 
L 111.814491 133.896096 
L 112.261338 134.588586 
L 112.708185 134.588586 
L 113.155032 135.284839 
L 113.601879 135.284839 
L 114.048726 135.984764 
L 114.495572 135.984764 
L 114.942419 136.688408 
L 115.389266 136.688408 
L 115.836113 137.395823 
L 116.28296 137.395823 
L 116.729807 138.107045 
L 117.176654 138.107045 
L 117.6235 138.82199 
L 118.517194 138.82199 
L 118.964041 139.540764 
L 119.410888 139.540764 
L 119.857735 140.26324 
L 120.304581 140.26324 
L 120.751428 140.989471 
L 121.198275 140.989471 
L 121.645122 141.719488 
L 122.091969 141.719488 
L 122.538816 142.453222 
L 122.985663 142.453222 
L 123.432509 143.190698 
L 123.879356 143.190698 
L 124.326203 143.93191 
L 125.219897 143.93191 
L 125.666744 144.676852 
L 126.11359 144.676852 
L 126.560437 145.425516 
L 127.007284 145.425516 
L 127.454131 146.177895 
L 127.900978 146.177895 
L 128.347825 146.933983 
L 128.794672 146.933983 
L 129.241518 147.693852 
L 129.688365 147.693852 
L 130.135212 148.457335 
L 130.582059 148.457335 
L 131.028906 149.224501 
L 131.922599 149.224501 
L 132.369446 149.995145 
L 132.816293 149.995145 
L 133.26314 150.76962 
L 133.709987 150.76962 
L 134.156834 151.547656 
L 134.603681 151.547656 
L 135.050527 152.329269 
L 135.497374 152.329269 
L 135.944221 153.114496 
L 136.391068 153.114496 
L 136.837915 153.903323 
L 137.284762 153.903323 
L 137.731608 154.695739 
L 138.625302 154.695739 
L 139.072149 155.491729 
L 139.518996 155.491729 
L 139.965843 156.29128 
L 140.41269 156.29128 
L 140.859536 157.094376 
L 141.306383 157.094376 
L 141.75323 157.901004 
L 142.200077 157.901004 
L 142.646924 158.711148 
L 143.093771 158.711148 
L 143.540617 159.52479 
L 143.987464 159.52479 
L 144.434311 160.341915 
L 145.328005 160.341915 
L 145.774852 161.162503 
L 146.221699 161.162503 
L 146.668545 161.986537 
L 147.115392 161.986537 
L 147.562239 162.814003 
L 148.009086 162.814003 
L 148.455933 163.644881 
L 148.90278 163.644881 
L 149.349626 164.479148 
L 149.796473 164.479148 
L 150.24332 165.316785 
L 150.690167 165.316785 
L 151.137014 166.157769 
L 152.030708 166.157769 
L 152.477554 167.002081 
L 152.924401 167.002081 
L 153.371248 167.849682 
L 153.818095 167.849682 
L 154.264942 168.699997 
L 154.711789 168.699997 
L 155.158635 169.553546 
L 155.605482 169.553546 
L 156.052329 170.410307 
L 156.499176 170.410307 
L 156.946023 171.270256 
L 157.39287 171.270256 
L 157.839717 172.133368 
L 158.73341 172.133368 
L 159.180257 172.99961 
L 159.627104 172.99961 
L 160.073951 173.868962 
L 160.520798 173.868962 
L 160.967645 174.741351 
L 161.414491 174.741351 
L 161.861338 175.616839 
L 162.308185 175.616839 
L 162.755032 176.495351 
L 163.201879 176.495351 
L 163.648726 177.376314 
L 164.095572 177.376314 
L 164.542419 178.259937 
L 165.436113 178.259937 
L 165.88296 179.146472 
L 166.329807 179.146472 
L 166.776654 180.035887 
L 167.2235 180.035887 
L 167.670347 180.92815 
L 168.117194 180.92815 
L 168.564041 181.823227 
L 169.010888 181.823227 
L 169.457735 182.721086 
L 169.904581 182.721086 
L 170.351428 183.621636 
L 170.798275 183.621636 
L 171.245122 184.523912 
L 172.138816 184.523912 
L 172.585663 185.428842 
L 173.032509 185.428842 
L 173.479356 186.336392 
L 173.926203 186.336392 
L 174.37305 187.246519 
L 174.819897 187.246519 
L 175.266744 188.159183 
L 175.71359 188.159183 
L 176.160437 189.074335 
L 176.607284 189.074335 
L 177.054131 189.99087 
L 177.500978 189.99087 
L 177.947825 190.909675 
L 178.841518 190.909675 
L 179.288365 191.830837 
L 179.735212 191.830837 
L 180.182059 192.754314 
L 180.628906 192.754314 
L 181.075753 193.680063 
L 181.522599 193.680063 
L 181.969446 194.607154 
L 182.416293 194.607154 
L 182.86314 195.535927 
L 183.309987 195.535927 
L 183.756834 196.466818 
L 184.203681 196.466818 
L 184.650527 197.399781 
L 185.544221 197.399781 
L 185.991068 198.334677 
L 186.437915 198.334677 
L 186.884762 199.270115 
L 187.331608 199.270115 
L 187.778455 200.207483 
L 188.225302 200.207483 
L 188.672149 201.14668 
L 189.118996 201.14668 
L 189.565843 202.087689 
L 190.01269 202.087689 
L 190.459536 203.028918 
L 190.906383 203.028918 
L 191.35323 203.971708 
L 192.246924 203.971708 
L 192.693771 204.916132 
L 193.140617 204.916132 
L 193.587464 205.861812 
L 194.034311 205.861812 
L 194.481158 206.807546 
L 194.928005 206.807546 
L 195.374852 207.754653 
L 195.821699 207.754653 
L 196.268545 208.703236 
L 196.715392 208.703236 
L 197.162239 209.65173 
L 197.609086 209.65173 
L 198.055933 210.601 
L 198.50278 210.601 
L 198.949626 211.551443 
L 199.84332 211.551443 
L 200.290167 212.501968 
L 200.737014 212.501968 
L 201.183861 213.452625 
L 201.630708 213.452625 
L 202.077554 214.404288 
L 202.524401 214.404288 
L 202.971248 215.355639 
L 203.418095 215.355639 
L 203.864942 216.306967 
L 204.311789 216.306967 
L 204.758635 217.259096 
L 205.205482 217.259096 
L 205.652329 218.210177 
L 206.546023 218.210177 
L 206.99287 219.161398 
L 207.439717 219.161398 
L 207.886563 220.112871 
L 208.33341 220.112871 
L 208.780257 221.06309 
L 209.227104 221.06309 
L 209.673951 222.013532 
L 210.120798 222.013532 
L 210.567645 222.962705 
L 211.014491 222.962705 
L 211.461338 223.91134 
L 211.908185 223.91134 
L 212.355032 224.859441 
L 213.248726 224.859441 
L 213.695572 225.805864 
L 214.142419 225.805864 
L 214.589266 226.752303 
L 215.036113 226.752303 
L 215.48296 227.696094 
L 215.929807 227.696094 
L 216.376654 228.639781 
L 216.8235 228.639781 
L 217.270347 229.580897 
L 217.717194 229.580897 
L 218.164041 230.521381 
L 218.610888 230.521381 
L 219.057735 231.459262 
L 219.951428 231.459262 
L 220.398275 232.396116 
L 220.845122 232.396116 
L 221.291969 233.33011 
L 221.738816 233.33011 
L 222.185663 234.262827 
L 222.632509 234.262827 
L 223.079356 235.19225 
L 223.526203 235.19225 
L 223.97305 236.120464 
L 224.419897 236.120464 
L 224.866744 237.044792 
L 225.31359 237.044792 
L 225.760437 237.967404 
L 226.654131 237.967404 
L 227.100978 238.886542 
L 227.547825 238.886542 
L 227.994672 239.802886 
L 228.441518 239.802886 
L 228.888365 240.716391 
L 229.335212 240.716391 
L 229.782059 241.625777 
L 230.228906 241.625777 
L 230.675753 242.532508 
L 231.122599 242.532508 
L 231.569446 243.434996 
L 232.016293 243.434996 
L 232.46314 244.333707 
L 233.356834 244.333707 
L 233.803681 245.22909 
L 234.250527 245.22909 
L 234.697374 246.119481 
L 235.144221 246.119481 
L 235.591068 247.00574 
L 236.037915 247.00574 
L 236.484762 247.888022 
L 236.931608 247.888022 
L 237.378455 248.764973 
L 237.825302 248.764973 
L 238.272149 249.637045 
L 238.718996 249.637045 
L 239.165843 250.504439 
L 240.059536 250.504439 
L 240.506383 251.366866 
L 240.95323 251.366866 
L 241.400077 252.222994 
L 241.846924 252.222994 
L 242.293771 253.073827 
L 242.740617 253.073827 
L 243.187464 253.919116 
L 243.634311 253.919116 
L 244.081158 254.758617 
L 244.528005 254.758617 
L 244.974852 255.59139 
L 245.421699 255.59139 
L 245.868545 256.417631 
L 246.762239 256.417631 
L 247.209086 257.237312 
L 247.655933 257.237312 
L 248.10278 258.050401 
L 248.549626 258.050401 
L 248.996473 258.85654 
L 249.44332 258.85654 
L 249.890167 259.655485 
L 250.337014 259.655485 
L 250.783861 260.446899 
L 251.230708 260.446899 
L 251.677554 261.230209 
L 252.124401 261.230209 
L 252.571248 262.005656 
L 253.464942 262.005656 
L 253.911789 262.772991 
L 254.358635 262.772991 
L 254.805482 263.531967 
L 255.252329 263.531967 
L 255.699176 264.282335 
L 256.146023 264.282335 
L 256.59287 265.023847 
L 257.039717 265.023847 
L 257.486563 265.756255 
L 257.93341 265.756255 
L 258.380257 266.47931 
L 258.827104 266.47931 
L 259.273951 267.192764 
L 260.167645 267.192764 
L 260.614491 267.896331 
L 261.061338 267.896331 
L 261.508185 268.589834 
L 261.955032 268.589834 
L 262.401879 269.273001 
L 262.848726 269.273001 
L 263.295572 269.945562 
L 263.742419 269.945562 
L 264.189266 270.607278 
L 264.636113 270.607278 
L 265.08296 271.257542 
L 265.529807 271.257542 
L 265.976654 271.896187 
L 266.870347 271.896187 
L 267.317194 272.523165 
L 267.764041 272.523165 
L 268.210888 273.138234 
L 268.657735 273.138234 
L 269.104581 273.741127 
L 269.551428 273.741127 
L 269.998275 274.331607 
L 270.445122 274.331607 
L 270.891969 274.908943 
L 271.338816 274.908943 
L 271.785663 275.472756 
L 272.232509 275.472756 
L 272.679356 276.02333 
L 273.57305 276.02333 
L 274.019897 276.560418 
L 274.466744 276.560418 
L 274.91359 277.083211 
L 275.360437 277.083211 
L 275.807284 277.591171 
L 276.254131 277.591171 
L 276.700978 278.084819 
L 277.147825 278.084819 
L 277.594672 278.563626 
L 278.041518 278.563626 
L 278.488365 279.026259 
L 278.935212 279.026259 
L 279.382059 279.473751 
L 279.828906 279.473751 
L 280.275753 279.905124 
L 281.169446 279.905124 
L 281.616293 280.319711 
L 282.06314 280.319711 
L 282.509987 280.718323 
L 282.956834 280.718323 
L 283.403681 281.098815 
L 283.850527 281.098815 
L 284.297374 281.462621 
L 284.744221 281.462621 
L 285.191068 281.808085 
L 285.637915 281.808085 
L 286.084762 282.135757 
L 286.531608 282.135757 
L 286.978455 282.444537 
L 287.872149 282.444537 
L 288.318996 282.734743 
L 288.765843 282.734743 
L 289.21269 283.005178 
L 289.659536 283.005178 
L 290.106383 283.256579 
L 290.55323 283.256579 
L 291.000077 283.487003 
L 291.446924 283.487003 
L 291.893771 283.697729 
L 292.340617 283.697729 
L 292.787464 283.886993 
L 293.234311 283.886993 
L 293.681158 284.055112 
L 294.574852 284.055112 
L 295.021699 284.202107 
L 295.468545 284.202107 
L 295.915392 284.325933 
L 297.255933 284.427706 
L 298.596473 284.561957 
L 303.958635 284.471642 
L 305.299176 284.255673 
L 305.746023 284.255673 
L 306.19287 284.107419 
L 306.639717 284.107419 
L 307.086563 283.931444 
L 307.980257 283.931444 
L 308.427104 283.727055 
L 308.873951 283.727055 
L 309.320798 283.494033 
L 309.767645 283.494033 
L 310.214491 283.231914 
L 310.661338 283.231914 
L 311.108185 282.940148 
L 311.555032 282.940148 
L 312.001879 282.618131 
L 312.448726 282.618131 
L 312.895572 282.265448 
L 313.342419 282.265448 
L 313.789266 281.881478 
L 314.68296 281.881478 
L 315.129807 281.46566 
L 315.576654 281.46566 
L 316.0235 281.017432 
L 316.470347 281.017432 
L 316.917194 280.536226 
L 317.364041 280.536226 
L 317.810888 280.021469 
L 318.257735 280.021469 
L 318.704581 279.472582 
L 319.151428 279.472582 
L 319.598275 278.888978 
L 320.045122 278.888978 
L 320.491969 278.27006 
L 321.385663 278.27006 
L 321.832509 277.61523 
L 322.279356 277.61523 
L 322.726203 276.923882 
L 323.17305 276.923882 
L 323.619897 276.195075 
L 324.066744 276.195075 
L 324.51359 275.428216 
L 324.960437 275.428216 
L 325.407284 274.622912 
L 325.854131 274.622912 
L 326.300978 273.778527 
L 326.747825 273.778527 
L 327.194672 272.894409 
L 328.088365 272.894409 
L 328.535212 271.969905 
L 328.982059 271.969905 
L 329.428906 271.004168 
L 329.875753 271.004168 
L 330.322599 269.995909 
L 330.769446 269.995909 
L 331.216293 268.945172 
L 331.66314 268.945172 
L 332.109987 267.851265 
L 332.556834 267.851265 
L 333.003681 266.713481 
L 333.450527 266.713481 
L 333.897374 265.530399 
L 334.791068 265.530399 
L 335.237915 264.301439 
L 335.684762 264.301439 
L 336.131608 263.026347 
L 336.578455 263.026347 
L 337.025302 261.704366 
L 337.472149 261.704366 
L 337.918996 260.333772 
L 338.365843 260.333772 
L 338.81269 258.914235 
L 339.259536 258.914235 
L 339.706383 257.445392 
L 340.15323 257.445392 
L 340.600077 255.92617 
L 341.493771 255.92617 
L 341.940617 254.354691 
L 342.387464 254.354691 
L 342.834311 252.731363 
L 343.281158 252.731363 
L 343.728005 251.05532 
L 344.174852 251.05532 
L 344.621699 249.324147 
L 345.068545 249.324147 
L 345.515392 247.538264 
L 345.962239 247.538264 
L 346.409086 245.696913 
L 346.855933 245.696913 
L 347.30278 243.805998 
L 348.196473 243.805998 
L 348.64332 241.911985 
L 349.090167 241.911985 
L 349.537014 240.021087 
L 349.983861 240.021087 
L 350.430708 238.133413 
L 350.877554 238.133413 
L 351.324401 236.249075 
L 351.771248 236.249075 
L 352.218095 234.368182 
L 352.664942 234.368182 
L 353.111789 232.490846 
L 353.558635 232.490846 
L 354.005482 230.617176 
L 354.452329 230.617176 
L 354.899176 228.747283 
L 355.79287 228.747283 
L 356.239717 226.881277 
L 356.686563 226.881277 
L 357.13341 225.01927 
L 357.580257 225.01927 
L 358.027104 223.16137 
L 358.473951 223.16137 
L 358.920798 221.307688 
L 359.367645 221.307688 
L 359.814491 219.458335 
L 360.261338 219.458335 
L 360.708185 217.613419 
L 361.155032 217.613419 
L 361.601879 215.773052 
L 362.495572 215.773052 
L 362.942419 213.937341 
L 363.389266 213.937341 
L 363.836113 212.106398 
L 364.28296 212.106398 
L 364.729807 210.28033 
L 365.176654 210.28033 
L 365.6235 208.459248 
L 366.070347 208.459248 
L 366.517194 206.64326 
L 366.964041 206.64326 
L 367.410888 204.832474 
L 367.857735 204.832474 
L 368.304581 203.026999 
L 369.198275 203.026999 
L 369.645122 201.226942 
L 370.091969 201.226942 
L 370.538816 199.432411 
L 370.985663 199.432411 
L 371.432509 197.643513 
L 371.879356 197.643513 
L 372.326203 195.860355 
L 372.77305 195.860355 
L 373.219897 194.083043 
L 373.666744 194.083043 
L 374.11359 192.311684 
L 374.560437 192.311684 
L 375.007284 190.546382 
L 375.900978 190.546382 
L 376.347825 188.787244 
L 376.794672 188.787244 
L 377.241518 187.034373 
L 377.688365 187.034373 
L 378.135212 185.287877 
L 378.582059 185.287877 
L 379.028906 183.547858 
L 379.475753 183.547858 
L 379.922599 181.814421 
L 380.369446 181.814421 
L 380.816293 180.087668 
L 381.26314 180.087668 
L 381.709987 178.367702 
L 382.603681 178.367702 
L 383.050527 176.654626 
L 383.497374 176.654626 
L 383.944221 174.948541 
L 384.391068 174.948541 
L 384.837915 173.249548 
L 385.284762 173.249548 
L 385.731608 171.557746 
L 386.178455 171.557746 
L 386.625302 169.873237 
L 387.072149 169.873237 
L 387.518996 168.196119 
L 387.965843 168.196119 
L 388.41269 166.52649 
L 389.306383 166.52649 
L 389.75323 164.864449 
L 390.200077 164.864449 
L 390.646924 163.210093 
L 391.093771 163.210093 
L 391.540617 161.563518 
L 391.987464 161.563518 
L 392.434311 159.924822 
L 392.881158 159.924822 
L 393.328005 158.2941 
L 393.774852 158.2941 
L 394.221699 156.671445 
L 394.668545 156.671445 
L 395.115392 155.056953 
L 396.009086 155.056953 
L 396.455933 153.450716 
L 396.90278 153.450716 
L 397.349626 151.852827 
L 397.796473 151.852827 
L 398.24332 150.263377 
L 398.690167 150.263377 
L 399.137014 148.682458 
L 399.583861 148.682458 
L 400.030708 147.110159 
L 400.477554 147.110159 
L 400.924401 145.546569 
L 401.371248 145.546569 
L 401.818095 143.991778 
L 402.711789 143.991778 
L 403.158635 142.445872 
L 403.605482 142.445872 
L 404.052329 140.908938 
L 404.499176 140.908938 
L 404.946023 139.381063 
L 405.39287 139.381063 
L 405.839717 137.862332 
L 406.286563 137.862332 
L 406.73341 136.352829 
L 407.180257 136.352829 
L 407.627104 134.852638 
L 408.073951 134.852638 
L 408.520798 133.36184 
L 409.414491 133.36184 
L 409.861338 131.880519 
L 410.308185 131.880519 
L 410.755032 130.408753 
L 411.201879 130.408753 
L 411.648726 128.946624 
L 412.095572 128.946624 
L 412.542419 127.494209 
L 412.989266 127.494209 
L 413.436113 126.051586 
L 413.88296 126.051586 
L 414.329807 124.618833 
L 414.776654 124.618833 
L 415.2235 123.196025 
L 416.117194 123.196025 
L 416.564041 121.783236 
L 417.010888 121.783236 
L 417.457735 120.380542 
L 417.904581 120.380542 
L 418.351428 118.988014 
L 418.798275 118.988014 
L 419.245122 117.605724 
L 419.691969 117.605724 
L 420.138816 116.233745 
L 420.585663 116.233745 
L 421.032509 114.872145 
L 421.479356 114.872145 
L 421.926203 113.520993 
L 422.819897 113.520993 
L 423.266744 112.180358 
L 423.71359 112.180358 
L 424.160437 110.850305 
L 424.607284 110.850305 
L 425.054131 109.530902 
L 425.500978 109.530902 
L 425.947825 108.222211 
L 426.394672 108.222211 
L 426.841518 106.924297 
L 427.288365 106.924297 
L 427.735212 105.637222 
L 428.182059 105.637222 
L 428.628906 104.361048 
L 429.522599 104.361048 
L 429.969446 103.095834 
L 430.416293 103.095834 
L 430.86314 101.841641 
L 431.309987 101.841641 
L 431.756834 100.598525 
L 432.203681 100.598525 
L 432.650527 99.366544 
L 433.097374 99.366544 
L 433.544221 98.145754 
L 433.991068 98.145754 
L 434.437915 96.93621 
L 434.884762 96.93621 
L 435.331608 95.737965 
L 435.778455 95.737965 
L 436.225302 94.551073 
L 437.118996 94.551073 
L 437.565843 93.375583 
L 438.01269 93.375583 
L 438.459536 92.211547 
L 438.906383 92.211547 
L 439.35323 91.059014 
L 439.800077 91.059014 
L 440.246924 89.918032 
L 440.693771 89.918032 
L 441.140617 88.788647 
L 441.587464 88.788647 
L 442.034311 87.670905 
L 442.481158 87.670905 
L 442.928005 86.564851 
L 443.821699 86.564851 
L 444.268545 85.470528 
L 444.715392 85.470528 
L 445.162239 84.387979 
L 445.609086 84.387979 
L 446.055933 83.317244 
L 446.50278 83.317244 
L 446.949626 82.258363 
L 447.396473 82.258363 
L 447.84332 81.211375 
L 448.290167 81.211375 
L 448.737014 80.176318 
L 449.183861 80.176318 
L 449.630708 79.153229 
L 450.524401 79.153229 
L 450.971248 78.142142 
L 451.418095 78.142142 
L 451.864942 77.143092 
L 452.311789 77.143092 
L 452.758635 76.156112 
L 453.205482 76.156112 
L 453.652329 75.181234 
L 454.099176 75.181234 
L 454.546023 74.218488 
L 454.99287 74.218488 
L 455.439717 73.267904 
L 455.886563 73.267904 
L 456.33341 72.32951 
L 457.227104 72.32951 
L 457.673951 71.403334 
L 458.120798 71.403334 
L 458.567645 70.489402 
L 459.014491 70.489402 
L 459.461338 69.587737 
L 459.908185 69.587737 
L 460.355032 68.698366 
L 460.801879 68.698366 
L 461.248726 67.821309 
L 461.695572 67.821309 
L 462.142419 66.956589 
L 462.589266 66.956589 
L 463.036113 66.104225 
L 463.929807 66.104225 
L 464.376654 65.264238 
L 464.8235 65.264238 
L 465.270347 64.436644 
L 465.717194 64.436644 
L 466.164041 63.621462 
L 466.610888 63.621462 
L 467.057735 62.818707 
L 467.504581 62.818707 
L 467.951428 62.028393 
L 468.398275 62.028393 
L 468.845122 61.250534 
L 469.291969 61.250534 
L 469.738816 60.485143 
L 470.632509 60.485143 
L 471.079356 59.732232 
L 471.526203 59.732232 
L 471.97305 58.991809 
L 472.419897 58.991809 
L 472.866744 58.263885 
L 473.31359 58.263885 
L 473.760437 57.548468 
L 474.207284 57.548468 
L 474.654131 56.845564 
L 475.100978 56.845564 
L 475.547825 56.155179 
L 475.994672 56.155179 
L 476.441518 55.477319 
L 477.335212 55.477319 
L 477.782059 54.811986 
L 478.228906 54.811986 
L 478.675753 54.159183 
L 479.122599 54.159183 
L 479.569446 53.518913 
L 480.016293 53.518913 
L 480.46314 52.891175 
L 480.909987 52.891175 
L 481.356834 52.275969 
L 481.803681 52.275969 
L 482.250527 51.673294 
L 482.697374 51.673294 
L 483.144221 51.083146 
L 484.037915 51.083146 
L 484.484762 50.505523 
L 484.931608 50.505523 
L 485.378455 49.94042 
L 485.825302 49.94042 
L 486.272149 49.38783 
L 486.718996 49.38783 
L 487.165843 48.847748 
L 487.61269 48.847748 
L 488.059536 48.320165 
L 488.506383 48.320165 
L 488.95323 47.805073 
L 489.400077 47.805073 
L 489.846924 47.302462 
L 490.740617 47.302462 
L 491.187464 46.812321 
L 491.634311 46.812321 
L 492.081158 46.334638 
L 492.528005 46.334638 
L 492.974852 45.869402 
L 493.421699 45.869402 
L 493.868545 45.416597 
L 494.315392 45.416597 
L 494.762239 44.976211 
L 495.209086 44.976211 
L 495.655933 44.548227 
L 496.10278 44.548227 
L 496.549626 44.13263 
L 497.44332 44.13263 
L 497.890167 43.729401 
L 498.337014 43.729401 
L 498.783861 43.338523 
L 499.230708 43.338523 
L 499.677554 42.959977 
L 500.124401 42.959977 
L 500.571248 42.593743 
L 501.018095 42.593743 
L 501.464942 42.2398 
L 501.911789 42.2398 
L 502.358635 41.898126 
L 502.805482 41.898126 
L 503.252329 41.568699 
L 504.146023 41.568699 
L 504.59287 41.251495 
L 505.039717 41.251495 
L 505.486563 40.946491 
L 505.93341 40.946491 
L 506.380257 40.653659 
L 506.827104 40.653659 
L 507.273951 40.372975 
L 507.720798 40.372975 
L 508.167645 40.104411 
L 508.614491 40.104411 
L 509.061338 39.847939 
L 509.508185 39.847939 
L 509.955032 39.603531 
L 510.848726 39.603531 
L 511.295572 39.371158 
L 511.742419 39.371158 
L 512.189266 39.15079 
L 512.636113 39.15079 
L 513.08296 38.942395 
L 513.529807 38.942395 
L 513.976654 38.745943 
L 514.4235 38.745943 
L 514.870347 38.561401 
L 515.317194 38.561401 
L 515.764041 38.388736 
L 516.210888 38.388736 
L 516.657735 38.227914 
L 517.104581 38.227914 
L 517.551428 38.078901 
L 518.445122 38.078901 
L 518.891969 37.941661 
L 519.338816 37.941661 
L 519.785663 37.81616 
L 520.232509 37.81616 
L 521.126203 37.702359 
L 522.466744 37.509714 
L 522.466744 37.509714 
" style="fill:none;stroke:#c20a1f;stroke-linecap:round;stroke-width:5;"/>
   </g>
   <g id="line2d_24">
    <path clip-path="url(#p7e62a3a776)" d="M 76.066744 275.934225 
L 522.466744 275.934225 
" style="fill:none;stroke:#000000;stroke-dasharray:18.5,8;stroke-dashoffset:0;stroke-width:5;"/>
   </g>
   <g id="patch_3">
    <path d="M 76.066744 296.955168 
L 76.066744 25.155168 
" style="fill:none;stroke:#cccccc;stroke-linecap:square;stroke-linejoin:miter;"/>
   </g>
   <g id="patch_4">
    <path d="M 522.466744 296.955168 
L 522.466744 25.155168 
" style="fill:none;stroke:#cccccc;stroke-linecap:square;stroke-linejoin:miter;"/>
   </g>
   <g id="patch_5">
    <path d="M 76.066744 296.955168 
L 522.466744 296.955168 
" style="fill:none;stroke:#cccccc;stroke-linecap:square;stroke-linejoin:miter;"/>
   </g>
   <g id="patch_6">
    <path d="M 76.066744 25.155168 
L 522.466744 25.155168 
" style="fill:none;stroke:#cccccc;stroke-linecap:square;stroke-linejoin:miter;"/>
   </g>
   <g id="text_14">
    <!-- Difference in $I_{max}$: intensive time-limited intervention vs. continuous control -->
    <defs>
     <path d="M 8.90625 69 
L 8.90625 0 
L 33.5 0 
C 49.90625 0 62.5 15.3125 62.5 33.90625 
C 62.5 53.09375 49.90625 69 33.5 69 
z
M 17.09375 5.578125 
L 17.09375 63.421875 
L 31.296875 63.421875 
C 44.703125 63.421875 54.296875 51.203125 54.296875 33.90625 
C 54.296875 17.296875 44.796875 5.578125 31.296875 5.578125 
z
" id="CMSS17-68"/>
     <path d="M 26 19 
L 26 24.765625 
L 1 24.765625 
L 1 19 
z
" id="CMSS17-45"/>
     <path d="M 17 7.96875 
L 9 7.96875 
L 9 0 
L 17 0 
z
" id="CMSS17-46"/>
    </defs>
    <g style="fill:#262626;" transform="translate(40.083446 19.155168)scale(0.1728 -0.1728)">
     <use transform="translate(0 14.943915)scale(0.996264)" xlink:href="#CMSS17-68"/>
     <use transform="translate(67.542842 14.943915)scale(0.996264)" xlink:href="#CMSS17-105"/>
     <use transform="translate(89.723565 14.943915)scale(0.996264)" xlink:href="#CMSS17-11"/>
     <use transform="translate(144.374535 14.943915)scale(0.996264)" xlink:href="#CMSS17-101"/>
     <use transform="translate(186.013357 14.943915)scale(0.996264)" xlink:href="#CMSS17-114"/>
     <use transform="translate(217.923129 14.943915)scale(0.996264)" xlink:href="#CMSS17-101"/>
     <use transform="translate(259.561952 14.943915)scale(0.996264)" xlink:href="#CMSS17-110"/>
     <use transform="translate(307.766895 14.943915)scale(0.996264)" xlink:href="#CMSS17-99"/>
     <use transform="translate(349.405717 14.943915)scale(0.996264)" xlink:href="#CMSS17-101"/>
     <use transform="translate(422.273652 14.943915)scale(0.996264)" xlink:href="#CMSS17-105"/>
     <use transform="translate(444.454375 14.943915)scale(0.996264)" xlink:href="#CMSS17-110"/>
     <use transform="translate(523.88843 14.943915)scale(0.996264)" xlink:href="#CMMI12-73"/>
     <use transform="translate(566.912606 0)scale(0.697382)" xlink:href="#CMMI12-109"/>
     <use transform="translate(626.641397 0)scale(0.697382)" xlink:href="#CMMI12-97"/>
     <use transform="translate(662.486744 0)scale(0.697382)" xlink:href="#CMMI12-120"/>
     <use transform="translate(701.788535 14.943915)scale(0.996264)" xlink:href="#CMSS17-58"/>
     <use transform="translate(769.451547 14.943915)scale(0.996264)" xlink:href="#CMSS17-105"/>
     <use transform="translate(791.63227 14.943915)scale(0.996264)" xlink:href="#CMSS17-110"/>
     <use transform="translate(839.837213 14.943915)scale(0.996264)" xlink:href="#CMSS17-116"/>
     <use transform="translate(873.66878 14.943915)scale(0.996264)" xlink:href="#CMSS17-101"/>
     <use transform="translate(915.307602 14.943915)scale(0.996264)" xlink:href="#CMSS17-110"/>
     <use transform="translate(963.512545 14.943915)scale(0.996264)" xlink:href="#CMSS17-115"/>
     <use transform="translate(999.426087 14.943915)scale(0.996264)" xlink:href="#CMSS17-105"/>
     <use transform="translate(1021.60681 14.943915)scale(0.996264)" xlink:href="#CMSS17-118"/>
     <use transform="translate(1064.606952 14.943915)scale(0.996264)" xlink:href="#CMSS17-101"/>
     <use transform="translate(1137.474887 14.943915)scale(0.996264)" xlink:href="#CMSS17-116"/>
     <use transform="translate(1171.306453 14.943915)scale(0.996264)" xlink:href="#CMSS17-105"/>
     <use transform="translate(1193.487176 14.943915)scale(0.996264)" xlink:href="#CMSS17-109"/>
     <use transform="translate(1267.716431 14.943915)scale(0.996264)" xlink:href="#CMSS17-101"/>
     <use transform="translate(1309.355253 14.943915)scale(0.996264)" xlink:href="#CMSS17-45"/>
     <use transform="translate(1340.584366 14.943915)scale(0.996264)" xlink:href="#CMSS17-108"/>
     <use transform="translate(1362.765089 14.943915)scale(0.996264)" xlink:href="#CMSS17-105"/>
     <use transform="translate(1384.945812 14.943915)scale(0.996264)" xlink:href="#CMSS17-109"/>
     <use transform="translate(1459.175066 14.943915)scale(0.996264)" xlink:href="#CMSS17-105"/>
     <use transform="translate(1481.355789 14.943915)scale(0.996264)" xlink:href="#CMSS17-116"/>
     <use transform="translate(1515.187356 14.943915)scale(0.996264)" xlink:href="#CMSS17-101"/>
     <use transform="translate(1556.826178 14.943915)scale(0.996264)" xlink:href="#CMSS17-100"/>
     <use transform="translate(1636.260234 14.943915)scale(0.996264)" xlink:href="#CMSS17-105"/>
     <use transform="translate(1658.440957 14.943915)scale(0.996264)" xlink:href="#CMSS17-110"/>
     <use transform="translate(1706.6459 14.943915)scale(0.996264)" xlink:href="#CMSS17-116"/>
     <use transform="translate(1740.477467 14.943915)scale(0.996264)" xlink:href="#CMSS17-101"/>
     <use transform="translate(1782.116289 14.943915)scale(0.996264)" xlink:href="#CMSS17-114"/>
     <use transform="translate(1814.026061 14.943915)scale(0.996264)" xlink:href="#CMSS17-118"/>
     <use transform="translate(1857.026203 14.943915)scale(0.996264)" xlink:href="#CMSS17-101"/>
     <use transform="translate(1898.665025 14.943915)scale(0.996264)" xlink:href="#CMSS17-110"/>
     <use transform="translate(1946.869968 14.943915)scale(0.996264)" xlink:href="#CMSS17-116"/>
     <use transform="translate(1980.701535 14.943915)scale(0.996264)" xlink:href="#CMSS17-105"/>
     <use transform="translate(2002.882258 14.943915)scale(0.996264)" xlink:href="#CMSS17-111"/>
     <use transform="translate(2049.725881 14.943915)scale(0.996264)" xlink:href="#CMSS17-110"/>
     <use transform="translate(2129.159937 14.943915)scale(0.996264)" xlink:href="#CMSS17-118"/>
     <use transform="translate(2172.160079 14.943915)scale(0.996264)" xlink:href="#CMSS17-115"/>
     <use transform="translate(2208.073621 14.943915)scale(0.996264)" xlink:href="#CMSS17-46"/>
     <use transform="translate(2275.736633 14.943915)scale(0.996264)" xlink:href="#CMSS17-99"/>
     <use transform="translate(2317.375455 14.943915)scale(0.996264)" xlink:href="#CMSS17-111"/>
     <use transform="translate(2364.219078 14.943915)scale(0.996264)" xlink:href="#CMSS17-110"/>
     <use transform="translate(2412.424021 14.943915)scale(0.996264)" xlink:href="#CMSS17-116"/>
     <use transform="translate(2446.255588 14.943915)scale(0.996264)" xlink:href="#CMSS17-105"/>
     <use transform="translate(2468.436311 14.943915)scale(0.996264)" xlink:href="#CMSS17-110"/>
     <use transform="translate(2516.641254 14.943915)scale(0.996264)" xlink:href="#CMSS17-117"/>
     <use transform="translate(2564.846197 14.943915)scale(0.996264)" xlink:href="#CMSS17-111"/>
     <use transform="translate(2611.689821 14.943915)scale(0.996264)" xlink:href="#CMSS17-117"/>
     <use transform="translate(2659.894764 14.943915)scale(0.996264)" xlink:href="#CMSS17-115"/>
     <use transform="translate(2727.037419 14.943915)scale(0.996264)" xlink:href="#CMSS17-99"/>
     <use transform="translate(2768.676241 14.943915)scale(0.996264)" xlink:href="#CMSS17-111"/>
     <use transform="translate(2815.519864 14.943915)scale(0.996264)" xlink:href="#CMSS17-110"/>
     <use transform="translate(2863.724808 14.943915)scale(0.996264)" xlink:href="#CMSS17-116"/>
     <use transform="translate(2897.556374 14.943915)scale(0.996264)" xlink:href="#CMSS17-114"/>
     <use transform="translate(2929.466147 14.943915)scale(0.996264)" xlink:href="#CMSS17-111"/>
     <use transform="translate(2976.30977 14.943915)scale(0.996264)" xlink:href="#CMSS17-108"/>
    </g>
   </g>
  </g>
 </g>
 <defs>
  <clipPath id="p7e62a3a776">
   <rect height="271.8" width="446.4" x="76.066744" y="25.155168"/>
  </clipPath>
 </defs>
</svg>
