<?xml version="1.0" encoding="utf-8" standalone="no"?>
<!DOCTYPE svg PUBLIC "-//W3C//DTD SVG 1.1//EN"
  "http://www.w3.org/Graphics/SVG/1.1/DTD/svg11.dtd">
<!-- Created with matplotlib (https://matplotlib.org/) -->
<svg height="398.504402pt" version="1.1" viewBox="0 0 625.453813 398.504402" width="625.453813pt" xmlns="http://www.w3.org/2000/svg" xmlns:xlink="http://www.w3.org/1999/xlink">
 <defs>
  <style type="text/css">
*{stroke-linecap:butt;stroke-linejoin:round;}
  </style>
 </defs>
 <g id="figure_1">
  <g id="patch_1">
   <path d="M 0 398.504402 
L 625.453813 398.504402 
L 625.453813 0 
L 0 0 
z
" style="fill:#ffffff;"/>
  </g>
  <g id="axes_1">
   <g id="patch_2">
    <path d="M 60.253813 351.315168 
L 618.253813 351.315168 
L 618.253813 25.155168 
L 60.253813 25.155168 
z
" style="fill:#ffffff;"/>
   </g>
   <g id="matplotlib.axis_1">
    <g id="xtick_1">
     <g id="line2d_1">
      <path clip-path="url(#p071bac2b4d)" d="M 85.617449 351.315168 
L 85.617449 25.155168 
" style="fill:none;stroke:#cccccc;stroke-linecap:round;stroke-width:0.8;"/>
     </g>
     <g id="line2d_2"/>
     <g id="text_1">
      <!-- $0$ -->
      <defs>
       <path d="M 42 31.640625 
C 42 37.75 41.90625 48.125 37.703125 56.109375 
C 34 63.109375 28.09375 65.59375 22.90625 65.59375 
C 18.09375 65.59375 12 63.40625 8.203125 56.203125 
C 4.203125 48.71875 3.796875 39.4375 3.796875 31.640625 
C 3.796875 25.953125 3.90625 17.28125 7 9.671875 
C 11.296875 -0.609375 19 -2 22.90625 -2 
C 27.5 -2 34.5 -0.109375 38.59375 9.375 
C 41.59375 16.28125 42 24.359375 42 31.640625 
z
M 22.90625 -0.40625 
C 16.5 -0.40625 12.703125 5.078125 11.296875 12.6875 
C 10.203125 18.5625 10.203125 27.15625 10.203125 32.75 
C 10.203125 40.4375 10.203125 46.828125 11.5 52.921875 
C 13.40625 61.390625 19 64 22.90625 64 
C 27 64 32.296875 61.296875 34.203125 53.125 
C 35.5 47.4375 35.59375 40.734375 35.59375 32.75 
C 35.59375 26.25 35.59375 18.265625 34.40625 12.375 
C 32.296875 1.484375 26.40625 -0.40625 22.90625 -0.40625 
z
" id="CMR17-48"/>
      </defs>
      <g style="fill:#262626;" transform="translate(81.669797 366.770336)scale(0.1728 -0.1728)">
       <use transform="scale(0.996264)" xlink:href="#CMR17-48"/>
      </g>
     </g>
    </g>
    <g id="xtick_2">
     <g id="line2d_3">
      <path clip-path="url(#p071bac2b4d)" d="M 170.162904 351.315168 
L 170.162904 25.155168 
" style="fill:none;stroke:#cccccc;stroke-linecap:round;stroke-width:0.8;"/>
     </g>
     <g id="line2d_4"/>
     <g id="text_2">
      <!-- $50$ -->
      <defs>
       <path d="M 11.40625 57.6875 
C 12.40625 57.28125 16.5 56 20.703125 56 
C 30 56 35.09375 61.109375 38 64.0625 
C 38 64.953125 38 65.5 37.40625 65.5 
C 37.296875 65.5 37.09375 65.5 36.296875 65.046875 
C 32.796875 63.40625 28.703125 62.078125 23.703125 62.078125 
C 20.703125 62.078125 16.203125 62.484375 11.296875 64.671875 
C 10.203125 65.171875 10 65.171875 9.90625 65.171875 
C 9.40625 65.171875 9.296875 65.0625 9.296875 63.078125 
L 9.296875 34.421875 
C 9.296875 32.640625 9.296875 32.140625 10.296875 32.140625 
C 10.796875 32.140625 11 32.34375 11.5 33.03125 
C 14.703125 37.515625 19.09375 39.40625 24.09375 39.40625 
C 27.59375 39.40625 35.09375 37.21875 35.09375 20.140625 
C 35.09375 16.953125 35.09375 11.171875 32.09375 6.578125 
C 29.59375 2.484375 25.703125 0.390625 21.40625 0.390625 
C 14.796875 0.390625 8.09375 5 6.296875 12.71875 
C 6.703125 12.609375 7.5 12.421875 7.90625 12.421875 
C 9.203125 12.421875 11.703125 13.125 11.703125 16.21875 
C 11.703125 18.90625 9.796875 20 7.90625 20 
C 5.59375 20 4.09375 18.59375 4.09375 15.796875 
C 4.09375 7.09375 11 -2 21.59375 -2 
C 31.90625 -2 41.703125 6.875 41.703125 19.75 
C 41.703125 31.71875 33.90625 41 24.203125 41 
C 19.09375 41 14.796875 39.109375 11.40625 35.53125 
z
" id="CMR17-53"/>
      </defs>
      <g style="fill:#262626;" transform="translate(162.2676 366.770336)scale(0.1728 -0.1728)">
       <use transform="scale(0.996264)" xlink:href="#CMR17-53"/>
       <use transform="translate(45.690477 0)scale(0.996264)" xlink:href="#CMR17-48"/>
      </g>
     </g>
    </g>
    <g id="xtick_3">
     <g id="line2d_5">
      <path clip-path="url(#p071bac2b4d)" d="M 254.708359 351.315168 
L 254.708359 25.155168 
" style="fill:none;stroke:#cccccc;stroke-linecap:round;stroke-width:0.8;"/>
     </g>
     <g id="line2d_6"/>
     <g id="text_3">
      <!-- $100$ -->
      <defs>
       <path d="M 26.59375 63.40625 
C 26.59375 65.5 26.5 65.5 25.09375 65.5 
C 21.203125 61.1875 15.296875 59.796875 9.703125 59.796875 
C 9.40625 59.796875 8.90625 59.796875 8.796875 59.5 
C 8.703125 59.296875 8.703125 59.09375 8.703125 57 
C 11.796875 57 17 57.59375 21 59.984375 
L 21 7.203125 
C 21 3.6875 20.796875 2.5 12.203125 2.5 
L 9.203125 2.5 
L 9.203125 0 
C 14 0 19 0 23.796875 0 
C 28.59375 0 33.59375 0 38.40625 0 
L 38.40625 2.5 
L 35.40625 2.5 
C 26.796875 2.5 26.59375 3.59375 26.59375 7.15625 
z
" id="CMR17-49"/>
      </defs>
      <g style="fill:#262626;" transform="translate(242.865402 366.770336)scale(0.1728 -0.1728)">
       <use transform="scale(0.996264)" xlink:href="#CMR17-49"/>
       <use transform="translate(45.690477 0)scale(0.996264)" xlink:href="#CMR17-48"/>
       <use transform="translate(91.380954 0)scale(0.996264)" xlink:href="#CMR17-48"/>
      </g>
     </g>
    </g>
    <g id="xtick_4">
     <g id="line2d_7">
      <path clip-path="url(#p071bac2b4d)" d="M 339.253813 351.315168 
L 339.253813 25.155168 
" style="fill:none;stroke:#cccccc;stroke-linecap:round;stroke-width:0.8;"/>
     </g>
     <g id="line2d_8"/>
     <g id="text_4">
      <!-- $150$ -->
      <g style="fill:#262626;" transform="translate(327.410857 366.770336)scale(0.1728 -0.1728)">
       <use transform="scale(0.996264)" xlink:href="#CMR17-49"/>
       <use transform="translate(45.690477 0)scale(0.996264)" xlink:href="#CMR17-53"/>
       <use transform="translate(91.380954 0)scale(0.996264)" xlink:href="#CMR17-48"/>
      </g>
     </g>
    </g>
    <g id="xtick_5">
     <g id="line2d_9">
      <path clip-path="url(#p071bac2b4d)" d="M 423.799268 351.315168 
L 423.799268 25.155168 
" style="fill:none;stroke:#cccccc;stroke-linecap:round;stroke-width:0.8;"/>
     </g>
     <g id="line2d_10"/>
     <g id="text_5">
      <!-- $200$ -->
      <defs>
       <path d="M 41.703125 15.453125 
L 39.90625 15.453125 
C 38.90625 8.375 38.09375 7.171875 37.703125 6.5625 
C 37.203125 5.765625 30 5.765625 28.59375 5.765625 
L 9.40625 5.765625 
C 13 9.671875 20 16.75 28.5 24.953125 
C 34.59375 30.734375 41.703125 37.53125 41.703125 47.421875 
C 41.703125 59.21875 32.296875 66 21.796875 66 
C 10.796875 66 4.09375 56.3125 4.09375 47.34375 
C 4.09375 43.4375 7 42.9375 8.203125 42.9375 
C 9.203125 42.9375 12.203125 43.546875 12.203125 47.03125 
C 12.203125 50.109375 9.59375 51 8.203125 51 
C 7.59375 51 7 50.90625 6.59375 50.703125 
C 8.5 59.21875 14.296875 63.40625 20.40625 63.40625 
C 29.09375 63.40625 34.796875 56.515625 34.796875 47.421875 
C 34.796875 38.734375 29.703125 31.25 24 24.75 
L 4.09375 2.28125 
L 4.09375 0 
L 39.296875 0 
z
" id="CMR17-50"/>
      </defs>
      <g style="fill:#262626;" transform="translate(411.956311 366.770336)scale(0.1728 -0.1728)">
       <use transform="scale(0.996264)" xlink:href="#CMR17-50"/>
       <use transform="translate(45.690477 0)scale(0.996264)" xlink:href="#CMR17-48"/>
       <use transform="translate(91.380954 0)scale(0.996264)" xlink:href="#CMR17-48"/>
      </g>
     </g>
    </g>
    <g id="xtick_6">
     <g id="line2d_11">
      <path clip-path="url(#p071bac2b4d)" d="M 508.344722 351.315168 
L 508.344722 25.155168 
" style="fill:none;stroke:#cccccc;stroke-linecap:round;stroke-width:0.8;"/>
     </g>
     <g id="line2d_12"/>
     <g id="text_6">
      <!-- $250$ -->
      <g style="fill:#262626;" transform="translate(496.501766 366.770336)scale(0.1728 -0.1728)">
       <use transform="scale(0.996264)" xlink:href="#CMR17-50"/>
       <use transform="translate(45.690477 0)scale(0.996264)" xlink:href="#CMR17-53"/>
       <use transform="translate(91.380954 0)scale(0.996264)" xlink:href="#CMR17-48"/>
      </g>
     </g>
    </g>
    <g id="xtick_7">
     <g id="line2d_13">
      <path clip-path="url(#p071bac2b4d)" d="M 592.890177 351.315168 
L 592.890177 25.155168 
" style="fill:none;stroke:#cccccc;stroke-linecap:round;stroke-width:0.8;"/>
     </g>
     <g id="line2d_14"/>
     <g id="text_7">
      <!-- $300$ -->
      <defs>
       <path d="M 22.09375 33.703125 
C 31 33.703125 34.90625 25.96875 34.90625 17.03125 
C 34.90625 5 28.5 0.390625 22.703125 0.390625 
C 17.40625 0.390625 8.796875 3.03125 6.09375 10.828125 
C 6.59375 10.625 7.09375 10.625 7.59375 10.625 
C 10 10.625 11.796875 12.21875 11.796875 14.8125 
C 11.796875 17.703125 9.59375 19 7.59375 19 
C 5.90625 19 3.296875 18.203125 3.296875 14.46875 
C 3.296875 5.234375 12.296875 -2 22.90625 -2 
C 34 -2 42.5 6.71875 42.5 16.953125 
C 42.5 26.671875 34.5 33.703125 25 34.796875 
C 32.59375 36.375 39.90625 43.0625 39.90625 52.015625 
C 39.90625 59.6875 32 65.296875 23 65.296875 
C 13.90625 65.296875 5.90625 59.828125 5.90625 52.015625 
C 5.90625 48.59375 8.5 48 9.796875 48 
C 11.90625 48 13.703125 49.296875 13.703125 51.890625 
C 13.703125 54.46875 11.90625 55.765625 9.796875 55.765625 
C 9.40625 55.765625 8.90625 55.765625 8.5 55.578125 
C 11.40625 61.859375 19.296875 63 22.796875 63 
C 26.296875 63 32.90625 61.328125 32.90625 51.875 
C 32.90625 49.109375 32.5 44.1875 29.09375 39.84375 
C 26.09375 36 22.703125 36 19.40625 35.6875 
C 18.90625 35.6875 16.59375 35.453125 16.203125 35.453125 
C 15.5 35.359375 15.09375 35.265625 15.09375 34.5 
C 15.09375 33.796875 15.203125 33.703125 17.203125 33.703125 
z
" id="CMR17-51"/>
      </defs>
      <g style="fill:#262626;" transform="translate(581.047221 366.770336)scale(0.1728 -0.1728)">
       <use transform="scale(0.996264)" xlink:href="#CMR17-51"/>
       <use transform="translate(45.690477 0)scale(0.996264)" xlink:href="#CMR17-48"/>
       <use transform="translate(91.380954 0)scale(0.996264)" xlink:href="#CMR17-48"/>
      </g>
     </g>
    </g>
    <g id="text_8">
     <!-- time (days) -->
     <defs>
      <path d="M 16.703125 37 
L 29.703125 37 
L 29.703125 42.765625 
L 16.703125 42.765625 
L 16.703125 55 
L 9.59375 55 
L 9.59375 42.765625 
L 1.703125 42.765625 
L 1.703125 37 
L 9.40625 37 
L 9.40625 11.703125 
C 9.40625 6 10.703125 -1 17.296875 -1 
C 22.296875 -1 26.90625 0.390625 31.296875 2.6875 
L 29.703125 8.5625 
C 27.296875 6.46875 24.40625 5.265625 21.296875 5.265625 
C 16.90625 5.265625 16.703125 10.875 16.703125 13.375 
z
" id="CMSS17-116"/>
      <path d="M 15.296875 65.359375 
L 6.90625 65.359375 
L 6.90625 57 
L 15.296875 57 
z
M 14.796875 42.796875 
L 7.40625 42.796875 
L 7.40625 0 
L 14.796875 0 
z
" id="CMSS17-105"/>
      <path d="M 67 29.328125 
C 67 36.0625 65.296875 44 54.09375 44 
C 46.59375 44 42.09375 39.3125 40.09375 36.421875 
C 38.296875 41.71875 34.09375 44 28.09375 44 
C 21.296875 44 17 40.125 14.703125 37.328125 
L 14.703125 43.09375 
L 7.40625 43.09375 
L 7.40625 0 
L 15 0 
L 15 24.359375 
C 15 30.296875 17.203125 37.9375 24.296875 37.9375 
C 33.40625 37.9375 33.40625 31.5 33.40625 28.578125 
L 33.40625 0 
L 41 0 
L 41 24.359375 
C 41 30.296875 43.203125 37.9375 50.296875 37.9375 
C 59.40625 37.9375 59.40625 31.5 59.40625 28.578125 
L 59.40625 0 
L 67 0 
z
" id="CMSS17-109"/>
      <path d="M 39.09375 21.515625 
C 39.09375 24.84375 38.90625 31.296875 35.703125 36.640625 
C 32.203125 42.390625 26.5 44 22.203125 44 
C 11.796875 44 3 34.1875 3 21.484375 
C 3 9.09375 12.09375 -1 23.59375 -1 
C 28.09375 -1 33.59375 0.296875 38.59375 3.875 
C 38.59375 4.28125 38.40625 6.46875 38.296875 6.5625 
C 38.296875 6.765625 38 9.84375 38 10.25 
C 33.203125 6.359375 27.703125 5.078125 23.703125 5.078125 
C 17.296875 5.078125 10.40625 10.421875 10.09375 21.515625 
z
M 10.90625 27 
C 12.203125 32.5625 16.59375 37.828125 22.203125 37.828125 
C 23.703125 37.828125 30.703125 37.828125 32.5 27 
z
" id="CMSS17-101"/>
      <path d="M 25.203125 74.5 
C 19.796875 69.015625 7.40625 56.265625 7.40625 24.8125 
C 7.40625 -6.765625 19.796875 -19.421875 25.203125 -25 
L 31.296875 -25 
C 19 -12.25 15 5.578125 15 24.703125 
C 15 43.71875 18.796875 61.65625 31.296875 74.5 
z
" id="CMSS17-40"/>
      <path d="M 40.796875 69 
L 33.40625 69 
L 33.40625 38.09375 
C 30.296875 40.671875 25.203125 43.0625 19.59375 43.0625 
C 10.5 43.0625 3.296875 33.296875 3.296875 21.046875 
C 3.296875 8.78125 10.40625 -1 19.296875 -1 
C 26.203125 -1 30.796875 2.6875 33.203125 4.78125 
L 33.203125 -0.203125 
L 40.796875 -0.203125 
z
M 33.203125 13.0625 
C 33.203125 11.671875 33.203125 10.203125 30.09375 7.53125 
C 28.09375 5.859375 25.703125 5.078125 23.40625 5.078125 
C 18 5.078125 10.90625 9 10.90625 20.9375 
C 10.90625 33.34375 18.90625 37 24.40625 37 
C 28.09375 37 31.09375 35.21875 33.203125 32.265625 
z
" id="CMSS17-100"/>
      <path d="M 37.59375 27.984375 
C 37.59375 37.375 30.90625 43.875 21.90625 43.875 
C 17.5 43.875 12.703125 43.078125 7.203125 39.890625 
L 7.796875 33.359375 
C 10.296875 35.125 14.59375 38 21.796875 38 
C 26.90625 38 30 34.0625 30 27.84375 
L 30 24 
C 14 24 4 19.34375 4 11.34375 
C 4 7.203125 6.5 -1 14.796875 -1 
C 16.296875 -1 24.40625 -1 30.203125 3.390625 
L 30.203125 -0.296875 
L 37.59375 -0.296875 
z
M 30 12.75 
C 30 10.953125 30 8.5625 27 6.78125 
C 24.40625 5.078125 21.09375 5.078125 19.703125 5.078125 
C 14.703125 5.078125 11.296875 7.984375 11.296875 11.625 
C 11.296875 18.921875 26.90625 18.921875 30 18.921875 
z
" id="CMSS17-97"/>
      <path d="M 41.796875 43 
L 34 43 
C 25.5 20.21875 22.59375 10.96875 22.40625 5.984375 
L 22.296875 5.984375 
C 22 10.875 17.59375 22.8125 14.09375 31.359375 
L 9.40625 43 
L 1.296875 43 
L 19 0.203125 
C 17.90625 -2.78125 16.296875 -7.265625 15.796875 -8.265625 
C 13.59375 -13.828125 12.09375 -13.828125 10.5 -13.828125 
C 10.09375 -13.828125 6.90625 -13.828125 3.296875 -12.640625 
L 3.90625 -19.203125 
C 6.40625 -19.703125 8.90625 -20 10.703125 -20 
C 13.203125 -20 18.203125 -20 22.796875 -7.765625 
z
" id="CMSS17-121"/>
      <path d="M 32.203125 41.046875 
C 26.296875 43.859375 21.703125 43.859375 18.703125 43.859375 
C 11.59375 43.859375 3.09375 41.375 3.09375 31.296875 
C 3.09375 21.234375 14.09375 19.03125 17.09375 18.421875 
C 21.703125 17.53125 26.796875 16.53125 26.796875 11.5625 
C 26.796875 5.265625 19.59375 5.265625 18.296875 5.265625 
C 14.296875 5.265625 8.796875 6.359375 3.796875 9.96875 
L 2.59375 3.28125 
C 8.296875 0 13.796875 -1 18.40625 -1 
C 30.703125 -1 33.796875 6.5 33.796875 12.203125 
C 33.796875 17.09375 31 20.390625 29.09375 21.890625 
C 25.796875 24.5 24.59375 24.796875 16.40625 26.5 
C 15 26.703125 10.09375 27.796875 10.09375 32.28125 
C 10.09375 38 16.40625 38 17.796875 38 
C 24.296875 38 28.296875 35.984375 31 34.5 
z
" id="CMSS17-115"/>
      <path d="M 11.296875 -25 
C 16.703125 -19.515625 29.09375 -6.765625 29.09375 24.703125 
C 29.09375 56.265625 16.703125 68.921875 11.296875 74.5 
L 5.203125 74.5 
C 17.5 61.75 21.5 43.921875 21.5 24.8125 
C 21.5 5.78125 17.703125 -12.15625 5.203125 -25 
z
" id="CMSS17-41"/>
     </defs>
     <g style="fill:#262626;" transform="translate(300.769961 387.014946)scale(0.1728 -0.1728)">
      <use transform="scale(0.996264)" xlink:href="#CMSS17-116"/>
      <use transform="translate(33.831567 0)scale(0.996264)" xlink:href="#CMSS17-105"/>
      <use transform="translate(56.01229 0)scale(0.996264)" xlink:href="#CMSS17-109"/>
      <use transform="translate(130.241544 0)scale(0.996264)" xlink:href="#CMSS17-101"/>
      <use transform="translate(203.109479 0)scale(0.996264)" xlink:href="#CMSS17-40"/>
      <use transform="translate(239.543393 0)scale(0.996264)" xlink:href="#CMSS17-100"/>
      <use transform="translate(287.748336 0)scale(0.996264)" xlink:href="#CMSS17-97"/>
      <use transform="translate(330.067803 0)scale(0.996264)" xlink:href="#CMSS17-121"/>
      <use transform="translate(373.067945 0)scale(0.996264)" xlink:href="#CMSS17-115"/>
      <use transform="translate(408.981487 0)scale(0.996264)" xlink:href="#CMSS17-41"/>
     </g>
    </g>
   </g>
   <g id="matplotlib.axis_2">
    <g id="ytick_1">
     <g id="line2d_15">
      <path clip-path="url(#p071bac2b4d)" d="M 60.253813 336.4907 
L 618.253813 336.4907 
" style="fill:none;stroke:#cccccc;stroke-linecap:round;stroke-width:0.8;"/>
     </g>
     <g id="line2d_16"/>
     <g id="text_9">
      <!-- $0.00$ -->
      <defs>
       <path d="M 18.40625 4.796875 
C 18.40625 7.6875 16 9.671875 13.59375 9.671875 
C 10.703125 9.671875 8.703125 7.28125 8.703125 4.890625 
C 8.703125 2 11.09375 0 13.5 0 
C 16.40625 0 18.40625 2.390625 18.40625 4.796875 
z
" id="CMMI12-58"/>
      </defs>
      <g style="fill:#262626;" transform="translate(28.385524 342.468284)scale(0.1728 -0.1728)">
       <use transform="scale(0.996264)" xlink:href="#CMR17-48"/>
       <use transform="translate(45.690477 0)scale(0.996264)" xlink:href="#CMMI12-58"/>
       <use transform="translate(72.787654 0)scale(0.996264)" xlink:href="#CMR17-48"/>
       <use transform="translate(118.478131 0)scale(0.996264)" xlink:href="#CMR17-48"/>
      </g>
     </g>
    </g>
    <g id="ytick_2">
     <g id="line2d_17">
      <path clip-path="url(#p071bac2b4d)" d="M 60.253813 287.148421 
L 618.253813 287.148421 
" style="fill:none;stroke:#cccccc;stroke-linecap:round;stroke-width:0.8;"/>
     </g>
     <g id="line2d_18"/>
     <g id="text_10">
      <!-- $0.05$ -->
      <g style="fill:#262626;" transform="translate(28.385524 293.126005)scale(0.1728 -0.1728)">
       <use transform="scale(0.996264)" xlink:href="#CMR17-48"/>
       <use transform="translate(45.690477 0)scale(0.996264)" xlink:href="#CMMI12-58"/>
       <use transform="translate(72.787654 0)scale(0.996264)" xlink:href="#CMR17-48"/>
       <use transform="translate(118.478131 0)scale(0.996264)" xlink:href="#CMR17-53"/>
      </g>
     </g>
    </g>
    <g id="ytick_3">
     <g id="line2d_19">
      <path clip-path="url(#p071bac2b4d)" d="M 60.253813 237.806142 
L 618.253813 237.806142 
" style="fill:none;stroke:#cccccc;stroke-linecap:round;stroke-width:0.8;"/>
     </g>
     <g id="line2d_20"/>
     <g id="text_11">
      <!-- $0.10$ -->
      <g style="fill:#262626;" transform="translate(28.385524 243.783726)scale(0.1728 -0.1728)">
       <use transform="scale(0.996264)" xlink:href="#CMR17-48"/>
       <use transform="translate(45.690477 0)scale(0.996264)" xlink:href="#CMMI12-58"/>
       <use transform="translate(72.787654 0)scale(0.996264)" xlink:href="#CMR17-49"/>
       <use transform="translate(118.478131 0)scale(0.996264)" xlink:href="#CMR17-48"/>
      </g>
     </g>
    </g>
    <g id="ytick_4">
     <g id="line2d_21">
      <path clip-path="url(#p071bac2b4d)" d="M 60.253813 188.463863 
L 618.253813 188.463863 
" style="fill:none;stroke:#cccccc;stroke-linecap:round;stroke-width:0.8;"/>
     </g>
     <g id="line2d_22"/>
     <g id="text_12">
      <!-- $0.15$ -->
      <g style="fill:#262626;" transform="translate(28.385524 194.441447)scale(0.1728 -0.1728)">
       <use transform="scale(0.996264)" xlink:href="#CMR17-48"/>
       <use transform="translate(45.690477 0)scale(0.996264)" xlink:href="#CMMI12-58"/>
       <use transform="translate(72.787654 0)scale(0.996264)" xlink:href="#CMR17-49"/>
       <use transform="translate(118.478131 0)scale(0.996264)" xlink:href="#CMR17-53"/>
      </g>
     </g>
    </g>
    <g id="ytick_5">
     <g id="line2d_23">
      <path clip-path="url(#p071bac2b4d)" d="M 60.253813 139.121584 
L 618.253813 139.121584 
" style="fill:none;stroke:#cccccc;stroke-linecap:round;stroke-width:0.8;"/>
     </g>
     <g id="line2d_24"/>
     <g id="text_13">
      <!-- $0.20$ -->
      <g style="fill:#262626;" transform="translate(28.385524 145.099168)scale(0.1728 -0.1728)">
       <use transform="scale(0.996264)" xlink:href="#CMR17-48"/>
       <use transform="translate(45.690477 0)scale(0.996264)" xlink:href="#CMMI12-58"/>
       <use transform="translate(72.787654 0)scale(0.996264)" xlink:href="#CMR17-50"/>
       <use transform="translate(118.478131 0)scale(0.996264)" xlink:href="#CMR17-48"/>
      </g>
     </g>
    </g>
    <g id="ytick_6">
     <g id="line2d_25">
      <path clip-path="url(#p071bac2b4d)" d="M 60.253813 89.779305 
L 618.253813 89.779305 
" style="fill:none;stroke:#cccccc;stroke-linecap:round;stroke-width:0.8;"/>
     </g>
     <g id="line2d_26"/>
     <g id="text_14">
      <!-- $0.25$ -->
      <g style="fill:#262626;" transform="translate(28.385524 95.756889)scale(0.1728 -0.1728)">
       <use transform="scale(0.996264)" xlink:href="#CMR17-48"/>
       <use transform="translate(45.690477 0)scale(0.996264)" xlink:href="#CMMI12-58"/>
       <use transform="translate(72.787654 0)scale(0.996264)" xlink:href="#CMR17-50"/>
       <use transform="translate(118.478131 0)scale(0.996264)" xlink:href="#CMR17-53"/>
      </g>
     </g>
    </g>
    <g id="ytick_7">
     <g id="line2d_27">
      <path clip-path="url(#p071bac2b4d)" d="M 60.253813 40.437026 
L 618.253813 40.437026 
" style="fill:none;stroke:#cccccc;stroke-linecap:round;stroke-width:0.8;"/>
     </g>
     <g id="line2d_28"/>
     <g id="text_15">
      <!-- $0.30$ -->
      <g style="fill:#262626;" transform="translate(28.385524 46.41461)scale(0.1728 -0.1728)">
       <use transform="scale(0.996264)" xlink:href="#CMR17-48"/>
       <use transform="translate(45.690477 0)scale(0.996264)" xlink:href="#CMMI12-58"/>
       <use transform="translate(72.787654 0)scale(0.996264)" xlink:href="#CMR17-51"/>
       <use transform="translate(118.478131 0)scale(0.996264)" xlink:href="#CMR17-48"/>
      </g>
     </g>
    </g>
    <g id="text_16">
     <!-- fraction of population infected ($I(t)$) -->
     <defs>
      <path d="M 16.796875 37 
L 26.90625 37 
L 26.90625 42.765625 
L 16.59375 42.765625 
L 16.59375 55.609375 
C 16.59375 62.71875 22 63.9375 25.09375 63.9375 
C 26.09375 63.9375 28.90625 63.9375 32.5 62.640625 
L 32.5 69.203125 
C 30.203125 69.703125 27.40625 70 25.203125 70 
C 15.90625 70 9.40625 62.390625 9.40625 52.484375 
L 9.40625 42.765625 
L 2.5 42.765625 
L 2.5 37 
L 9.40625 37 
L 9.40625 0 
L 16.796875 0 
z
" id="CMSS17-102"/>
      <path d="M 14.90625 21.296875 
C 14.90625 30.703125 21.796875 37 30.59375 37 
L 30.59375 43.578125 
C 24.203125 43.578125 18.203125 40.390625 14.59375 35.203125 
L 14.59375 43.09375 
L 7.5 43.09375 
L 7.5 0 
L 14.90625 0 
z
" id="CMSS17-114"/>
      <path d="M 38.5 39.703125 
C 38.5 40.390625 33.90625 42.40625 32.703125 42.796875 
C 29.40625 44 25.203125 44 24.09375 44 
C 11.09375 44 3.296875 32.703125 3.296875 21.296875 
C 3.296875 9.296875 12 -1 23.703125 -1 
C 30.40625 -1 35.203125 1.1875 39.09375 3.78125 
L 38.5 10.375 
C 34.203125 7.078125 29.203125 5.265625 23.796875 5.265625 
C 16 5.265625 10.90625 12.09375 10.90625 21.390625 
C 10.90625 28.609375 14.203125 37.71875 24.203125 37.71875 
C 29.703125 37.71875 32.796875 36.609375 37.40625 33.515625 
z
" id="CMSS17-99"/>
      <path d="M 44.203125 21.1875 
C 44.203125 34 34.703125 44 23.5 44 
C 12 44 2.703125 33.703125 2.703125 21.1875 
C 2.703125 8.5 12.296875 -1 23.40625 -1 
C 34.796875 -1 44.203125 8.796875 44.203125 21.1875 
z
M 23.5 5.265625 
C 16.40625 5.265625 10.296875 11.078125 10.296875 22 
C 10.296875 33.609375 17.40625 37.921875 23.40625 37.921875 
C 29.90625 37.921875 36.59375 33.21875 36.59375 22 
C 36.59375 10.671875 30.09375 5.265625 23.5 5.265625 
z
" id="CMSS17-111"/>
      <path d="M 40.90625 29.328125 
C 40.90625 35.671875 39.40625 44 28.09375 44 
C 21.703125 44 17.5 40.71875 14.703125 37.328125 
L 14.703125 43.09375 
L 7.40625 43.09375 
L 7.40625 0 
L 15 0 
L 15 24.359375 
C 15 30.6875 17.40625 37.9375 24.203125 37.9375 
C 33 37.9375 33.296875 32 33.296875 28.578125 
L 33.296875 0 
L 40.90625 0 
z
" id="CMSS17-110"/>
      <path d="M 15.09375 5.203125 
C 18.40625 2.015625 22.90625 -0.078125 27.703125 -0.078125 
C 37 -0.078125 45 9.421875 45 22.0625 
C 45 33.734375 39 44 30.40625 44 
C 25.40625 44 19.40625 42.21875 14.90625 38.625 
L 14.90625 43.203125 
L 7.5 43.203125 
L 7.5 -19 
L 15.09375 -19 
z
M 15.09375 32.8125 
C 15.90625 34 19.296875 37.734375 24.796875 37.734375 
C 31.796875 37.734375 37.40625 30.625 37.40625 22.0625 
C 37.40625 12.296875 30.59375 6 23.90625 6 
C 21.90625 6 19.796875 6.484375 17.796875 8.171875 
C 15.09375 10.53125 15.09375 12 15.09375 13.390625 
z
" id="CMSS17-112"/>
      <path d="M 40.90625 42.796875 
L 33.296875 42.796875 
L 33.296875 15.1875 
C 33.296875 7.78125 27.90625 4.78125 22.203125 4.78125 
C 15.59375 4.78125 15 6.984375 15 11.078125 
L 15 42.796875 
L 7.40625 42.796875 
L 7.40625 10.59375 
C 7.40625 2.796875 10.09375 -1 17 -1 
C 20.40625 -1 28.09375 -0.203125 33.5 4.78125 
L 33.5 0 
L 40.90625 0 
z
" id="CMSS17-117"/>
      <path d="M 14.796875 69 
L 7.40625 69 
L 7.40625 0 
L 14.796875 0 
z
" id="CMSS17-108"/>
      <path d="M 36.796875 60.625 
C 37.703125 64.109375 37.90625 65.109375 45.203125 65.109375 
C 47.40625 65.109375 48.203125 65.109375 48.203125 67 
C 48.203125 68 47.09375 68 46.796875 68 
C 45 68 42.796875 68 41 68 
L 28.703125 68 
C 26.703125 68 24.40625 68 22.40625 68 
C 21.59375 68 20.5 68 20.5 66.109375 
C 20.5 65.109375 21.296875 65.109375 23.296875 65.109375 
C 29.5 65.109375 29.5 64.3125 29.5 63.21875 
C 29.5 62.53125 29.296875 61.921875 29.09375 61.03125 
L 15.59375 7.375 
C 14.703125 3.890625 14.5 2.890625 7.203125 2.890625 
C 5 2.890625 4.09375 2.890625 4.09375 1 
C 4.09375 0 5.09375 0 5.59375 0 
C 7.40625 0 9.59375 0 11.40625 0 
L 23.703125 0 
C 25.703125 0 27.90625 0 29.90625 0 
C 30.703125 0 31.90625 0 31.90625 1.796875 
C 31.90625 2.890625 31.296875 2.890625 29.09375 2.890625 
C 22.90625 2.890625 22.90625 3.6875 22.90625 4.875 
C 22.90625 5.078125 22.90625 5.578125 23.296875 7.171875 
z
" id="CMMI12-73"/>
      <path d="M 30.59375 -24.390625 
C 30.59375 -24.296875 30.59375 -24.09375 30.296875 -23.796875 
C 25.703125 -19.125 13.40625 -6.359375 13.40625 24.703125 
C 13.40625 55.765625 25.5 68.421875 30.40625 73.390625 
C 30.40625 73.5 30.59375 73.703125 30.59375 74 
C 30.59375 74.296875 30.296875 74.5 29.90625 74.5 
C 28.796875 74.5 20.296875 67.125 15.40625 56.15625 
C 10.40625 45.109375 9 34.359375 9 24.8125 
C 9 17.625 9.703125 5.484375 15.703125 -7.359375 
C 20.5 -17.734375 28.703125 -25 29.90625 -25 
C 30.40625 -25 30.59375 -24.796875 30.59375 -24.390625 
z
" id="CMR17-40"/>
      <path d="M 20.09375 40.09375 
L 29.296875 40.09375 
C 31.203125 40.09375 32.203125 40.09375 32.203125 41.890625 
C 32.203125 43 31.59375 43 29.59375 43 
L 20.796875 43 
L 24.5 57.6875 
C 24.90625 59.078125 24.90625 59.28125 24.90625 60 
C 24.90625 61.609375 23.59375 62.5 22.296875 62.5 
C 21.5 62.5 19.203125 62.203125 18.40625 58.984375 
L 14.5 43 
L 5.09375 43 
C 3.09375 43 2.203125 43 2.203125 41.09375 
C 2.203125 40.09375 2.90625 40.09375 4.796875 40.09375 
L 13.703125 40.09375 
L 7.09375 13.765625 
C 6.296875 10.28125 6 9.28125 6 7.984375 
C 6 3.296875 9.296875 -1 14.90625 -1 
C 25 -1 30.40625 13.5625 30.40625 14.25 
C 30.40625 14.859375 30 15.15625 29.40625 15.15625 
C 29.203125 15.15625 28.796875 15.15625 28.59375 14.75 
C 28.5 14.65625 28.40625 14.546875 27.703125 12.953125 
C 25.59375 7.984375 21 1 15.203125 1 
C 12.203125 1 12 3.5 12 5.6875 
C 12 5.78125 12 7.6875 12.296875 8.875 
z
" id="CMMI12-116"/>
      <path d="M 26.296875 24.703125 
C 26.296875 31.875 25.59375 44.015625 19.59375 56.859375 
C 14.796875 67.234375 6.59375 74.5 5.40625 74.5 
C 5.09375 74.5 4.703125 74.390625 4.703125 73.890625 
C 4.703125 73.703125 4.796875 73.59375 4.90625 73.390625 
C 9.703125 68.40625 21.90625 55.75 21.90625 24.75 
C 21.90625 -6.359375 9.796875 -19.015625 4.90625 -24.015625 
C 4.796875 -24.203125 4.703125 -24.3125 4.703125 -24.5 
C 4.703125 -25 5.09375 -25 5.40625 -25 
C 6.5 -25 15 -17.625 19.90625 -6.65625 
C 24.90625 4.390625 26.296875 15.140625 26.296875 24.703125 
z
" id="CMR17-41"/>
     </defs>
     <g style="fill:#262626;" transform="translate(20.096067 313.190733)rotate(-90)scale(0.1728 -0.1728)">
      <use transform="scale(0.996264)" xlink:href="#CMSS17-102"/>
      <use transform="translate(28.626659 0)scale(0.996264)" xlink:href="#CMSS17-114"/>
      <use transform="translate(60.536431 0)scale(0.996264)" xlink:href="#CMSS17-97"/>
      <use transform="translate(105.458352 0)scale(0.996264)" xlink:href="#CMSS17-99"/>
      <use transform="translate(147.097174 0)scale(0.996264)" xlink:href="#CMSS17-116"/>
      <use transform="translate(180.928741 0)scale(0.996264)" xlink:href="#CMSS17-105"/>
      <use transform="translate(203.109464 0)scale(0.996264)" xlink:href="#CMSS17-111"/>
      <use transform="translate(249.953087 0)scale(0.996264)" xlink:href="#CMSS17-110"/>
      <use transform="translate(329.387143 0)scale(0.996264)" xlink:href="#CMSS17-111"/>
      <use transform="translate(376.230767 0)scale(0.996264)" xlink:href="#CMSS17-102"/>
      <use transform="translate(436.086538 0)scale(0.996264)" xlink:href="#CMSS17-112"/>
      <use transform="translate(486.89392 0)scale(0.996264)" xlink:href="#CMSS17-111"/>
      <use transform="translate(533.737544 0)scale(0.996264)" xlink:href="#CMSS17-112"/>
      <use transform="translate(581.942487 0)scale(0.996264)" xlink:href="#CMSS17-117"/>
      <use transform="translate(630.14743 0)scale(0.996264)" xlink:href="#CMSS17-108"/>
      <use transform="translate(652.328153 0)scale(0.996264)" xlink:href="#CMSS17-97"/>
      <use transform="translate(697.250074 0)scale(0.996264)" xlink:href="#CMSS17-116"/>
      <use transform="translate(731.08164 0)scale(0.996264)" xlink:href="#CMSS17-105"/>
      <use transform="translate(753.262363 0)scale(0.996264)" xlink:href="#CMSS17-111"/>
      <use transform="translate(800.105987 0)scale(0.996264)" xlink:href="#CMSS17-110"/>
      <use transform="translate(879.540043 0)scale(0.996264)" xlink:href="#CMSS17-105"/>
      <use transform="translate(901.720766 0)scale(0.996264)" xlink:href="#CMSS17-110"/>
      <use transform="translate(949.925709 0)scale(0.996264)" xlink:href="#CMSS17-102"/>
      <use transform="translate(978.552368 0)scale(0.996264)" xlink:href="#CMSS17-101"/>
      <use transform="translate(1020.19119 0)scale(0.996264)" xlink:href="#CMSS17-99"/>
      <use transform="translate(1061.830012 0)scale(0.996264)" xlink:href="#CMSS17-116"/>
      <use transform="translate(1095.661579 0)scale(0.996264)" xlink:href="#CMSS17-101"/>
      <use transform="translate(1137.300401 0)scale(0.996264)" xlink:href="#CMSS17-100"/>
      <use transform="translate(1216.734456 0)scale(0.996264)" xlink:href="#CMSS17-40"/>
      <use transform="translate(1253.168371 0)scale(0.996264)" xlink:href="#CMMI12-73"/>
      <use transform="translate(1304.024885 0)scale(0.996264)" xlink:href="#CMR17-40"/>
      <use transform="translate(1339.305653 0)scale(0.996264)" xlink:href="#CMMI12-116"/>
      <use transform="translate(1374.531983 0)scale(0.996264)" xlink:href="#CMR17-41"/>
      <use transform="translate(1409.812751 0)scale(0.996264)" xlink:href="#CMSS17-41"/>
     </g>
    </g>
   </g>
   <g id="line2d_29">
    <path clip-path="url(#p071bac2b4d)" d="M 85.617449 336.489714 
L 142.037461 336.373896 
L 155.330665 336.131739 
L 163.550127 335.772422 
L 169.537142 335.300837 
L 174.30646 334.712798 
L 178.263979 334.010892 
L 181.714123 333.178021 
L 184.758369 332.215898 
L 187.498189 331.116155 
L 189.933585 329.906792 
L 192.267507 328.497941 
L 194.398478 326.955674 
L 196.427975 325.218262 
L 198.355997 323.284422 
L 200.284019 321.03096 
L 202.110566 318.557516 
L 203.937113 315.708053 
L 205.763661 312.432177 
L 207.590208 308.674992 
L 209.416755 304.377578 
L 211.243302 299.477709 
L 213.069849 293.911066 
L 214.896396 287.613003 
L 216.722943 280.520945 
L 218.650965 272.110258 
L 220.578987 262.694838 
L 222.608484 251.656097 
L 224.739456 238.804422 
L 227.073377 223.282465 
L 229.610248 204.837068 
L 232.654493 180.950398 
L 238.540034 132.409504 
L 241.888704 105.975501 
L 244.222625 89.203973 
L 246.252122 76.194355 
L 247.977194 66.514346 
L 249.499317 59.141893 
L 250.919965 53.312471 
L 252.239137 48.840146 
L 253.355361 45.77397 
L 254.370109 43.558485 
L 255.283383 42.026704 
L 256.196656 40.926578 
L 257.008455 40.30424 
L 257.718779 40.028175 
L 258.429103 39.996667 
L 259.139427 40.203299 
L 259.84975 40.641078 
L 260.661549 41.414779 
L 261.574823 42.619518 
L 262.589571 44.352334 
L 263.705794 46.708256 
L 265.024967 50.053628 
L 266.445615 54.272306 
L 268.069213 59.7843 
L 269.997235 67.145359 
L 272.331156 77.009633 
L 275.172451 90.04929 
L 279.231445 109.830125 
L 289.277454 159.156355 
L 293.234973 177.270975 
L 296.786592 192.518181 
L 300.135262 205.931587 
L 303.280982 217.650875 
L 306.426702 228.515126 
L 309.470947 238.230566 
L 312.413718 246.900793 
L 315.356488 254.892848 
L 318.299259 262.241651 
L 321.242029 268.984599 
L 324.184799 275.1602 
L 327.026095 280.620743 
L 329.968865 285.793197 
L 332.911636 290.510509 
L 335.854406 294.808037 
L 338.797176 298.719371 
L 341.841422 302.392885 
L 344.885667 305.719846 
L 348.031387 308.82607 
L 351.177107 311.626052 
L 354.424302 314.225546 
L 357.772971 316.627097 
L 361.324591 318.896234 
L 364.977685 320.963794 
L 368.833729 322.88636 
L 372.892723 324.656144 
L 377.154666 326.269357 
L 381.721034 327.756401 
L 386.591826 329.106406 
L 391.868518 330.3357 
L 397.652584 331.450373 
L 404.045499 332.449857 
L 411.148738 333.330333 
L 419.16525 334.096288 
L 428.500935 334.757922 
L 439.561693 335.309696 
L 453.057847 335.751062 
L 470.511519 336.086952 
L 494.966956 336.317859 
L 535.252467 336.447984 
L 592.890177 336.48492 
L 592.890177 336.48492 
" style="fill:none;stroke:#000000;stroke-dasharray:18.5,8;stroke-dashoffset:0;stroke-width:5;"/>
   </g>
   <g id="line2d_30">
    <path clip-path="url(#p071bac2b4d)" d="M 85.617449 336.489714 
L 142.037461 336.373896 
L 155.330665 336.131739 
L 163.550127 335.772422 
L 169.537142 335.300837 
L 174.30646 334.712798 
L 178.263979 334.010892 
L 181.714123 333.178021 
L 184.758369 332.215898 
L 187.498189 331.116155 
L 189.933585 329.906792 
L 192.267507 328.497941 
L 194.398478 326.955674 
L 196.427975 325.218262 
L 198.355997 323.284422 
L 200.284019 321.03096 
L 202.110566 318.557516 
L 203.937113 315.708053 
L 205.763661 312.432177 
L 207.590208 308.674992 
L 209.416755 304.377578 
L 211.243302 299.477709 
L 213.069849 293.911066 
L 214.896396 287.613003 
L 216.722943 280.520945 
L 218.650965 272.110258 
L 220.578987 262.694838 
L 222.608484 251.656097 
L 224.739456 238.804422 
L 227.073377 223.282465 
L 229.610248 204.837068 
L 231.74122 189.08645 
L 267.054464 189.08645 
L 269.89576 178.770743 
L 272.331156 170.744996 
L 274.462127 164.47836 
L 276.390149 159.498342 
L 278.115222 155.64496 
L 279.738819 152.565665 
L 281.159467 150.320359 
L 282.47864 148.616763 
L 283.696338 147.371749 
L 284.914036 146.440163 
L 286.030259 145.858872 
L 287.146483 145.534367 
L 288.161231 145.457827 
L 289.277454 145.608055 
L 290.393677 145.996683 
L 291.509901 146.615379 
L 292.727599 147.541942 
L 294.046772 148.827521 
L 295.467419 150.520353 
L 297.091017 152.818147 
L 298.917564 155.824392 
L 300.947061 159.628586 
L 303.179507 164.297769 
L 305.817853 170.352299 
L 308.963573 178.147725 
L 313.225517 189.351655 
L 327.837894 228.2693 
L 332.099837 238.74003 
L 336.057356 247.879219 
L 339.71045 255.774137 
L 343.262069 262.935151 
L 346.712214 269.404119 
L 350.162358 275.400366 
L 353.511028 280.781592 
L 356.859698 285.748041 
L 360.208368 290.319712 
L 363.557037 294.518363 
L 366.905707 298.366689 
L 370.355852 301.989516 
L 373.805996 305.289825 
L 377.357616 308.375977 
L 380.909235 311.171689 
L 384.562329 313.769857 
L 388.316898 316.172975 
L 392.274417 318.44029 
L 396.333411 320.510576 
L 400.595354 322.435547 
L 405.060247 324.209181 
L 409.829565 325.861666 
L 414.903307 327.37996 
L 420.281473 328.756269 
L 426.167014 330.027829 
L 432.559929 331.175334 
L 439.561693 332.201321 
L 447.375256 333.115518 
L 456.203567 333.917214 
L 466.249576 334.601204 
L 478.122132 335.179652 
L 492.53156 335.649657 
L 510.797031 336.011776 
L 535.759842 336.268938 
L 574.72618 336.424056 
L 592.890177 336.45265 
L 592.890177 336.45265 
" style="fill:none;stroke:#c20a1f;stroke-linecap:round;stroke-width:5;"/>
   </g>
   <g id="patch_3">
    <path d="M 60.253813 351.315168 
L 60.253813 25.155168 
" style="fill:none;stroke:#cccccc;stroke-linecap:square;stroke-linejoin:miter;"/>
   </g>
   <g id="patch_4">
    <path d="M 618.253813 351.315168 
L 618.253813 25.155168 
" style="fill:none;stroke:#cccccc;stroke-linecap:square;stroke-linejoin:miter;"/>
   </g>
   <g id="patch_5">
    <path d="M 60.253813 351.315168 
L 618.253813 351.315168 
" style="fill:none;stroke:#cccccc;stroke-linecap:square;stroke-linejoin:miter;"/>
   </g>
   <g id="patch_6">
    <path d="M 60.253813 25.155168 
L 618.253813 25.155168 
" style="fill:none;stroke:#cccccc;stroke-linecap:square;stroke-linejoin:miter;"/>
   </g>
   <g id="text_17">
    <!-- Example of our time-limited intervention -->
    <defs>
     <path d="M 30.59375 6.765625 
C 22.59375 6.765625 19 6.765625 17.203125 6.765625 
L 17.203125 32.921875 
L 48.203125 32.921875 
L 48.203125 39 
L 17.203125 39 
L 17.203125 62.640625 
L 30.09375 62.640625 
C 31.296875 62.640625 32.5 62.640625 33.703125 62.640625 
L 50.796875 62.640625 
L 50.796875 69 
L 8.796875 69 
L 8.796875 0 
L 52.09375 0 
L 52.09375 6.765625 
z
" id="CMSS17-69"/>
     <path d="M 24.796875 22.09375 
L 41.5 42.796875 
L 32.796875 42.796875 
L 21.296875 27.765625 
L 9.40625 42.796875 
L 0.5 42.796875 
L 17.796875 22.09375 
L 0 0 
L 8.796875 0 
L 21.296875 17.515625 
L 34.296875 0 
L 43.09375 0 
z
" id="CMSS17-120"/>
     <path d="M 26 19 
L 26 24.765625 
L 1 24.765625 
L 1 19 
z
" id="CMSS17-45"/>
     <path d="M 41.796875 43 
L 34 43 
L 27.296875 24.3125 
C 25.203125 18.203125 22.203125 9.796875 21.703125 5.5 
L 21.59375 5.5 
C 21.40625 7.3125 20.59375 9.90625 20.09375 11.703125 
C 19.5 13.90625 18.703125 16.5 18.09375 18.3125 
L 9.296875 43 
L 1.296875 43 
L 17.09375 0 
L 26 0 
z
" id="CMSS17-118"/>
    </defs>
    <g style="fill:#262626;" transform="translate(202.168259 19.155168)scale(0.1728 -0.1728)">
     <use transform="scale(0.996264)" xlink:href="#CMSS17-69"/>
     <use transform="translate(55.892013 0)scale(0.996264)" xlink:href="#CMSS17-120"/>
     <use transform="translate(98.892155 0)scale(0.996264)" xlink:href="#CMSS17-97"/>
     <use transform="translate(143.814076 0)scale(0.996264)" xlink:href="#CMSS17-109"/>
     <use transform="translate(218.04333 0)scale(0.996264)" xlink:href="#CMSS17-112"/>
     <use transform="translate(266.248273 0)scale(0.996264)" xlink:href="#CMSS17-108"/>
     <use transform="translate(288.428996 0)scale(0.996264)" xlink:href="#CMSS17-101"/>
     <use transform="translate(361.296931 0)scale(0.996264)" xlink:href="#CMSS17-111"/>
     <use transform="translate(408.140554 0)scale(0.996264)" xlink:href="#CMSS17-102"/>
     <use transform="translate(467.996326 0)scale(0.996264)" xlink:href="#CMSS17-111"/>
     <use transform="translate(514.83995 0)scale(0.996264)" xlink:href="#CMSS17-117"/>
     <use transform="translate(563.044893 0)scale(0.996264)" xlink:href="#CMSS17-114"/>
     <use transform="translate(626.183778 0)scale(0.996264)" xlink:href="#CMSS17-116"/>
     <use transform="translate(660.015345 0)scale(0.996264)" xlink:href="#CMSS17-105"/>
     <use transform="translate(682.196068 0)scale(0.996264)" xlink:href="#CMSS17-109"/>
     <use transform="translate(756.425322 0)scale(0.996264)" xlink:href="#CMSS17-101"/>
     <use transform="translate(798.064144 0)scale(0.996264)" xlink:href="#CMSS17-45"/>
     <use transform="translate(829.293257 0)scale(0.996264)" xlink:href="#CMSS17-108"/>
     <use transform="translate(851.47398 0)scale(0.996264)" xlink:href="#CMSS17-105"/>
     <use transform="translate(873.654703 0)scale(0.996264)" xlink:href="#CMSS17-109"/>
     <use transform="translate(947.883957 0)scale(0.996264)" xlink:href="#CMSS17-105"/>
     <use transform="translate(970.064681 0)scale(0.996264)" xlink:href="#CMSS17-116"/>
     <use transform="translate(1003.896247 0)scale(0.996264)" xlink:href="#CMSS17-101"/>
     <use transform="translate(1045.535069 0)scale(0.996264)" xlink:href="#CMSS17-100"/>
     <use transform="translate(1124.969125 0)scale(0.996264)" xlink:href="#CMSS17-105"/>
     <use transform="translate(1147.149848 0)scale(0.996264)" xlink:href="#CMSS17-110"/>
     <use transform="translate(1195.354791 0)scale(0.996264)" xlink:href="#CMSS17-116"/>
     <use transform="translate(1229.186358 0)scale(0.996264)" xlink:href="#CMSS17-101"/>
     <use transform="translate(1270.82518 0)scale(0.996264)" xlink:href="#CMSS17-114"/>
     <use transform="translate(1302.734953 0)scale(0.996264)" xlink:href="#CMSS17-118"/>
     <use transform="translate(1345.735094 0)scale(0.996264)" xlink:href="#CMSS17-101"/>
     <use transform="translate(1387.373916 0)scale(0.996264)" xlink:href="#CMSS17-110"/>
     <use transform="translate(1435.57886 0)scale(0.996264)" xlink:href="#CMSS17-116"/>
     <use transform="translate(1469.410426 0)scale(0.996264)" xlink:href="#CMSS17-105"/>
     <use transform="translate(1491.591149 0)scale(0.996264)" xlink:href="#CMSS17-111"/>
     <use transform="translate(1538.434773 0)scale(0.996264)" xlink:href="#CMSS17-110"/>
    </g>
   </g>
   <g id="legend_1">
    <g id="patch_7">
     <path d="M 417.855988 76.814222 
L 608.173813 76.814222 
Q 611.053813 76.814222 611.053813 73.934222 
L 611.053813 35.235168 
Q 611.053813 32.355168 608.173813 32.355168 
L 417.855988 32.355168 
Q 414.975988 32.355168 414.975988 35.235168 
L 414.975988 73.934222 
Q 414.975988 76.814222 417.855988 76.814222 
z
" style="fill:#ffffff;stroke:#cccccc;stroke-linejoin:miter;"/>
    </g>
    <g id="line2d_31">
     <path d="M 420.735988 43.155168 
L 449.535988 43.155168 
" style="fill:none;stroke:#000000;stroke-dasharray:18.5,8;stroke-dashoffset:0;stroke-width:5;"/>
    </g>
    <g id="line2d_32"/>
    <g id="text_18">
     <!-- no interention -->
     <g style="fill:#262626;" transform="translate(461.055988 48.195168)scale(0.144 -0.144)">
      <use transform="scale(0.996264)" xlink:href="#CMSS17-110"/>
      <use transform="translate(48.204943 0)scale(0.996264)" xlink:href="#CMSS17-111"/>
      <use transform="translate(126.277679 0)scale(0.996264)" xlink:href="#CMSS17-105"/>
      <use transform="translate(148.458402 0)scale(0.996264)" xlink:href="#CMSS17-110"/>
      <use transform="translate(196.663346 0)scale(0.996264)" xlink:href="#CMSS17-116"/>
      <use transform="translate(230.494912 0)scale(0.996264)" xlink:href="#CMSS17-101"/>
      <use transform="translate(272.133734 0)scale(0.996264)" xlink:href="#CMSS17-114"/>
      <use transform="translate(304.043507 0)scale(0.996264)" xlink:href="#CMSS17-101"/>
      <use transform="translate(345.682329 0)scale(0.996264)" xlink:href="#CMSS17-110"/>
      <use transform="translate(393.887272 0)scale(0.996264)" xlink:href="#CMSS17-116"/>
      <use transform="translate(427.718839 0)scale(0.996264)" xlink:href="#CMSS17-105"/>
      <use transform="translate(449.899562 0)scale(0.996264)" xlink:href="#CMSS17-111"/>
      <use transform="translate(496.743185 0)scale(0.996264)" xlink:href="#CMSS17-110"/>
     </g>
    </g>
    <g id="line2d_33">
     <path d="M 420.735988 63.224695 
L 449.535988 63.224695 
" style="fill:none;stroke:#c20a1f;stroke-linecap:round;stroke-width:5;"/>
    </g>
    <g id="line2d_34"/>
    <g id="text_19">
     <!-- intervention at $I_i = 0.15$ -->
     <defs>
      <path d="M 28.296875 14.265625 
C 28.296875 14.765625 27.90625 15.171875 27.296875 15.171875 
C 26.40625 15.171875 26.296875 14.875 25.796875 13.171875 
C 23.203125 4.09375 19.09375 1 15.796875 1 
C 14.59375 1 13.203125 1.296875 13.203125 4.296875 
C 13.203125 6.984375 14.40625 9.984375 15.5 12.96875 
L 22.5 31.53125 
C 22.796875 32.328125 23.5 34.125 23.5 36.015625 
C 23.5 40.21875 20.5 44 15.59375 44 
C 6.40625 44 2.703125 29.53125 2.703125 28.734375 
C 2.703125 28.34375 3.09375 27.84375 3.796875 27.84375 
C 4.703125 27.84375 4.796875 28.234375 5.203125 29.625 
C 7.59375 37.9375 11.40625 41.90625 15.296875 41.90625 
C 16.203125 41.90625 17.90625 41.90625 17.90625 38.71875 
C 17.90625 36.125 16.59375 32.828125 15.796875 30.640625 
L 8.796875 12.078125 
C 8.203125 10.484375 7.59375 8.875 7.59375 7.078125 
C 7.59375 2.59375 10.703125 -1 15.5 -1 
C 24.703125 -1 28.296875 13.578125 28.296875 14.265625 
z
M 27.5 62.703125 
C 27.5 64.203125 26.296875 66 24.09375 66 
C 21.796875 66 19.203125 63.796875 19.203125 61.203125 
C 19.203125 58.71875 21.296875 57.921875 22.5 57.921875 
C 25.203125 57.921875 27.5 60.515625 27.5 62.703125 
z
" id="CMMI12-105"/>
      <path d="M 64.296875 31.515625 
C 65.796875 31.515625 67.296875 31.515625 67.296875 33.203125 
C 67.296875 35 65.59375 35 63.90625 35 
L 8 35 
C 6.296875 35 4.59375 35 4.59375 33.203125 
C 4.59375 31.515625 6.09375 31.515625 7.59375 31.515625 
z
M 63.90625 14 
C 65.59375 14 67.296875 14 67.296875 15.796875 
C 67.296875 17.484375 65.796875 17.484375 64.296875 17.484375 
L 7.59375 17.484375 
C 6.09375 17.484375 4.59375 17.484375 4.59375 15.796875 
C 4.59375 14 6.296875 14 8 14 
z
" id="CMR17-61"/>
     </defs>
     <g style="fill:#262626;" transform="translate(461.055988 68.264695)scale(0.144 -0.144)">
      <use transform="translate(0 14.943915)scale(0.996264)" xlink:href="#CMSS17-105"/>
      <use transform="translate(22.180723 14.943915)scale(0.996264)" xlink:href="#CMSS17-110"/>
      <use transform="translate(70.385666 14.943915)scale(0.996264)" xlink:href="#CMSS17-116"/>
      <use transform="translate(104.217233 14.943915)scale(0.996264)" xlink:href="#CMSS17-101"/>
      <use transform="translate(145.856055 14.943915)scale(0.996264)" xlink:href="#CMSS17-114"/>
      <use transform="translate(177.765827 14.943915)scale(0.996264)" xlink:href="#CMSS17-118"/>
      <use transform="translate(220.765969 14.943915)scale(0.996264)" xlink:href="#CMSS17-101"/>
      <use transform="translate(262.404791 14.943915)scale(0.996264)" xlink:href="#CMSS17-110"/>
      <use transform="translate(310.609734 14.943915)scale(0.996264)" xlink:href="#CMSS17-116"/>
      <use transform="translate(344.441301 14.943915)scale(0.996264)" xlink:href="#CMSS17-105"/>
      <use transform="translate(366.622024 14.943915)scale(0.996264)" xlink:href="#CMSS17-111"/>
      <use transform="translate(413.465648 14.943915)scale(0.996264)" xlink:href="#CMSS17-110"/>
      <use transform="translate(492.899704 14.943915)scale(0.996264)" xlink:href="#CMSS17-97"/>
      <use transform="translate(537.821624 14.943915)scale(0.996264)" xlink:href="#CMSS17-116"/>
      <use transform="translate(602.882304 14.943915)scale(0.996264)" xlink:href="#CMMI12-73"/>
      <use transform="translate(645.906479 0)scale(0.697382)" xlink:href="#CMMI12-105"/>
      <use transform="translate(697.373527 14.943915)scale(0.996264)" xlink:href="#CMR17-61"/>
      <use transform="translate(796.762324 14.943915)scale(0.996264)" xlink:href="#CMR17-48"/>
      <use transform="translate(842.452802 14.943915)scale(0.996264)" xlink:href="#CMMI12-58"/>
      <use transform="translate(869.549979 14.943915)scale(0.996264)" xlink:href="#CMR17-49"/>
      <use transform="translate(915.240456 14.943915)scale(0.996264)" xlink:href="#CMR17-53"/>
     </g>
    </g>
   </g>
  </g>
 </g>
 <defs>
  <clipPath id="p071bac2b4d">
   <rect height="326.16" width="558" x="60.253813" y="25.155168"/>
  </clipPath>
 </defs>
</svg>
